<svg xmlns:xlink="http://www.w3.org/1999/xlink" xmlns:lucid="lucid" xmlns="http://www.w3.org/2000/svg" width="760"
     height="448.33">
    <g transform="translate(-80 -52.668000000000006)" lucid:page-tab-id="0_0">
        <path d="M0 0h1870.4v1323.2H0z" fill="#282c33"/>
        <path d="M459.64 100c-1.2.12-2.16.36-3.12.84l-41.64 20.52c-2.28 1.08-3.84 3-4.32 5.52l-10.32 46.2c-.48 2.16-.12 4.32 1.08 6.24.12.24.24.36.48.6l28.8 36.96c1.56 2.04 3.72 3.12 6.24 3.12h46.32c2.52 0 4.68-1.08 6.24-3.12l28.8-36.96c1.56-2.04 2.16-4.44 1.56-6.96l-10.32-46.08c-.48-2.52-2.04-4.44-4.32-5.52l-41.64-20.52c-1.32-.6-2.52-.96-3.84-.84z"
              stroke="#fff" stroke-width="0" fill="#326ce5"/>
        <path d="M460 115.72c-1.4 0-2.46 1.24-2.46 2.83V119.35c0 .88.17 1.6.26 2.4.27 1.76.44 3.27.35 4.68-.17.53-.52.98-.88 1.33v1.06c-1.5.18-3 .36-4.57.7-6.42 1.52-12.05 4.97-16.27 9.67-.26-.2-.8-.54-.88-.72-.44.1-.88.26-1.5-.1-1.14-.8-2.1-1.85-3.34-3.18-.6-.62-.95-1.15-1.66-1.77-.17-.18-.35-.35-.53-.44-.5-.46-1.13-.72-1.74-.72-.8 0-1.5.26-2.03.88-.88 1.16-.52 2.84.62 3.8l.1.1c.07.1.34.27.43.36.8.53 1.4.88 2.1 1.24 1.5.97 2.73 1.77 3.7 2.74.44.44.44 1.15.53 1.5l.8.72c-4.3 6.64-6.24 14.88-5.1 23.2l-1.06.36c-.26.35-.6.88-1.05 1.06-1.33.44-2.74.62-4.5.8-.8.08-1.5 0-2.37.17-.18 0-.44.1-.7.2-1.5.34-2.47 1.76-2.12 3.1.28 1.4 1.68 2.2 3.18 1.94 0 0 .1 0 .1-.1.25 0 .52-.08.7-.08.78-.27 1.4-.62 2.2-.9 1.66-.6 2.98-1.14 4.4-1.3.52-.1 1.13.34 1.4.52l1.05-.27c2.55 8.07 7.74 14.54 14.42 18.6l-.44 1.07c.2.45.37 1.07.2 1.5-.45 1.25-1.33 2.67-2.2 4.17-.54.7-.98 1.24-1.42 2.04-.08.18-.17.53-.26.7-.7 1.43-.18 3.02 1.06 3.64 1.23.62 2.72 0 3.43-1.42.1-.17.27-.44.36-.7.35-.8.44-1.5.7-2.3.62-1.7.97-3.55 1.94-4.6.26-.37.6-.46 1.05-.55l.53-1.06c5.8 2.3 12.3 2.83 18.82 1.32 1.4-.35 2.9-.8 4.22-1.33.18.35.53.88.53.97.44.17.97.26 1.32.8.7 1.23 1.14 2.65 1.67 4.33.26.8.44 1.6.8 2.4.08.17.17.44.25.6.7 1.43 2.2 2.14 3.42 1.52 1.24-.62 1.76-2.2 1.06-3.63-.1-.28-.18-.54-.26-.72-.44-.8-.88-1.33-1.32-2.04-.97-1.6-1.76-2.83-2.3-4.16-.17-.62.1-1.06.27-1.5-.17-.1-.35-.7-.44-.98 6.86-4.25 11.97-10.98 14.34-18.7.35 0 .88.2 1.14.2.37-.28.72-.63 1.33-.54 1.4.17 2.73.7 4.4 1.33.8.25 1.4.6 2.2.87.17.1.44.1.7.18h.1c1.5.35 2.9-.53 3.16-1.86.34-1.43-.63-2.85-2.12-3.2-.18 0-.53-.1-.7-.18-.9-.17-1.6-.1-2.38-.17-1.76-.18-3.17-.36-4.5-.8-.52-.18-.87-.8-1.04-1.06l-1.06-.37c.53-3.9.44-7.88-.53-11.95-.88-4.08-2.46-7.9-4.66-11.16.28-.27.8-.7.9-.8.08-.53 0-.98.52-1.5.97-.9 2.2-1.7 3.7-2.66.7-.45 1.3-.7 2.02-1.24.17-.18.44-.36.6-.45 1.16-.97 1.42-2.74.63-3.8-.88-1.16-2.55-1.25-3.78-.27-.2.18-.37.35-.54.44-.7.62-1.06 1.24-1.67 1.86-1.24 1.24-2.2 2.3-3.36 3.1-.52.27-1.23.18-1.5.18l-.96.7c-5.45-5.84-12.75-9.56-20.75-10.36v-1.15c-.36-.26-.8-.53-.88-1.24-.1-1.4.08-2.92.35-4.7.1-.8.26-1.5.26-2.38v-.8c0-1.6-1.05-2.83-2.46-2.83zm-3.17 19.92l-.7 13.56h-.1c0 1.24-.95 2.2-2.2 2.2-.43 0-.87-.17-1.22-.43h-.08l-10.73-7.9c3.34-3.35 7.56-5.74 12.4-6.9.88-.26 1.75-.35 2.63-.53zm6.34 0c5.62.7 10.9 3.37 14.95 7.44l-10.73 7.8c-.98.7-2.3.53-3-.44-.35-.36-.53-.8-.53-1.24zm-25.24 12.5l9.85 9.03-.1.1c.9.78 1.06 2.1.36 3.1-.35.43-.7.6-1.14.78h-.1l-12.48 3.8c-.7-6 .7-11.95 3.6-16.82zm44.06 0c1.48 2.47 2.54 5.13 3.24 8.14.62 2.92.8 5.76.53 8.6l-12.67-3.73v-.1c-1.14-.25-1.84-1.5-1.58-2.64.18-.52.35-.88.7-1.23l9.77-9.04zm-24.02 9.74h4.04l2.47 3.18-.9 4.08-3.6 1.77-3.6-1.76-.9-4.08zm12.93 10.98c.1 0 .27 0 .45.1h.08l12.93 2.2c-1.85 5.5-5.54 10.27-10.38 13.46l-5-12.57c-.45-1.07 0-2.4 1.05-2.93.26-.17.52-.17.88-.26zm-21.9.1c1.06 0 1.94.7 2.12 1.76.17.44.1.97-.1 1.4l-4.92 12.5c-4.74-3.1-8.44-7.7-10.37-13.37l12.84-2.3h.44zm10.9 5.48c.36-.1.72 0 1.07.17.44.28.8.55.96 1h.1l6.33 11.86c-.88.26-1.68.53-2.56.7-4.83 1.16-9.67.8-14.07-.8l6.34-11.77c.35-.72 1.05-1.16 1.84-1.16z"
              stroke="#fff" stroke-width=".05" fill="#fff"/>
        <path d="M359.64 320c-1.2.12-2.16.36-3.12.84l-41.64 20.52c-2.28 1.08-3.84 3-4.32 5.52l-10.32 46.2c-.48 2.16-.12 4.32 1.08 6.24.12.24.24.36.48.6l28.8 36.96c1.56 2.04 3.72 3.12 6.24 3.12h46.32c2.52 0 4.68-1.08 6.24-3.12l28.8-36.96c1.56-2.04 2.16-4.44 1.56-6.96l-10.32-46.08c-.48-2.52-2.04-4.44-4.32-5.52l-41.64-20.52c-1.32-.6-2.52-.96-3.84-.84z"
              stroke="#fff" stroke-width="0" fill="#326ce5"/>
        <path d="M360 335.72c-1.4 0-2.46 1.24-2.46 2.83V339.35c0 .88.17 1.6.26 2.4.27 1.76.44 3.27.35 4.68-.17.53-.52.98-.88 1.33v1.06c-1.5.18-3 .36-4.57.7-6.42 1.52-12.05 4.97-16.27 9.67-.26-.2-.8-.54-.88-.72-.44.1-.88.26-1.5-.1-1.14-.8-2.1-1.85-3.34-3.18-.6-.62-.95-1.15-1.66-1.77-.17-.18-.35-.35-.53-.44-.5-.46-1.13-.72-1.74-.72-.8 0-1.5.26-2.03.88-.88 1.16-.52 2.84.62 3.8l.1.1c.07.1.34.27.43.36.8.53 1.4.88 2.1 1.24 1.5.97 2.73 1.77 3.7 2.74.44.44.44 1.15.53 1.5l.8.72c-4.3 6.64-6.24 14.88-5.1 23.2l-1.06.36c-.26.35-.6.88-1.05 1.06-1.33.44-2.74.62-4.5.8-.8.08-1.5 0-2.37.17-.18 0-.44.1-.7.2-1.5.34-2.47 1.76-2.12 3.1.28 1.4 1.68 2.2 3.18 1.94 0 0 .1 0 .1-.1.25 0 .52-.08.7-.08.78-.27 1.4-.62 2.2-.9 1.66-.6 2.98-1.14 4.4-1.3.52-.1 1.13.34 1.4.52l1.05-.27c2.55 8.07 7.74 14.54 14.42 18.6l-.44 1.07c.2.45.37 1.07.2 1.5-.45 1.25-1.33 2.67-2.2 4.17-.54.7-.98 1.24-1.42 2.04-.08.18-.17.53-.26.7-.7 1.43-.18 3.02 1.06 3.64 1.23.62 2.72 0 3.43-1.42.1-.17.27-.44.36-.7.35-.8.44-1.5.7-2.3.62-1.7.97-3.55 1.94-4.6.26-.37.6-.46 1.05-.55l.53-1.06c5.8 2.3 12.3 2.83 18.82 1.32 1.4-.35 2.9-.8 4.22-1.33.18.35.53.88.53.97.44.17.97.26 1.32.8.7 1.23 1.14 2.65 1.67 4.33.26.8.44 1.6.8 2.4.08.17.17.44.25.6.7 1.43 2.2 2.14 3.42 1.52 1.24-.62 1.76-2.2 1.06-3.63-.1-.28-.18-.54-.26-.72-.44-.8-.88-1.33-1.32-2.04-.97-1.6-1.76-2.83-2.3-4.16-.17-.62.1-1.06.27-1.5-.17-.1-.35-.7-.44-.98 6.86-4.25 11.97-10.98 14.34-18.7.35 0 .88.2 1.14.2.37-.28.72-.63 1.33-.54 1.4.17 2.73.7 4.4 1.33.8.25 1.4.6 2.2.87.17.1.44.1.7.18h.1c1.5.35 2.9-.53 3.16-1.86.34-1.43-.63-2.85-2.12-3.2-.18 0-.53-.1-.7-.18-.9-.17-1.6-.1-2.38-.17-1.76-.18-3.17-.36-4.5-.8-.52-.18-.87-.8-1.04-1.06l-1.06-.37c.53-3.9.44-7.88-.53-11.95-.88-4.08-2.46-7.9-4.66-11.16.28-.27.8-.7.9-.8.08-.53 0-.98.52-1.5.97-.9 2.2-1.7 3.7-2.66.7-.45 1.3-.7 2.02-1.24.17-.18.44-.36.6-.45 1.16-.97 1.42-2.74.63-3.8-.88-1.16-2.55-1.25-3.78-.27-.2.18-.37.35-.54.44-.7.62-1.06 1.24-1.67 1.86-1.24 1.24-2.2 2.3-3.36 3.1-.52.27-1.23.18-1.5.18l-.96.7c-5.45-5.84-12.75-9.56-20.75-10.36v-1.15c-.36-.26-.8-.53-.88-1.24-.1-1.4.08-2.92.35-4.7.1-.8.26-1.5.26-2.38v-.8c0-1.6-1.05-2.83-2.46-2.83zm-3.17 19.92l-.7 13.56h-.1c0 1.24-.95 2.2-2.2 2.2-.43 0-.87-.17-1.22-.43h-.08l-10.73-7.9c3.34-3.35 7.56-5.74 12.4-6.9.88-.26 1.75-.35 2.63-.53zm6.34 0c5.62.7 10.9 3.37 14.95 7.44l-10.73 7.8c-.98.7-2.3.53-3-.44-.35-.36-.53-.8-.53-1.24zm-25.24 12.5l9.85 9.03-.1.1c.9.78 1.06 2.1.36 3.1-.35.43-.7.6-1.14.78h-.1l-12.48 3.8c-.7-6 .7-11.95 3.6-16.82zm44.06 0c1.48 2.47 2.54 5.13 3.24 8.14.62 2.92.8 5.76.53 8.6l-12.67-3.73v-.1c-1.14-.25-1.84-1.5-1.58-2.64.18-.52.35-.88.7-1.23l9.77-9.04zm-24.02 9.74h4.04l2.47 3.18-.9 4.08-3.6 1.77-3.6-1.76-.9-4.08zm12.93 10.98c.1 0 .27 0 .45.1h.08l12.93 2.2c-1.85 5.5-5.54 10.27-10.38 13.46l-5-12.57c-.45-1.07 0-2.4 1.05-2.93.26-.17.52-.17.88-.26zm-21.9.1c1.06 0 1.94.7 2.12 1.76.17.44.1.97-.1 1.4l-4.92 12.5c-4.74-3.1-8.44-7.7-10.37-13.37l12.84-2.3h.44zm10.9 5.48c.36-.1.72 0 1.07.17.44.28.8.55.96 1h.1l6.33 11.86c-.88.26-1.68.53-2.56.7-4.83 1.16-9.67.8-14.07-.8l6.34-11.77c.35-.72 1.05-1.16 1.84-1.16z"
              stroke="#fff" stroke-width=".05" fill="#fff"/>
        <path d="M559.64 320c-1.2.12-2.16.36-3.12.84l-41.64 20.52c-2.28 1.08-3.84 3-4.32 5.52l-10.32 46.2c-.48 2.16-.12 4.32 1.08 6.24.12.24.24.36.48.6l28.8 36.96c1.56 2.04 3.72 3.12 6.24 3.12h46.32c2.52 0 4.68-1.08 6.24-3.12l28.8-36.96c1.56-2.04 2.16-4.44 1.56-6.96l-10.32-46.08c-.48-2.52-2.04-4.44-4.32-5.52l-41.64-20.52c-1.32-.6-2.52-.96-3.84-.84z"
              stroke="#fff" stroke-width="0" fill="#326ce5"/>
        <path d="M560 335.72c-1.4 0-2.46 1.24-2.46 2.83V339.35c0 .88.17 1.6.26 2.4.27 1.76.44 3.27.35 4.68-.17.53-.52.98-.88 1.33v1.06c-1.5.18-3 .36-4.57.7-6.42 1.52-12.05 4.97-16.27 9.67-.26-.2-.8-.54-.88-.72-.44.1-.88.26-1.5-.1-1.14-.8-2.1-1.85-3.34-3.18-.6-.62-.95-1.15-1.66-1.77-.17-.18-.35-.35-.53-.44-.5-.46-1.13-.72-1.74-.72-.8 0-1.5.26-2.03.88-.88 1.16-.52 2.84.62 3.8l.1.1c.07.1.34.27.43.36.8.53 1.4.88 2.1 1.24 1.5.97 2.73 1.77 3.7 2.74.44.44.44 1.15.53 1.5l.8.72c-4.3 6.64-6.24 14.88-5.1 23.2l-1.06.36c-.26.35-.6.88-1.05 1.06-1.33.44-2.74.62-4.5.8-.8.08-1.5 0-2.37.17-.18 0-.44.1-.7.2-1.5.34-2.47 1.76-2.12 3.1.28 1.4 1.68 2.2 3.18 1.94 0 0 .1 0 .1-.1.25 0 .52-.08.7-.08.78-.27 1.4-.62 2.2-.9 1.66-.6 2.98-1.14 4.4-1.3.52-.1 1.13.34 1.4.52l1.05-.27c2.55 8.07 7.74 14.54 14.42 18.6l-.44 1.07c.2.45.37 1.07.2 1.5-.45 1.25-1.33 2.67-2.2 4.17-.54.7-.98 1.24-1.42 2.04-.08.18-.17.53-.26.7-.7 1.43-.18 3.02 1.06 3.64 1.23.62 2.72 0 3.43-1.42.1-.17.27-.44.36-.7.35-.8.44-1.5.7-2.3.62-1.7.97-3.55 1.94-4.6.26-.37.6-.46 1.05-.55l.53-1.06c5.8 2.3 12.3 2.83 18.82 1.32 1.4-.35 2.9-.8 4.22-1.33.18.35.53.88.53.97.44.17.97.26 1.32.8.7 1.23 1.14 2.65 1.67 4.33.26.8.44 1.6.8 2.4.08.17.17.44.25.6.7 1.43 2.2 2.14 3.42 1.52 1.24-.62 1.76-2.2 1.06-3.63-.1-.28-.18-.54-.26-.72-.44-.8-.88-1.33-1.32-2.04-.97-1.6-1.76-2.83-2.3-4.16-.17-.62.1-1.06.27-1.5-.17-.1-.35-.7-.44-.98 6.86-4.25 11.97-10.98 14.34-18.7.35 0 .88.2 1.14.2.37-.28.72-.63 1.33-.54 1.4.17 2.73.7 4.4 1.33.8.25 1.4.6 2.2.87.17.1.44.1.7.18h.1c1.5.35 2.9-.53 3.16-1.86.34-1.43-.63-2.85-2.12-3.2-.18 0-.53-.1-.7-.18-.9-.17-1.6-.1-2.38-.17-1.76-.18-3.17-.36-4.5-.8-.52-.18-.87-.8-1.04-1.06l-1.06-.37c.53-3.9.44-7.88-.53-11.95-.88-4.08-2.46-7.9-4.66-11.16.28-.27.8-.7.9-.8.08-.53 0-.98.52-1.5.97-.9 2.2-1.7 3.7-2.66.7-.45 1.3-.7 2.02-1.24.17-.18.44-.36.6-.45 1.16-.97 1.42-2.74.63-3.8-.88-1.16-2.55-1.25-3.78-.27-.2.18-.37.35-.54.44-.7.62-1.06 1.24-1.67 1.86-1.24 1.24-2.2 2.3-3.36 3.1-.52.27-1.23.18-1.5.18l-.96.7c-5.45-5.84-12.75-9.56-20.75-10.36v-1.15c-.36-.26-.8-.53-.88-1.24-.1-1.4.08-2.92.35-4.7.1-.8.26-1.5.26-2.38v-.8c0-1.6-1.05-2.83-2.46-2.83zm-3.17 19.92l-.7 13.56h-.1c0 1.24-.95 2.2-2.2 2.2-.43 0-.87-.17-1.22-.43h-.08l-10.73-7.9c3.34-3.35 7.56-5.74 12.4-6.9.88-.26 1.75-.35 2.63-.53zm6.34 0c5.62.7 10.9 3.37 14.95 7.44l-10.73 7.8c-.98.7-2.3.53-3-.44-.35-.36-.53-.8-.53-1.24zm-25.24 12.5l9.85 9.03-.1.1c.9.78 1.06 2.1.36 3.1-.35.43-.7.6-1.14.78h-.1l-12.48 3.8c-.7-6 .7-11.95 3.6-16.82zm44.06 0c1.48 2.47 2.54 5.13 3.24 8.14.62 2.92.8 5.76.53 8.6l-12.67-3.73v-.1c-1.14-.25-1.84-1.5-1.58-2.64.18-.52.35-.88.7-1.23l9.77-9.04zm-24.02 9.74h4.04l2.47 3.18-.9 4.08-3.6 1.77-3.6-1.76-.9-4.08zm12.93 10.98c.1 0 .27 0 .45.1h.08l12.93 2.2c-1.85 5.5-5.54 10.27-10.38 13.46l-5-12.57c-.45-1.07 0-2.4 1.05-2.93.26-.17.52-.17.88-.26zm-21.9.1c1.06 0 1.94.7 2.12 1.76.17.44.1.97-.1 1.4l-4.92 12.5c-4.74-3.1-8.44-7.7-10.37-13.37l12.84-2.3h.44zm10.9 5.48c.36-.1.72 0 1.07.17.44.28.8.55.96 1h.1l6.33 11.86c-.88.26-1.68.53-2.56.7-4.83 1.16-9.67.8-14.07-.8l6.34-11.77c.35-.72 1.05-1.16 1.84-1.16z"
              stroke="#fff" stroke-width=".05" fill="#fff"/>
        <path d="M759.64 320c-1.2.12-2.16.36-3.12.84l-41.64 20.52c-2.28 1.08-3.84 3-4.32 5.52l-10.32 46.2c-.48 2.16-.12 4.32 1.08 6.24.12.24.24.36.48.6l28.8 36.96c1.56 2.04 3.72 3.12 6.24 3.12h46.32c2.52 0 4.68-1.08 6.24-3.12l28.8-36.96c1.56-2.04 2.16-4.44 1.56-6.96l-10.32-46.08c-.48-2.52-2.04-4.44-4.32-5.52l-41.64-20.52c-1.32-.6-2.52-.96-3.84-.84z"
              stroke="#fff" stroke-width="0" fill="#326ce5"/>
        <path d="M760 335.72c-1.4 0-2.46 1.24-2.46 2.83V339.35c0 .88.17 1.6.26 2.4.27 1.76.44 3.27.35 4.68-.17.53-.52.98-.88 1.33v1.06c-1.5.18-3 .36-4.57.7-6.42 1.52-12.05 4.97-16.27 9.67-.26-.2-.8-.54-.88-.72-.44.1-.88.26-1.5-.1-1.14-.8-2.1-1.85-3.34-3.18-.6-.62-.95-1.15-1.66-1.77-.17-.18-.35-.35-.53-.44-.5-.46-1.13-.72-1.74-.72-.8 0-1.5.26-2.03.88-.88 1.16-.52 2.84.62 3.8l.1.1c.07.1.34.27.43.36.8.53 1.4.88 2.1 1.24 1.5.97 2.73 1.77 3.7 2.74.44.44.44 1.15.53 1.5l.8.72c-4.3 6.64-6.24 14.88-5.1 23.2l-1.06.36c-.26.35-.6.88-1.05 1.06-1.33.44-2.74.62-4.5.8-.8.08-1.5 0-2.37.17-.18 0-.44.1-.7.2-1.5.34-2.47 1.76-2.12 3.1.28 1.4 1.68 2.2 3.18 1.94 0 0 .1 0 .1-.1.25 0 .52-.08.7-.08.78-.27 1.4-.62 2.2-.9 1.66-.6 2.98-1.14 4.4-1.3.52-.1 1.13.34 1.4.52l1.05-.27c2.55 8.07 7.74 14.54 14.42 18.6l-.44 1.07c.2.45.37 1.07.2 1.5-.45 1.25-1.33 2.67-2.2 4.17-.54.7-.98 1.24-1.42 2.04-.08.18-.17.53-.26.7-.7 1.43-.18 3.02 1.06 3.64 1.23.62 2.72 0 3.43-1.42.1-.17.27-.44.36-.7.35-.8.44-1.5.7-2.3.62-1.7.97-3.55 1.94-4.6.26-.37.6-.46 1.05-.55l.53-1.06c5.8 2.3 12.3 2.83 18.82 1.32 1.4-.35 2.9-.8 4.22-1.33.18.35.53.88.53.97.44.17.97.26 1.32.8.7 1.23 1.14 2.65 1.67 4.33.26.8.44 1.6.8 2.4.08.17.17.44.25.6.7 1.43 2.2 2.14 3.42 1.52 1.24-.62 1.76-2.2 1.06-3.63-.1-.28-.18-.54-.26-.72-.44-.8-.88-1.33-1.32-2.04-.97-1.6-1.76-2.83-2.3-4.16-.17-.62.1-1.06.27-1.5-.17-.1-.35-.7-.44-.98 6.86-4.25 11.97-10.98 14.34-18.7.35 0 .88.2 1.14.2.37-.28.72-.63 1.33-.54 1.4.17 2.73.7 4.4 1.33.8.25 1.4.6 2.2.87.17.1.44.1.7.18h.1c1.5.35 2.9-.53 3.16-1.86.34-1.43-.63-2.85-2.12-3.2-.18 0-.53-.1-.7-.18-.9-.17-1.6-.1-2.38-.17-1.76-.18-3.17-.36-4.5-.8-.52-.18-.87-.8-1.04-1.06l-1.06-.37c.53-3.9.44-7.88-.53-11.95-.88-4.08-2.46-7.9-4.66-11.16.28-.27.8-.7.9-.8.08-.53 0-.98.52-1.5.97-.9 2.2-1.7 3.7-2.66.7-.45 1.3-.7 2.02-1.24.17-.18.44-.36.6-.45 1.16-.97 1.42-2.74.63-3.8-.88-1.16-2.55-1.25-3.78-.27-.2.18-.37.35-.54.44-.7.62-1.06 1.24-1.67 1.86-1.24 1.24-2.2 2.3-3.36 3.1-.52.27-1.23.18-1.5.18l-.96.7c-5.45-5.84-12.75-9.56-20.75-10.36v-1.15c-.36-.26-.8-.53-.88-1.24-.1-1.4.08-2.92.35-4.7.1-.8.26-1.5.26-2.38v-.8c0-1.6-1.05-2.83-2.46-2.83zm-3.17 19.92l-.7 13.56h-.1c0 1.24-.95 2.2-2.2 2.2-.43 0-.87-.17-1.22-.43h-.08l-10.73-7.9c3.34-3.35 7.56-5.74 12.4-6.9.88-.26 1.75-.35 2.63-.53zm6.34 0c5.62.7 10.9 3.37 14.95 7.44l-10.73 7.8c-.98.7-2.3.53-3-.44-.35-.36-.53-.8-.53-1.24zm-25.24 12.5l9.85 9.03-.1.1c.9.78 1.06 2.1.36 3.1-.35.43-.7.6-1.14.78h-.1l-12.48 3.8c-.7-6 .7-11.95 3.6-16.82zm44.06 0c1.48 2.47 2.54 5.13 3.24 8.14.62 2.92.8 5.76.53 8.6l-12.67-3.73v-.1c-1.14-.25-1.84-1.5-1.58-2.64.18-.52.35-.88.7-1.23l9.77-9.04zm-24.02 9.74h4.04l2.47 3.18-.9 4.08-3.6 1.77-3.6-1.76-.9-4.08zm12.93 10.98c.1 0 .27 0 .45.1h.08l12.93 2.2c-1.85 5.5-5.54 10.27-10.38 13.46l-5-12.57c-.45-1.07 0-2.4 1.05-2.93.26-.17.52-.17.88-.26zm-21.9.1c1.06 0 1.94.7 2.12 1.76.17.44.1.97-.1 1.4l-4.92 12.5c-4.74-3.1-8.44-7.7-10.37-13.37l12.84-2.3h.44zm10.9 5.48c.36-.1.72 0 1.07.17.44.28.8.55.96 1h.1l6.33 11.86c-.88.26-1.68.53-2.56.7-4.83 1.16-9.67.8-14.07-.8l6.34-11.77c.35-.72 1.05-1.16 1.84-1.16z"
              stroke="#fff" stroke-width=".05" fill="#fff"/>
        <path d="M159.64 320c-1.2.12-2.16.36-3.12.84l-41.64 20.52c-2.28 1.08-3.84 3-4.32 5.52l-10.32 46.2c-.48 2.16-.12 4.32 1.08 6.24.12.24.24.36.48.6l28.8 36.96c1.56 2.04 3.72 3.12 6.24 3.12h46.32c2.52 0 4.68-1.08 6.24-3.12l28.8-36.96c1.56-2.04 2.16-4.44 1.56-6.96l-10.32-46.08c-.48-2.52-2.04-4.44-4.32-5.52l-41.64-20.52c-1.32-.6-2.52-.96-3.84-.84z"
              stroke="#fff" stroke-width="0" fill="#326ce5"/>
        <path d="M160 335.72c-1.4 0-2.46 1.24-2.46 2.83V339.35c0 .88.17 1.6.26 2.4.27 1.76.44 3.27.35 4.68-.17.53-.52.98-.88 1.33v1.06c-1.5.18-3 .36-4.57.7-6.42 1.52-12.05 4.97-16.27 9.67-.26-.2-.8-.54-.88-.72-.44.1-.88.26-1.5-.1-1.14-.8-2.1-1.85-3.34-3.18-.6-.62-.95-1.15-1.66-1.77-.17-.18-.35-.35-.53-.44-.5-.46-1.13-.72-1.74-.72-.8 0-1.5.26-2.03.88-.88 1.16-.52 2.84.62 3.8l.1.1c.07.1.34.27.43.36.8.53 1.4.88 2.1 1.24 1.5.97 2.73 1.77 3.7 2.74.44.44.44 1.15.53 1.5l.8.72c-4.3 6.64-6.24 14.88-5.1 23.2l-1.06.36c-.26.35-.6.88-1.05 1.06-1.33.44-2.74.62-4.5.8-.8.08-1.5 0-2.37.17-.18 0-.44.1-.7.2-1.5.34-2.47 1.76-2.12 3.1.28 1.4 1.68 2.2 3.18 1.94 0 0 .1 0 .1-.1.25 0 .52-.08.7-.08.78-.27 1.4-.62 2.2-.9 1.66-.6 2.98-1.14 4.4-1.3.52-.1 1.13.34 1.4.52l1.05-.27c2.55 8.07 7.74 14.54 14.42 18.6l-.44 1.07c.2.45.37 1.07.2 1.5-.45 1.25-1.33 2.67-2.2 4.17-.54.7-.98 1.24-1.42 2.04-.08.18-.17.53-.26.7-.7 1.43-.18 3.02 1.06 3.64 1.23.62 2.72 0 3.43-1.42.1-.17.27-.44.36-.7.35-.8.44-1.5.7-2.3.62-1.7.97-3.55 1.94-4.6.26-.37.6-.46 1.05-.55l.53-1.06c5.8 2.3 12.3 2.83 18.82 1.32 1.4-.35 2.9-.8 4.22-1.33.18.35.53.88.53.97.44.17.97.26 1.32.8.7 1.23 1.14 2.65 1.67 4.33.26.8.44 1.6.8 2.4.08.17.17.44.25.6.7 1.43 2.2 2.14 3.42 1.52 1.24-.62 1.76-2.2 1.06-3.63-.1-.28-.18-.54-.26-.72-.44-.8-.88-1.33-1.32-2.04-.97-1.6-1.76-2.83-2.3-4.16-.17-.62.1-1.06.27-1.5-.17-.1-.35-.7-.44-.98 6.86-4.25 11.97-10.98 14.34-18.7.35 0 .88.2 1.14.2.37-.28.72-.63 1.33-.54 1.4.17 2.73.7 4.4 1.33.8.25 1.4.6 2.2.87.17.1.44.1.7.18h.1c1.5.35 2.9-.53 3.16-1.86.34-1.43-.63-2.85-2.12-3.2-.18 0-.53-.1-.7-.18-.9-.17-1.6-.1-2.38-.17-1.76-.18-3.17-.36-4.5-.8-.52-.18-.87-.8-1.04-1.06l-1.06-.37c.53-3.9.44-7.88-.53-11.95-.88-4.08-2.46-7.9-4.66-11.16.28-.27.8-.7.9-.8.08-.53 0-.98.52-1.5.97-.9 2.2-1.7 3.7-2.66.7-.45 1.3-.7 2.02-1.24.17-.18.44-.36.6-.45 1.16-.97 1.42-2.74.63-3.8-.88-1.16-2.55-1.25-3.78-.27-.2.18-.37.35-.54.44-.7.62-1.06 1.24-1.67 1.86-1.24 1.24-2.2 2.3-3.36 3.1-.52.27-1.23.18-1.5.18l-.96.7c-5.45-5.84-12.75-9.56-20.75-10.36v-1.15c-.36-.26-.8-.53-.88-1.24-.1-1.4.08-2.92.35-4.7.1-.8.26-1.5.26-2.38v-.8c0-1.6-1.05-2.83-2.46-2.83zm-3.17 19.92l-.7 13.56h-.1c0 1.24-.95 2.2-2.2 2.2-.43 0-.87-.17-1.22-.43h-.08l-10.73-7.9c3.34-3.35 7.56-5.74 12.4-6.9.88-.26 1.75-.35 2.63-.53zm6.34 0c5.62.7 10.9 3.37 14.95 7.44l-10.73 7.8c-.98.7-2.3.53-3-.44-.35-.36-.53-.8-.53-1.24zm-25.24 12.5l9.85 9.03-.1.1c.9.78 1.06 2.1.36 3.1-.35.43-.7.6-1.14.78h-.1l-12.48 3.8c-.7-6 .7-11.95 3.6-16.82zm44.06 0c1.48 2.47 2.54 5.13 3.24 8.14.62 2.92.8 5.76.53 8.6l-12.67-3.73v-.1c-1.14-.25-1.84-1.5-1.58-2.64.18-.52.35-.88.7-1.23l9.77-9.04zm-24.02 9.74h4.04l2.47 3.18-.9 4.08-3.6 1.77-3.6-1.76-.9-4.08zm12.93 10.98c.1 0 .27 0 .45.1h.08l12.93 2.2c-1.85 5.5-5.54 10.27-10.38 13.46l-5-12.57c-.45-1.07 0-2.4 1.05-2.93.26-.17.52-.17.88-.26zm-21.9.1c1.06 0 1.94.7 2.12 1.76.17.44.1.97-.1 1.4l-4.92 12.5c-4.74-3.1-8.44-7.7-10.37-13.37l12.84-2.3h.44zm10.9 5.48c.36-.1.72 0 1.07.17.44.28.8.55.96 1h.1l6.33 11.86c-.88.26-1.68.53-2.56.7-4.83 1.16-9.67.8-14.07-.8l6.34-11.77c.35-.72 1.05-1.16 1.84-1.16z"
              stroke="#fff" stroke-width=".05" fill="#fff"/>
        <path d="M460 221l-.02.83-.13 1.76-.2 1.68-.3 1.63-.37 1.6-.44 1.6-.52 1.54-.6 1.54-.7 1.54-.8 1.56-.92 1.57-1.04 1.6-1.2 1.66-1.36 1.72-1.6 1.8-1.85 1.9-2.2 2.03-2.7 2.23-3.32 2.5-4.33 2.94-6.15 3.72-12.06 6.46-26.42 13.68-6.15 3.73-4.34 2.94-3.33 2.5-2.68 2.24-2.22 2.04-1.86 1.9-1.6 1.8-1.36 1.7-1.2 1.65-1.03 1.6-.15.25"
              stroke="#979ea8" stroke-width="2" fill="none"/>
        <path d="M461 221.05l-2-.05.03-1h2z" fill="#979ea8"/>
        <path d="M360.87 316.9l-.66-14.98 8.95 2.48z" stroke="#979ea8" stroke-width="2" fill="#979ea8"/>
        <path d="M459.96 221v.04l-.06.5-.07.52-.1.5-.12.52-.13.52-.17.52-.2.53-.23.54-.26.54-.3.57-.32.6-.4.6-.42.63-.5.65-.57.7-.67.72-.75.77-.87.82-1 .86-1.2.95-1.43 1.04-1.7 1.14-2.08 1.25-2.55 1.4-3.2 1.57-4.07 1.8-5.36 2.13-7.3 2.53-10.45 3.14-16.23 4.14-30.32 6.35-144.16 26.2-16.23 4.13-10.45 3.14-7.3 2.53-5.36 2.12-4.08 1.8-3.2 1.6-2.53 1.38-2.06 1.25-1.6 1.05"
              stroke="#979ea8" stroke-width="2" fill="none"/>
        <path d="M460.98 221.05l-2-.04.02-1h2z" fill="#979ea8"/>
        <path d="M161.8 317.35l4.16-14.42 7.68 5.2z" stroke="#979ea8" stroke-width="2" fill="#979ea8"/>
        <path d="M460 221l.02.83.13 1.76.2 1.68.3 1.63.37 1.6.44 1.6.52 1.54.6 1.54.7 1.54.8 1.56.92 1.57 1.04 1.6 1.2 1.66 1.36 1.72 1.6 1.8 1.85 1.9 2.2 2.03 2.7 2.23 3.32 2.5 4.33 2.94 6.15 3.72 12.06 6.46 26.42 13.68 6.15 3.73 4.34 2.94 3.33 2.5 2.68 2.24 2.22 2.04 1.86 1.9 1.6 1.8 1.36 1.7 1.2 1.65 1.03 1.6.15.25"
              stroke="#979ea8" stroke-width="2" fill="none"/>
        <path d="M461 221l-2 .05-.03-1.05h2z" fill="#979ea8"/>
        <path d="M559.13 316.9l-8.28-12.5 8.94-2.48z" stroke="#979ea8" stroke-width="2" fill="#979ea8"/>
        <path d="M460.04 221v.04l.06.5.07.52.1.5.12.52.13.52.17.52.2.53.23.54.26.54.3.57.32.6.4.6.42.63.5.65.57.7.67.72.75.77.87.82 1 .86 1.2.95 1.43 1.04 1.7 1.14 2.08 1.25 2.55 1.4 3.2 1.57 4.07 1.8 5.36 2.13 7.3 2.53 10.45 3.14 16.23 4.14 30.32 6.35 144.16 26.2 16.23 4.13 10.45 3.14 7.3 2.53 5.36 2.12 4.08 1.8 3.2 1.6 2.53 1.38 2.06 1.25 1.6 1.05"
              stroke="#979ea8" stroke-width="2" fill="none"/>
        <path d="M461.02 221l-2 .05L459 220h2z" fill="#979ea8"/>
        <path d="M758.2 317.35l-11.84-9.23 7.68-5.2z" stroke="#979ea8" stroke-width="2" fill="#979ea8"/>
        <path d="M340 88c0-4.42 3.58-8 8-8h224c4.42 0 8 3.58 8 8v4c0 4.42-3.58 8-8 8H348c-4.42 0-8-3.58-8-8z"
              fill="#fff" fill-opacity="0"/>
        <use xlink:href="#a" transform="matrix(1,0,0,1,345,85) translate(11.554000000000002 5.068)"/>
        <use xlink:href="#b" transform="matrix(1,0,0,1,345,85) translate(135.898 5.068)"/>
        <path d="M340 468c0-4.42 3.58-8 8-8h224c4.42 0 8 3.58 8 8v4c0 4.42-3.58 8-8 8H348c-4.42 0-8-3.58-8-8z"
              fill="#fff" fill-opacity="0"/>
        <use xlink:href="#c" transform="matrix(1,0,0,1,345,465) translate(14.938000000000017 14.4)"/>
        <use xlink:href="#d" transform="matrix(1,0,0,1,345,465) translate(121.156 14.4)"/>
        <defs>
            <path fill="#fff"
                  d="M629-645c28 177 9 401 28 582 3 29-18 50-47 50-97 0-67-194-71-306-1-24-4-66-3-92 1-39-15-57-30-33-49 79-88 161-139 243-9 15-21 23-34 23-33 0-70-69-89-115-10-23-57-152-73-152-28 0-27 119-31 162-9 93-16 174-27 265-2 3-35 21-48 20-71-3-50-117-43-176 24-211 38-410 84-595 39-67 121 2 138 59 22 73 63 167 84 249 7 23 13 34 20 34 17 0 54-75 107-225 17-48 42-155 115-96 31 25 52 57 59 103"
                  id="e"/>
            <path fill="#fff"
                  d="M103-24C79 10-2-14 8-59c42-186 129-353 193-524 23-62 63-135 99-197 39-38 106-10 109 47 27 100 51 209 81 307 8 25 72 24 72 63 0 44-26 46-37 75 12 83 46 156 55 243 7 63-106 47-114 11-13-58-36-170-57-231-3-4-7-8-9-14-69 4-134 40-198 52-53 21-53 108-81 160-4 16-8 29-18 43zm215-551c-16 18-92 195-73 208 46 2 100-12 123-31-5-30-32-162-38-171-2-3-6-5-12-6"
                  id="f"/>
            <path fill="#fff"
                  d="M24-128c0-158-18-313-5-472 6-74-11-192 62-191 78 1 88 68 113 130 59 143 102 191 174 297 50 73 81 109 92 109 8 0 12-3 13-9 24-163 3-322-12-477-6-63 62-76 101-37 65 64 45 212 54 340 10 141 7 304-15 413-8 15-20 23-37 23-76 0-203-132-244-200-33-54-79-109-116-169l4 4c-9-20-41-55-54-51-14 102-5 244 6 344 3 30-15 69-41 68-9 0-28-1-56-3-44-28-39-45-39-119"
                  id="g"/>
            <path fill="#fff"
                  d="M590-683c0-95-64-132-148-103-62 21-113 58-161 92-97 69-165 165-223 275C-45-222 51 11 277-12c154-16 257-81 343-160 63-58 100-126 109-243 12-155-158-93-246-67-61 18-178 69-168 115-2 30 28 68 54 64 69-10 133-52 201-67 9-2 20 9 20 17 0 11-18 38-57 79-85 91-188 136-306 136-55 0-99-68-99-127 0-30 16-69 37-123 25-64 237-288 318-281 25-8 66 40 79 44 19 0 28-19 28-58"
                  id="h"/>
            <path fill="#fff"
                  d="M330-158c82-22 193-18 286-31 38 11 58 81 24 113-25 24-71 25-116 25-135 0-238 34-358 47C61 7 4-52 15-159c12-113 37-213 32-340-2-59 2-121-2-178-2-44 35-62 81-61 104-31 222-52 345-64 68-7 103 34 111 94 2 12-3 22-9 31-33 14-62 15-103 16-100 2-196 10-270 40h-8c-18 23-11 79-15 106-1 13 5 22 16 25 82-10 176-25 264-12 44 7 78 26 71 72-7 49-76 30-125 30-78 0-138 22-210 29-24 1-35 28-36 52-2 41-10 83-8 126-19 84 122 51 181 35"
                  id="i"/>
            <path fill="#fff"
                  d="M593-790c58 0 99 54 77 117-5 13-15 16-35 14-70-7-152-3-229 7-31 20-24 81-26 127-4 138-16 277-16 422 0 32 4 70-21 83-26 36-88 7-103-20 1-182 10-346 21-521 2-27 11-81-18-84-73-7-138 11-206 3-20-18-39-18-32-51-3-78 74-91 145-91 129 0 251 6 369-8 25-3 49 2 74 2"
                  id="j"/>
            <g id="a">
                <use transform="matrix(0.018,0,0,0.018,0,0)" xlink:href="#e"/>
                <use transform="matrix(0.018,0,0,0.018,12.095999999999998,0)" xlink:href="#f"/>
                <use transform="matrix(0.018,0,0,0.018,22.662,0)" xlink:href="#g"/>
                <use transform="matrix(0.018,0,0,0.018,34.199999999999996,0)" xlink:href="#f"/>
                <use transform="matrix(0.018,0,0,0.018,44.76599999999999,0)" xlink:href="#h"/>
                <use transform="matrix(0.018,0,0,0.018,58.44599999999999,0)" xlink:href="#i"/>
                <use transform="matrix(0.018,0,0,0.018,70.434,0)" xlink:href="#e"/>
                <use transform="matrix(0.018,0,0,0.018,82.52999999999999,0)" xlink:href="#i"/>
                <use transform="matrix(0.018,0,0,0.018,94.51799999999999,0)" xlink:href="#g"/>
                <use transform="matrix(0.018,0,0,0.018,106.056,0)" xlink:href="#j"/>
            </g>
            <path fill="#fff"
                  d="M521-275c40-33 108-24 108 34 0 49-75 103-210 183-80 47-247 72-323 10-66-54-95-101-82-218 12-106 41-136 91-224 55-96 145-209 240-278 32-23 68-33 107-33 86 2 108 61 107 158 0 55-15 82-44 82-55 1-25-116-79-110-132 15-229 223-291 334-48 86-31 226 81 218 122-9 217-92 295-156"
                  id="k"/>
            <path fill="#fff"
                  d="M21-302C-7-136 9 24 196-12c147-28 263-93 386-142 57-23 26-120-26-120-111 32-240 115-378 126-13 1-22-26-25-45 30-174 59-350 88-524 10-62-86-124-120-61-39 73-49 196-69 277-19 77-22 145-31 199"
                  id="l"/>
            <path fill="#fff"
                  d="M106-737c41-53 131 12 108 86-42 139-71 285-71 455 0 88 72 66 143 48 49-12 128-35 183-63 38-19 36-69 44-119 17-114 31-247 31-354 0-57 26-85 79-85 37 0 55 27 55 81 0 190-34 397-59 573 4 31 20 93-13 105-8 10-30 7-65-8-16-20-33-38-51-54C397-48 305 0 205 0 79 0 5-43 13-176c13-196 50-391 93-561"
                  id="m"/>
            <path fill="#fff"
                  d="M371-533c189 0 256 55 239 237-9 91-67 138-157 205C374-33 301-7 236-7 155-7 13-82 18-160c3-44 62-73 96-38 43 44 152 73 218 29 77-51 166-125 156-169 2-44-67-63-119-62-47 1-108 1-155 3C87-393 13-429 1-531c11-87 101-150 165-187 90-52 160-96 290-87 34 2 118 78 115 115-3 35-23 38-55 45-15 4-26-4-33-24-37-64-116-1-164 12-41 11-154 77-154 113 0 15 14 22 41 22 45 0 127-11 165-11"
                  id="n"/>
            <path fill="#fff"
                  d="M608-642l-20 77c-36 56-69 94-113 138-49 48-58 40-29 81 33 46 69 89 97 147 44 89 52 141 40 147-3 38-20 49-63 52-68 5-97-106-129-160-40-68-56-162-144-164-53-1-27 78-45 121-7 56-12 123-28 170C157-4 113 24 66-1 46-11 40-39 49-87c19-111 19-139 19-313 0-144 1-187-40-242-27-37-13-94 26-108 103-36 250-59 389-41 63 8 182 85 165 149zm-140 11c-10-39-42-58-96-57-53 12-154 21-179 43-5 9-8 31-8 65 0 151 19 135 127 94 94-36 148-79 156-145"
                  id="o"/>
            <g id="b">
                <use transform="matrix(0.018,0,0,0.018,0,0)" xlink:href="#k"/>
                <use transform="matrix(0.018,0,0,0.018,11.411999999999999,0)" xlink:href="#l"/>
                <use transform="matrix(0.018,0,0,0.018,22.482,0)" xlink:href="#m"/>
                <use transform="matrix(0.018,0,0,0.018,35.135999999999996,0)" xlink:href="#n"/>
                <use transform="matrix(0.018,0,0,0.018,46.494,0)" xlink:href="#j"/>
                <use transform="matrix(0.018,0,0,0.018,59.43599999999999,0)" xlink:href="#i"/>
                <use transform="matrix(0.018,0,0,0.018,71.42399999999999,0)" xlink:href="#o"/>
            </g>
            <path fill="#fff"
                  d="M722-498c18-70 6-160 6-241 0-38 16-57 49-57 55 0 82 64 82 193 1 204-63 347-126 491-54 125-124 110-196 9-30-42-54-91-82-146-27-53-43-79-49-79-8-17-88 136-114 182C269-106 193 9 170-1 96-15 86-47 66-129 33-267 17-480 18-657c0-70 18-105 54-105 39 0 66 36 68 87 4 137-4 277 12 406 12 100 67-12 84-47 47-96 102-197 139-285 18-41 78-38 96-4 52 97 51 251 110 344 50 78 71 31 104-70 17-53 22-108 37-167"
                  id="p"/>
            <path fill="#fff"
                  d="M44-443c79-191 208-366 448-366 141 0 239 118 267 253 46 222-61 413-213 490-83 42-221 78-338 30-55-23-106-43-129-82-26-14-80-140-57-202 2-41 8-89 22-123zm103 115c1 136 75 191 208 191 130 0 180-50 241-135 38-53 55-111 55-169 0-109-73-236-179-227-143 12-260 151-311 271-9 24-14 47-14 69"
                  id="q"/>
            <path fill="#fff"
                  d="M583 1c26 5 52-17 51-41 24-60-22-103-43-144-74-69-132-138-184-228-37-64 44-88 81-120 65-56 138-104 195-168 35-39 5-108-40-113-66 17-104 68-150 105-81 65-158 127-245 187-18 12-48 33-70 13-6-6-8-14-7-23 3-63 18-122 28-181-3-53-39-88-92-91-82 12-51 140-71 216 1 133-13 257-20 381-3 58-27 167 27 193 35 29 78-2 98-20 30-59 16-164 24-251 3-31 38-61 73-59 78 41 118 121 174 184 38 44 71 96 112 139 15 15 32 34 59 21"
                  id="r"/>
            <path fill="#fff"
                  d="M19-91c0-222 71-428 58-668-3-62 121-44 170-33 118 27 229 50 293 128 44 53 63 97 63 217 0 165-189 328-383 400-36 13-62 45-108 45-66 0-93-23-93-89zm185-582c-30 151-43 322-58 489 5 39 27 28 60 14 129-54 276-147 276-304 0-155-106-203-278-199"
                  id="s"/>
            <g id="c">
                <use transform="matrix(0.018,0,0,0.018,0,0)" xlink:href="#p"/>
                <use transform="matrix(0.018,0,0,0.018,15.623999999999999,0)" xlink:href="#q"/>
                <use transform="matrix(0.018,0,0,0.018,30.078,0)" xlink:href="#o"/>
                <use transform="matrix(0.018,0,0,0.018,41.202,0)" xlink:href="#r"/>
                <use transform="matrix(0.018,0,0,0.018,53.91,0)" xlink:href="#l"/>
                <use transform="matrix(0.018,0,0,0.018,64.97999999999999,0)" xlink:href="#q"/>
                <use transform="matrix(0.018,0,0,0.018,79.43399999999998,0)" xlink:href="#f"/>
                <use transform="matrix(0.018,0,0,0.018,90,0)" xlink:href="#s"/>
            </g>
            <g id="d">
                <use transform="matrix(0.018,0,0,0.018,0,0)" xlink:href="#k"/>
                <use transform="matrix(0.018,0,0,0.018,11.411999999999999,0)" xlink:href="#l"/>
                <use transform="matrix(0.018,0,0,0.018,22.482,0)" xlink:href="#m"/>
                <use transform="matrix(0.018,0,0,0.018,35.135999999999996,0)" xlink:href="#n"/>
                <use transform="matrix(0.018,0,0,0.018,46.494,0)" xlink:href="#j"/>
                <use transform="matrix(0.018,0,0,0.018,59.43599999999999,0)" xlink:href="#i"/>
                <use transform="matrix(0.018,0,0,0.018,71.42399999999999,0)" xlink:href="#o"/>
                <use transform="matrix(0.018,0,0,0.018,82.54799999999999,0)" xlink:href="#n"/>
            </g>
        </defs>
    </g>
</svg>