<svg xmlns:xlink="http://www.w3.org/1999/xlink" xmlns:lucid="lucid" xmlns="http://www.w3.org/2000/svg" width="520"
     height="629.06">
    <g transform="translate(-280 -110.94066691262356)" lucid:page-tab-id="0_0">
        <path d="M0 0h1870.4v1323.2H0z" fill="#282c33"/>
        <path d="M560 188c0-4.42 3.58-8 8-8h184c4.42 0 8 3.58 8 8v424c0 4.42-3.58 8-8 8H568c-4.42 0-8-3.58-8-8z"
              stroke="#fff" fill-opacity="0"/>
        <use xlink:href="#a" transform="matrix(1,0,0,1,565,185) translate(14.729000000000013 14.4)"/>
        <use xlink:href="#b" transform="matrix(1,0,0,1,565,185) translate(92.72300000000001 14.4)"/>
        <path d="M320 188c0-4.42 3.58-8 8-8h184c4.42 0 8 3.58 8 8v424c0 4.42-3.58 8-8 8H328c-4.42 0-8-3.58-8-8z"
              stroke="#fff" fill-opacity="0"/>
        <use xlink:href="#c" transform="matrix(1,0,0,1,325,185) translate(14.558000000000021 14.4)"/>
        <use xlink:href="#b" transform="matrix(1,0,0,1,325,185) translate(92.894 14.4)"/>
        <path d="M419.66 263.17c-1.14.1-2.05.34-2.96.8l-39.44 19.43c-2.16 1.02-3.64 2.84-4.1 5.23l-9.77 43.76c-.47 2.04-.13 4.08 1 5.9.13.23.24.34.47.57l27.28 35c1.48 1.94 3.52 2.97 5.9 2.97h43.9c2.38 0 4.42-1.03 5.9-2.96l27.28-35c1.48-1.94 2.05-4.2 1.48-6.6l-9.77-43.65c-.45-2.4-1.93-4.2-4.1-5.23l-39.43-19.44c-1.25-.57-2.4-.9-3.64-.8z"
              stroke="#000" stroke-opacity="0" stroke-width="3.83" fill="#326ce5"/>
        <path d="M419.64 260c-1.2.12-2.16.36-3.12.84l-41.64 20.52c-2.28 1.08-3.84 3-4.32 5.52l-10.32 46.2c-.48 2.16-.12 4.32 1.08 6.24.12.24.24.36.48.6l28.8 36.96c1.56 2.04 3.72 3.12 6.24 3.12h46.32c2.52 0 4.68-1.08 6.24-3.12l28.8-36.96c1.56-2.04 2.16-4.44 1.56-6.84l-10.32-46.2c-.48-2.52-2.04-4.44-4.32-5.52l-41.64-20.52c-1.32-.6-2.52-.96-3.84-.84zm0 3.24c1.32-.12 2.4.12 3.6.72l39.6 19.44c2.04 1.08 3.48 2.88 4.08 5.28l9.72 43.68c.48 2.4 0 4.56-1.44 6.48l-27.36 35.04c-1.44 1.92-3.48 3-5.88 3h-43.92c-2.4 0-4.44-1.08-5.88-3l-27.36-35.04c-.12-.12-.24-.36-.36-.6-1.2-1.8-1.56-3.72-1.08-5.88l9.72-43.68c.6-2.4 1.92-4.2 4.08-5.28l39.6-19.44c.96-.48 1.8-.72 2.88-.84z"
              stroke="#000" stroke-opacity="0" stroke-width="3.83" fill="#fff"/>
        <path d="M411.56 367.4c-1 0-1.75-.26-2.25-.8s-.74-1.3-.74-2.23c0-1.06.34-1.87 1-2.44.7-.56 1.78-.87 3.28-.9l2.23-.04v-.57c0-.83-.17-1.42-.5-1.78-.36-.37-.9-.55-1.63-.55-.73 0-1.27.13-1.6.4-.35.25-.55.66-.62 1.23l-1.72-.16c.28-1.84 1.6-2.76 3.98-2.76 1.24 0 2.2.3 2.8.9.64.58.96 1.43.96 2.55v4.4c0 .5.07.9.2 1.15.12.25.37.37.72.37.16 0 .34-.02.54-.06v1.07c-.4.1-.83.15-1.27.15-.6 0-1.06-.16-1.34-.5-.28-.33-.44-.85-.47-1.55h-.06c-.42.78-.92 1.34-1.48 1.67-.56.3-1.24.47-2.04.47zm.38-1.26c.6 0 1.13-.15 1.6-.42.48-.3.85-.68 1.12-1.17.28-.5.4-1 .4-1.53v-.84l-1.8.04c-.77 0-1.36.1-1.77.24-.4.15-.7.38-.92.7-.22.32-.32.73-.32 1.24 0 .55.14.98.43 1.28.28.3.7.46 1.24.46zM427.87 362.07c0 3.56-1.22 5.35-3.65 5.35-1.53 0-2.56-.6-3.08-1.8h-.04c0 .07.03.6.03 1.63v4h-1.65v-12.17c0-1.05-.02-1.74-.05-2.1h1.6l.02.3.03.7c.03.33.03.54.03.66h.05c.3-.62.68-1.08 1.16-1.37.5-.3 1.13-.45 1.92-.45 1.23 0 2.14.42 2.74 1.27.6.83.9 2.15.9 3.97zm-1.73.03c0-1.42-.2-2.44-.56-3.05-.38-.62-.97-.92-1.78-.92-.66 0-1.17.15-1.54.43-.37.28-.65.73-.84 1.33-.2.58-.3 1.38-.3 2.33 0 1.35.22 2.33.64 2.97.4.63 1.08.95 2.02.95.82 0 1.4-.3 1.78-.92.38-.62.58-1.66.58-3.13zM429.92 354.83v-1.62h1.65v1.63zm0 12.4V357h1.65v10.23z"
              stroke="#000" stroke-opacity="0" fill="#fff"/>
        <path d="M419.87 282.44c-.94 0-26.55 12.94-26.88 13.62-.8 1.6-6.68 29.38-6.34 30 .2.32 4.4 5.85 9.33 12.18l9 11.6h29.54l9.4-12.14 9.4-12.06-3.26-14.9c-1.8-8.15-3.47-15.02-3.6-15.16-.47-.47-26.08-13.14-26.6-13.14zm1.6 13.62c1.2.06 1.33 1.95 4 2.15 3.47.28 3.13-3.02 5.74-.73 2.67 2.36-.6 2.5.27 6 .8 3.5 3.8 2.1 2.47 5.4-1.33 3.36-2.47.2-5.47 2.08-2.93 1.9-.73 4.38-4.2 4.1-3.47-.26-.93-2.35-3.6-4.7-2.67-2.3-4.27.6-5.07-2.9-.87-3.44 1.87-1.62 3.2-4.92 1.33-3.37-1.87-4.05 1.07-5.93l1-.48c.2-.06.4-.06.6-.06zm3.47 3.9c-.54 0-1 .07-1.54.2-2.6.82-4.13 3.7-3.33 6.48.8 2.76 3.6 4.3 6.27 3.5 2.66-.87 4.2-3.77 3.4-6.47-.67-2.22-2.6-3.7-4.8-3.7zm-19.94 8.9c.26 0 .6.07 1 .2 3.2 1-.07 2.77 2.2 5.26 2.33 2.56 4.2-.67 4.93 2.7.8 3.3-2.33 1.28-3.27 4.58-1 3.3 2.67 3.37.2 5.73-2.4 2.36-2.26-1.42-5.53-.6-3.27.73-1.47 4.03-4.67 3.02-3.2-1 .07-2.7-2.27-5.25-2.27-2.5-4.14.67-4.88-2.63-.8-3.37 2.27-1.35 3.27-4.65 1-3.3-2.68-3.37-.2-5.73 2.4-2.37 2.26 1.4 5.53.66 2.8-.67 1.87-3.3 3.67-3.3zm23.74 3.64c.33 0 .67.07 1.13.27 3.67 1.48-1.13 3.7 1.67 6.54 2.87 2.84 4.87-2.28 6.47 1.42 1.6 3.78-3.4 1.82-3.33 5.87.14 4.1 5 1.94 3.6 5.7-1.46 3.8-3.66-1.2-6.4 1.77-2.73 2.96 2.2 4.98-1.4 6.6-3.6 1.68-1.73-3.5-5.67-3.37-3.93.07-1.86 5.12-5.53 3.64s1.13-3.7-1.67-6.54c-2.87-2.83-4.87 2.3-6.47-1.48-1.6-3.7 3.4-1.75 3.34-5.86-.14-4.05-5-1.9-3.6-5.66 1.46-3.85 3.66 1.2 6.4-1.76 2.73-2.96-2.2-4.98 1.4-6.6 3.6-1.7 1.73 3.44 5.67 3.37 3.46-.06 2.26-3.97 4.4-3.9zm-25.8 1.75c-2.8 0-5.08 2.3-5.08 5.2 0 2.82 2.27 5.18 5.07 5.18 2.8 0 5-2.36 5-5.2 0-2.9-2.2-5.18-5-5.18zm21.6 4.92c-4.07 0-7.4 3.44-7.4 7.68 0 4.25 3.33 7.62 7.4 7.62 4.13 0 7.47-3.37 7.47-7.62 0-4.24-3.33-7.68-7.46-7.68z"
              stroke="#000" stroke-opacity="0" stroke-width="0" fill="#fff"/>
        <path d="M419.66 463.17c-1.14.1-2.05.34-2.96.8l-39.44 19.43c-2.16 1.02-3.64 2.84-4.1 5.23l-9.77 43.76c-.47 2.04-.13 4.08 1 5.9.13.23.24.34.47.57l27.28 35c1.48 1.94 3.52 2.97 5.9 2.97h43.9c2.38 0 4.42-1.03 5.9-2.96l27.28-35c1.48-1.94 2.05-4.2 1.48-6.6l-9.77-43.65c-.45-2.4-1.93-4.2-4.1-5.23l-39.43-19.44c-1.25-.57-2.4-.9-3.64-.8z"
              stroke="#000" stroke-opacity="0" stroke-width="3.83" fill="#326ce5"/>
        <path d="M419.64 460c-1.2.12-2.16.36-3.12.84l-41.64 20.52c-2.28 1.08-3.84 3-4.32 5.52l-10.32 46.2c-.48 2.16-.12 4.32 1.08 6.24.12.24.24.36.48.6l28.8 36.96c1.56 2.04 3.72 3.12 6.24 3.12h46.32c2.52 0 4.68-1.08 6.24-3.12l28.8-36.96c1.56-2.04 2.16-4.44 1.56-6.84l-10.32-46.2c-.48-2.52-2.04-4.44-4.32-5.52l-41.64-20.52c-1.32-.6-2.52-.96-3.84-.84zm0 3.24c1.32-.12 2.4.12 3.6.72l39.6 19.44c2.04 1.08 3.48 2.88 4.08 5.28l9.72 43.68c.48 2.4 0 4.56-1.44 6.48l-27.36 35.04c-1.44 1.92-3.48 3-5.88 3h-43.92c-2.4 0-4.44-1.08-5.88-3l-27.36-35.04c-.12-.12-.24-.36-.36-.6-1.2-1.8-1.56-3.72-1.08-5.88l9.72-43.68c.6-2.4 1.92-4.2 4.08-5.28l39.6-19.44c.96-.48 1.8-.72 2.88-.84z"
              stroke="#000" stroke-opacity="0" stroke-width="3.83" fill="#fff"/>
        <path d="M407.1 562.07c0 1.36.22 2.36.64 3.02.4.65 1.04.97 1.88.97.6 0 1.07-.16 1.46-.5.4-.32.65-.82.74-1.5l1.66.1c-.13 1-.53 1.78-1.22 2.36-.68.6-1.54.88-2.6.88-1.4 0-2.45-.43-3.18-1.33-.73-.92-1.1-2.23-1.1-3.97 0-1.72.37-3.03 1.1-3.93.74-.9 1.8-1.36 3.16-1.36 1.02 0 1.86.3 2.52.83.68.54 1.1 1.28 1.27 2.23l-1.7.13c-.08-.57-.3-1.03-.65-1.36-.35-.33-.84-.5-1.48-.5-.88 0-1.5.3-1.9.9-.4.6-.6 1.6-.6 3.03zM414.8 562.84v-1.5h4.6v1.5zM427.28 567.23v-6.5c0-.97-.13-1.66-.4-2.03-.25-.4-.73-.57-1.4-.57-.7 0-1.26.28-1.67.83-.4.55-.6 1.33-.6 2.34v5.93h-1.65v-8.04c0-1.2 0-1.93-.05-2.2h1.55l.02.26.02.48c0 .18 0 .5.03 1h.02c.36-.72.77-1.22 1.23-1.5.46-.28 1-.43 1.67-.43.76 0 1.35.17 1.8.47.42.32.72.8.9 1.48h.02c.34-.7.76-1.17 1.24-1.48.5-.3 1.08-.46 1.78-.46 1 0 1.73.3 2.2.86.45.56.67 1.48.67 2.76v6.8h-1.63v-6.48c0-.98-.13-1.67-.4-2.04-.26-.4-.73-.57-1.42-.57-.72 0-1.3.28-1.68.83-.4.55-.6 1.33-.6 2.34v5.93z"
              stroke="#000" stroke-opacity="0" fill="#fff"/>
        <path d="M419.87 482.44c-.94 0-26.55 12.94-26.88 13.62-.8 1.6-6.68 29.38-6.34 30 .2.32 4.4 5.85 9.33 12.18l9 11.6h29.54l9.4-12.14 9.4-12.06-3.26-14.9c-1.8-8.15-3.47-15.02-3.6-15.16-.47-.47-26.08-13.14-26.6-13.14zm1.6 13.62c1.2.06 1.33 1.95 4 2.15 3.47.28 3.13-3.02 5.74-.73 2.67 2.36-.6 2.5.27 6 .8 3.5 3.8 2.1 2.47 5.4-1.33 3.36-2.47.2-5.47 2.08-2.93 1.9-.73 4.38-4.2 4.1-3.47-.26-.93-2.35-3.6-4.7-2.67-2.3-4.27.6-5.07-2.9-.87-3.44 1.87-1.62 3.2-4.92 1.33-3.37-1.87-4.05 1.07-5.93l1-.48c.2-.06.4-.06.6-.06zm3.47 3.9c-.54 0-1 .07-1.54.2-2.6.82-4.13 3.7-3.33 6.48.8 2.76 3.6 4.3 6.27 3.5 2.66-.87 4.2-3.77 3.4-6.47-.67-2.22-2.6-3.7-4.8-3.7zm-19.94 8.9c.26 0 .6.07 1 .2 3.2 1-.07 2.77 2.2 5.26 2.33 2.56 4.2-.67 4.93 2.7.8 3.3-2.33 1.28-3.27 4.58-1 3.3 2.67 3.37.2 5.73-2.4 2.36-2.26-1.42-5.53-.6-3.27.73-1.47 4.03-4.67 3.02-3.2-1 .07-2.7-2.27-5.25-2.27-2.5-4.14.67-4.88-2.63-.8-3.37 2.27-1.35 3.27-4.65 1-3.3-2.68-3.37-.2-5.73 2.4-2.37 2.26 1.4 5.53.66 2.8-.67 1.87-3.3 3.67-3.3zm23.74 3.64c.33 0 .67.07 1.13.27 3.67 1.48-1.13 3.7 1.67 6.54 2.87 2.84 4.87-2.28 6.47 1.42 1.6 3.78-3.4 1.82-3.33 5.87.14 4.1 5 1.94 3.6 5.7-1.46 3.8-3.66-1.2-6.4 1.77-2.73 2.96 2.2 4.98-1.4 6.6-3.6 1.68-1.73-3.5-5.67-3.37-3.93.07-1.86 5.12-5.53 3.64s1.13-3.7-1.67-6.54c-2.87-2.83-4.87 2.3-6.47-1.48-1.6-3.7 3.4-1.75 3.34-5.86-.14-4.05-5-1.9-3.6-5.66 1.46-3.85 3.66 1.2 6.4-1.76 2.73-2.96-2.2-4.98 1.4-6.6 3.6-1.7 1.73 3.44 5.67 3.37 3.46-.06 2.26-3.97 4.4-3.9zm-25.8 1.75c-2.8 0-5.08 2.3-5.08 5.2 0 2.82 2.27 5.18 5.07 5.18 2.8 0 5-2.36 5-5.2 0-2.9-2.2-5.18-5-5.18zm21.6 4.92c-4.07 0-7.4 3.44-7.4 7.68 0 4.25 3.33 7.62 7.4 7.62 4.13 0 7.47-3.37 7.47-7.62 0-4.24-3.33-7.68-7.46-7.68z"
              stroke="#000" stroke-opacity="0" stroke-width="0" fill="#fff"/>
        <use xlink:href="#d" transform="matrix(1,0,0,1,330,589) translate(23.73300000000002 15.234)"/>
        <path d="M659.66 463.17c-1.14.1-2.05.34-2.96.8l-39.44 19.43c-2.16 1.02-3.64 2.84-4.1 5.23l-9.77 43.76c-.47 2.04-.13 4.08 1 5.9.13.23.24.34.47.57l27.28 35c1.48 1.94 3.52 2.97 5.9 2.97h43.9c2.38 0 4.42-1.03 5.9-2.96l27.28-35c1.48-1.94 2.05-4.2 1.48-6.6l-9.77-43.65c-.45-2.4-1.93-4.2-4.1-5.23l-39.43-19.44c-1.25-.57-2.4-.9-3.64-.8z"
              stroke="#000" stroke-opacity="0" stroke-width="3.83" fill="#326ce5"/>
        <path d="M659.64 460c-1.2.12-2.16.36-3.12.84l-41.64 20.52c-2.28 1.08-3.84 3-4.32 5.52l-10.32 46.2c-.48 2.16-.12 4.32 1.08 6.24.12.24.24.36.48.6l28.8 36.96c1.56 2.04 3.72 3.12 6.24 3.12h46.32c2.52 0 4.68-1.08 6.24-3.12l28.8-36.96c1.56-2.04 2.16-4.44 1.56-6.84l-10.32-46.2c-.48-2.52-2.04-4.44-4.32-5.52l-41.64-20.52c-1.32-.6-2.52-.96-3.84-.84zm0 3.24c1.32-.12 2.4.12 3.6.72l39.6 19.44c2.04 1.08 3.48 2.88 4.08 5.28l9.72 43.68c.48 2.4 0 4.56-1.44 6.48l-27.36 35.04c-1.44 1.92-3.48 3-5.88 3h-43.92c-2.4 0-4.44-1.08-5.88-3l-27.36-35.04c-.12-.12-.24-.36-.36-.6-1.2-1.8-1.56-3.72-1.08-5.88l9.72-43.68c.6-2.4 1.92-4.2 4.08-5.28l39.6-19.44c.96-.48 1.8-.72 2.88-.84z"
              stroke="#000" stroke-opacity="0" stroke-width="3.83" fill="#fff"/>
        <path d="M647.1 562.07c0 1.36.22 2.36.64 3.02.4.65 1.04.97 1.88.97.6 0 1.07-.16 1.46-.5.4-.32.65-.82.74-1.5l1.66.1c-.13 1-.53 1.78-1.22 2.36-.68.6-1.54.88-2.6.88-1.4 0-2.45-.43-3.18-1.33-.73-.92-1.1-2.23-1.1-3.97 0-1.72.37-3.03 1.1-3.93.74-.9 1.8-1.36 3.16-1.36 1.02 0 1.86.3 2.52.83.68.54 1.1 1.28 1.27 2.23l-1.7.13c-.08-.57-.3-1.03-.65-1.36-.35-.33-.84-.5-1.48-.5-.88 0-1.5.3-1.9.9-.4.6-.6 1.6-.6 3.03zM654.8 562.84v-1.5h4.6v1.5zM667.28 567.23v-6.5c0-.97-.13-1.66-.4-2.03-.25-.4-.73-.57-1.4-.57-.7 0-1.26.28-1.67.83-.4.55-.6 1.33-.6 2.34v5.93h-1.65v-8.04c0-1.2 0-1.93-.05-2.2h1.55l.02.26.02.48c0 .18 0 .5.03 1h.02c.36-.72.77-1.22 1.23-1.5.46-.28 1-.43 1.67-.43.76 0 1.35.17 1.8.47.42.32.72.8.9 1.48h.02c.34-.7.76-1.17 1.24-1.48.5-.3 1.08-.46 1.78-.46 1 0 1.73.3 2.2.86.45.56.67 1.48.67 2.76v6.8h-1.63v-6.48c0-.98-.13-1.67-.4-2.04-.26-.4-.73-.57-1.42-.57-.72 0-1.3.28-1.68.83-.4.55-.6 1.33-.6 2.34v5.93z"
              stroke="#000" stroke-opacity="0" fill="#fff"/>
        <path d="M659.87 482.44c-.94 0-26.55 12.94-26.88 13.62-.8 1.6-6.68 29.38-6.34 30 .2.32 4.4 5.85 9.33 12.18l9 11.6h29.54l9.4-12.14 9.4-12.06-3.26-14.9c-1.8-8.15-3.47-15.02-3.6-15.16-.47-.47-26.08-13.14-26.6-13.14zm1.6 13.62c1.2.06 1.33 1.95 4 2.15 3.47.28 3.13-3.02 5.74-.73 2.67 2.36-.6 2.5.27 6 .8 3.5 3.8 2.1 2.47 5.4-1.33 3.36-2.47.2-5.47 2.08-2.93 1.9-.73 4.38-4.2 4.1-3.47-.26-.93-2.35-3.6-4.7-2.67-2.3-4.27.6-5.07-2.9-.87-3.44 1.87-1.62 3.2-4.92 1.33-3.37-1.87-4.05 1.07-5.93l1-.48c.2-.06.4-.06.6-.06zm3.47 3.9c-.54 0-1 .07-1.54.2-2.6.82-4.13 3.7-3.33 6.48.8 2.76 3.6 4.3 6.27 3.5 2.66-.87 4.2-3.77 3.4-6.47-.67-2.22-2.6-3.7-4.8-3.7zm-19.94 8.9c.26 0 .6.07 1 .2 3.2 1-.07 2.77 2.2 5.26 2.33 2.56 4.2-.67 4.93 2.7.8 3.3-2.33 1.28-3.27 4.58-1 3.3 2.67 3.37.2 5.73-2.4 2.36-2.26-1.42-5.53-.6-3.27.73-1.47 4.03-4.67 3.02-3.2-1 .07-2.7-2.27-5.25-2.27-2.5-4.14.67-4.88-2.63-.8-3.37 2.27-1.35 3.27-4.65 1-3.3-2.68-3.37-.2-5.73 2.4-2.37 2.26 1.4 5.53.66 2.8-.67 1.87-3.3 3.67-3.3zm23.74 3.64c.33 0 .67.07 1.13.27 3.67 1.48-1.13 3.7 1.67 6.54 2.87 2.84 4.87-2.28 6.47 1.42 1.6 3.78-3.4 1.82-3.33 5.87.14 4.1 5 1.94 3.6 5.7-1.46 3.8-3.66-1.2-6.4 1.77-2.73 2.96 2.2 4.98-1.4 6.6-3.6 1.68-1.73-3.5-5.67-3.37-3.93.07-1.86 5.12-5.53 3.64s1.13-3.7-1.67-6.54c-2.87-2.83-4.87 2.3-6.47-1.48-1.6-3.7 3.4-1.75 3.34-5.86-.14-4.05-5-1.9-3.6-5.66 1.46-3.85 3.66 1.2 6.4-1.76 2.73-2.96-2.2-4.98 1.4-6.6 3.6-1.7 1.73 3.44 5.67 3.37 3.46-.06 2.26-3.97 4.4-3.9zm-25.8 1.75c-2.8 0-5.08 2.3-5.08 5.2 0 2.82 2.27 5.18 5.07 5.18 2.8 0 5-2.36 5-5.2 0-2.9-2.2-5.18-5-5.18zm21.6 4.92c-4.07 0-7.4 3.44-7.4 7.68 0 4.25 3.33 7.62 7.4 7.62 4.13 0 7.47-3.37 7.47-7.62 0-4.24-3.33-7.68-7.46-7.68z"
              stroke="#000" stroke-opacity="0" stroke-width="0" fill="#fff"/>
        <use xlink:href="#d" transform="matrix(1,0,0,1,570,589) translate(23.73300000000002 15.234)"/>
        <path d="M659.66 263.17c-1.14.1-2.05.34-2.96.8l-39.44 19.43c-2.16 1.02-3.64 2.84-4.1 5.23l-9.77 43.76c-.47 2.04-.13 4.08 1 5.9.13.23.24.34.47.57l27.28 35c1.48 1.94 3.52 2.97 5.9 2.97h43.9c2.38 0 4.42-1.03 5.9-2.96l27.28-35c1.48-1.94 2.05-4.2 1.48-6.6l-9.77-43.65c-.45-2.4-1.93-4.2-4.1-5.23l-39.43-19.44c-1.25-.57-2.4-.9-3.64-.8z"
              stroke="#000" stroke-opacity="0" stroke-width="3.83" fill="#326ce5"/>
        <path d="M659.64 260c-1.2.12-2.16.36-3.12.84l-41.64 20.52c-2.28 1.08-3.84 3-4.32 5.52l-10.32 46.2c-.48 2.16-.12 4.32 1.08 6.24.12.24.24.36.48.6l28.8 36.96c1.56 2.04 3.72 3.12 6.24 3.12h46.32c2.52 0 4.68-1.08 6.24-3.12l28.8-36.96c1.56-2.04 2.16-4.44 1.56-6.84l-10.32-46.2c-.48-2.52-2.04-4.44-4.32-5.52l-41.64-20.52c-1.32-.6-2.52-.96-3.84-.84zm0 3.24c1.32-.12 2.4.12 3.6.72l39.6 19.44c2.04 1.08 3.48 2.88 4.08 5.28l9.72 43.68c.48 2.4 0 4.56-1.44 6.48l-27.36 35.04c-1.44 1.92-3.48 3-5.88 3h-43.92c-2.4 0-4.44-1.08-5.88-3l-27.36-35.04c-.12-.12-.24-.36-.36-.6-1.2-1.8-1.56-3.72-1.08-5.88l9.72-43.68c.6-2.4 1.92-4.2 4.08-5.28l39.6-19.44c.96-.48 1.8-.72 2.88-.84z"
              stroke="#000" stroke-opacity="0" stroke-width="3.83" fill="#fff"/>
        <path d="M651.56 367.4c-1 0-1.75-.26-2.25-.8s-.74-1.3-.74-2.23c0-1.06.34-1.87 1-2.44.7-.56 1.78-.87 3.28-.9l2.23-.04v-.57c0-.83-.17-1.42-.5-1.78-.36-.37-.9-.55-1.63-.55-.73 0-1.27.13-1.6.4-.35.25-.55.66-.62 1.23l-1.72-.16c.28-1.84 1.6-2.76 3.98-2.76 1.24 0 2.2.3 2.8.9.64.58.96 1.43.96 2.55v4.4c0 .5.07.9.2 1.15.12.25.37.37.72.37.16 0 .34-.02.54-.06v1.07c-.4.1-.83.15-1.27.15-.6 0-1.06-.16-1.34-.5-.28-.33-.44-.85-.47-1.55h-.06c-.42.78-.92 1.34-1.48 1.67-.56.3-1.24.47-2.04.47zm.38-1.26c.6 0 1.13-.15 1.6-.42.48-.3.85-.68 1.12-1.17.28-.5.4-1 .4-1.53v-.84l-1.8.04c-.77 0-1.36.1-1.77.24-.4.15-.7.38-.92.7-.22.32-.32.73-.32 1.24 0 .55.14.98.43 1.28.28.3.7.46 1.24.46zM667.87 362.07c0 3.56-1.22 5.35-3.65 5.35-1.53 0-2.56-.6-3.08-1.8h-.04c0 .07.03.6.03 1.63v4h-1.65v-12.17c0-1.05-.02-1.74-.05-2.1h1.6l.02.3.03.7c.03.33.03.54.03.66h.05c.3-.62.68-1.08 1.16-1.37.5-.3 1.13-.45 1.92-.45 1.23 0 2.14.42 2.74 1.27.6.83.9 2.15.9 3.97zm-1.73.03c0-1.42-.2-2.44-.56-3.05-.38-.62-.97-.92-1.78-.92-.66 0-1.17.15-1.54.43-.37.28-.65.73-.84 1.33-.2.58-.3 1.38-.3 2.33 0 1.35.22 2.33.64 2.97.4.63 1.08.95 2.02.95.82 0 1.4-.3 1.78-.92.38-.62.58-1.66.58-3.13zM669.92 354.83v-1.62h1.65v1.63zm0 12.4V357h1.65v10.23z"
              stroke="#000" stroke-opacity="0" fill="#fff"/>
        <path d="M659.87 282.44c-.94 0-26.55 12.94-26.88 13.62-.8 1.6-6.68 29.38-6.34 30 .2.32 4.4 5.85 9.33 12.18l9 11.6h29.54l9.4-12.14 9.4-12.06-3.26-14.9c-1.8-8.15-3.47-15.02-3.6-15.16-.47-.47-26.08-13.14-26.6-13.14zm1.6 13.62c1.2.06 1.33 1.95 4 2.15 3.47.28 3.13-3.02 5.74-.73 2.67 2.36-.6 2.5.27 6 .8 3.5 3.8 2.1 2.47 5.4-1.33 3.36-2.47.2-5.47 2.08-2.93 1.9-.73 4.38-4.2 4.1-3.47-.26-.93-2.35-3.6-4.7-2.67-2.3-4.27.6-5.07-2.9-.87-3.44 1.87-1.62 3.2-4.92 1.33-3.37-1.87-4.05 1.07-5.93l1-.48c.2-.06.4-.06.6-.06zm3.47 3.9c-.54 0-1 .07-1.54.2-2.6.82-4.13 3.7-3.33 6.48.8 2.76 3.6 4.3 6.27 3.5 2.66-.87 4.2-3.77 3.4-6.47-.67-2.22-2.6-3.7-4.8-3.7zm-19.94 8.9c.26 0 .6.07 1 .2 3.2 1-.07 2.77 2.2 5.26 2.33 2.56 4.2-.67 4.93 2.7.8 3.3-2.33 1.28-3.27 4.58-1 3.3 2.67 3.37.2 5.73-2.4 2.36-2.26-1.42-5.53-.6-3.27.73-1.47 4.03-4.67 3.02-3.2-1 .07-2.7-2.27-5.25-2.27-2.5-4.14.67-4.88-2.63-.8-3.37 2.27-1.35 3.27-4.65 1-3.3-2.68-3.37-.2-5.73 2.4-2.37 2.26 1.4 5.53.66 2.8-.67 1.87-3.3 3.67-3.3zm23.74 3.64c.33 0 .67.07 1.13.27 3.67 1.48-1.13 3.7 1.67 6.54 2.87 2.84 4.87-2.28 6.47 1.42 1.6 3.78-3.4 1.82-3.33 5.87.14 4.1 5 1.94 3.6 5.7-1.46 3.8-3.66-1.2-6.4 1.77-2.73 2.96 2.2 4.98-1.4 6.6-3.6 1.68-1.73-3.5-5.67-3.37-3.93.07-1.86 5.12-5.53 3.64s1.13-3.7-1.67-6.54c-2.87-2.83-4.87 2.3-6.47-1.48-1.6-3.7 3.4-1.75 3.34-5.86-.14-4.05-5-1.9-3.6-5.66 1.46-3.85 3.66 1.2 6.4-1.76 2.73-2.96-2.2-4.98 1.4-6.6 3.6-1.7 1.73 3.44 5.67 3.37 3.46-.06 2.26-3.97 4.4-3.9zm-25.8 1.75c-2.8 0-5.08 2.3-5.08 5.2 0 2.82 2.27 5.18 5.07 5.18 2.8 0 5-2.36 5-5.2 0-2.9-2.2-5.18-5-5.18zm21.6 4.92c-4.07 0-7.4 3.44-7.4 7.68 0 4.25 3.33 7.62 7.4 7.62 4.13 0 7.47-3.37 7.47-7.62 0-4.24-3.33-7.68-7.46-7.68z"
              stroke="#000" stroke-opacity="0" stroke-width="0" fill="#fff"/>
        <path d="M466.6 481.16L601.07 369.1" stroke="#326ce5" stroke-width="2" fill="none"/>
        <path d="M467.25 481.9l-.54.46-1.58-1-.2-.1 1.05-.88z" fill="#326ce5"/>
        <path d="M612.8 359.3l-7.98 12.7-5.94-7.12z" stroke="#326ce5" stroke-width="2" fill="#326ce5"/>
        <path d="M660 459.03V398.5" stroke="#326ce5" stroke-width="2" fill="none"/>
        <path d="M661 460.1l-1.36-.1-.64.1V459h2z" fill="#326ce5"/>
        <path d="M660 383.24l4.64 14.26h-9.28z" stroke="#326ce5" stroke-width="2" fill="#326ce5"/>
        <path d="M540 228c0-4.42 3.58-8 8-8h224c4.42 0 8 3.58 8 8v24c0 4.42-3.58 8-8 8H548c-4.42 0-8-3.58-8-8z"
              fill="#fff" fill-opacity="0"/>
        <use xlink:href="#e" transform="matrix(1,0,0,1,545,225) translate(42.685 20.025)"/>
        <use xlink:href="#f" transform="matrix(1,0,0,1,545,225) translate(81.169 20.025)"/>
        <use xlink:href="#g" transform="matrix(1,0,0,1,545,225) translate(118.66299999999998 20.025)"/>
        <path d="M300 228c0-4.42 3.58-8 8-8h224c4.42 0 8 3.58 8 8v24c0 4.42-3.58 8-8 8H308c-4.42 0-8-3.58-8-8z"
              fill="#fff" fill-opacity="0"/>
        <use xlink:href="#e" transform="matrix(1,0,0,1,305,225) translate(42.685 20.025)"/>
        <use xlink:href="#f" transform="matrix(1,0,0,1,305,225) translate(81.169 20.025)"/>
        <use xlink:href="#g" transform="matrix(1,0,0,1,305,225) translate(118.66299999999998 20.025)"/>
        <path d="M420.02 178.5l.02-.9.12-1.84.18-1.8.26-1.75.33-1.7.4-1.68.46-1.65.52-1.64.6-1.6.67-1.62.74-1.58.83-1.6.92-1.58 1-1.58 1.1-1.6 1.22-1.6 1.33-1.6 1.46-1.63 1.62-1.64 1.76-1.67 1.94-1.67 2.14-1.7 2.35-1.7 2.6-1.73 2.88-1.73 3.17-1.74 3.5-1.74 3.9-1.73 4.27-1.7 4.72-1.64 5.17-1.56 5.66-1.45 6.12-1.3 6.57-1.1 6.96-.9 7.27-.6 7.47-.3h7.53l7.47.3 7.27.6 6.96.9 6.57 1.1 6.12 1.3 5.65 1.45 5.17 1.56 4.72 1.64 4.27 1.7 3.87 1.72 3.5 1.74 3.18 1.74 2.87 1.74 2.6 1.72 2.34 1.7 2.14 1.7 1.94 1.68 1.76 1.65 1.6 1.63 1.47 1.63 1.33 1.6 1.2 1.6 1.12 1.6 1 1.6.93 1.58.83 1.58.4.86"
              stroke="#979ea8" stroke-width="2" fill="none"/>
        <path d="M421.02 178.5l-.02 1h-2l.02-1.05z" fill="#979ea8"/>
        <path d="M611.3 176.34l-7.6-12.94 9.07-2z" stroke="#979ea8" stroke-width="2" fill="#979ea8"/>
        <path d="M381 660h80.5M381.03 660H380" stroke="#979ea8" stroke-width="2" fill="none"/>
        <path d="M476.76 660l-14.26 4.64v-9.28z" stroke="#979ea8" stroke-width="2" fill="#979ea8"/>
        <path d="M480 648c0-4.42 3.58-8 8-8h224c4.42 0 8 3.58 8 8v24c0 4.42-3.58 8-8 8H488c-4.42 0-8-3.58-8-8z"
              fill="#fff" fill-opacity="0"/>
        <use xlink:href="#h" transform="matrix(1,0,0,1,485,645) translate(0 20.025)"/>
        <use xlink:href="#i" transform="matrix(1,0,0,1,485,645) translate(87.89399999999999 20.025)"/>
        <path d="M480 688c0-4.42 3.58-8 8-8h224c4.42 0 8 3.58 8 8v24c0 4.42-3.58 8-8 8H488c-4.42 0-8-3.58-8-8z"
              fill="#fff" fill-opacity="0"/>
        <use xlink:href="#e" transform="matrix(1,0,0,1,485,685) translate(0 20.025)"/>
        <use xlink:href="#f" transform="matrix(1,0,0,1,485,685) translate(38.483999999999995 20.025)"/>
        <use xlink:href="#j" transform="matrix(1,0,0,1,485,685) translate(75.97799999999998 20.025)"/>
        <path d="M381 698.42l80.5 1.28M381.03 698.42l-1.03-.02" stroke="#326ce5" stroke-width="2" fill="none"/>
        <path d="M476.76 699.95l-14.33 4.4.14-9.26z" stroke="#326ce5" stroke-width="2" fill="#326ce5"/>
        <path d="M420 459.03V398.5" stroke="#326ce5" stroke-width="2" fill="none"/>
        <path d="M421 460.1l-1.36-.1-.64.1V459h2z" fill="#326ce5"/>
        <path d="M420 383.24l4.64 14.26h-9.28z" stroke="#326ce5" stroke-width="2" fill="#326ce5"/>
        <defs>
            <path fill="#fff"
                  d="M382-556c-3 158-18 304-18 470 0 31 6 72-21 86-20 35-87 21-104-6-1-188 14-367 23-549 1-24 13-80-17-80-77 0-131 31-210 31-15-10-43-18-33-45 0-82 83-94 148-109 103-23 215-12 315-40 43-12 91-17 142-23 62-8 95 53 77 116-8 28-47 14-75 18-68 9-134 10-195 30-32 11-31 60-32 101"
                  id="k"/>
            <path fill="#fff"
                  d="M103-24C79 10-2-14 8-59c42-186 129-353 193-524 23-62 63-135 99-197 39-38 106-10 109 47 27 100 51 209 81 307 8 25 72 24 72 63 0 44-26 46-37 75 12 83 46 156 55 243 7 63-106 47-114 11-13-58-36-170-57-231-3-4-7-8-9-14-69 4-134 40-198 52-53 21-53 108-81 160-4 16-8 29-18 43zm215-551c-16 18-92 195-73 208 46 2 100-12 123-31-5-30-32-162-38-171-2-3-6-5-12-6"
                  id="l"/>
            <path fill="#fff"
                  d="M608-642l-20 77c-36 56-69 94-113 138-49 48-58 40-29 81 33 46 69 89 97 147 44 89 52 141 40 147-3 38-20 49-63 52-68 5-97-106-129-160-40-68-56-162-144-164-53-1-27 78-45 121-7 56-12 123-28 170C157-4 113 24 66-1 46-11 40-39 49-87c19-111 19-139 19-313 0-144 1-187-40-242-27-37-13-94 26-108 103-36 250-59 389-41 63 8 182 85 165 149zm-140 11c-10-39-42-58-96-57-53 12-154 21-179 43-5 9-8 31-8 65 0 151 19 135 127 94 94-36 148-79 156-145"
                  id="m"/>
            <path fill="#fff"
                  d="M590-683c0-95-64-132-148-103-62 21-113 58-161 92-97 69-165 165-223 275C-45-222 51 11 277-12c154-16 257-81 343-160 63-58 100-126 109-243 12-155-158-93-246-67-61 18-178 69-168 115-2 30 28 68 54 64 69-10 133-52 201-67 9-2 20 9 20 17 0 11-18 38-57 79-85 91-188 136-306 136-55 0-99-68-99-127 0-30 16-69 37-123 25-64 237-288 318-281 25-8 66 40 79 44 19 0 28-19 28-58"
                  id="n"/>
            <path fill="#fff"
                  d="M330-158c82-22 193-18 286-31 38 11 58 81 24 113-25 24-71 25-116 25-135 0-238 34-358 47C61 7 4-52 15-159c12-113 37-213 32-340-2-59 2-121-2-178-2-44 35-62 81-61 104-31 222-52 345-64 68-7 103 34 111 94 2 12-3 22-9 31-33 14-62 15-103 16-100 2-196 10-270 40h-8c-18 23-11 79-15 106-1 13 5 22 16 25 82-10 176-25 264-12 44 7 78 26 71 72-7 49-76 30-125 30-78 0-138 22-210 29-24 1-35 28-36 52-2 41-10 83-8 126-19 84 122 51 181 35"
                  id="o"/>
            <path fill="#fff"
                  d="M593-790c58 0 99 54 77 117-5 13-15 16-35 14-70-7-152-3-229 7-31 20-24 81-26 127-4 138-16 277-16 422 0 32 4 70-21 83-26 36-88 7-103-20 1-182 10-346 21-521 2-27 11-81-18-84-73-7-138 11-206 3-20-18-39-18-32-51-3-78 74-91 145-91 129 0 251 6 369-8 25-3 49 2 74 2"
                  id="p"/>
            <g id="a">
                <use transform="matrix(0.018,0,0,0.018,0,0)" xlink:href="#k"/>
                <use transform="matrix(0.018,0,0,0.018,12.347999999999999,0)" xlink:href="#l"/>
                <use transform="matrix(0.018,0,0,0.018,22.913999999999998,0)" xlink:href="#m"/>
                <use transform="matrix(0.018,0,0,0.018,34.038,0)" xlink:href="#n"/>
                <use transform="matrix(0.018,0,0,0.018,47.717999999999996,0)" xlink:href="#o"/>
                <use transform="matrix(0.018,0,0,0.018,59.705999999999996,0)" xlink:href="#p"/>
            </g>
            <path fill="#fff"
                  d="M521-275c40-33 108-24 108 34 0 49-75 103-210 183-80 47-247 72-323 10-66-54-95-101-82-218 12-106 41-136 91-224 55-96 145-209 240-278 32-23 68-33 107-33 86 2 108 61 107 158 0 55-15 82-44 82-55 1-25-116-79-110-132 15-229 223-291 334-48 86-31 226 81 218 122-9 217-92 295-156"
                  id="q"/>
            <path fill="#fff"
                  d="M21-302C-7-136 9 24 196-12c147-28 263-93 386-142 57-23 26-120-26-120-111 32-240 115-378 126-13 1-22-26-25-45 30-174 59-350 88-524 10-62-86-124-120-61-39 73-49 196-69 277-19 77-22 145-31 199"
                  id="r"/>
            <path fill="#fff"
                  d="M106-737c41-53 131 12 108 86-42 139-71 285-71 455 0 88 72 66 143 48 49-12 128-35 183-63 38-19 36-69 44-119 17-114 31-247 31-354 0-57 26-85 79-85 37 0 55 27 55 81 0 190-34 397-59 573 4 31 20 93-13 105-8 10-30 7-65-8-16-20-33-38-51-54C397-48 305 0 205 0 79 0 5-43 13-176c13-196 50-391 93-561"
                  id="s"/>
            <path fill="#fff"
                  d="M371-533c189 0 256 55 239 237-9 91-67 138-157 205C374-33 301-7 236-7 155-7 13-82 18-160c3-44 62-73 96-38 43 44 152 73 218 29 77-51 166-125 156-169 2-44-67-63-119-62-47 1-108 1-155 3C87-393 13-429 1-531c11-87 101-150 165-187 90-52 160-96 290-87 34 2 118 78 115 115-3 35-23 38-55 45-15 4-26-4-33-24-37-64-116-1-164 12-41 11-154 77-154 113 0 15 14 22 41 22 45 0 127-11 165-11"
                  id="t"/>
            <g id="b">
                <use transform="matrix(0.018,0,0,0.018,0,0)" xlink:href="#q"/>
                <use transform="matrix(0.018,0,0,0.018,11.411999999999999,0)" xlink:href="#r"/>
                <use transform="matrix(0.018,0,0,0.018,22.482,0)" xlink:href="#s"/>
                <use transform="matrix(0.018,0,0,0.018,35.135999999999996,0)" xlink:href="#t"/>
                <use transform="matrix(0.018,0,0,0.018,46.494,0)" xlink:href="#p"/>
                <use transform="matrix(0.018,0,0,0.018,59.43599999999999,0)" xlink:href="#o"/>
                <use transform="matrix(0.018,0,0,0.018,71.42399999999999,0)" xlink:href="#m"/>
            </g>
            <path fill="#fff"
                  d="M44-443c79-191 208-366 448-366 141 0 239 118 267 253 46 222-61 413-213 490-83 42-221 78-338 30-55-23-106-43-129-82-26-14-80-140-57-202 2-41 8-89 22-123zm103 115c1 136 75 191 208 191 130 0 180-50 241-135 38-53 55-111 55-169 0-109-73-236-179-227-143 12-260 151-311 271-9 24-14 47-14 69"
                  id="u"/>
            <g id="c">
                <use transform="matrix(0.018,0,0,0.018,0,0)" xlink:href="#t"/>
                <use transform="matrix(0.018,0,0,0.018,11.357999999999999,0)" xlink:href="#u"/>
                <use transform="matrix(0.018,0,0,0.018,25.811999999999998,0)" xlink:href="#s"/>
                <use transform="matrix(0.018,0,0,0.018,38.465999999999994,0)" xlink:href="#m"/>
                <use transform="matrix(0.018,0,0,0.018,49.58999999999999,0)" xlink:href="#q"/>
                <use transform="matrix(0.018,0,0,0.018,61.00199999999999,0)" xlink:href="#o"/>
            </g>
            <path fill="#fff"
                  d="M24-128c0-158-18-313-5-472 6-74-11-192 62-191 78 1 88 68 113 130 59 143 102 191 174 297 50 73 81 109 92 109 8 0 12-3 13-9 24-163 3-322-12-477-6-63 62-76 101-37 65 64 45 212 54 340 10 141 7 304-15 413-8 15-20 23-37 23-76 0-203-132-244-200-33-54-79-109-116-169l4 4c-9-20-41-55-54-51-14 102-5 244 6 344 3 30-15 69-41 68-9 0-28-1-56-3-44-28-39-45-39-119"
                  id="v"/>
            <g id="d">
                <use transform="matrix(0.018,0,0,0.018,0,0)" xlink:href="#q"/>
                <use transform="matrix(0.018,0,0,0.018,11.411999999999999,0)" xlink:href="#u"/>
                <use transform="matrix(0.018,0,0,0.018,25.866,0)" xlink:href="#v"/>
                <use transform="matrix(0.018,0,0,0.018,37.403999999999996,0)" xlink:href="#p"/>
                <use transform="matrix(0.018,0,0,0.018,50.346,0)" xlink:href="#m"/>
                <use transform="matrix(0.018,0,0,0.018,61.47,0)" xlink:href="#u"/>
                <use transform="matrix(0.018,0,0,0.018,75.92399999999999,0)" xlink:href="#r"/>
                <use transform="matrix(0.018,0,0,0.018,86.994,0)" xlink:href="#r"/>
                <use transform="matrix(0.018,0,0,0.018,98.06399999999998,0)" xlink:href="#o"/>
                <use transform="matrix(0.018,0,0,0.018,110.05199999999998,0)" xlink:href="#m"/>
                <use transform="matrix(0.018,0,0,0.018,121.17599999999997,0)" xlink:href="#t"/>
            </g>
            <path fill="#fff"
                  d="M508-780c56-58 130 44 81 100-61 70-137 131-212 191-42 33-4 64 19 89 60 64 110 129 162 207 35 52 50 100 50 142 0 27-15 41-44 41-42 9-138-115-174-161S228-368 211-355C63-341 254-45 102-10 17-22 26-133 21-219 11-407 10-619 43-780c35-64 128 9 121 64-7 51-23 126-20 177 3 63 67 10 90-8 114-86 190-146 274-233"
                  id="w"/>
            <path fill="#fff"
                  d="M352-802c148-2 243 38 243 169 0 57-56 100-97 131-23 17-34 28-34 34-6 5 50 36 46 39 44 27 96 99 83 175-2 13-4 24-4 35C589-81 409-5 262-5c-73 0-124-9-151-28C-5-109-22-258 75-352c12-36 120-92 85-117-68-50-113-67-113-141 0-38 22-74 65-109 69-55 149-83 240-83zm129 146c-9-57-110-47-165-42-32 3-112 32-119 62-21 9-23 48-1 58 34 44 125 63 180 20 22-17 109-74 105-98zM129-193c0 38 66 66 101 63 97-9 229-35 243-126-8-65-80-122-140-138-72 11-82 24-143 93-41 47-61 83-61 108"
                  id="x"/>
            <g id="e">
                <use transform="matrix(0.018,0,0,0.018,0,0)" xlink:href="#w"/>
                <use transform="matrix(0.018,0,0,0.018,10.854,0)" xlink:href="#x"/>
                <use transform="matrix(0.018,0,0,0.018,21.779999999999998,0)" xlink:href="#t"/>
            </g>
            <path fill="#fff"
                  d="M103-24C79 10-2-14 8-59c42-186 129-353 193-524 23-62 63-135 99-197 39-38 106-10 109 47 27 100 51 209 81 307 8 25 72 24 72 63 0 44-26 46-37 75 12 83 46 156 55 243 7 63-106 47-114 11-13-58-36-170-57-231-3-4-7-8-9-14-69 4-134 40-198 52-53 21-53 108-81 160-4 16-8 29-18 43zm215-551c-16 18-92 195-73 208 46 2 100-12 123-31-5-30-32-162-38-171-2-3-6-5-12-6"
                  id="y"/>
            <path fill="#fff"
                  d="M23-677c-68-88 127-122 212-122 113 0 253 24 291 82 92 144-48 310-153 365-52 27-102 48-161 69-56 20-53 15-58 80-4 49-8 103-13 153-3 31-19 46-43 46-44 0-65-28-63-81 5-162 8-330 16-486 3-53-4-75-28-106zm415 73c0-44-44-66-132-66-78 0-124 8-135 26-10 16-14 89-14 218 0 44 22 39 57 25 83-34 224-115 224-203"
                  id="z"/>
            <path fill="#fff"
                  d="M292-638c-67 2-113 14-176 21-81 9-112-68-58-103 132-46 304-52 470-66l65 5c50 52 43 111-50 111-45 0-75 15-112 18-18 16-19 83-24 152-7 108-21 214-33 322-5 46 36 20 67 20 54 0 81-10 139-16 43 25 50 62 23 110-151 29-311 50-490 79C58 24-8 22 3-44c14-83 161-45 224-90 22-16 24-69 29-107 17-126 33-258 36-397"
                  id="A"/>
            <g id="f">
                <use transform="matrix(0.018,0,0,0.018,0,0)" xlink:href="#y"/>
                <use transform="matrix(0.018,0,0,0.018,10.565999999999999,0)" xlink:href="#z"/>
                <use transform="matrix(0.018,0,0,0.018,20.718,0)" xlink:href="#A"/>
            </g>
            <path fill="#fff"
                  d="M109-735c-25-57-110-11-99 37 30 130 91 291 122 410 18 69 44 132 72 190 44 90 75 116 148 73 102-105 149-290 208-441 32-82 48-168 48-261 0-51-15-77-46-77-38 0-59 34-73 100-35 160-89 312-149 454-40 95-58 66-91-37-28-90-54-179-79-263-24-79-42-141-61-185"
                  id="B"/>
            <g id="g">
                <use transform="matrix(0.018,0,0,0.018,0,0)" xlink:href="#t"/>
                <use transform="matrix(0.018,0,0,0.018,11.357999999999999,0)" xlink:href="#o"/>
                <use transform="matrix(0.018,0,0,0.018,23.345999999999997,0)" xlink:href="#m"/>
                <use transform="matrix(0.018,0,0,0.018,34.47,0)" xlink:href="#B"/>
                <use transform="matrix(0.018,0,0,0.018,45.54,0)" xlink:href="#o"/>
                <use transform="matrix(0.018,0,0,0.018,57.528,0)" xlink:href="#m"/>
            </g>
            <g id="h">
                <use transform="matrix(0.018,0,0,0.018,0,0)" xlink:href="#q"/>
                <use transform="matrix(0.018,0,0,0.018,11.411999999999999,0)" xlink:href="#r"/>
                <use transform="matrix(0.018,0,0,0.018,22.482,0)" xlink:href="#s"/>
                <use transform="matrix(0.018,0,0,0.018,35.135999999999996,0)" xlink:href="#t"/>
                <use transform="matrix(0.018,0,0,0.018,46.494,0)" xlink:href="#p"/>
                <use transform="matrix(0.018,0,0,0.018,59.43599999999999,0)" xlink:href="#o"/>
                <use transform="matrix(0.018,0,0,0.018,71.42399999999999,0)" xlink:href="#m"/>
            </g>
            <path fill="#fff"
                  d="M292-638c-67 2-113 14-176 21-81 9-112-68-58-103 132-46 304-52 470-66l65 5c50 52 43 111-50 111-45 0-75 15-112 18-18 16-19 83-24 152-7 108-21 214-33 322-5 46 36 20 67 20 54 0 81-10 139-16 43 25 50 62 23 110-151 29-311 50-490 79C58 24-8 22 3-44c14-83 161-45 224-90 22-16 24-69 29-107 17-126 33-258 36-397"
                  id="C"/>
            <g id="i">
                <use transform="matrix(0.018,0,0,0.018,0,0)" xlink:href="#q"/>
                <use transform="matrix(0.018,0,0,0.018,11.411999999999999,0)" xlink:href="#u"/>
                <use transform="matrix(0.018,0,0,0.018,25.866,0)" xlink:href="#v"/>
                <use transform="matrix(0.018,0,0,0.018,37.403999999999996,0)" xlink:href="#v"/>
                <use transform="matrix(0.018,0,0,0.018,48.94199999999999,0)" xlink:href="#o"/>
                <use transform="matrix(0.018,0,0,0.018,60.92999999999999,0)" xlink:href="#q"/>
                <use transform="matrix(0.018,0,0,0.018,72.34199999999998,0)" xlink:href="#p"/>
                <use transform="matrix(0.018,0,0,0.018,85.28399999999998,0)" xlink:href="#C"/>
                <use transform="matrix(0.018,0,0,0.018,96.71399999999997,0)" xlink:href="#u"/>
                <use transform="matrix(0.018,0,0,0.018,111.16799999999996,0)" xlink:href="#v"/>
            </g>
            <path fill="#fff"
                  d="M697 1c1 28-21 55-50 54-21 0-46-18-77-52-32-35-51-52-56-52C390 2 288 19 176-28 69-73 12-126 13-276c0-184 157-386 282-467 76-50 243-89 339-27 58 37 109 80 135 146 29 74 35 147 3 242-27 79-64 141-111 199-18 23-27 38-27 44 0 19 74 109 63 140zM448-200c12-68-47-222 52-222 51 0 64 41 70 89 9 80 60-19 72-41 20-37 29-84 29-134 1-93-48-165-140-161-161 7-233 84-316 209-53 79-80 143-80 192-1 114 135 154 246 114 40-14 63-27 67-46"
                  id="D"/>
            <g id="j">
                <use transform="matrix(0.018,0,0,0.018,0,0)" xlink:href="#m"/>
                <use transform="matrix(0.018,0,0,0.018,11.123999999999999,0)" xlink:href="#o"/>
                <use transform="matrix(0.018,0,0,0.018,23.112,0)" xlink:href="#D"/>
                <use transform="matrix(0.018,0,0,0.018,37.656,0)" xlink:href="#s"/>
                <use transform="matrix(0.018,0,0,0.018,50.31,0)" xlink:href="#o"/>
                <use transform="matrix(0.018,0,0,0.018,62.298,0)" xlink:href="#t"/>
                <use transform="matrix(0.018,0,0,0.018,73.656,0)" xlink:href="#p"/>
                <use transform="matrix(0.018,0,0,0.018,86.598,0)" xlink:href="#t"/>
            </g>
        </defs>
    </g>
</svg>