<svg xmlns:xlink="http://www.w3.org/1999/xlink" xmlns:lucid="lucid" xmlns="http://www.w3.org/2000/svg" width="427.07"
     height="367.6">
    <g transform="translate(-66.7356956496882 -107.97438843622153)" lucid:page-tab-id="0_0">
        <path d="M0 0h1870.4v1323.2H0z" fill="#282c33"/>
        <path d="M399.64 320c-1.2.12-2.16.36-3.12.84l-41.64 20.52c-2.28 1.08-3.84 3-4.32 5.52l-10.32 46.2c-.48 2.16-.12 4.32 1.08 6.24.12.24.24.36.48.6l28.8 36.96c1.56 2.04 3.72 3.12 6.24 3.12h46.32c2.52 0 4.68-1.08 6.24-3.12l28.8-36.96c1.56-2.04 2.16-4.44 1.56-6.96l-10.32-46.08c-.48-2.52-2.04-4.44-4.32-5.52l-41.64-20.52c-1.32-.6-2.52-.96-3.84-.84z"
              stroke="#fff" stroke-width="0" fill="#326ce5"/>
        <path d="M400 335.72c-1.4 0-2.46 1.24-2.46 2.83V339.35c0 .88.17 1.6.26 2.4.27 1.76.44 3.27.35 4.68-.17.53-.52.98-.88 1.33v1.06c-1.5.18-3 .36-4.57.7-6.42 1.52-12.05 4.97-16.27 9.67-.26-.2-.8-.54-.88-.72-.44.1-.88.26-1.5-.1-1.14-.8-2.1-1.85-3.34-3.18-.6-.62-.95-1.15-1.66-1.77-.17-.18-.35-.35-.53-.44-.5-.46-1.13-.72-1.74-.72-.8 0-1.5.26-2.03.88-.88 1.16-.52 2.84.62 3.8l.1.1c.07.1.34.27.43.36.8.53 1.4.88 2.1 1.24 1.5.97 2.73 1.77 3.7 2.74.44.44.44 1.15.53 1.5l.8.72c-4.3 6.64-6.24 14.88-5.1 23.2l-1.06.36c-.26.35-.6.88-1.05 1.06-1.33.44-2.74.62-4.5.8-.8.08-1.5 0-2.37.17-.18 0-.44.1-.7.2-1.5.34-2.47 1.76-2.12 3.1.28 1.4 1.68 2.2 3.18 1.94 0 0 .1 0 .1-.1.25 0 .52-.08.7-.08.78-.27 1.4-.62 2.2-.9 1.66-.6 2.98-1.14 4.4-1.3.52-.1 1.13.34 1.4.52l1.05-.27c2.55 8.07 7.74 14.54 14.42 18.6l-.44 1.07c.2.45.37 1.07.2 1.5-.45 1.25-1.33 2.67-2.2 4.17-.54.7-.98 1.24-1.42 2.04-.08.18-.17.53-.26.7-.7 1.43-.18 3.02 1.06 3.64 1.23.62 2.72 0 3.43-1.42.1-.17.27-.44.36-.7.35-.8.44-1.5.7-2.3.62-1.7.97-3.55 1.94-4.6.26-.37.6-.46 1.05-.55l.53-1.06c5.8 2.3 12.3 2.83 18.82 1.32 1.4-.35 2.9-.8 4.22-1.33.18.35.53.88.53.97.44.17.97.26 1.32.8.7 1.23 1.14 2.65 1.67 4.33.26.8.44 1.6.8 2.4.08.17.17.44.25.6.7 1.43 2.2 2.14 3.42 1.52 1.24-.62 1.76-2.2 1.06-3.63-.1-.28-.18-.54-.26-.72-.44-.8-.88-1.33-1.32-2.04-.97-1.6-1.76-2.83-2.3-4.16-.17-.62.1-1.06.27-1.5-.17-.1-.35-.7-.44-.98 6.86-4.25 11.97-10.98 14.34-18.7.35 0 .88.2 1.14.2.37-.28.72-.63 1.33-.54 1.4.17 2.73.7 4.4 1.33.8.25 1.4.6 2.2.87.17.1.44.1.7.18h.1c1.5.35 2.9-.53 3.16-1.86.34-1.43-.63-2.85-2.12-3.2-.18 0-.53-.1-.7-.18-.9-.17-1.6-.1-2.38-.17-1.76-.18-3.17-.36-4.5-.8-.52-.18-.87-.8-1.04-1.06l-1.06-.37c.53-3.9.44-7.88-.53-11.95-.88-4.08-2.46-7.9-4.66-11.16.28-.27.8-.7.9-.8.08-.53 0-.98.52-1.5.97-.9 2.2-1.7 3.7-2.66.7-.45 1.3-.7 2.02-1.24.17-.18.44-.36.6-.45 1.16-.97 1.42-2.74.63-3.8-.88-1.16-2.55-1.25-3.78-.27-.2.18-.37.35-.54.44-.7.62-1.06 1.24-1.67 1.86-1.24 1.24-2.2 2.3-3.36 3.1-.52.27-1.23.18-1.5.18l-.96.7c-5.45-5.84-12.75-9.56-20.75-10.36v-1.15c-.36-.26-.8-.53-.88-1.24-.1-1.4.08-2.92.35-4.7.1-.8.26-1.5.26-2.38v-.8c0-1.6-1.05-2.83-2.46-2.83zm-3.17 19.92l-.7 13.56h-.1c0 1.24-.95 2.2-2.2 2.2-.43 0-.87-.17-1.22-.43h-.08l-10.73-7.9c3.34-3.35 7.56-5.74 12.4-6.9.88-.26 1.75-.35 2.63-.53zm6.34 0c5.62.7 10.9 3.37 14.95 7.44l-10.73 7.8c-.98.7-2.3.53-3-.44-.35-.36-.53-.8-.53-1.24zm-25.24 12.5l9.85 9.03-.1.1c.9.78 1.06 2.1.36 3.1-.35.43-.7.6-1.14.78h-.1l-12.48 3.8c-.7-6 .7-11.95 3.6-16.82zm44.06 0c1.48 2.47 2.54 5.13 3.24 8.14.62 2.92.8 5.76.53 8.6l-12.67-3.73v-.1c-1.14-.25-1.84-1.5-1.58-2.64.18-.52.35-.88.7-1.23l9.77-9.04zm-24.02 9.74h4.04l2.47 3.18-.9 4.08-3.6 1.77-3.6-1.76-.9-4.08zm12.93 10.98c.1 0 .27 0 .45.1h.08l12.93 2.2c-1.85 5.5-5.54 10.27-10.38 13.46l-5-12.57c-.45-1.07 0-2.4 1.05-2.93.26-.17.52-.17.88-.26zm-21.9.1c1.06 0 1.94.7 2.12 1.76.17.44.1.97-.1 1.4l-4.92 12.5c-4.74-3.1-8.44-7.7-10.37-13.37l12.84-2.3h.44zm10.9 5.48c.36-.1.72 0 1.07.17.44.28.8.55.96 1h.1l6.33 11.86c-.88.26-1.68.53-2.56.7-4.83 1.16-9.67.8-14.07-.8l6.34-11.77c.35-.72 1.05-1.16 1.84-1.16z"
              stroke="#fff" stroke-width=".05" fill="#fff"/>
        <path d="M159.64 320c-1.2.12-2.16.36-3.12.84l-41.64 20.52c-2.28 1.08-3.84 3-4.32 5.52l-10.32 46.2c-.48 2.16-.12 4.32 1.08 6.24.12.24.24.36.48.6l28.8 36.96c1.56 2.04 3.72 3.12 6.24 3.12h46.32c2.52 0 4.68-1.08 6.24-3.12l28.8-36.96c1.56-2.04 2.16-4.44 1.56-6.96l-10.32-46.08c-.48-2.52-2.04-4.44-4.32-5.52l-41.64-20.52c-1.32-.6-2.52-.96-3.84-.84z"
              stroke="#fff" stroke-width="0" fill="#326ce5"/>
        <path d="M160 335.72c-1.4 0-2.46 1.24-2.46 2.83V339.35c0 .88.17 1.6.26 2.4.27 1.76.44 3.27.35 4.68-.17.53-.52.98-.88 1.33v1.06c-1.5.18-3 .36-4.57.7-6.42 1.52-12.05 4.97-16.27 9.67-.26-.2-.8-.54-.88-.72-.44.1-.88.26-1.5-.1-1.14-.8-2.1-1.85-3.34-3.18-.6-.62-.95-1.15-1.66-1.77-.17-.18-.35-.35-.53-.44-.5-.46-1.13-.72-1.74-.72-.8 0-1.5.26-2.03.88-.88 1.16-.52 2.84.62 3.8l.1.1c.07.1.34.27.43.36.8.53 1.4.88 2.1 1.24 1.5.97 2.73 1.77 3.7 2.74.44.44.44 1.15.53 1.5l.8.72c-4.3 6.64-6.24 14.88-5.1 23.2l-1.06.36c-.26.35-.6.88-1.05 1.06-1.33.44-2.74.62-4.5.8-.8.08-1.5 0-2.37.17-.18 0-.44.1-.7.2-1.5.34-2.47 1.76-2.12 3.1.28 1.4 1.68 2.2 3.18 1.94 0 0 .1 0 .1-.1.25 0 .52-.08.7-.08.78-.27 1.4-.62 2.2-.9 1.66-.6 2.98-1.14 4.4-1.3.52-.1 1.13.34 1.4.52l1.05-.27c2.55 8.07 7.74 14.54 14.42 18.6l-.44 1.07c.2.45.37 1.07.2 1.5-.45 1.25-1.33 2.67-2.2 4.17-.54.7-.98 1.24-1.42 2.04-.08.18-.17.53-.26.7-.7 1.43-.18 3.02 1.06 3.64 1.23.62 2.72 0 3.43-1.42.1-.17.27-.44.36-.7.35-.8.44-1.5.7-2.3.62-1.7.97-3.55 1.94-4.6.26-.37.6-.46 1.05-.55l.53-1.06c5.8 2.3 12.3 2.83 18.82 1.32 1.4-.35 2.9-.8 4.22-1.33.18.35.53.88.53.97.44.17.97.26 1.32.8.7 1.23 1.14 2.65 1.67 4.33.26.8.44 1.6.8 2.4.08.17.17.44.25.6.7 1.43 2.2 2.14 3.42 1.52 1.24-.62 1.76-2.2 1.06-3.63-.1-.28-.18-.54-.26-.72-.44-.8-.88-1.33-1.32-2.04-.97-1.6-1.76-2.83-2.3-4.16-.17-.62.1-1.06.27-1.5-.17-.1-.35-.7-.44-.98 6.86-4.25 11.97-10.98 14.34-18.7.35 0 .88.2 1.14.2.37-.28.72-.63 1.33-.54 1.4.17 2.73.7 4.4 1.33.8.25 1.4.6 2.2.87.17.1.44.1.7.18h.1c1.5.35 2.9-.53 3.16-1.86.34-1.43-.63-2.85-2.12-3.2-.18 0-.53-.1-.7-.18-.9-.17-1.6-.1-2.38-.17-1.76-.18-3.17-.36-4.5-.8-.52-.18-.87-.8-1.04-1.06l-1.06-.37c.53-3.9.44-7.88-.53-11.95-.88-4.08-2.46-7.9-4.66-11.16.28-.27.8-.7.9-.8.08-.53 0-.98.52-1.5.97-.9 2.2-1.7 3.7-2.66.7-.45 1.3-.7 2.02-1.24.17-.18.44-.36.6-.45 1.16-.97 1.42-2.74.63-3.8-.88-1.16-2.55-1.25-3.78-.27-.2.18-.37.35-.54.44-.7.62-1.06 1.24-1.67 1.86-1.24 1.24-2.2 2.3-3.36 3.1-.52.27-1.23.18-1.5.18l-.96.7c-5.45-5.84-12.75-9.56-20.75-10.36v-1.15c-.36-.26-.8-.53-.88-1.24-.1-1.4.08-2.92.35-4.7.1-.8.26-1.5.26-2.38v-.8c0-1.6-1.05-2.83-2.46-2.83zm-3.17 19.92l-.7 13.56h-.1c0 1.24-.95 2.2-2.2 2.2-.43 0-.87-.17-1.22-.43h-.08l-10.73-7.9c3.34-3.35 7.56-5.74 12.4-6.9.88-.26 1.75-.35 2.63-.53zm6.34 0c5.62.7 10.9 3.37 14.95 7.44l-10.73 7.8c-.98.7-2.3.53-3-.44-.35-.36-.53-.8-.53-1.24zm-25.24 12.5l9.85 9.03-.1.1c.9.78 1.06 2.1.36 3.1-.35.43-.7.6-1.14.78h-.1l-12.48 3.8c-.7-6 .7-11.95 3.6-16.82zm44.06 0c1.48 2.47 2.54 5.13 3.24 8.14.62 2.92.8 5.76.53 8.6l-12.67-3.73v-.1c-1.14-.25-1.84-1.5-1.58-2.64.18-.52.35-.88.7-1.23l9.77-9.04zm-24.02 9.74h4.04l2.47 3.18-.9 4.08-3.6 1.77-3.6-1.76-.9-4.08zm12.93 10.98c.1 0 .27 0 .45.1h.08l12.93 2.2c-1.85 5.5-5.54 10.27-10.38 13.46l-5-12.57c-.45-1.07 0-2.4 1.05-2.93.26-.17.52-.17.88-.26zm-21.9.1c1.06 0 1.94.7 2.12 1.76.17.44.1.97-.1 1.4l-4.92 12.5c-4.74-3.1-8.44-7.7-10.37-13.37l12.84-2.3h.44zm10.9 5.48c.36-.1.72 0 1.07.17.44.28.8.55.96 1h.1l6.33 11.86c-.88.26-1.68.53-2.56.7-4.83 1.16-9.67.8-14.07-.8l6.34-11.77c.35-.72 1.05-1.16 1.84-1.16z"
              stroke="#fff" stroke-width=".05" fill="#fff"/>
        <path d="M279.64 140c-1.2.12-2.16.36-3.12.84l-41.64 20.52c-2.28 1.08-3.84 3-4.32 5.52l-10.32 46.2c-.48 2.16-.12 4.32 1.08 6.24.12.24.24.36.48.6l28.8 36.96c1.56 2.04 3.72 3.12 6.24 3.12h46.32c2.52 0 4.68-1.08 6.24-3.12l28.8-36.96c1.56-2.04 2.16-4.44 1.56-6.96l-10.32-46.08c-.48-2.52-2.04-4.44-4.32-5.52l-41.64-20.52c-1.32-.6-2.52-.96-3.84-.84z"
              stroke="#fff" stroke-width="0" fill="#326ce5"/>
        <path d="M280 155.72c-1.4 0-2.46 1.24-2.46 2.83V159.35c0 .88.17 1.6.26 2.4.27 1.76.44 3.27.35 4.68-.17.53-.52.98-.88 1.33v1.06c-1.5.18-3 .36-4.57.7-6.42 1.52-12.05 4.97-16.27 9.67-.26-.2-.8-.54-.88-.72-.44.1-.88.26-1.5-.1-1.14-.8-2.1-1.85-3.34-3.18-.6-.62-.95-1.15-1.66-1.77-.17-.18-.35-.35-.53-.44-.5-.46-1.13-.72-1.74-.72-.8 0-1.5.26-2.03.88-.88 1.16-.52 2.84.62 3.8l.1.1c.07.1.34.27.43.36.8.53 1.4.88 2.1 1.24 1.5.97 2.73 1.77 3.7 2.74.44.44.44 1.15.53 1.5l.8.72c-4.3 6.64-6.24 14.88-5.1 23.2l-1.06.36c-.26.35-.6.88-1.05 1.06-1.33.44-2.74.62-4.5.8-.8.08-1.5 0-2.37.17-.18 0-.44.1-.7.2-1.5.34-2.47 1.76-2.12 3.1.28 1.4 1.68 2.2 3.18 1.94 0 0 .1 0 .1-.1.25 0 .52-.08.7-.08.78-.27 1.4-.62 2.2-.9 1.66-.6 2.98-1.14 4.4-1.3.52-.1 1.13.34 1.4.52l1.05-.27c2.55 8.07 7.74 14.54 14.42 18.6l-.44 1.07c.2.45.37 1.07.2 1.5-.45 1.25-1.33 2.67-2.2 4.17-.54.7-.98 1.24-1.42 2.04-.08.18-.17.53-.26.7-.7 1.43-.18 3.02 1.06 3.64 1.23.62 2.72 0 3.43-1.42.1-.17.27-.44.36-.7.35-.8.44-1.5.7-2.3.62-1.7.97-3.55 1.94-4.6.26-.37.6-.46 1.05-.55l.53-1.06c5.8 2.3 12.3 2.83 18.82 1.32 1.4-.35 2.9-.8 4.22-1.33.18.35.53.88.53.97.44.17.97.26 1.32.8.7 1.23 1.14 2.65 1.67 4.33.26.8.44 1.6.8 2.4.08.17.17.44.25.6.7 1.43 2.2 2.14 3.42 1.52 1.24-.62 1.76-2.2 1.06-3.63-.1-.28-.18-.54-.26-.72-.44-.8-.88-1.33-1.32-2.04-.97-1.6-1.76-2.83-2.3-4.16-.17-.62.1-1.06.27-1.5-.17-.1-.35-.7-.44-.98 6.86-4.25 11.97-10.98 14.34-18.7.35 0 .88.2 1.14.2.37-.28.72-.63 1.33-.54 1.4.17 2.73.7 4.4 1.33.8.25 1.4.6 2.2.87.17.1.44.1.7.18h.1c1.5.35 2.9-.53 3.16-1.86.34-1.43-.63-2.85-2.12-3.2-.18 0-.53-.1-.7-.18-.9-.17-1.6-.1-2.38-.17-1.76-.18-3.17-.36-4.5-.8-.52-.18-.87-.8-1.04-1.06l-1.06-.37c.53-3.9.44-7.88-.53-11.95-.88-4.08-2.46-7.9-4.66-11.16.28-.27.8-.7.9-.8.08-.53 0-.98.52-1.5.97-.9 2.2-1.7 3.7-2.66.7-.45 1.3-.7 2.02-1.24.17-.18.44-.36.6-.45 1.16-.97 1.42-2.74.63-3.8-.88-1.16-2.55-1.25-3.78-.27-.2.18-.37.35-.54.44-.7.62-1.06 1.24-1.67 1.86-1.24 1.24-2.2 2.3-3.36 3.1-.52.27-1.23.18-1.5.18l-.96.7c-5.45-5.84-12.75-9.56-20.75-10.36v-1.15c-.36-.26-.8-.53-.88-1.24-.1-1.4.08-2.92.35-4.7.1-.8.26-1.5.26-2.38v-.8c0-1.6-1.05-2.83-2.46-2.83zm-3.17 19.92l-.7 13.56h-.1c0 1.24-.95 2.2-2.2 2.2-.43 0-.87-.17-1.22-.43h-.08l-10.73-7.9c3.34-3.35 7.56-5.74 12.4-6.9.88-.26 1.75-.35 2.63-.53zm6.34 0c5.62.7 10.9 3.37 14.95 7.44l-10.73 7.8c-.98.7-2.3.53-3-.44-.35-.36-.53-.8-.53-1.24zm-25.24 12.5l9.85 9.03-.1.1c.9.78 1.06 2.1.36 3.1-.35.43-.7.6-1.14.78h-.1l-12.48 3.8c-.7-6 .7-11.95 3.6-16.82zm44.06 0c1.48 2.47 2.54 5.13 3.24 8.14.62 2.92.8 5.76.53 8.6l-12.67-3.73v-.1c-1.14-.25-1.84-1.5-1.58-2.64.18-.52.35-.88.7-1.23l9.77-9.04zm-24.02 9.74h4.04l2.47 3.18-.9 4.08-3.6 1.77-3.6-1.76-.9-4.08zm12.93 10.98c.1 0 .27 0 .45.1h.08l12.93 2.2c-1.85 5.5-5.54 10.27-10.38 13.46l-5-12.57c-.45-1.07 0-2.4 1.05-2.93.26-.17.52-.17.88-.26zm-21.9.1c1.06 0 1.94.7 2.12 1.76.17.44.1.97-.1 1.4l-4.92 12.5c-4.74-3.1-8.44-7.7-10.37-13.37l12.84-2.3h.44zm10.9 5.48c.36-.1.72 0 1.07.17.44.28.8.55.96 1h.1l6.33 11.86c-.88.26-1.68.53-2.56.7-4.83 1.16-9.67.8-14.07-.8l6.34-11.77c.35-.72 1.05-1.16 1.84-1.16z"
              stroke="#fff" stroke-width=".05" fill="#fff"/>
        <path d="M160.42 301.53l.87-14 1.3-12.54 1.53-10.4 1.65-8.67 1.7-7.26 1.7-6.12 1.7-5.22 1.66-4.47 1.62-3.87 1.6-3.38 1.53-2.95 1.5-2.6 1.46-2.32 1.43-2.06 1.4-1.85 1.36-1.66 1.34-1.5 1.33-1.36 1.3-1.23 1.3-1.1 1.3-1.03 1.27-.93 1.28-.85 1.27-.78 1.3-.7 1.28-.65 1.3-.58 1.32-.53 1.34-.47 1.36-.4 1.4-.37.65-.14"
              stroke="#979ea8" stroke-width="2" fill="none"/>
        <path d="M160.07 316.8l-4.3-14.38 9.26.2zM219.93 199.93l-14.37 4.3.2-9.25z" stroke="#979ea8" stroke-width="2"
              fill="#979ea8"/>
        <path d="M355.2 199.6l.98.2 1.4.38 1.35.42 1.34.48 1.3.54 1.3.6 1.3.65 1.28.72 1.28.78 1.27.86 1.28.95 1.3 1.03 1.3 1.15 1.3 1.25 1.33 1.4 1.36 1.52 1.38 1.7 1.4 1.9 1.44 2.1 1.48 2.37 1.5 2.68 1.56 3.04 1.6 3.47 1.62 4 1.67 4.64 1.7 5.4 1.7 6.36 1.7 7.55 1.63 9.02 1.5 10.86 1.23 13.08.57 10.83"
              stroke="#979ea8" stroke-width="2" fill="none"/>
        <path d="M340.1 199.93l14.15-4.95.2 9.26zM399.92 316.8l-5-14.15 9.27-.24z" stroke="#979ea8" stroke-width="2"
              fill="#979ea8"/>
        <path d="M235 376.3l1.6-.34 13.13-2.1 10.43-1.23 9.1-.68 8.48-.27 8.37.08 8.7.45 9.6.9 11.4 1.57 9.23 1.66"
              stroke="#979ea8" stroke-width="2" fill="none"/>
        <path d="M220.03 379.35l13.05-7.4 1.85 9.08zM340 379.36l-14.9 1.72 1.83-9.1z" stroke="#979ea8" stroke-width="2"
              fill="#979ea8"/>
        <path d="M457.84 379.82l4.73-.87 3.98-.4 2.93-.04 2.23.17 1.76.27 1.42.34 1.18.4 1 .4.84.46.73.48.66.5.56.52.52.56.47.6.42.63.38.7.34.76.28.83.24.96.2 1.08.1 1.27v1.5l-.17 1.84-.38 2.25-.74 2.87-1.3 3.72-2.2 4.92-3.57 6.52-5.56 8.4-7.74 9.8-9.07 9.74-8.8 8-7.45 5.74-5.9 3.8-4.62 2.47-3.63 1.56-2.92.96-2.38.58-2 .32-1.7.12-1.46-.02-1.3-.12-1.16-.2-1.06-.3-.98-.35-.9-.43-.87-.48-.82-.57-.8-.63-.76-.74-.76-.85-.74-.98-.6-.98"
              stroke="#979ea8" stroke-width="2" fill="none"/>
        <path d="M458.05 380.8l-.97.18-.44-1.96 1.05-.2z" fill="#979ea8"/>
        <path d="M397.5 443.17l7.37 13.06-9.08 1.84z" stroke="#979ea8" stroke-width="2" fill="#979ea8"/>
        <path d="M159.96 441l-.18 4.26-.48 3.76-.6 2.8-.7 2.15-.7 1.72-.72 1.38-.73 1.15-.74.97-.74.82-.77.7-.8.63-.84.53-.88.46-.93.4-1 .3-1.12.26-1.24.16-1.4.07-1.6-.07-1.9-.24-2.26-.5-2.78-.87-3.48-1.43-4.46-2.3-5.78-3.67-7.36-5.63-8.8-8-9.02-9.76-7.57-9.73-5.3-8.15-3.3-6.22-1.95-4.62-1.12-3.47-.6-2.66-.3-2.08-.1-1.7.06-1.38.13-1.18.22-1.02.27-.9.32-.78.37-.7.42-.67.45-.6.5-.57.58-.53.64-.5.72-.48.85-.45 1-.42.04-.02"
              stroke="#979ea8" stroke-width="2" fill="none"/>
        <path d="M160.96 441.07l-2-.08.04-1h2z" fill="#979ea8"/>
        <path d="M99.35 382.52L85 386.88l.17-9.27z" stroke="#979ea8" stroke-width="2" fill="#979ea8"/>
        <path d="M231.8 162.4l-2.6-1.97-2.54-2.18-1.96-1.87-1.53-1.62-1.22-1.42-.96-1.27-.8-1.14-.62-1.04-.5-.96-.43-.88-.33-.8-.27-.78-.2-.72-.17-.7-.1-.65-.1-.62-.03-.62-.02-.6.02-.57.06-.6.1-.55.1-.57.14-.56.17-.56.22-.57.25-.6.3-.58.32-.6.38-.62.45-.64.53-.66.6-.7.72-.72.84-.77 1-.8 1.16-.88 1.4-.93 1.7-1 2.05-1.08 2.53-1.15 3.13-1.22 3.88-1.3 4.84-1.33 6-1.3 7.26-1.2 8.5-.95 9.36-.54 9.6-.06 9.06.43 8.03.8 6.78 1.04 5.58 1.16 4.52 1.2 3.66 1.16 2.97 1.13 2.43 1.06 2 1.02 1.66.95 1.4.9 1.17.86 1 .8.84.76.74.74.64.7.55.7.48.65.4.65.38.63.3.62.28.62.24.6.2.62.16.6.13.6.1.64.06.63.02.65v.67l-.05.68-.08.73-.14.76-.17.8-.25.84-.3.9-.38.96-.32.7"
              stroke="#979ea8" stroke-width="2" fill="none"/>
        <path d="M233.4 162.38l-.7.47-.7.98-.84-.64 1.22-1.6z" fill="#979ea8"/>
        <path d="M329.4 160.54l5.64-13.9 7.1 5.96z" stroke="#979ea8" stroke-width="2" fill="#979ea8"/>
        <path d="M160 288c0-4.42 3.58-8 8-8h224c4.42 0 8 3.58 8 8v44c0 4.42-3.58 8-8 8H168c-4.42 0-8-3.58-8-8z"
              fill="#fff" fill-opacity="0"/>
        <use xlink:href="#a" transform="matrix(1,0,0,1,165,285) translate(42.748000000000005 30.025)"/>
        <use xlink:href="#b" transform="matrix(1,0,0,1,165,285) translate(93.346 30.025)"/>
        <defs>
            <path fill="#fff"
                  d="M23-677c-68-88 127-122 212-122 113 0 253 24 291 82 92 144-48 310-153 365-52 27-102 48-161 69-56 20-53 15-58 80-4 49-8 103-13 153-3 31-19 46-43 46-44 0-65-28-63-81 5-162 8-330 16-486 3-53-4-75-28-106zm415 73c0-44-44-66-132-66-78 0-124 8-135 26-10 16-14 89-14 218 0 44 22 39 57 25 83-34 224-115 224-203"
                  id="c"/>
            <path fill="#fff"
                  d="M330-158c82-22 193-18 286-31 38 11 58 81 24 113-25 24-71 25-116 25-135 0-238 34-358 47C61 7 4-52 15-159c12-113 37-213 32-340-2-59 2-121-2-178-2-44 35-62 81-61 104-31 222-52 345-64 68-7 103 34 111 94 2 12-3 22-9 31-33 14-62 15-103 16-100 2-196 10-270 40h-8c-18 23-11 79-15 106-1 13 5 22 16 25 82-10 176-25 264-12 44 7 78 26 71 72-7 49-76 30-125 30-78 0-138 22-210 29-24 1-35 28-36 52-2 41-10 83-8 126-19 84 122 51 181 35"
                  id="d"/>
            <path fill="#fff"
                  d="M608-642l-20 77c-36 56-69 94-113 138-49 48-58 40-29 81 33 46 69 89 97 147 44 89 52 141 40 147-3 38-20 49-63 52-68 5-97-106-129-160-40-68-56-162-144-164-53-1-27 78-45 121-7 56-12 123-28 170C157-4 113 24 66-1 46-11 40-39 49-87c19-111 19-139 19-313 0-144 1-187-40-242-27-37-13-94 26-108 103-36 250-59 389-41 63 8 182 85 165 149zm-140 11c-10-39-42-58-96-57-53 12-154 21-179 43-5 9-8 31-8 65 0 151 19 135 127 94 94-36 148-79 156-145"
                  id="e"/>
            <g id="a">
                <use transform="matrix(0.018,0,0,0.018,0,0)" xlink:href="#c"/>
                <use transform="matrix(0.018,0,0,0.018,10.152,0)" xlink:href="#d"/>
                <use transform="matrix(0.018,0,0,0.018,22.140000000000004,0)" xlink:href="#d"/>
                <use transform="matrix(0.018,0,0,0.018,34.128,0)" xlink:href="#e"/>
            </g>
            <path fill="#fff"
                  d="M521-275c40-33 108-24 108 34 0 49-75 103-210 183-80 47-247 72-323 10-66-54-95-101-82-218 12-106 41-136 91-224 55-96 145-209 240-278 32-23 68-33 107-33 86 2 108 61 107 158 0 55-15 82-44 82-55 1-25-116-79-110-132 15-229 223-291 334-48 86-31 226 81 218 122-9 217-92 295-156"
                  id="f"/>
            <path fill="#fff"
                  d="M21-302C-7-136 9 24 196-12c147-28 263-93 386-142 57-23 26-120-26-120-111 32-240 115-378 126-13 1-22-26-25-45 30-174 59-350 88-524 10-62-86-124-120-61-39 73-49 196-69 277-19 77-22 145-31 199"
                  id="g"/>
            <path fill="#fff"
                  d="M106-737c41-53 131 12 108 86-42 139-71 285-71 455 0 88 72 66 143 48 49-12 128-35 183-63 38-19 36-69 44-119 17-114 31-247 31-354 0-57 26-85 79-85 37 0 55 27 55 81 0 190-34 397-59 573 4 31 20 93-13 105-8 10-30 7-65-8-16-20-33-38-51-54C397-48 305 0 205 0 79 0 5-43 13-176c13-196 50-391 93-561"
                  id="h"/>
            <path fill="#fff"
                  d="M371-533c189 0 256 55 239 237-9 91-67 138-157 205C374-33 301-7 236-7 155-7 13-82 18-160c3-44 62-73 96-38 43 44 152 73 218 29 77-51 166-125 156-169 2-44-67-63-119-62-47 1-108 1-155 3C87-393 13-429 1-531c11-87 101-150 165-187 90-52 160-96 290-87 34 2 118 78 115 115-3 35-23 38-55 45-15 4-26-4-33-24-37-64-116-1-164 12-41 11-154 77-154 113 0 15 14 22 41 22 45 0 127-11 165-11"
                  id="i"/>
            <path fill="#fff"
                  d="M593-790c58 0 99 54 77 117-5 13-15 16-35 14-70-7-152-3-229 7-31 20-24 81-26 127-4 138-16 277-16 422 0 32 4 70-21 83-26 36-88 7-103-20 1-182 10-346 21-521 2-27 11-81-18-84-73-7-138 11-206 3-20-18-39-18-32-51-3-78 74-91 145-91 129 0 251 6 369-8 25-3 49 2 74 2"
                  id="j"/>
            <g id="b">
                <use transform="matrix(0.018,0,0,0.018,0,0)" xlink:href="#f"/>
                <use transform="matrix(0.018,0,0,0.018,11.411999999999999,0)" xlink:href="#g"/>
                <use transform="matrix(0.018,0,0,0.018,22.482,0)" xlink:href="#h"/>
                <use transform="matrix(0.018,0,0,0.018,35.135999999999996,0)" xlink:href="#i"/>
                <use transform="matrix(0.018,0,0,0.018,46.494,0)" xlink:href="#j"/>
                <use transform="matrix(0.018,0,0,0.018,59.43599999999999,0)" xlink:href="#d"/>
                <use transform="matrix(0.018,0,0,0.018,71.42399999999999,0)" xlink:href="#e"/>
                <use transform="matrix(0.018,0,0,0.018,82.54799999999999,0)" xlink:href="#i"/>
            </g>
        </defs>
    </g>
</svg>