<svg xmlns:xlink="http://www.w3.org/1999/xlink" xmlns:lucid="lucid" xmlns="http://www.w3.org/2000/svg" width="1440"
     height="740.33">
    <g transform="translate(-20 0)" lucid:page-tab-id="0_0">
        <path d="M0 0h1870.4v1323.2H0z" fill="#282c33"/>
        <path d="M741.5 281H534.25v-2H741.5z" fill="#979ea8"/>
        <path fill="#979ea8"/>
        <path d="M756.76 280l-14.26 4.64v-9.28z" fill="#979ea8"/>
        <path d="M760 280l-18.5 6v-12zm-16.5 3.26l10.03-3.26-10.03-3.26z" fill="#979ea8"/>
        <use xlink:href="#a" transform="matrix(1,0,0,1,465.746,270.334) translate(0 14.4)"/>
        <path d="M40 28c0-4.42 3.58-8 8-8h524c4.42 0 8 3.58 8 8v644c0 4.42-3.58 8-8 8H48c-4.42 0-8-3.58-8-8z"
              stroke="#fff" fill-opacity="0"/>
        <use xlink:href="#b" transform="matrix(1,0,0,1,45,25) translate(184.55800000000002 14.4)"/>
        <use xlink:href="#c" transform="matrix(1,0,0,1,45,25) translate(262.894 14.4)"/>
        <path d="M660 28c0-4.42 3.58-8 8-8h764c4.42 0 8 3.58 8 8v644c0 4.42-3.58 8-8 8H668c-4.42 0-8-3.58-8-8z"
              stroke="#fff" fill-opacity="0"/>
        <use xlink:href="#d" transform="matrix(1,0,0,1,665,25) translate(299.05 14.4)"/>
        <use xlink:href="#e" transform="matrix(1,0,0,1,665,25) translate(377.044 14.4)"/>
        <path d="M101 641.5h-2V240.27h2zm0-439.9h-2v-82.27h2z" fill="#83bbe5"/>
        <path fill="#83bbe5"/>
        <path d="M100 656.76l-4.64-14.26h9.28z" fill="#83bbe5"/>
        <path d="M100 660l-6-18.5h12zm-3.26-16.5l3.26 10.03 3.26-10.03z" fill="#83bbe5"/>
        <use xlink:href="#f" transform="matrix(1,0,0,1,63.50500000000001,80.668) translate(0.005000000000002558 14.4)"/>
        <use xlink:href="#g" transform="matrix(1,0,0,1,63.50500000000001,80.668) translate(18.760999999999996 33.732)"/>
        <use xlink:href="#h"
             transform="matrix(1,0,0,1,69.994,201.60696713615022) translate(0.004999999999999005 14.4)"/>
        <use xlink:href="#g"
             transform="matrix(1,0,0,1,69.994,201.60696713615022) translate(12.271999999999998 33.732)"/>
        <path d="M301 638.83h-2v-519.5h2z" fill="#979ea8"/>
        <path fill="#979ea8"/>
        <path d="M300 654.1l-4.64-14.27h9.28z" fill="#979ea8"/>
        <path d="M300 657.33l-6-18.5h12zm-3.26-16.5l3.26 10.03 3.26-10.03z" fill="#979ea8"/>
        <use xlink:href="#i" transform="matrix(1,0,0,1,199.50600000000003,80.668) translate(31.162999999999997 14.4)"/>
        <use xlink:href="#j" transform="matrix(1,0,0,1,199.50600000000003,80.668) translate(134.35699999999997 14.4)"/>
        <use xlink:href="#k"
             transform="matrix(1,0,0,1,199.50600000000003,80.668) translate(0.0049999999999954525 33.732)"/>
        <use xlink:href="#l"
             transform="matrix(1,0,0,1,199.50600000000003,80.668) translate(110.45299999999997 33.732)"/>
        <path d="M501 641.5h-2V485.2h2zm0-175.64h-2v-176.2h2zm0-195.53h-2v-151h2z" fill="#979ea8"/>
        <path fill="#979ea8"/>
        <path d="M500 656.76l-4.64-14.26h9.28z" fill="#979ea8"/>
        <path d="M500 660l-6-18.5h12zm-3.26-16.5l3.26 10.03 3.26-10.03z" fill="#979ea8"/>
        <use xlink:href="#m" transform="matrix(1,0,0,1,448.898,80.668) translate(21.100999999999996 14.4)"/>
        <use xlink:href="#n" transform="matrix(1,0,0,1,448.898,80.668) translate(0.005000000000002558 33.732)"/>
        <use xlink:href="#o" transform="matrix(1,0,0,1,469.832,465.8634117647059) translate(0 14.4)"/>
        <path d="M111.03 161H101v-2h10.03zm30.08 0h-20.04v-2h20.05zm30.1 0h-20.06v-2h20.05zm30.08 0h-20.06v-2h20.06zm30.08 0H211.3v-2h20.06zm30.08 0H241.4v-2h20.04zm20.06 0h-10.03v-2h10.03z"
              fill="#979ea8"/>
        <path d="M101.03 161H100v-2h1.03zM296.76 160l-14.26 4.64v-9.28z" fill="#979ea8"/>
        <path d="M300 160l-18.5 6v-12zm-16.5 3.26l10.03-3.26-10.03-3.26zM163.4 181h-44.9v-2h44.9zm135.6 0h-62.4v-2H299zM117.5 184.64L103.24 180l14.26-4.64z"
              fill="#979ea8"/>
        <path d="M118.5 186l-18.5-6 18.5-6zm-12.03-6l10.03 3.26v-6.52zM300 181h-1.03v-2H300z" fill="#979ea8"/>
        <use xlink:href="#p" transform="matrix(1,0,0,1,163.406,170.334) translate(0 14.4)"/>
        <path d="M300.7 257.04l.05.08h9.5v2H300l-.7-.3-.05-.07h-8.9v-2H300zm39.78 2.08h-20.15v-2h20.15zm30.22 0h-20.15v-2h20.15zm30.2 0h-20.13v-2h20.14zm30.23 0H411v-2h20.13zm30.22 0H441.2v-2h20.15zm20.15 0h-10.07v-2h10.07zm-371.03-.37H101v-2h9.47zm28.4 0h-18.94v-2h18.94zm28.4 0h-18.93v-2h18.93zm28.4 0h-18.93v-2h18.93zm28.4 0h-18.93v-2h18.94zm28.4 0h-18.93v-2h18.94zm28.4 0h-18.92v-2h18.93z"
              fill="#979ea8"/>
        <path d="M101.03 258.75H100v-2h1.03zM496.76 258.12l-14.26 4.63v-9.27z" fill="#979ea8"/>
        <path d="M500 258.12l-18.5 6v-12zm-16.5 3.26l10.03-3.26-10.03-3.26zM585 261h-84v-2h84zm136.5 0H655v-2h66.5z"
              fill="#979ea8"/>
        <path d="M501.03 261H500v-2h1.03zM736.76 260l-14.26 4.64v-9.28z" fill="#979ea8"/>
        <path d="M740 260l-18.5 6v-12zm-16.5 3.26l10.03-3.26-10.03-3.26z" fill="#979ea8"/>
        <use xlink:href="#q" transform="matrix(1,0,0,1,584.99,250.334) translate(0 14.4)"/>
        <path d="M761.5 301H501v-2h260.5z" fill="#979ea8"/>
        <path d="M501.03 301H500v-2h1.03zM776.76 300l-14.26 4.64v-9.28z" fill="#979ea8"/>
        <path d="M780 300l-18.5 6v-12zm-16.5 3.26l10.03-3.26-10.03-3.26z" fill="#979ea8"/>
        <path d="M741 260h10.03m10.03 0h20.05m10.04 0h20.05m10.02 0h20.06m10.02 0h20.06m10.03 0h20.04m10.03 0h10.03M741.03 260H740"
              stroke="#979ea8" stroke-width="2" fill="none"/>
        <path d="M936.76 260l-14.26 4.64v-9.28z" stroke="#979ea8" stroke-width="2" fill="#979ea8"/>
        <path d="M761 280h10.03m10.03 0h20.05m10.04 0h20.05m10.02 0h20.06m10.02 0h20.06m10.03 0h20.04m10.03 0h10.03M761.03 280H760"
              stroke="#979ea8" stroke-width="2" fill="none"/>
        <path d="M956.76 280l-14.26 4.64v-9.28z" stroke="#979ea8" stroke-width="2" fill="#979ea8"/>
        <path d="M791.03 301H781v-2h10.03zm30.08 0h-20.04v-2h20.05zm30.1 0h-20.06v-2h20.05zm30.08 0h-20.06v-2h20.06zm30.08 0H891.3v-2h20.06zm30.08 0H921.4v-2h20.04zm20.06 0h-10.03v-2h10.03z"
              fill="#979ea8"/>
        <path d="M781.03 301H780v-2h1.03zM976.76 300l-14.26 4.64v-9.28z" fill="#979ea8"/>
        <path d="M980 300l-18.5 6v-12zm-16.5 3.26l10.03-3.26-10.03-3.26zM1005 261h-64v-2h64zm116.5 0H1075v-2h46.5z"
              fill="#979ea8"/>
        <path d="M941.03 261H940v-2h1.03zM1136.76 260l-14.26 4.64v-9.28z" fill="#979ea8"/>
        <path d="M1140 260l-18.5 6v-12zm-16.5 3.26l10.03-3.26-10.03-3.26z" fill="#979ea8"/>
        <use xlink:href="#q" transform="matrix(1,0,0,1,1004.99,250.334) translate(0 14.4)"/>
        <path d="M1141.5 281H961v-2h180.5z" fill="#979ea8"/>
        <path d="M961.03 281H960v-2h1.03zM1156.76 280l-14.26 4.64v-9.28z" fill="#979ea8"/>
        <path d="M1160 280l-18.5 6v-12zm-16.5 3.26l10.03-3.26-10.03-3.26zM1161.5 301H981v-2h180.5z" fill="#979ea8"/>
        <path d="M981.03 301H980v-2h1.03zM1176.76 300l-14.26 4.64v-9.28z" fill="#979ea8"/>
        <path d="M1180 300l-18.5 6v-12zm-16.5 3.26l10.03-3.26-10.03-3.26z" fill="#979ea8"/>
        <path d="M1141 260h10.03m10.03 0h20.05m10.04 0h20.05m10.02 0h20.06m10.02 0h20.06m10.03 0h20.04m10.03 0h10.03M1141.03 260H1140"
              stroke="#979ea8" stroke-width="2" fill="none"/>
        <path d="M1336.76 260l-14.26 4.64v-9.28z" stroke="#979ea8" stroke-width="2" fill="#979ea8"/>
        <path d="M1161 280h10.03m10.03 0h20.05m10.04 0h20.05m10.02 0h20.06m10.02 0h20.06m10.03 0h20.04m10.03 0h10.03M1161.03 280H1160"
              stroke="#979ea8" stroke-width="2" fill="none"/>
        <path d="M1356.76 280l-14.26 4.64v-9.28z" stroke="#979ea8" stroke-width="2" fill="#979ea8"/>
        <path d="M1181 300h10.03m10.03 0h20.05m10.04 0h20.05m10.02 0h20.06m10.02 0h20.06m10.03 0h20.04m10.03 0h10.03M1181.03 300H1180"
              stroke="#979ea8" stroke-width="2" fill="none"/>
        <path d="M1376.76 300l-14.26 4.64v-9.28z" stroke="#979ea8" stroke-width="2" fill="#979ea8"/>
        <path d="M923.16 421H758.5v-2h164.66zm415.84 0h-182.16v-2H1339zM757.5 424.64L743.24 420l14.26-4.64z"
              fill="#979ea8"/>
        <path d="M758.5 426l-18.5-6 18.5-6zm-12.03-6l10.03 3.26v-6.52zM1340 421h-1.03v-2h1.03z" fill="#979ea8"/>
        <use xlink:href="#r" transform="matrix(1,0,0,1,923.162,410.334) translate(0.0049999999999954525 14.4)"/>
        <use xlink:href="#s" transform="matrix(1,0,0,1,923.162,410.334) translate(101.88499999999999 14.4)"/>
        <use xlink:href="#t" transform="matrix(1,0,0,1,923.162,410.334) translate(136.12099999999998 14.4)"/>
        <path d="M1359 441H778.5v-2H1359zM777.5 444.64L763.24 440l14.26-4.64z" fill="#979ea8"/>
        <path d="M778.5 446l-18.5-6 18.5-6zm-12.03-6l10.03 3.26v-6.52zM1360 441h-1.03v-2h1.03zM528.52 441H518.5v-2h10.02zm30.06 0h-20.04v-2h20.04zm30.07 0H568.6v-2h20.05zm30.06 0h-20.03v-2h20.04zm30.07 0h-20.04v-2h20.04zm30.06 0H658.8v-2h20.03zm30.07 0h-20.05v-2h20.05zm30.06 0h-20.04v-2h20.04zm20.04 0h-10.02v-2H759zM517.5 444.64L503.24 440l14.26-4.64z"
              fill="#979ea8"/>
        <path d="M518.5 446l-18.5-6 18.5-6zm-12.03-6l10.03 3.26v-6.52zM760 441h-1.03v-2H760z" fill="#979ea8"/>
        <path d="M518.5 420H529m10.5 0h21m10.5 0h21m10.5 0h21m10.5 0h21m10.5 0h21m10.5 0h21m10.5 0H739" stroke="#979ea8"
              stroke-width="2" fill="none"/>
        <path d="M503.24 420l14.26-4.64v9.28z" stroke="#979ea8" stroke-width="2" fill="#979ea8"/>
        <path d="M738.97 420H740" stroke="#979ea8" stroke-width="2" fill="none"/>
        <path d="M531.6 521H501v-2h30.6zm189.9 0h-13.1v-2h13.1z" fill="#979ea8"/>
        <path d="M501.03 521H500v-2h1.03zM736.76 520l-14.26 4.64v-9.28z" fill="#979ea8"/>
        <path d="M740 520l-18.5 6v-12zm-16.5 3.26l10.03-3.26-10.03-3.26z" fill="#979ea8"/>
        <use xlink:href="#r" transform="matrix(1,0,0,1,531.593,510.334) translate(0 14.4)"/>
        <use xlink:href="#u" transform="matrix(1,0,0,1,531.593,510.334) translate(101.88 14.4)"/>
        <path d="M751.18 521H741v-2h10.18zm30.56 0h-20.37v-2h20.37zm30.55 0H791.9v-2h20.37zm30.54 0h-20.37v-2h20.37zm30.55 0H853v-2h20.37zm30.55 0h-20.37v-2h20.37zm30.55 0h-20.37v-2h20.37zm30.55 0h-20.37v-2h20.37zm30.55 0h-20.36v-2h20.36zm30.56 0h-20.37v-2h20.36zm30.55 0h-20.36v-2h20.37zm30.56 0h-20.37v-2h20.36zm30.55 0h-20.35v-2h20.36zm30.57 0H1128v-2h20.37zm30.55 0h-20.37v-2h20.37zm30.55 0h-20.37v-2h20.37zm30.55 0h-20.36v-2h20.36zm30.56 0h-20.37v-2h20.38zm30.55 0h-20.37v-2h20.37zm20.37 0h-10.2v-2h10.2z"
              fill="#979ea8"/>
        <path fill="#979ea8"/>
        <path d="M1336.76 520l-14.26 4.64v-9.28z" fill="#979ea8"/>
        <path d="M1340 520l-18.5 6v-12zm-16.5 3.26l10.03-3.26-10.03-3.26zM1217.3 561h-58.8v-2h58.8zm121.7 0h-76.3v-2h76.3zM1157.5 564.64l-14.26-4.64 14.26-4.64z"
              fill="#979ea8"/>
        <path d="M1158.5 566l-18.5-6 18.5-6zm-12.03-6l10.03 3.26v-6.52zM1340 561h-1.03v-2h1.03z" fill="#979ea8"/>
        <use xlink:href="#v" transform="matrix(1,0,0,1,1217.293,550.3340000000001) translate(0 14.4)"/>
        <path d="M968.53 561H958.5v-2h10.03zm30.08 0h-20.04v-2h20.05zm30.1 0h-20.06v-2h20.06zm30.08 0h-20.06v-2h20.06zm30.08 0h-20.05v-2h20.06zm30.08 0h-20.05v-2h20.04zm20.06 0h-10.03v-2H1139zM957.5 564.64L943.24 560l14.26-4.64z"
              fill="#979ea8"/>
        <path d="M958.5 566l-18.5-6 18.5-6zm-12.03-6l10.03 3.26v-6.52zM1140 561h-1.03v-2h1.03zM786.83 561H758.5v-2h28.33zM939 561h-5.83v-2H939zM757.5 564.64L743.24 560l14.26-4.64z"
              fill="#979ea8"/>
        <path d="M758.5 566l-18.5-6 18.5-6zm-12.03-6l10.03 3.26v-6.52zM940 561h-1.03v-2H940z" fill="#979ea8"/>
        <use xlink:href="#w" transform="matrix(1,0,0,1,786.8299999999999,550.334) translate(0 14.4)"/>
        <use xlink:href="#x" transform="matrix(1,0,0,1,786.8299999999999,550.334) translate(74.52000000000001 14.4)"/>
        <path d="M529 561h-10.5v-2H529zm31.5 0h-21v-2h21zm31.5 0h-21v-2h21zm31.5 0h-21v-2h21zm31.5 0h-21v-2h21zm31.5 0h-21v-2h21zm31.5 0h-21v-2h21zm21 0h-10.5v-2H739zM517.5 564.64L503.24 560l14.26-4.64z"
              fill="#979ea8"/>
        <path d="M518.5 566l-18.5-6 18.5-6zm-12.03-6l10.03 3.26v-6.52zM740 561h-1.03v-2H740zM379.96 561H118.5v-2h261.46zM499 561h-73.63v-2H499zM117.5 564.64L103.24 560l14.26-4.64z"
              fill="#979ea8"/>
        <path d="M118.5 566l-18.5-6 18.5-6zm-12.03-6l10.03 3.26v-6.52zM500 561h-1.03v-2H500z" fill="#979ea8"/>
        <use xlink:href="#v" transform="matrix(1,0,0,1,379.9596666666667,550.334) translate(0 14.4)"/>
        <path d="M110.76 601H101v-2h9.76zm29.27 0H120.5v-2h19.53zm29.26 0h-19.52v-2h19.5zm29.26 0h-19.5v-2h19.5zm29.27 0h-19.5v-2h19.5zm29.27 0h-19.5v-2h19.5zm29.27 0h-19.5v-2h19.5zm29.27 0h-19.5v-2h19.5zm29.27 0h-19.5v-2h19.5zm29.28 0h-19.5v-2h19.5zm29.27 0h-19.52v-2h19.52zm29.27 0H413.2v-2h19.52zm29.27 0h-19.53v-2H462zm19.5 0h-9.76v-2h9.76z"
              fill="#979ea8"/>
        <path d="M101.03 601H100v-2h1.03zM496.76 600l-14.26 4.64v-9.28z" fill="#979ea8"/>
        <path d="M500 600l-18.5 6v-12zm-16.5 3.26l10.03-3.26-10.03-3.26zM594.58 601H501v-2h93.58zm146.92 0h-76.08v-2h76.08z"
              fill="#979ea8"/>
        <path d="M501.03 601H500v-2h1.03zM756.76 600l-14.26 4.64v-9.28z" fill="#979ea8"/>
        <path d="M760 600l-18.5 6v-12zm-16.5 3.26l10.03-3.26-10.03-3.26z" fill="#979ea8"/>
        <use xlink:href="#y" transform="matrix(1,0,0,1,594.576,590.334) translate(0 14.4)"/>
        <path d="M761.5 621H501v-2h260.5z" fill="#979ea8"/>
        <path d="M501.03 621H500v-2h1.03zM776.76 620l-14.26 4.64v-9.28z" fill="#979ea8"/>
        <path d="M780 620l-18.5 6v-12zm-16.5 3.26l10.03-3.26-10.03-3.26z" fill="#979ea8"/>
        <path d="M761 646.83h-2v-527.5h2z" fill="#83bbe5"/>
        <path fill="#83bbe5"/>
        <path d="M760 662.1l-4.64-14.27h9.28z" fill="#83bbe5"/>
        <path d="M760 665.33l-6-18.5h12zm-3.26-16.5l3.26 10.03 3.26-10.03z" fill="#83bbe5"/>
        <use xlink:href="#z" transform="matrix(1,0,0,1,714.514,80.668) translate(27.751999999999995 14.4)"/>
        <use xlink:href="#A" transform="matrix(1,0,0,1,714.514,80.668) translate(0.005000000000002558 33.732)"/>
        <path d="M781 646.83h-2v-527.5h2z" fill="#83bbe5"/>
        <path fill="#83bbe5"/>
        <path d="M780 662.1l-4.64-14.27h9.28z" fill="#83bbe5"/>
        <path d="M780 665.33l-6-18.5h12zm-3.26-16.5l3.26 10.03 3.26-10.03z" fill="#83bbe5"/>
        <path d="M961 649.5h-2V429.67h2zm0-239.17h-2v-291h2z" fill="#979ea8"/>
        <path fill="#979ea8"/>
        <path d="M960 664.76l-4.64-14.26h9.28z" fill="#979ea8"/>
        <path d="M960 668l-6-18.5h12zm-3.26-16.5l3.26 10.03 3.26-10.03z" fill="#979ea8"/>
        <use xlink:href="#B" transform="matrix(1,0,0,1,894.102,80.668) translate(0.0049999999999954525 14.4)"/>
        <use xlink:href="#C" transform="matrix(1,0,0,1,894.102,80.668) translate(40.828999999999986 14.4)"/>
        <use xlink:href="#D" transform="matrix(1,0,0,1,894.102,80.668) translate(5.314999999999991 33.732)"/>
        <path d="M981 649.5h-2V429.67h2zm0-239.17h-2v-291h2z" fill="#979ea8"/>
        <path fill="#979ea8"/>
        <path d="M980 664.76l-4.64-14.26h9.28z" fill="#979ea8"/>
        <path d="M980 668l-6-18.5h12zm-3.26-16.5l3.26 10.03 3.26-10.03z" fill="#979ea8"/>
        <path d="M1161 648.16h-2V119.33h2z" fill="#83bbe5"/>
        <path fill="#83bbe5"/>
        <path d="M1160 663.43l-4.64-14.27h9.28z" fill="#83bbe5"/>
        <path d="M1160 666.67l-6-18.5h12zm-3.26-16.5l3.26 10.02 3.26-10.04z" fill="#83bbe5"/>
        <use xlink:href="#E" transform="matrix(1,0,0,1,1108.907,80.668) translate(0.005000000000002558 14.4)"/>
        <use xlink:href="#g" transform="matrix(1,0,0,1,1108.907,80.668) translate(33.359 33.732)"/>
        <path d="M1181 648.16h-2V119.33h2z" fill="#83bbe5"/>
        <path fill="#83bbe5"/>
        <path d="M1180 663.43l-4.64-14.27h9.28z" fill="#83bbe5"/>
        <path d="M1180 666.67l-6-18.5h12zm-3.26-16.5l3.26 10.02 3.26-10.04z" fill="#83bbe5"/>
        <use xlink:href="#F" transform="matrix(1,0,0,1,1180,87.2) translate(0.005 17.06666666666667)"/>
        <path d="M1361 646.83h-2v-254.5h2zm0-273.83h-2v-22h2zm0-41.33h-2V119.33h2z" fill="#979ea8"/>
        <path fill="#979ea8"/>
        <path d="M1360 662.1l-4.64-14.27h9.28z" fill="#979ea8"/>
        <path d="M1360 665.33l-6-18.5h12zm-3.26-16.5l3.26 10.03 3.26-10.03z" fill="#979ea8"/>
        <use xlink:href="#G" transform="matrix(1,0,0,1,1308.898,80.668) translate(0.013999999999995794 14.4)"/>
        <use xlink:href="#n" transform="matrix(1,0,0,1,1308.898,80.668) translate(0.005000000000002558 33.732)"/>
        <use xlink:href="#a"
             transform="matrix(1,0,0,1,1325.746,331.6673333333334) translate(0.005000000000002558 14.4)"/>
        <use xlink:href="#H" transform="matrix(1,0,0,1,1329.832,373.0006666666667) translate(0 14.4)"/>
        <path d="M1381 646.83h-2v-254.5h2zm0-273.83h-2v-22h2zm0-41.33h-2V119.33h2z" fill="#979ea8"/>
        <path fill="#979ea8"/>
        <path d="M1380 662.1l-4.64-14.27h9.28z" fill="#979ea8"/>
        <path d="M1380 665.33l-6-18.5h12zm-3.26-16.5l3.26 10.03 3.26-10.03z" fill="#979ea8"/>
        <path d="M741 646.83h-2v-527.5h2z" fill="#83bbe5"/>
        <path fill="#83bbe5"/>
        <path d="M740 662.1l-4.64-14.27h9.28z" fill="#83bbe5"/>
        <path d="M740 665.33l-6-18.5h12zm-3.26-16.5l3.26 10.03 3.26-10.03z" fill="#83bbe5"/>
        <path d="M941 646.83h-2V429.67h2zm0-236.5h-2v-291h2z" fill="#979ea8"/>
        <path fill="#979ea8"/>
        <path d="M940 662.1l-4.64-14.27h9.28z" fill="#979ea8"/>
        <path d="M940 665.33l-6-18.5h12zm-3.26-16.5l3.26 10.03 3.26-10.03z" fill="#979ea8"/>
        <path d="M1141 646.83h-2V429.67h2zm0-236.5h-2v-291h2z" fill="#83bbe5"/>
        <path fill="#83bbe5"/>
        <path d="M1140 662.1l-4.64-14.27h9.28z" fill="#83bbe5"/>
        <path d="M1140 665.33l-6-18.5h12zm-3.26-16.5l3.26 10.03 3.26-10.03z" fill="#83bbe5"/>
        <g>
            <use xlink:href="#I" transform="matrix(1,0,0,1,1036.906,580.668) translate(0.010000000000005116 14.4)"/>
            <use xlink:href="#g" transform="matrix(1,0,0,1,1036.906,580.668) translate(59.626000000000005 33.732)"/>
        </g>
        <path d="M1341 646.83h-2v-254.5h2zm0-273.83h-2v-22h2zm0-41.33h-2V119.33h2z" fill="#979ea8"/>
        <path fill="#979ea8"/>
        <path d="M1340 662.1l-4.64-14.27h9.28z" fill="#979ea8"/>
        <path d="M1340 665.33l-6-18.5h12zm-3.26-16.5l3.26 10.03 3.26-10.03z" fill="#979ea8"/>
        <path d="M40 688c0-4.42 3.58-8 8-8h224c4.42 0 8 3.58 8 8v24c0 4.42-3.58 8-8 8H48c-4.42 0-8-3.58-8-8z"
              fill="#fff" fill-opacity="0"/>
        <g>
            <use xlink:href="#J" transform="matrix(1,0,0,1,45,685) translate(0 14.4)"/>
            <use xlink:href="#K" transform="matrix(1,0,0,1,45,685) translate(50.291999999999994 14.4)"/>
            <use xlink:href="#L" transform="matrix(1,0,0,1,45,685) translate(0 33.732)"/>
            <use xlink:href="#M" transform="matrix(1,0,0,1,45,685) translate(92.33999999999999 33.732)"/>
        </g>
        <defs>
            <path fill="#fff"
                  d="M39-49c-7-93 9-204-6-289-18-30-12-41 1-77 37-27 19-97 25-162 2-23-27-37-49-40-11-18-14-56 0-71 17-39 273-99 376-109 72-7 163-32 165 45 1 65-62 51-115 66-63 18-176 24-229 55-41 23-20 107-25 176 83-2 166-25 259-33 74-6 91 70 44 97-80 23-228 35-304 57-18 6-27 18-27 35-9 45 6 274-42 299-35 2-92-5-73-49"
                  id="N"/>
            <path fill="#fff"
                  d="M292-638c-67 2-113 14-176 21-81 9-112-68-58-103 132-46 304-52 470-66l65 5c50 52 43 111-50 111-45 0-75 15-112 18-18 16-19 83-24 152-7 108-21 214-33 322-5 46 36 20 67 20 54 0 81-10 139-16 43 25 50 62 23 110-151 29-311 50-490 79C58 24-8 22 3-44c14-83 161-45 224-90 22-16 24-69 29-107 17-126 33-258 36-397"
                  id="O"/>
            <path fill="#fff"
                  d="M21-302C-7-136 9 24 196-12c147-28 263-93 386-142 57-23 26-120-26-120-111 32-240 115-378 126-13 1-22-26-25-45 30-174 59-350 88-524 10-62-86-124-120-61-39 73-49 196-69 277-19 77-22 145-31 199"
                  id="P"/>
            <path fill="#fff"
                  d="M593-790c58 0 99 54 77 117-5 13-15 16-35 14-70-7-152-3-229 7-31 20-24 81-26 127-4 138-16 277-16 422 0 32 4 70-21 83-26 36-88 7-103-20 1-182 10-346 21-521 2-27 11-81-18-84-73-7-138 11-206 3-20-18-39-18-32-51-3-78 74-91 145-91 129 0 251 6 369-8 25-3 49 2 74 2"
                  id="Q"/>
            <path fill="#fff"
                  d="M330-158c82-22 193-18 286-31 38 11 58 81 24 113-25 24-71 25-116 25-135 0-238 34-358 47C61 7 4-52 15-159c12-113 37-213 32-340-2-59 2-121-2-178-2-44 35-62 81-61 104-31 222-52 345-64 68-7 103 34 111 94 2 12-3 22-9 31-33 14-62 15-103 16-100 2-196 10-270 40h-8c-18 23-11 79-15 106-1 13 5 22 16 25 82-10 176-25 264-12 44 7 78 26 71 72-7 49-76 30-125 30-78 0-138 22-210 29-24 1-35 28-36 52-2 41-10 83-8 126-19 84 122 51 181 35"
                  id="R"/>
            <path fill="#fff"
                  d="M608-642l-20 77c-36 56-69 94-113 138-49 48-58 40-29 81 33 46 69 89 97 147 44 89 52 141 40 147-3 38-20 49-63 52-68 5-97-106-129-160-40-68-56-162-144-164-53-1-27 78-45 121-7 56-12 123-28 170C157-4 113 24 66-1 46-11 40-39 49-87c19-111 19-139 19-313 0-144 1-187-40-242-27-37-13-94 26-108 103-36 250-59 389-41 63 8 182 85 165 149zm-140 11c-10-39-42-58-96-57-53 12-154 21-179 43-5 9-8 31-8 65 0 151 19 135 127 94 94-36 148-79 156-145"
                  id="S"/>
            <g id="a">
                <use transform="matrix(0.018,0,0,0.018,0,0)" xlink:href="#N"/>
                <use transform="matrix(0.018,0,0,0.018,9.953999999999999,0)" xlink:href="#O"/>
                <use transform="matrix(0.018,0,0,0.018,21.383999999999997,0)" xlink:href="#P"/>
                <use transform="matrix(0.018,0,0,0.018,32.454,0)" xlink:href="#Q"/>
                <use transform="matrix(0.018,0,0,0.018,45.39600000000001,0)" xlink:href="#R"/>
                <use transform="matrix(0.018,0,0,0.018,57.384,0)" xlink:href="#S"/>
            </g>
            <path fill="#979ea8"
                  d="M371-533c189 0 256 55 239 237-9 91-67 138-157 205C374-33 301-7 236-7 155-7 13-82 18-160c3-44 62-73 96-38 43 44 152 73 218 29 77-51 166-125 156-169 2-44-67-63-119-62-47 1-108 1-155 3C87-393 13-429 1-531c11-87 101-150 165-187 90-52 160-96 290-87 34 2 118 78 115 115-3 35-23 38-55 45-15 4-26-4-33-24-37-64-116-1-164 12-41 11-154 77-154 113 0 15 14 22 41 22 45 0 127-11 165-11"
                  id="T"/>
            <path fill="#979ea8"
                  d="M44-443c79-191 208-366 448-366 141 0 239 118 267 253 46 222-61 413-213 490-83 42-221 78-338 30-55-23-106-43-129-82-26-14-80-140-57-202 2-41 8-89 22-123zm103 115c1 136 75 191 208 191 130 0 180-50 241-135 38-53 55-111 55-169 0-109-73-236-179-227-143 12-260 151-311 271-9 24-14 47-14 69"
                  id="U"/>
            <path fill="#979ea8"
                  d="M106-737c41-53 131 12 108 86-42 139-71 285-71 455 0 88 72 66 143 48 49-12 128-35 183-63 38-19 36-69 44-119 17-114 31-247 31-354 0-57 26-85 79-85 37 0 55 27 55 81 0 190-34 397-59 573 4 31 20 93-13 105-8 10-30 7-65-8-16-20-33-38-51-54C397-48 305 0 205 0 79 0 5-43 13-176c13-196 50-391 93-561"
                  id="V"/>
            <path fill="#979ea8"
                  d="M608-642l-20 77c-36 56-69 94-113 138-49 48-58 40-29 81 33 46 69 89 97 147 44 89 52 141 40 147-3 38-20 49-63 52-68 5-97-106-129-160-40-68-56-162-144-164-53-1-27 78-45 121-7 56-12 123-28 170C157-4 113 24 66-1 46-11 40-39 49-87c19-111 19-139 19-313 0-144 1-187-40-242-27-37-13-94 26-108 103-36 250-59 389-41 63 8 182 85 165 149zm-140 11c-10-39-42-58-96-57-53 12-154 21-179 43-5 9-8 31-8 65 0 151 19 135 127 94 94-36 148-79 156-145"
                  id="W"/>
            <path fill="#979ea8"
                  d="M521-275c40-33 108-24 108 34 0 49-75 103-210 183-80 47-247 72-323 10-66-54-95-101-82-218 12-106 41-136 91-224 55-96 145-209 240-278 32-23 68-33 107-33 86 2 108 61 107 158 0 55-15 82-44 82-55 1-25-116-79-110-132 15-229 223-291 334-48 86-31 226 81 218 122-9 217-92 295-156"
                  id="X"/>
            <path fill="#979ea8"
                  d="M330-158c82-22 193-18 286-31 38 11 58 81 24 113-25 24-71 25-116 25-135 0-238 34-358 47C61 7 4-52 15-159c12-113 37-213 32-340-2-59 2-121-2-178-2-44 35-62 81-61 104-31 222-52 345-64 68-7 103 34 111 94 2 12-3 22-9 31-33 14-62 15-103 16-100 2-196 10-270 40h-8c-18 23-11 79-15 106-1 13 5 22 16 25 82-10 176-25 264-12 44 7 78 26 71 72-7 49-76 30-125 30-78 0-138 22-210 29-24 1-35 28-36 52-2 41-10 83-8 126-19 84 122 51 181 35"
                  id="Y"/>
            <g id="b">
                <use transform="matrix(0.018,0,0,0.018,0,0)" xlink:href="#T"/>
                <use transform="matrix(0.018,0,0,0.018,11.357999999999999,0)" xlink:href="#U"/>
                <use transform="matrix(0.018,0,0,0.018,25.811999999999998,0)" xlink:href="#V"/>
                <use transform="matrix(0.018,0,0,0.018,38.465999999999994,0)" xlink:href="#W"/>
                <use transform="matrix(0.018,0,0,0.018,49.58999999999999,0)" xlink:href="#X"/>
                <use transform="matrix(0.018,0,0,0.018,61.00199999999999,0)" xlink:href="#Y"/>
            </g>
            <path fill="#979ea8"
                  d="M521-275c40-33 108-24 108 34 0 49-75 103-210 183-80 47-247 72-323 10-66-54-95-101-82-218 12-106 41-136 91-224 55-96 145-209 240-278 32-23 68-33 107-33 86 2 108 61 107 158 0 55-15 82-44 82-55 1-25-116-79-110-132 15-229 223-291 334-48 86-31 226 81 218 122-9 217-92 295-156"
                  id="Z"/>
            <path fill="#979ea8"
                  d="M21-302C-7-136 9 24 196-12c147-28 263-93 386-142 57-23 26-120-26-120-111 32-240 115-378 126-13 1-22-26-25-45 30-174 59-350 88-524 10-62-86-124-120-61-39 73-49 196-69 277-19 77-22 145-31 199"
                  id="aa"/>
            <path fill="#979ea8"
                  d="M371-533c189 0 256 55 239 237-9 91-67 138-157 205C374-33 301-7 236-7 155-7 13-82 18-160c3-44 62-73 96-38 43 44 152 73 218 29 77-51 166-125 156-169 2-44-67-63-119-62-47 1-108 1-155 3C87-393 13-429 1-531c11-87 101-150 165-187 90-52 160-96 290-87 34 2 118 78 115 115-3 35-23 38-55 45-15 4-26-4-33-24-37-64-116-1-164 12-41 11-154 77-154 113 0 15 14 22 41 22 45 0 127-11 165-11"
                  id="ab"/>
            <path fill="#979ea8"
                  d="M593-790c58 0 99 54 77 117-5 13-15 16-35 14-70-7-152-3-229 7-31 20-24 81-26 127-4 138-16 277-16 422 0 32 4 70-21 83-26 36-88 7-103-20 1-182 10-346 21-521 2-27 11-81-18-84-73-7-138 11-206 3-20-18-39-18-32-51-3-78 74-91 145-91 129 0 251 6 369-8 25-3 49 2 74 2"
                  id="ac"/>
            <g id="c">
                <use transform="matrix(0.018,0,0,0.018,0,0)" xlink:href="#Z"/>
                <use transform="matrix(0.018,0,0,0.018,11.411999999999999,0)" xlink:href="#aa"/>
                <use transform="matrix(0.018,0,0,0.018,22.482,0)" xlink:href="#V"/>
                <use transform="matrix(0.018,0,0,0.018,35.135999999999996,0)" xlink:href="#ab"/>
                <use transform="matrix(0.018,0,0,0.018,46.494,0)" xlink:href="#ac"/>
                <use transform="matrix(0.018,0,0,0.018,59.43599999999999,0)" xlink:href="#Y"/>
                <use transform="matrix(0.018,0,0,0.018,71.42399999999999,0)" xlink:href="#W"/>
            </g>
            <path fill="#979ea8"
                  d="M382-556c-3 158-18 304-18 470 0 31 6 72-21 86-20 35-87 21-104-6-1-188 14-367 23-549 1-24 13-80-17-80-77 0-131 31-210 31-15-10-43-18-33-45 0-82 83-94 148-109 103-23 215-12 315-40 43-12 91-17 142-23 62-8 95 53 77 116-8 28-47 14-75 18-68 9-134 10-195 30-32 11-31 60-32 101"
                  id="ad"/>
            <path fill="#979ea8"
                  d="M103-24C79 10-2-14 8-59c42-186 129-353 193-524 23-62 63-135 99-197 39-38 106-10 109 47 27 100 51 209 81 307 8 25 72 24 72 63 0 44-26 46-37 75 12 83 46 156 55 243 7 63-106 47-114 11-13-58-36-170-57-231-3-4-7-8-9-14-69 4-134 40-198 52-53 21-53 108-81 160-4 16-8 29-18 43zm215-551c-16 18-92 195-73 208 46 2 100-12 123-31-5-30-32-162-38-171-2-3-6-5-12-6"
                  id="ae"/>
            <path fill="#979ea8"
                  d="M590-683c0-95-64-132-148-103-62 21-113 58-161 92-97 69-165 165-223 275C-45-222 51 11 277-12c154-16 257-81 343-160 63-58 100-126 109-243 12-155-158-93-246-67-61 18-178 69-168 115-2 30 28 68 54 64 69-10 133-52 201-67 9-2 20 9 20 17 0 11-18 38-57 79-85 91-188 136-306 136-55 0-99-68-99-127 0-30 16-69 37-123 25-64 237-288 318-281 25-8 66 40 79 44 19 0 28-19 28-58"
                  id="af"/>
            <g id="d">
                <use transform="matrix(0.018,0,0,0.018,0,0)" xlink:href="#ad"/>
                <use transform="matrix(0.018,0,0,0.018,12.347999999999999,0)" xlink:href="#ae"/>
                <use transform="matrix(0.018,0,0,0.018,22.913999999999998,0)" xlink:href="#W"/>
                <use transform="matrix(0.018,0,0,0.018,34.038,0)" xlink:href="#af"/>
                <use transform="matrix(0.018,0,0,0.018,47.717999999999996,0)" xlink:href="#Y"/>
                <use transform="matrix(0.018,0,0,0.018,59.705999999999996,0)" xlink:href="#ac"/>
            </g>
            <g id="e">
                <use transform="matrix(0.018,0,0,0.018,0,0)" xlink:href="#Z"/>
                <use transform="matrix(0.018,0,0,0.018,11.411999999999999,0)" xlink:href="#aa"/>
                <use transform="matrix(0.018,0,0,0.018,22.482,0)" xlink:href="#V"/>
                <use transform="matrix(0.018,0,0,0.018,35.135999999999996,0)" xlink:href="#ab"/>
                <use transform="matrix(0.018,0,0,0.018,46.494,0)" xlink:href="#ac"/>
                <use transform="matrix(0.018,0,0,0.018,59.43599999999999,0)" xlink:href="#Y"/>
                <use transform="matrix(0.018,0,0,0.018,71.42399999999999,0)" xlink:href="#W"/>
                <use transform="matrix(0.018,0,0,0.018,82.54799999999999,0)" xlink:href="#ab"/>
            </g>
            <path fill="#83bbe5"
                  d="M371-533c189 0 256 55 239 237-9 91-67 138-157 205C374-33 301-7 236-7 155-7 13-82 18-160c3-44 62-73 96-38 43 44 152 73 218 29 77-51 166-125 156-169 2-44-67-63-119-62-47 1-108 1-155 3C87-393 13-429 1-531c11-87 101-150 165-187 90-52 160-96 290-87 34 2 118 78 115 115-3 35-23 38-55 45-15 4-26-4-33-24-37-64-116-1-164 12-41 11-154 77-154 113 0 15 14 22 41 22 45 0 127-11 165-11"
                  id="ag"/>
            <path fill="#83bbe5"
                  d="M44-443c79-191 208-366 448-366 141 0 239 118 267 253 46 222-61 413-213 490-83 42-221 78-338 30-55-23-106-43-129-82-26-14-80-140-57-202 2-41 8-89 22-123zm103 115c1 136 75 191 208 191 130 0 180-50 241-135 38-53 55-111 55-169 0-109-73-236-179-227-143 12-260 151-311 271-9 24-14 47-14 69"
                  id="ah"/>
            <path fill="#83bbe5"
                  d="M106-737c41-53 131 12 108 86-42 139-71 285-71 455 0 88 72 66 143 48 49-12 128-35 183-63 38-19 36-69 44-119 17-114 31-247 31-354 0-57 26-85 79-85 37 0 55 27 55 81 0 190-34 397-59 573 4 31 20 93-13 105-8 10-30 7-65-8-16-20-33-38-51-54C397-48 305 0 205 0 79 0 5-43 13-176c13-196 50-391 93-561"
                  id="ai"/>
            <path fill="#83bbe5"
                  d="M608-642l-20 77c-36 56-69 94-113 138-49 48-58 40-29 81 33 46 69 89 97 147 44 89 52 141 40 147-3 38-20 49-63 52-68 5-97-106-129-160-40-68-56-162-144-164-53-1-27 78-45 121-7 56-12 123-28 170C157-4 113 24 66-1 46-11 40-39 49-87c19-111 19-139 19-313 0-144 1-187-40-242-27-37-13-94 26-108 103-36 250-59 389-41 63 8 182 85 165 149zm-140 11c-10-39-42-58-96-57-53 12-154 21-179 43-5 9-8 31-8 65 0 151 19 135 127 94 94-36 148-79 156-145"
                  id="aj"/>
            <path fill="#83bbe5"
                  d="M521-275c40-33 108-24 108 34 0 49-75 103-210 183-80 47-247 72-323 10-66-54-95-101-82-218 12-106 41-136 91-224 55-96 145-209 240-278 32-23 68-33 107-33 86 2 108 61 107 158 0 55-15 82-44 82-55 1-25-116-79-110-132 15-229 223-291 334-48 86-31 226 81 218 122-9 217-92 295-156"
                  id="ak"/>
            <path fill="#83bbe5"
                  d="M330-158c82-22 193-18 286-31 38 11 58 81 24 113-25 24-71 25-116 25-135 0-238 34-358 47C61 7 4-52 15-159c12-113 37-213 32-340-2-59 2-121-2-178-2-44 35-62 81-61 104-31 222-52 345-64 68-7 103 34 111 94 2 12-3 22-9 31-33 14-62 15-103 16-100 2-196 10-270 40h-8c-18 23-11 79-15 106-1 13 5 22 16 25 82-10 176-25 264-12 44 7 78 26 71 72-7 49-76 30-125 30-78 0-138 22-210 29-24 1-35 28-36 52-2 41-10 83-8 126-19 84 122 51 181 35"
                  id="al"/>
            <g id="f">
                <use transform="matrix(0.018,0,0,0.018,0,0)" xlink:href="#ag"/>
                <use transform="matrix(0.018,0,0,0.018,11.357999999999999,0)" xlink:href="#ah"/>
                <use transform="matrix(0.018,0,0,0.018,25.811999999999998,0)" xlink:href="#ai"/>
                <use transform="matrix(0.018,0,0,0.018,38.465999999999994,0)" xlink:href="#aj"/>
                <use transform="matrix(0.018,0,0,0.018,49.58999999999999,0)" xlink:href="#ak"/>
                <use transform="matrix(0.018,0,0,0.018,61.00199999999999,0)" xlink:href="#al"/>
            </g>
            <path fill="#83bbe5"
                  d="M23-677c-68-88 127-122 212-122 113 0 253 24 291 82 92 144-48 310-153 365-52 27-102 48-161 69-56 20-53 15-58 80-4 49-8 103-13 153-3 31-19 46-43 46-44 0-65-28-63-81 5-162 8-330 16-486 3-53-4-75-28-106zm415 73c0-44-44-66-132-66-78 0-124 8-135 26-10 16-14 89-14 218 0 44 22 39 57 25 83-34 224-115 224-203"
                  id="am"/>
            <path fill="#83bbe5"
                  d="M19-91c0-222 71-428 58-668-3-62 121-44 170-33 118 27 229 50 293 128 44 53 63 97 63 217 0 165-189 328-383 400-36 13-62 45-108 45-66 0-93-23-93-89zm185-582c-30 151-43 322-58 489 5 39 27 28 60 14 129-54 276-147 276-304 0-155-106-203-278-199"
                  id="an"/>
            <g id="g">
                <use transform="matrix(0.018,0,0,0.018,0,0)" xlink:href="#am"/>
                <use transform="matrix(0.018,0,0,0.018,10.152,0)" xlink:href="#ah"/>
                <use transform="matrix(0.018,0,0,0.018,24.605999999999998,0)" xlink:href="#an"/>
            </g>
            <path fill="#83bbe5"
                  d="M635-31c28-53 7-115-31-143-7-19-67-63-88-82-39-36-80-78-117-115 1-16 41-65 118-148l-10 11c30-36 53-67 85-95 54-48 78-89 78-117s-20-70-52-70c-36 0-116 78-245 230-22 26-38 59-67 71-30 12-85-104-102-151-13-36-72-158-75-157-34-47-96-35-89 35 8 88 69 162 101 236 14 20 74 122 77 140-20 61-139 209-182 265-18 23-24 44-24 60C11-36 45 1 69 0c45-2 96-97 124-134 67-89 109-132 124-131 48 2 103 85 141 115 20 16 39 33 56 52 49 58 88 82 121 67"
                  id="ao"/>
            <path fill="#83bbe5"
                  d="M192-85c-3 48 46 100 89 72 52-75 73-232 102-321 46-139 146-233 278-374 22-37 2-105-46-93-81 20-199 174-252 246-53 73-46 65-110 7-63-57-96-136-132-220-11-25-31-37-54-37-36-1-56 32-56 68 32 142 118 264 224 332 15 16 24 24 21 38"
                  id="ap"/>
            <g id="h">
                <use transform="matrix(0.018,0,0,0.018,0,0)" xlink:href="#am"/>
                <use transform="matrix(0.018,0,0,0.018,10.152,0)" xlink:href="#aj"/>
                <use transform="matrix(0.018,0,0,0.018,21.275999999999993,0)" xlink:href="#ah"/>
                <use transform="matrix(0.018,0,0,0.018,35.73,0)" xlink:href="#ao"/>
                <use transform="matrix(0.018,0,0,0.018,47.897999999999996,0)" xlink:href="#ap"/>
            </g>
            <path fill="#fff"
                  d="M629-645c28 177 9 401 28 582 3 29-18 50-47 50-97 0-67-194-71-306-1-24-4-66-3-92 1-39-15-57-30-33-49 79-88 161-139 243-9 15-21 23-34 23-33 0-70-69-89-115-10-23-57-152-73-152-28 0-27 119-31 162-9 93-16 174-27 265-2 3-35 21-48 20-71-3-50-117-43-176 24-211 38-410 84-595 39-67 121 2 138 59 22 73 63 167 84 249 7 23 13 34 20 34 17 0 54-75 107-225 17-48 42-155 115-96 31 25 52 57 59 103"
                  id="aq"/>
            <path fill="#fff"
                  d="M106-737c41-53 131 12 108 86-42 139-71 285-71 455 0 88 72 66 143 48 49-12 128-35 183-63 38-19 36-69 44-119 17-114 31-247 31-354 0-57 26-85 79-85 37 0 55 27 55 81 0 190-34 397-59 573 4 31 20 93-13 105-8 10-30 7-65-8-16-20-33-38-51-54C397-48 305 0 205 0 79 0 5-43 13-176c13-196 50-391 93-561"
                  id="ar"/>
            <path fill="#fff"
                  d="M103-24C79 10-2-14 8-59c42-186 129-353 193-524 23-62 63-135 99-197 39-38 106-10 109 47 27 100 51 209 81 307 8 25 72 24 72 63 0 44-26 46-37 75 12 83 46 156 55 243 7 63-106 47-114 11-13-58-36-170-57-231-3-4-7-8-9-14-69 4-134 40-198 52-53 21-53 108-81 160-4 16-8 29-18 43zm215-551c-16 18-92 195-73 208 46 2 100-12 123-31-5-30-32-162-38-171-2-3-6-5-12-6"
                  id="as"/>
            <path fill="#fff"
                  d="M24-128c0-158-18-313-5-472 6-74-11-192 62-191 78 1 88 68 113 130 59 143 102 191 174 297 50 73 81 109 92 109 8 0 12-3 13-9 24-163 3-322-12-477-6-63 62-76 101-37 65 64 45 212 54 340 10 141 7 304-15 413-8 15-20 23-37 23-76 0-203-132-244-200-33-54-79-109-116-169l4 4c-9-20-41-55-54-51-14 102-5 244 6 344 3 30-15 69-41 68-9 0-28-1-56-3-44-28-39-45-39-119"
                  id="at"/>
            <path fill="#fff"
                  d="M590-683c0-95-64-132-148-103-62 21-113 58-161 92-97 69-165 165-223 275C-45-222 51 11 277-12c154-16 257-81 343-160 63-58 100-126 109-243 12-155-158-93-246-67-61 18-178 69-168 115-2 30 28 68 54 64 69-10 133-52 201-67 9-2 20 9 20 17 0 11-18 38-57 79-85 91-188 136-306 136-55 0-99-68-99-127 0-30 16-69 37-123 25-64 237-288 318-281 25-8 66 40 79 44 19 0 28-19 28-58"
                  id="au"/>
            <g id="i">
                <use transform="matrix(0.018,0,0,0.018,0,0)" xlink:href="#aq"/>
                <use transform="matrix(0.018,0,0,0.018,12.095999999999998,0)" xlink:href="#ar"/>
                <use transform="matrix(0.018,0,0,0.018,24.749999999999996,0)" xlink:href="#Q"/>
                <use transform="matrix(0.018,0,0,0.018,37.692,0)" xlink:href="#as"/>
                <use transform="matrix(0.018,0,0,0.018,48.257999999999996,0)" xlink:href="#Q"/>
                <use transform="matrix(0.018,0,0,0.018,61.199999999999996,0)" xlink:href="#O"/>
                <use transform="matrix(0.018,0,0,0.018,72.63,0)" xlink:href="#at"/>
                <use transform="matrix(0.018,0,0,0.018,84.16799999999999,0)" xlink:href="#au"/>
            </g>
            <path fill="#fff"
                  d="M23-677c-68-88 127-122 212-122 113 0 253 24 291 82 92 144-48 310-153 365-52 27-102 48-161 69-56 20-53 15-58 80-4 49-8 103-13 153-3 31-19 46-43 46-44 0-65-28-63-81 5-162 8-330 16-486 3-53-4-75-28-106zm415 73c0-44-44-66-132-66-78 0-124 8-135 26-10 16-14 89-14 218 0 44 22 39 57 25 83-34 224-115 224-203"
                  id="av"/>
            <path fill="#fff"
                  d="M44-443c79-191 208-366 448-366 141 0 239 118 267 253 46 222-61 413-213 490-83 42-221 78-338 30-55-23-106-43-129-82-26-14-80-140-57-202 2-41 8-89 22-123zm103 115c1 136 75 191 208 191 130 0 180-50 241-135 38-53 55-111 55-169 0-109-73-236-179-227-143 12-260 151-311 271-9 24-14 47-14 69"
                  id="aw"/>
            <path fill="#fff"
                  d="M19-91c0-222 71-428 58-668-3-62 121-44 170-33 118 27 229 50 293 128 44 53 63 97 63 217 0 165-189 328-383 400-36 13-62 45-108 45-66 0-93-23-93-89zm185-582c-30 151-43 322-58 489 5 39 27 28 60 14 129-54 276-147 276-304 0-155-106-203-278-199"
                  id="ax"/>
            <g id="j">
                <use transform="matrix(0.018,0,0,0.018,0,0)" xlink:href="#av"/>
                <use transform="matrix(0.018,0,0,0.018,10.152,0)" xlink:href="#aw"/>
                <use transform="matrix(0.018,0,0,0.018,24.605999999999998,0)" xlink:href="#ax"/>
            </g>
            <path fill="#fff"
                  d="M103-24C79 10-2-14 8-59c42-186 129-353 193-524 23-62 63-135 99-197 39-38 106-10 109 47 27 100 51 209 81 307 8 25 72 24 72 63 0 44-26 46-37 75 12 83 46 156 55 243 7 63-106 47-114 11-13-58-36-170-57-231-3-4-7-8-9-14-69 4-134 40-198 52-53 21-53 108-81 160-4 16-8 29-18 43zm215-551c-16 18-92 195-73 208 46 2 100-12 123-31-5-30-32-162-38-171-2-3-6-5-12-6"
                  id="ay"/>
            <path fill="#fff"
                  d="M629-645c28 177 9 401 28 582 3 29-18 50-47 50-97 0-67-194-71-306-1-24-4-66-3-92 1-39-15-57-30-33-49 79-88 161-139 243-9 15-21 23-34 23-33 0-70-69-89-115-10-23-57-152-73-152-28 0-27 119-31 162-9 93-16 174-27 265-2 3-35 21-48 20-71-3-50-117-43-176 24-211 38-410 84-595 39-67 121 2 138 59 22 73 63 167 84 249 7 23 13 34 20 34 17 0 54-75 107-225 17-48 42-155 115-96 31 25 52 57 59 103"
                  id="az"/>
            <path fill="#fff"
                  d="M371-533c189 0 256 55 239 237-9 91-67 138-157 205C374-33 301-7 236-7 155-7 13-82 18-160c3-44 62-73 96-38 43 44 152 73 218 29 77-51 166-125 156-169 2-44-67-63-119-62-47 1-108 1-155 3C87-393 13-429 1-531c11-87 101-150 165-187 90-52 160-96 290-87 34 2 118 78 115 115-3 35-23 38-55 45-15 4-26-4-33-24-37-64-116-1-164 12-41 11-154 77-154 113 0 15 14 22 41 22 45 0 127-11 165-11"
                  id="aA"/>
            <g id="k">
                <use transform="matrix(0.018,0,0,0.018,0,0)" xlink:href="#ay"/>
                <use transform="matrix(0.018,0,0,0.018,10.565999999999999,0)" xlink:href="#ax"/>
                <use transform="matrix(0.018,0,0,0.018,21.438,0)" xlink:href="#az"/>
                <use transform="matrix(0.018,0,0,0.018,33.534,0)" xlink:href="#O"/>
                <use transform="matrix(0.018,0,0,0.018,44.964,0)" xlink:href="#aA"/>
                <use transform="matrix(0.018,0,0,0.018,56.321999999999996,0)" xlink:href="#aA"/>
                <use transform="matrix(0.018,0,0,0.018,67.67999999999999,0)" xlink:href="#O"/>
                <use transform="matrix(0.018,0,0,0.018,79.10999999999997,0)" xlink:href="#aw"/>
                <use transform="matrix(0.018,0,0,0.018,93.56399999999998,0)" xlink:href="#at"/>
            </g>
            <path fill="#fff"
                  d="M722-498c18-70 6-160 6-241 0-38 16-57 49-57 55 0 82 64 82 193 1 204-63 347-126 491-54 125-124 110-196 9-30-42-54-91-82-146-27-53-43-79-49-79-8-17-88 136-114 182C269-106 193 9 170-1 96-15 86-47 66-129 33-267 17-480 18-657c0-70 18-105 54-105 39 0 66 36 68 87 4 137-4 277 12 406 12 100 67-12 84-47 47-96 102-197 139-285 18-41 78-38 96-4 52 97 51 251 110 344 50 78 71 31 104-70 17-53 22-108 37-167"
                  id="aB"/>
            <path fill="#fff"
                  d="M68-174c-8-157-1-333-1-488 0-23-21-28-12-60 24-87 141-85 256-77 161 12 317 42 251 258-5 17-40 45-44 60 15 30 85 80 98 123 62 108 25 192-76 258C455-45 341-9 207-4 145-2 19-30 19-85c0-36 51-41 49-89zm137-510c-18 6-26 137-16 192 30 22 66 2 112-6 70-13 158-95 159-132 17-68-169-82-255-54zm-15 330c-15 57-2 155 5 215 6 4 6 12 18 11 101-5 211-32 267-82 52-46 58-91 12-140s-73-73-81-73c-39 14-121 48-173 54-15 2-34 14-48 15"
                  id="aC"/>
            <path fill="#fff"
                  d="M107-780c100 15 51 176 51 272 0 29 23 25 56 24 33-11 175 4 171-42 9-67 4-153 14-224 12-14 39-57 70-50 51 0 74 34 69 103L490-47c-6 28-25 57-57 56-118-5-54-182-54-299 0-34 3-75-15-85-65 6-127 12-191 19-52 29-23 162-29 239C135-7 87 19 22-30 10-48 7-67 13-88c-16-100 8-215 8-322 0-127-9-364 86-370"
                  id="aD"/>
            <path fill="#fff"
                  d="M583 1c26 5 52-17 51-41 24-60-22-103-43-144-74-69-132-138-184-228-37-64 44-88 81-120 65-56 138-104 195-168 35-39 5-108-40-113-66 17-104 68-150 105-81 65-158 127-245 187-18 12-48 33-70 13-6-6-8-14-7-23 3-63 18-122 28-181-3-53-39-88-92-91-82 12-51 140-71 216 1 133-13 257-20 381-3 58-27 167 27 193 35 29 78-2 98-20 30-59 16-164 24-251 3-31 38-61 73-59 78 41 118 121 174 184 38 44 71 96 112 139 15 15 32 34 59 21"
                  id="aE"/>
            <g id="l">
                <use transform="matrix(0.018,0,0,0.018,0,0)" xlink:href="#aB"/>
                <use transform="matrix(0.018,0,0,0.018,15.623999999999999,0)" xlink:href="#R"/>
                <use transform="matrix(0.018,0,0,0.018,27.612,0)" xlink:href="#aC"/>
                <use transform="matrix(0.018,0,0,0.018,39.186,0)" xlink:href="#aD"/>
                <use transform="matrix(0.018,0,0,0.018,48.924,0)" xlink:href="#aw"/>
                <use transform="matrix(0.018,0,0,0.018,63.378,0)" xlink:href="#aw"/>
                <use transform="matrix(0.018,0,0,0.018,77.832,0)" xlink:href="#aE"/>
            </g>
            <path fill="#fff"
                  d="M635-31c28-53 7-115-31-143-7-19-67-63-88-82-39-36-80-78-117-115 1-16 41-65 118-148l-10 11c30-36 53-67 85-95 54-48 78-89 78-117s-20-70-52-70c-36 0-116 78-245 230-22 26-38 59-67 71-30 12-85-104-102-151-13-36-72-158-75-157-34-47-96-35-89 35 8 88 69 162 101 236 14 20 74 122 77 140-20 61-139 209-182 265-18 23-24 44-24 60C11-36 45 1 69 0c45-2 96-97 124-134 67-89 109-132 124-131 48 2 103 85 141 115 20 16 39 33 56 52 49 58 88 82 121 67"
                  id="aF"/>
            <path fill="#fff"
                  d="M192-85c-3 48 46 100 89 72 52-75 73-232 102-321 46-139 146-233 278-374 22-37 2-105-46-93-81 20-199 174-252 246-53 73-46 65-110 7-63-57-96-136-132-220-11-25-31-37-54-37-36-1-56 32-56 68 32 142 118 264 224 332 15 16 24 24 21 38"
                  id="aG"/>
            <g id="m">
                <use transform="matrix(0.018,0,0,0.018,0,0)" xlink:href="#av"/>
                <use transform="matrix(0.018,0,0,0.018,10.152,0)" xlink:href="#S"/>
                <use transform="matrix(0.018,0,0,0.018,21.275999999999993,0)" xlink:href="#aw"/>
                <use transform="matrix(0.018,0,0,0.018,35.73,0)" xlink:href="#aF"/>
                <use transform="matrix(0.018,0,0,0.018,47.897999999999996,0)" xlink:href="#aG"/>
            </g>
            <path fill="#fff"
                  d="M371-533c189 0 256 55 239 237-9 91-67 138-157 205C374-33 301-7 236-7 155-7 13-82 18-160c3-44 62-73 96-38 43 44 152 73 218 29 77-51 166-125 156-169 2-44-67-63-119-62-47 1-108 1-155 3C87-393 13-429 1-531c11-87 101-150 165-187 90-52 160-96 290-87 34 2 118 78 115 115-3 35-23 38-55 45-15 4-26-4-33-24-37-64-116-1-164 12-41 11-154 77-154 113 0 15 14 22 41 22 45 0 127-11 165-11"
                  id="aH"/>
            <path fill="#fff"
                  d="M521-275c40-33 108-24 108 34 0 49-75 103-210 183-80 47-247 72-323 10-66-54-95-101-82-218 12-106 41-136 91-224 55-96 145-209 240-278 32-23 68-33 107-33 86 2 108 61 107 158 0 55-15 82-44 82-55 1-25-116-79-110-132 15-229 223-291 334-48 86-31 226 81 218 122-9 217-92 295-156"
                  id="aI"/>
            <g id="n">
                <use transform="matrix(0.018,0,0,0.018,0,0)" xlink:href="#aH"/>
                <use transform="matrix(0.018,0,0,0.018,11.357999999999999,0)" xlink:href="#aI"/>
                <use transform="matrix(0.018,0,0,0.018,22.769999999999992,0)" xlink:href="#aD"/>
                <use transform="matrix(0.018,0,0,0.018,32.507999999999996,0)" xlink:href="#R"/>
                <use transform="matrix(0.018,0,0,0.018,44.495999999999995,0)" xlink:href="#ax"/>
                <use transform="matrix(0.018,0,0,0.018,55.367999999999995,0)" xlink:href="#ar"/>
                <use transform="matrix(0.018,0,0,0.018,68.02199999999999,0)" xlink:href="#P"/>
                <use transform="matrix(0.018,0,0,0.018,79.09199999999998,0)" xlink:href="#R"/>
                <use transform="matrix(0.018,0,0,0.018,91.07999999999997,0)" xlink:href="#S"/>
            </g>
            <g id="o">
                <use transform="matrix(0.018,0,0,0.018,0,0)" xlink:href="#aH"/>
                <use transform="matrix(0.018,0,0,0.018,11.357999999999999,0)" xlink:href="#aI"/>
                <use transform="matrix(0.018,0,0,0.018,22.769999999999992,0)" xlink:href="#aw"/>
                <use transform="matrix(0.018,0,0,0.018,37.224,0)" xlink:href="#S"/>
                <use transform="matrix(0.018,0,0,0.018,48.348,0)" xlink:href="#R"/>
            </g>
            <g id="p">
                <use transform="matrix(0.018,0,0,0.018,0,0)" xlink:href="#az"/>
                <use transform="matrix(0.018,0,0,0.018,12.095999999999998,0)" xlink:href="#ar"/>
                <use transform="matrix(0.018,0,0,0.018,24.749999999999996,0)" xlink:href="#Q"/>
                <use transform="matrix(0.018,0,0,0.018,37.692,0)" xlink:href="#as"/>
                <use transform="matrix(0.018,0,0,0.018,48.257999999999996,0)" xlink:href="#Q"/>
                <use transform="matrix(0.018,0,0,0.018,61.199999999999996,0)" xlink:href="#R"/>
            </g>
            <g id="q">
                <use transform="matrix(0.018,0,0,0.018,0,0)" xlink:href="#aI"/>
                <use transform="matrix(0.018,0,0,0.018,11.411999999999999,0)" xlink:href="#S"/>
                <use transform="matrix(0.018,0,0,0.018,22.535999999999998,0)" xlink:href="#R"/>
                <use transform="matrix(0.018,0,0,0.018,34.524,0)" xlink:href="#as"/>
                <use transform="matrix(0.018,0,0,0.018,45.09,0)" xlink:href="#Q"/>
                <use transform="matrix(0.018,0,0,0.018,58.032000000000004,0)" xlink:href="#R"/>
            </g>
            <g id="r">
                <use transform="matrix(0.018,0,0,0.018,0,0)" xlink:href="#as"/>
                <use transform="matrix(0.018,0,0,0.018,10.565999999999999,0)" xlink:href="#at"/>
                <use transform="matrix(0.018,0,0,0.018,22.104,0)" xlink:href="#at"/>
                <use transform="matrix(0.018,0,0,0.018,33.641999999999996,0)" xlink:href="#aw"/>
                <use transform="matrix(0.018,0,0,0.018,48.096,0)" xlink:href="#Q"/>
                <use transform="matrix(0.018,0,0,0.018,61.038,0)" xlink:href="#as"/>
                <use transform="matrix(0.018,0,0,0.018,71.604,0)" xlink:href="#Q"/>
                <use transform="matrix(0.018,0,0,0.018,84.54599999999999,0)" xlink:href="#R"/>
            </g>
            <path fill="#fff"
                  d="M312-705c33-33 39-107-26-103-49 3-81 54-111 81-75 69-115 191-144 308-21 84-23 101-14 176 9 78 64 163 125 214 24 20 92 29 89-18-4-43-67-95-83-129-51-107-29-195 12-325 28-89 89-143 152-204"
                  id="aJ"/>
            <g id="s">
                <use transform="matrix(0.018,0,0,0.018,0,0)" xlink:href="#aJ"/>
                <use transform="matrix(0.018,0,0,0.018,6.101999999999999,0)" xlink:href="#O"/>
                <use transform="matrix(0.018,0,0,0.018,17.532,0)" xlink:href="#aA"/>
            </g>
            <path fill="#fff"
                  d="M109-735c-25-57-110-11-99 37 30 130 91 291 122 410 18 69 44 132 72 190 44 90 75 116 148 73 102-105 149-290 208-441 32-82 48-168 48-261 0-51-15-77-46-77-38 0-59 34-73 100-35 160-89 312-149 454-40 95-58 66-91-37-28-90-54-179-79-263-24-79-42-141-61-185"
                  id="aK"/>
            <path fill="#fff"
                  d="M281-285c31-114 79-277 15-384-30-51-68-104-118-134-26-16-69-9-66 27 4 51 46 70 66 106 47 87 58 158 22 285-23 82-35 147-91 197C43-130 8-88 8-59 8-15 61 0 89-24c71-61 131-123 171-221 9-21 13-29 21-43v3"
                  id="aL"/>
            <g id="t">
                <use transform="matrix(0.018,0,0,0.018,0,0)" xlink:href="#S"/>
                <use transform="matrix(0.018,0,0,0.018,11.123999999999999,0)" xlink:href="#R"/>
                <use transform="matrix(0.018,0,0,0.018,23.112,0)" xlink:href="#aA"/>
                <use transform="matrix(0.018,0,0,0.018,34.47,0)" xlink:href="#R"/>
                <use transform="matrix(0.018,0,0,0.018,46.458,0)" xlink:href="#S"/>
                <use transform="matrix(0.018,0,0,0.018,57.581999999999994,0)" xlink:href="#aK"/>
                <use transform="matrix(0.018,0,0,0.018,68.65199999999999,0)" xlink:href="#R"/>
                <use transform="matrix(0.018,0,0,0.018,80.64,0)" xlink:href="#ax"/>
                <use transform="matrix(0.018,0,0,0.018,91.51199999999999,0)" xlink:href="#aL"/>
            </g>
            <path fill="#fff"
                  d="M722-498c18-70 6-160 6-241 0-38 16-57 49-57 55 0 82 64 82 193 1 204-63 347-126 491-54 125-124 110-196 9-30-42-54-91-82-146-27-53-43-79-49-79-8-17-88 136-114 182C269-106 193 9 170-1 96-15 86-47 66-129 33-267 17-480 18-657c0-70 18-105 54-105 39 0 66 36 68 87 4 137-4 277 12 406 12 100 67-12 84-47 47-96 102-197 139-285 18-41 78-38 96-4 52 97 51 251 110 344 50 78 71 31 104-70 17-53 22-108 37-167"
                  id="aM"/>
            <g id="u">
                <use transform="matrix(0.018,0,0,0.018,0,0)" xlink:href="#aJ"/>
                <use transform="matrix(0.018,0,0,0.018,6.101999999999999,0)" xlink:href="#as"/>
                <use transform="matrix(0.018,0,0,0.018,16.668,0)" xlink:href="#P"/>
                <use transform="matrix(0.018,0,0,0.018,27.738,0)" xlink:href="#P"/>
                <use transform="matrix(0.018,0,0,0.018,38.808,0)" xlink:href="#aw"/>
                <use transform="matrix(0.018,0,0,0.018,53.26200000000001,0)" xlink:href="#aM"/>
                <use transform="matrix(0.018,0,0,0.018,68.886,0)" xlink:href="#aL"/>
            </g>
            <g id="v">
                <use transform="matrix(0.018,0,0,0.018,0,0)" xlink:href="#aC"/>
                <use transform="matrix(0.018,0,0,0.018,11.574,0)" xlink:href="#O"/>
                <use transform="matrix(0.018,0,0,0.018,23.003999999999998,0)" xlink:href="#at"/>
                <use transform="matrix(0.018,0,0,0.018,34.541999999999994,0)" xlink:href="#ax"/>
            </g>
            <path fill="#fff"
                  d="M23-677c-68-88 127-122 212-122 113 0 253 24 291 82 92 144-48 310-153 365-52 27-102 48-161 69-56 20-53 15-58 80-4 49-8 103-13 153-3 31-19 46-43 46-44 0-65-28-63-81 5-162 8-330 16-486 3-53-4-75-28-106zm415 73c0-44-44-66-132-66-78 0-124 8-135 26-10 16-14 89-14 218 0 44 22 39 57 25 83-34 224-115 224-203"
                  id="aN"/>
            <g id="w">
                <use transform="matrix(0.018,0,0,0.018,0,0)" xlink:href="#ar"/>
                <use transform="matrix(0.018,0,0,0.018,12.654,0)" xlink:href="#aN"/>
                <use transform="matrix(0.018,0,0,0.018,22.805999999999997,0)" xlink:href="#ax"/>
                <use transform="matrix(0.018,0,0,0.018,33.678,0)" xlink:href="#as"/>
                <use transform="matrix(0.018,0,0,0.018,44.244,0)" xlink:href="#Q"/>
                <use transform="matrix(0.018,0,0,0.018,57.18600000000001,0)" xlink:href="#R"/>
            </g>
            <g id="x">
                <use transform="matrix(0.018,0,0,0.018,0,0)" xlink:href="#aA"/>
                <use transform="matrix(0.018,0,0,0.018,11.357999999999999,0)" xlink:href="#Q"/>
                <use transform="matrix(0.018,0,0,0.018,24.299999999999997,0)" xlink:href="#as"/>
                <use transform="matrix(0.018,0,0,0.018,34.866,0)" xlink:href="#Q"/>
                <use transform="matrix(0.018,0,0,0.018,47.808,0)" xlink:href="#ar"/>
                <use transform="matrix(0.018,0,0,0.018,60.462,0)" xlink:href="#aA"/>
            </g>
            <g id="y">
                <use transform="matrix(0.018,0,0,0.018,0,0)" xlink:href="#ax"/>
                <use transform="matrix(0.018,0,0,0.018,10.872,0)" xlink:href="#R"/>
                <use transform="matrix(0.018,0,0,0.018,22.86,0)" xlink:href="#P"/>
                <use transform="matrix(0.018,0,0,0.018,33.93,0)" xlink:href="#R"/>
                <use transform="matrix(0.018,0,0,0.018,45.918,0)" xlink:href="#Q"/>
                <use transform="matrix(0.018,0,0,0.018,58.85999999999999,0)" xlink:href="#R"/>
            </g>
            <g id="z">
                <use transform="matrix(0.018,0,0,0.018,0,0)" xlink:href="#am"/>
                <use transform="matrix(0.018,0,0,0.018,10.152,0)" xlink:href="#ah"/>
                <use transform="matrix(0.018,0,0,0.018,24.605999999999998,0)" xlink:href="#an"/>
            </g>
            <path fill="#83bbe5"
                  d="M521-275c40-33 108-24 108 34 0 49-75 103-210 183-80 47-247 72-323 10-66-54-95-101-82-218 12-106 41-136 91-224 55-96 145-209 240-278 32-23 68-33 107-33 86 2 108 61 107 158 0 55-15 82-44 82-55 1-25-116-79-110-132 15-229 223-291 334-48 86-31 226 81 218 122-9 217-92 295-156"
                  id="aO"/>
            <path fill="#83bbe5"
                  d="M107-780c100 15 51 176 51 272 0 29 23 25 56 24 33-11 175 4 171-42 9-67 4-153 14-224 12-14 39-57 70-50 51 0 74 34 69 103L490-47c-6 28-25 57-57 56-118-5-54-182-54-299 0-34 3-75-15-85-65 6-127 12-191 19-52 29-23 162-29 239C135-7 87 19 22-30 10-48 7-67 13-88c-16-100 8-215 8-322 0-127-9-364 86-370"
                  id="aP"/>
            <path fill="#83bbe5"
                  d="M103-24C79 10-2-14 8-59c42-186 129-353 193-524 23-62 63-135 99-197 39-38 106-10 109 47 27 100 51 209 81 307 8 25 72 24 72 63 0 44-26 46-37 75 12 83 46 156 55 243 7 63-106 47-114 11-13-58-36-170-57-231-3-4-7-8-9-14-69 4-134 40-198 52-53 21-53 108-81 160-4 16-8 29-18 43zm215-551c-16 18-92 195-73 208 46 2 100-12 123-31-5-30-32-162-38-171-2-3-6-5-12-6"
                  id="aQ"/>
            <path fill="#83bbe5"
                  d="M23-677c-68-88 127-122 212-122 113 0 253 24 291 82 92 144-48 310-153 365-52 27-102 48-161 69-56 20-53 15-58 80-4 49-8 103-13 153-3 31-19 46-43 46-44 0-65-28-63-81 5-162 8-330 16-486 3-53-4-75-28-106zm415 73c0-44-44-66-132-66-78 0-124 8-135 26-10 16-14 89-14 218 0 44 22 39 57 25 83-34 224-115 224-203"
                  id="aR"/>
            <path fill="#83bbe5"
                  d="M24-128c0-158-18-313-5-472 6-74-11-192 62-191 78 1 88 68 113 130 59 143 102 191 174 297 50 73 81 109 92 109 8 0 12-3 13-9 24-163 3-322-12-477-6-63 62-76 101-37 65 64 45 212 54 340 10 141 7 304-15 413-8 15-20 23-37 23-76 0-203-132-244-200-33-54-79-109-116-169l4 4c-9-20-41-55-54-51-14 102-5 244 6 344 3 30-15 69-41 68-9 0-28-1-56-3-44-28-39-45-39-119"
                  id="aS"/>
            <g id="A">
                <use transform="matrix(0.018,0,0,0.018,0,0)" xlink:href="#aO"/>
                <use transform="matrix(0.018,0,0,0.018,11.411999999999999,0)" xlink:href="#aP"/>
                <use transform="matrix(0.018,0,0,0.018,21.15,0)" xlink:href="#aQ"/>
                <use transform="matrix(0.018,0,0,0.018,31.715999999999998,0)" xlink:href="#aR"/>
                <use transform="matrix(0.018,0,0,0.018,41.867999999999995,0)" xlink:href="#al"/>
                <use transform="matrix(0.018,0,0,0.018,53.855999999999995,0)" xlink:href="#aj"/>
                <use transform="matrix(0.018,0,0,0.018,64.97999999999999,0)" xlink:href="#ah"/>
                <use transform="matrix(0.018,0,0,0.018,79.43399999999998,0)" xlink:href="#aS"/>
            </g>
            <g id="B">
                <use transform="matrix(0.018,0,0,0.018,0,0)" xlink:href="#av"/>
                <use transform="matrix(0.018,0,0,0.018,10.152,0)" xlink:href="#aw"/>
                <use transform="matrix(0.018,0,0,0.018,24.605999999999998,0)" xlink:href="#ax"/>
            </g>
            <path fill="#fff"
                  d="M521-275c40-33 108-24 108 34 0 49-75 103-210 183-80 47-247 72-323 10-66-54-95-101-82-218 12-106 41-136 91-224 55-96 145-209 240-278 32-23 68-33 107-33 86 2 108 61 107 158 0 55-15 82-44 82-55 1-25-116-79-110-132 15-229 223-291 334-48 86-31 226 81 218 122-9 217-92 295-156"
                  id="aT"/>
            <g id="C">
                <use transform="matrix(0.018,0,0,0.018,0,0)" xlink:href="#aT"/>
                <use transform="matrix(0.018,0,0,0.018,11.411999999999999,0)" xlink:href="#aD"/>
                <use transform="matrix(0.018,0,0,0.018,21.15,0)" xlink:href="#as"/>
                <use transform="matrix(0.018,0,0,0.018,31.715999999999998,0)" xlink:href="#aN"/>
                <use transform="matrix(0.018,0,0,0.018,41.867999999999995,0)" xlink:href="#R"/>
                <use transform="matrix(0.018,0,0,0.018,53.855999999999995,0)" xlink:href="#S"/>
                <use transform="matrix(0.018,0,0,0.018,64.97999999999999,0)" xlink:href="#aw"/>
                <use transform="matrix(0.018,0,0,0.018,79.43399999999998,0)" xlink:href="#at"/>
            </g>
            <g id="D">
                <use transform="matrix(0.018,0,0,0.018,0,0)" xlink:href="#aT"/>
                <use transform="matrix(0.018,0,0,0.018,11.411999999999999,0)" xlink:href="#aw"/>
                <use transform="matrix(0.018,0,0,0.018,25.866,0)" xlink:href="#at"/>
                <use transform="matrix(0.018,0,0,0.018,37.403999999999996,0)" xlink:href="#Q"/>
                <use transform="matrix(0.018,0,0,0.018,50.346,0)" xlink:href="#S"/>
                <use transform="matrix(0.018,0,0,0.018,61.47,0)" xlink:href="#aw"/>
                <use transform="matrix(0.018,0,0,0.018,75.92399999999999,0)" xlink:href="#P"/>
                <use transform="matrix(0.018,0,0,0.018,86.994,0)" xlink:href="#P"/>
                <use transform="matrix(0.018,0,0,0.018,98.06399999999998,0)" xlink:href="#R"/>
                <use transform="matrix(0.018,0,0,0.018,110.05199999999998,0)" xlink:href="#S"/>
            </g>
            <path fill="#83bbe5"
                  d="M292-638c-67 2-113 14-176 21-81 9-112-68-58-103 132-46 304-52 470-66l65 5c50 52 43 111-50 111-45 0-75 15-112 18-18 16-19 83-24 152-7 108-21 214-33 322-5 46 36 20 67 20 54 0 81-10 139-16 43 25 50 62 23 110-151 29-311 50-490 79C58 24-8 22 3-44c14-83 161-45 224-90 22-16 24-69 29-107 17-126 33-258 36-397"
                  id="aU"/>
            <path fill="#83bbe5"
                  d="M593-790c58 0 99 54 77 117-5 13-15 16-35 14-70-7-152-3-229 7-31 20-24 81-26 127-4 138-16 277-16 422 0 32 4 70-21 83-26 36-88 7-103-20 1-182 10-346 21-521 2-27 11-81-18-84-73-7-138 11-206 3-20-18-39-18-32-51-3-78 74-91 145-91 129 0 251 6 369-8 25-3 49 2 74 2"
                  id="aV"/>
            <g id="E">
                <use transform="matrix(0.018,0,0,0.018,0,0)" xlink:href="#aO"/>
                <use transform="matrix(0.018,0,0,0.018,11.411999999999999,0)" xlink:href="#aQ"/>
                <use transform="matrix(0.018,0,0,0.018,21.977999999999998,0)" xlink:href="#aS"/>
                <use transform="matrix(0.018,0,0,0.018,33.516,0)" xlink:href="#an"/>
                <use transform="matrix(0.018,0,0,0.018,44.388,0)" xlink:href="#aU"/>
                <use transform="matrix(0.018,0,0,0.018,55.818,0)" xlink:href="#an"/>
                <use transform="matrix(0.018,0,0,0.018,66.69,0)" xlink:href="#aQ"/>
                <use transform="matrix(0.018,0,0,0.018,77.256,0)" xlink:href="#aV"/>
                <use transform="matrix(0.018,0,0,0.018,90.198,0)" xlink:href="#al"/>
            </g>
            <g id="G">
                <use transform="matrix(0.018,0,0,0.018,0,0)" xlink:href="#aT"/>
                <use transform="matrix(0.018,0,0,0.018,11.411999999999999,0)" xlink:href="#as"/>
                <use transform="matrix(0.018,0,0,0.018,21.977999999999998,0)" xlink:href="#at"/>
                <use transform="matrix(0.018,0,0,0.018,33.516,0)" xlink:href="#ax"/>
                <use transform="matrix(0.018,0,0,0.018,44.388,0)" xlink:href="#O"/>
                <use transform="matrix(0.018,0,0,0.018,55.818,0)" xlink:href="#ax"/>
                <use transform="matrix(0.018,0,0,0.018,66.69,0)" xlink:href="#as"/>
                <use transform="matrix(0.018,0,0,0.018,77.256,0)" xlink:href="#Q"/>
                <use transform="matrix(0.018,0,0,0.018,90.198,0)" xlink:href="#R"/>
            </g>
            <g id="H">
                <use transform="matrix(0.018,0,0,0.018,0,0)" xlink:href="#aA"/>
                <use transform="matrix(0.018,0,0,0.018,11.357999999999999,0)" xlink:href="#aI"/>
                <use transform="matrix(0.018,0,0,0.018,22.769999999999992,0)" xlink:href="#aw"/>
                <use transform="matrix(0.018,0,0,0.018,37.224,0)" xlink:href="#S"/>
                <use transform="matrix(0.018,0,0,0.018,48.348,0)" xlink:href="#R"/>
            </g>
            <path fill="#83bbe5"
                  d="M19-91c0-222 71-428 58-668-3-62 121-44 170-33 118 27 229 50 293 128 44 53 63 97 63 217 0 165-189 328-383 400-36 13-62 45-108 45-66 0-93-23-93-89zm185-582c-30 151-43 322-58 489 5 39 27 28 60 14 129-54 276-147 276-304 0-155-106-203-278-199"
                  id="aW"/>
            <path fill="#83bbe5"
                  d="M21-302C-7-136 9 24 196-12c147-28 263-93 386-142 57-23 26-120-26-120-111 32-240 115-378 126-13 1-22-26-25-45 30-174 59-350 88-524 10-62-86-124-120-61-39 73-49 196-69 277-19 77-22 145-31 199"
                  id="aX"/>
            <path fill="#83bbe5"
                  d="M590-683c0-95-64-132-148-103-62 21-113 58-161 92-97 69-165 165-223 275C-45-222 51 11 277-12c154-16 257-81 343-160 63-58 100-126 109-243 12-155-158-93-246-67-61 18-178 69-168 115-2 30 28 68 54 64 69-10 133-52 201-67 9-2 20 9 20 17 0 11-18 38-57 79-85 91-188 136-306 136-55 0-99-68-99-127 0-30 16-69 37-123 25-64 237-288 318-281 25-8 66 40 79 44 19 0 28-19 28-58"
                  id="aY"/>
            <g id="I">
                <use transform="matrix(0.018,0,0,0.018,0,0)" xlink:href="#aW"/>
                <use transform="matrix(0.018,0,0,0.018,10.872,0)" xlink:href="#al"/>
                <use transform="matrix(0.018,0,0,0.018,22.86,0)" xlink:href="#aX"/>
                <use transform="matrix(0.018,0,0,0.018,33.93,0)" xlink:href="#al"/>
                <use transform="matrix(0.018,0,0,0.018,45.918,0)" xlink:href="#aY"/>
                <use transform="matrix(0.018,0,0,0.018,59.598,0)" xlink:href="#aQ"/>
                <use transform="matrix(0.018,0,0,0.018,70.164,0)" xlink:href="#aV"/>
                <use transform="matrix(0.018,0,0,0.018,83.106,0)" xlink:href="#al"/>
            </g>
            <g id="J">
                <use transform="matrix(0.018,0,0,0.018,0,0)" xlink:href="#aW"/>
                <use transform="matrix(0.018,0,0,0.018,10.872,0)" xlink:href="#aQ"/>
                <use transform="matrix(0.018,0,0,0.018,21.438,0)" xlink:href="#aV"/>
                <use transform="matrix(0.018,0,0,0.018,34.379999999999995,0)" xlink:href="#aQ"/>
            </g>
            <g id="K">
                <use transform="matrix(0.018,0,0,0.018,0,0)" xlink:href="#aR"/>
                <use transform="matrix(0.018,0,0,0.018,10.152,0)" xlink:href="#aX"/>
                <use transform="matrix(0.018,0,0,0.018,21.221999999999998,0)" xlink:href="#aQ"/>
                <use transform="matrix(0.018,0,0,0.018,31.787999999999997,0)" xlink:href="#aS"/>
                <use transform="matrix(0.018,0,0,0.018,43.32599999999999,0)" xlink:href="#al"/>
            </g>
            <g id="L">
                <use transform="matrix(0.018,0,0,0.018,0,0)" xlink:href="#aT"/>
                <use transform="matrix(0.018,0,0,0.018,11.411999999999999,0)" xlink:href="#aw"/>
                <use transform="matrix(0.018,0,0,0.018,25.866,0)" xlink:href="#at"/>
                <use transform="matrix(0.018,0,0,0.018,37.403999999999996,0)" xlink:href="#Q"/>
                <use transform="matrix(0.018,0,0,0.018,50.346,0)" xlink:href="#S"/>
                <use transform="matrix(0.018,0,0,0.018,61.47,0)" xlink:href="#aw"/>
                <use transform="matrix(0.018,0,0,0.018,75.92399999999999,0)" xlink:href="#P"/>
            </g>
            <g id="M">
                <use transform="matrix(0.018,0,0,0.018,0,0)" xlink:href="#av"/>
                <use transform="matrix(0.018,0,0,0.018,10.152,0)" xlink:href="#P"/>
                <use transform="matrix(0.018,0,0,0.018,21.221999999999998,0)" xlink:href="#as"/>
                <use transform="matrix(0.018,0,0,0.018,31.787999999999997,0)" xlink:href="#at"/>
                <use transform="matrix(0.018,0,0,0.018,43.32599999999999,0)" xlink:href="#R"/>
            </g>
        </defs>
    </g>
</svg>