<svg xmlns="http://www.w3.org/2000/svg" xmlns:xlink="http://www.w3.org/1999/xlink" xmlns:lucid="lucid" width="1620" height="901.33"><g transform="translate(-20 -20.000000000000057)" lucid:page-tab-id="0_0"><path d="M0 0h1760v1360H0z" fill="#fff"/><path d="M980 40h640v820H980z" stroke="#000" stroke-opacity="0" stroke-width="2" fill="#e5e5e5"/><use xlink:href="#a" transform="matrix(1,0,0,1,985,45.00000000000006) translate(219.95100000000002 14.4)"/><use xlink:href="#b" transform="matrix(1,0,0,1,985,45.00000000000006) translate(327.501 14.4)"/><path d="M40 40h800v820H40z" stroke="#000" stroke-opacity="0" stroke-width="2" fill="#e5e5e5"/><use xlink:href="#c" transform="matrix(1,0,0,1,45,45.00000000000006) translate(315.62 14.4)"/><use xlink:href="#b" transform="matrix(1,0,0,1,45,45.00000000000006) translate(391.832 14.4)"/><path d="M160 460h560v60H160z" stroke="#000" stroke-opacity="0" stroke-width="2" fill="#fff" fill-opacity="0"/><use xlink:href="#d" transform="matrix(1,0,0,1,165.00000000000006,465) translate(0 14.4)"/><use xlink:href="#e" transform="matrix(1,0,0,1,165.00000000000006,465) translate(65.628 14.4)"/><path d="M80 80h160v80H80z" stroke="#000" stroke-width="2" fill="#fff"/><use xlink:href="#f" transform="matrix(1,0,0,1,85,85) translate(39.684000000000005 39.734)"/><use xlink:href="#g" transform="matrix(1,0,0,1,85,85) translate(78.168 39.734)"/><path d="M640 80h160v80H640z" stroke="#000" stroke-width="2" fill="#fff"/><use xlink:href="#h" transform="matrix(1,0,0,1,645,85) translate(44.643 39.734)"/><path d="M1420 80h160v80h-160z" stroke="#000" stroke-width="2" fill="#fff"/><use xlink:href="#i" transform="matrix(1,0,0,1,1425,85) translate(23.89800000000001 39.734)"/><path d="M1020 80h160v80h-160z" stroke="#000" stroke-width="2" fill="#fff"/><use xlink:href="#f" transform="matrix(1,0,0,1,1025,85) translate(39.684000000000005 39.734)"/><use xlink:href="#g" transform="matrix(1,0,0,1,1025,85) translate(78.168 39.734)"/><path d="M160 162v679.5" stroke="#000" stroke-width="2" fill="none"/><path d="M161 162.03h-2V161h2zM160 856.76l-4.64-14.26h9.28z"/><path d="M160 860l-6-18.5h12zm-3.26-16.5l3.26 10.03 3.26-10.03z"/><path d="M720 162v679.5" stroke="#000" stroke-width="2" fill="none"/><path d="M721 162.03h-2V161h2zM720 856.76l-4.64-14.26h9.28z"/><path d="M720 860l-6-18.5h12zm-3.26-16.5l3.26 10.03 3.26-10.03z"/><path d="M1500 162v679.5" stroke="#000" stroke-width="2" fill="none"/><path d="M1501 162.03h-2V161h2zM1500 856.76l-4.64-14.26h9.28z"/><path d="M1500 860l-6-18.5h12zm-3.26-16.5l3.26 10.03 3.26-10.03z"/><path d="M1100 162v679.5" stroke="#000" stroke-width="2" fill="none"/><path d="M1101 162.03h-2V161h2zM1100 856.76l-4.64-14.26h9.28z"/><path d="M1100 860l-6-18.5h12zm-3.26-16.5l3.26 10.03 3.26-10.03z"/><path d="M161 490h540.5" fill="none"/><path d="M161 490h10m10.02 0h20.02m10 0h20.02m10 0h20.03m10 0h20.02m10 0h20.03m10 0h20.03m10 0h20.02m10 0h20.03m10 0h20.03m10 0h20.03m10 0h20m10.02 0h20.02m10 0h20.03m10 0h20.03m10 0h20.02m10 0h20.03m10 0h20.03m10 0h10.02" stroke="#000" stroke-width="2" fill="none"/><path d="M161.03 491H160v-2h1.03zM716.76 490l-14.26 4.64v-9.28z"/><path d="M720 490l-18.5 6v-12zm-16.5 3.26l10.03-3.26-10.03-3.26z"/><path d="M40 860h1580v40H40z" stroke="#000" stroke-opacity="0" stroke-width="2" fill="#fff" fill-opacity="0"/><use xlink:href="#j" transform="matrix(1,0,0,1,45,865) translate(0 14.4)"/><use xlink:href="#k" transform="matrix(1,0,0,1,45,865) translate(13.445999999999998 14.4)"/><use xlink:href="#l" transform="matrix(1,0,0,1,45,865) translate(40.176 14.4)"/><use xlink:href="#m" transform="matrix(1,0,0,1,45,865) translate(140.814 14.4)"/><use xlink:href="#n" transform="matrix(1,0,0,1,45,865) translate(192.99599999999998 14.4)"/><use xlink:href="#o" transform="matrix(1,0,0,1,45,865) translate(305.748 14.4)"/><use xlink:href="#p" transform="matrix(1,0,0,1,45,865) translate(360.828 14.4)"/><use xlink:href="#q" transform="matrix(1,0,0,1,45,865) translate(0 33.732)"/><use xlink:href="#r" transform="matrix(1,0,0,1,45,865) translate(21.546 33.732)"/><use xlink:href="#s" transform="matrix(1,0,0,1,45,865) translate(48.275999999999996 33.732)"/><use xlink:href="#t" transform="matrix(1,0,0,1,45,865) translate(159.894 33.732)"/><use xlink:href="#u" transform="matrix(1,0,0,1,45,865) translate(238.482 33.732)"/><use xlink:href="#v" transform="matrix(1,0,0,1,45,865) translate(303.84 33.732)"/><path d="M160 180h560v60H160z" stroke="#000" stroke-opacity="0" stroke-width="2" fill="#fff" fill-opacity="0"/><use xlink:href="#w" transform="matrix(1,0,0,1,165,185) translate(0 14.4)"/><use xlink:href="#x" transform="matrix(1,0,0,1,165,185) translate(40.82399999999999 14.4)"/><use xlink:href="#y" transform="matrix(1,0,0,1,165,185) translate(151.27199999999996 14.4)"/><path d="M161 210h540.5" fill="none"/><path d="M161 210h10m10.02 0h20.02m10 0h20.02m10 0h20.03m10 0h20.02m10 0h20.03m10 0h20.03m10 0h20.02m10 0h20.03m10 0h20.03m10 0h20.03m10 0h20m10.02 0h20.02m10 0h20.03m10 0h20.03m10 0h20.02m10 0h20.03m10 0h20.03m10 0h10.02" stroke="#000" stroke-width="2" fill="none"/><path d="M161.03 211H160v-2h1.03zM716.76 210l-14.26 4.64v-9.28z"/><path d="M720 210l-18.5 6v-12zm-16.5 3.26l10.03-3.26-10.03-3.26z"/><path d="M160 220h560v60H160z" stroke="#000" stroke-opacity="0" stroke-width="2" fill="#fff" fill-opacity="0"/><use xlink:href="#z" transform="matrix(1,0,0,1,165,225) translate(295.46200000000005 14.4)"/><use xlink:href="#A" transform="matrix(1,0,0,1,165,225) translate(373.99600000000004 14.4)"/><use xlink:href="#B" transform="matrix(1,0,0,1,165,225) translate(429.706 14.4)"/><use xlink:href="#C" transform="matrix(1,0,0,1,165,225) translate(495.064 14.4)"/><path d="M178.5 250H719" stroke="#000" stroke-width="2" fill="none"/><path d="M177.5 254.64L163.24 250l14.26-4.64z"/><path d="M178.5 256l-18.5-6 18.5-6zm-12.03-6l10.03 3.26v-6.52zM720 251h-1.03v-2H720z"/><path d="M160 380h560v60H160z" stroke="#000" stroke-opacity="0" stroke-width="2" fill="#fff" fill-opacity="0"/><use xlink:href="#d" transform="matrix(1,0,0,1,165,385) translate(0 14.4)"/><use xlink:href="#D" transform="matrix(1,0,0,1,165,385) translate(65.628 14.4)"/><use xlink:href="#E" transform="matrix(1,0,0,1,165,385) translate(117.80999999999999 14.4)"/><use xlink:href="#B" transform="matrix(1,0,0,1,165,385) translate(177.80399999999997 14.4)"/><use xlink:href="#F" transform="matrix(1,0,0,1,165,385) translate(243.16199999999998 14.4)"/><path d="M161 410h540.5" fill="none"/><path d="M161 410h10m10.02 0h20.02m10 0h20.02m10 0h20.03m10 0h20.02m10 0h20.03m10 0h20.03m10 0h20.02m10 0h20.03m10 0h20.03m10 0h20.03m10 0h20m10.02 0h20.02m10 0h20.03m10 0h20.03m10 0h20.02m10 0h20.03m10 0h20.03m10 0h10.02" stroke="#000" stroke-width="2" fill="none"/><path d="M161.03 411H160v-2h1.03zM716.76 410l-14.26 4.64v-9.28z"/><path d="M720 410l-18.5 6v-12zm-16.5 3.26l10.03-3.26-10.03-3.26z"/><path d="M160 500h560v60H160z" stroke="#000" stroke-opacity="0" stroke-width="2" fill="#fff" fill-opacity="0"/><use xlink:href="#G" transform="matrix(1,0,0,1,165,505) translate(322.552 14.4)"/><use xlink:href="#H" transform="matrix(1,0,0,1,165,505) translate(434.314 14.4)"/><use xlink:href="#I" transform="matrix(1,0,0,1,165,505) translate(488.512 14.4)"/><path d="M178.5 530H719" stroke="#000" stroke-width="2" fill="none"/><path d="M177.5 534.64L163.24 530l14.26-4.64z"/><path d="M178.5 536l-18.5-6 18.5-6zm-12.03-6l10.03 3.26v-6.52zM720 531h-1.03v-2H720z"/><path d="M160 540h560v60H160z" stroke="#000" stroke-opacity="0" stroke-width="2" fill="#fff" fill-opacity="0"/><use xlink:href="#d" transform="matrix(1,0,0,1,165,545) translate(0 14.4)"/><use xlink:href="#H" transform="matrix(1,0,0,1,165,545) translate(65.628 14.4)"/><use xlink:href="#I" transform="matrix(1,0,0,1,165,545) translate(119.826 14.4)"/><path d="M161 570h540.5" fill="none"/><path d="M161 570h10m10.02 0h20.02m10 0h20.02m10 0h20.03m10 0h20.02m10 0h20.03m10 0h20.03m10 0h20.02m10 0h20.03m10 0h20.03m10 0h20.03m10 0h20m10.02 0h20.02m10 0h20.03m10 0h20.03m10 0h20.02m10 0h20.03m10 0h20.03m10 0h10.02" stroke="#000" stroke-width="2" fill="none"/><path d="M161.03 571H160v-2h1.03zM716.76 570l-14.26 4.64v-9.28z"/><path d="M720 570l-18.5 6v-12zm-16.5 3.26l10.03-3.26-10.03-3.26z"/><path d="M160 680h560v60H160z" stroke="#000" stroke-opacity="0" stroke-width="2" fill="#fff" fill-opacity="0"/><use xlink:href="#G" transform="matrix(1,0,0,1,165,685) translate(290.962 14.4)"/><use xlink:href="#J" transform="matrix(1,0,0,1,165,685) translate(402.724 14.4)"/><use xlink:href="#K" transform="matrix(1,0,0,1,165,685) translate(503.164 14.4)"/><path d="M178.5 710H719" stroke="#000" stroke-width="2" fill="none"/><path d="M177.5 714.64L163.24 710l14.26-4.64z"/><path d="M178.5 716l-18.5-6 18.5-6zm-12.03-6l10.03 3.26v-6.52zM720 711h-1.03v-2H720z"/><path d="M160 280h560v60H160z" stroke="#000" stroke-opacity="0" stroke-width="2" fill="#fff" fill-opacity="0"/><use xlink:href="#L" transform="matrix(1,0,0,1,165,285) translate(0 14.4)"/><use xlink:href="#M" transform="matrix(1,0,0,1,165,285) translate(65.628 14.4)"/><path d="M161 310h540.5" fill="none"/><path d="M161 310h10m10.02 0h20.02m10 0h20.02m10 0h20.03m10 0h20.02m10 0h20.03m10 0h20.03m10 0h20.02m10 0h20.03m10 0h20.03m10 0h20.03m10 0h20m10.02 0h20.02m10 0h20.03m10 0h20.03m10 0h20.02m10 0h20.03m10 0h20.03m10 0h10.02" stroke="#000" stroke-width="2" fill="none"/><path d="M161.03 311H160v-2h1.03zM716.76 310l-14.26 4.64v-9.28z"/><path d="M720 310l-18.5 6v-12zm-16.5 3.26l10.03-3.26-10.03-3.26z"/><path d="M160 320h560v60H160z" stroke="#000" stroke-opacity="0" stroke-width="2" fill="#fff" fill-opacity="0"/><use xlink:href="#N" transform="matrix(1,0,0,1,165,325) translate(14.157999999999902 14.4)"/><use xlink:href="#O" transform="matrix(1,0,0,1,165,325) translate(105.77799999999989 14.4)"/><use xlink:href="#P" transform="matrix(1,0,0,1,165,325) translate(202.85199999999992 14.4)"/><use xlink:href="#Q" transform="matrix(1,0,0,1,165,325) translate(234.99999999999991 14.4)"/><use xlink:href="#R" transform="matrix(1,0,0,1,165,325) translate(335.43999999999994 14.4)"/><use xlink:href="#S" transform="matrix(1,0,0,1,165,325) translate(387.62199999999996 14.4)"/><use xlink:href="#T" transform="matrix(1,0,0,1,165,325) translate(425.94399999999996 14.4)"/><path d="M178.5 350H719" stroke="#000" stroke-width="2" fill="none"/><path d="M177.5 354.64L163.24 350l14.26-4.64z"/><path d="M178.5 356l-18.5-6 18.5-6zm-12.03-6l10.03 3.26v-6.52zM720 351h-1.03v-2H720z"/><path d="M160 420h560v60H160z" stroke="#000" stroke-opacity="0" stroke-width="2" fill="#fff" fill-opacity="0"/><use xlink:href="#L" transform="matrix(1,0,0,1,165,425) translate(0 14.4)"/><use xlink:href="#O" transform="matrix(1,0,0,1,165,425) translate(65.628 14.4)"/><use xlink:href="#U" transform="matrix(1,0,0,1,165,425) translate(162.702 14.4)"/><use xlink:href="#V" transform="matrix(1,0,0,1,165,425) translate(222.696 14.4)"/><use xlink:href="#W" transform="matrix(1,0,0,1,165,425) translate(300.456 14.4)"/><path d="M161 450h540.5" fill="none"/><path d="M161 450h10m10.02 0h20.02m10 0h20.02m10 0h20.03m10 0h20.02m10 0h20.03m10 0h20.03m10 0h20.02m10 0h20.03m10 0h20.03m10 0h20.03m10 0h20m10.02 0h20.02m10 0h20.03m10 0h20.03m10 0h20.02m10 0h20.03m10 0h20.03m10 0h10.02" stroke="#000" stroke-width="2" fill="none"/><path d="M161.03 451H160v-2h1.03zM716.76 450l-14.26 4.64v-9.28z"/><path d="M720 450l-18.5 6v-12zm-16.5 3.26l10.03-3.26-10.03-3.26z"/><path d="M720 400h380v60H720z" stroke="#000" stroke-opacity="0" stroke-width="2" fill="#fff" fill-opacity="0"/><use xlink:href="#G" transform="matrix(1,0,0,1,725,405) translate(0 14.4)"/><use xlink:href="#X" transform="matrix(1,0,0,1,725,405) translate(111.762 14.4)"/><use xlink:href="#Y" transform="matrix(1,0,0,1,725,405) translate(152.58599999999998 14.4)"/><path d="M721 430h360.5" stroke="#000" stroke-width="2" fill="none"/><path d="M721.03 431H720v-2h1.03zM1096.76 430l-14.26 4.64v-9.28z"/><path d="M1100 430l-18.5 6v-12zm-16.5 3.26l10.03-3.26-10.03-3.26z"/><path d="M720 480h380v60H720z" stroke="#000" stroke-opacity="0" stroke-width="2" fill="#fff" fill-opacity="0"/><use xlink:href="#G" transform="matrix(1,0,0,1,725,485) translate(0 14.4)"/><use xlink:href="#H" transform="matrix(1,0,0,1,725,485) translate(111.762 14.4)"/><use xlink:href="#Y" transform="matrix(1,0,0,1,725,485) translate(165.95999999999998 14.4)"/><path d="M721 510h360.5" stroke="#000" stroke-width="2" fill="none"/><path d="M721.03 511H720v-2h1.03zM1096.76 510l-14.26 4.64v-9.28z"/><path d="M1100 510l-18.5 6v-12zm-16.5 3.26l10.03-3.26-10.03-3.26z"/><path d="M720 560h380v60H720z" stroke="#000" stroke-opacity="0" stroke-width="2" fill="#fff" fill-opacity="0"/><use xlink:href="#G" transform="matrix(1,0,0,1,725,565) translate(0 14.4)"/><use xlink:href="#H" transform="matrix(1,0,0,1,725,565) translate(111.762 14.4)"/><use xlink:href="#Z" transform="matrix(1,0,0,1,725,565) translate(165.95999999999998 14.4)"/><use xlink:href="#Y" transform="matrix(1,0,0,1,725,565) translate(221.43599999999998 14.4)"/><path d="M721 590h360.5" stroke="#000" stroke-width="2" fill="none"/><path d="M721.03 591H720v-2h1.03zM1096.76 590l-14.26 4.64v-9.28z"/><path d="M1100 590l-18.5 6v-12zm-16.5 3.26l10.03-3.26-10.03-3.26z"/><path d="M720 660h380v60H720z" stroke="#000" stroke-opacity="0" stroke-width="2" fill="#fff" fill-opacity="0"/><use xlink:href="#d" transform="matrix(1,0,0,1,725,665) translate(0 14.4)"/><use xlink:href="#aa" transform="matrix(1,0,0,1,725,665) translate(65.628 14.4)"/><use xlink:href="#X" transform="matrix(1,0,0,1,725,665) translate(166.06799999999998 14.4)"/><use xlink:href="#ab" transform="matrix(1,0,0,1,725,665) translate(206.89199999999997 14.4)"/><path d="M1099 690H738.5" fill="none"/><path d="M1099 690h-10m-10.03 0h-20.03m-10 0h-20.04m-10 0h-20.04m-10 0H968.8m-10 0h-20.04m-10.02 0h-20.02m-10.02 0H878.7m-10.02 0h-20.03m-10 0H818.6m-10 0h-20.03m-10 0h-20.04m-10 0H738.5" stroke="#000" stroke-width="2" fill="none"/><path d="M1100 691h-1.03v-2h1.03zM737.5 694.64L723.24 690l14.26-4.64z"/><path d="M738.5 696l-18.5-6 18.5-6zm-12.03-6l10.03 3.26v-6.52z"/><path d="M720 440h380v60H720z" stroke="#000" stroke-opacity="0" stroke-width="2" fill="#fff" fill-opacity="0"/><g><use xlink:href="#ac" transform="matrix(1,0,0,1,725,445) translate(0 14.4)"/><use xlink:href="#ad" transform="matrix(1,0,0,1,725,445) translate(111.762 14.4)"/><use xlink:href="#ae" transform="matrix(1,0,0,1,725,445) translate(197.478 14.4)"/></g><path d="M721 470h360.5" stroke="#000" stroke-width="2" fill="none"/><path d="M721.03 471H720v-2h1.03zM1096.76 470l-14.26 4.64v-9.28z"/><path d="M1100 470l-18.5 6v-12zm-16.5 3.26l10.03-3.26-10.03-3.26z"/><path d="M1100 600h400v60h-400z" stroke="#000" stroke-opacity="0" stroke-width="2" fill="#fff" fill-opacity="0"/><g><use xlink:href="#L" transform="matrix(1,0,0,1,1105,605) translate(0 14.4)"/><use xlink:href="#u" transform="matrix(1,0,0,1,1105,605) translate(65.628 14.4)"/><use xlink:href="#af" transform="matrix(1,0,0,1,1105,605) translate(130.986 14.4)"/><use xlink:href="#ae" transform="matrix(1,0,0,1,1105,605) translate(171.80999999999997 14.4)"/></g><path d="M1481.5 630H1101" fill="none"/><path d="M1481.5 630h-9.76m-9.75 0h-19.53m-9.75 0h-19.52m-9.75 0h-19.52m-9.75 0h-19.5m-9.77 0h-19.5m-9.76 0h-19.5m-9.77 0h-19.5m-9.77 0h-19.5m-9.77 0h-19.5m-9.77 0h-19.5m-9.77 0h-19.52m-9.75 0h-19.52m-9.74 0H1101" stroke="#000" stroke-width="2" fill="none"/><path d="M1496.76 630l-14.26 4.64v-9.28z"/><path d="M1500 630l-18.5 6v-12zm-16.5 3.26l10.03-3.26-10.03-3.26zM1101.03 631H1100v-2h1.03z"/><path d="M1100 640h400v60h-400z" stroke="#000" stroke-opacity="0" stroke-width="2" fill="#fff" fill-opacity="0"/><g><use xlink:href="#ac" transform="matrix(1,0,0,1,1105,645) translate(31.134000000000015 14.4)"/><use xlink:href="#Q" transform="matrix(1,0,0,1,1105,645) translate(142.89600000000002 14.4)"/><use xlink:href="#af" transform="matrix(1,0,0,1,1105,645) translate(243.336 14.4)"/><use xlink:href="#ag" transform="matrix(1,0,0,1,1105,645) translate(284.15999999999997 14.4)"/></g><path d="M1499 670h-380.5" stroke="#000" stroke-width="2" fill="none"/><path d="M1500 671h-1.03v-2h1.03zM1117.5 674.64l-14.26-4.64 14.26-4.64z"/><path d="M1118.5 676l-18.5-6 18.5-6zm-12.03-6l10.03 3.26v-6.52z"/><path d="M1100 700h400v60h-400z" stroke="#000" stroke-opacity="0" stroke-width="2" fill="#fff" fill-opacity="0"/><g><use xlink:href="#L" transform="matrix(1,0,0,1,1105,705) translate(0 14.4)"/><use xlink:href="#V" transform="matrix(1,0,0,1,1105,705) translate(65.628 14.4)"/><use xlink:href="#ad" transform="matrix(1,0,0,1,1105,705) translate(143.38799999999998 14.4)"/><use xlink:href="#ae" transform="matrix(1,0,0,1,1105,705) translate(229.10399999999998 14.4)"/></g><path d="M1481.5 730H1101" fill="none"/><path d="M1481.5 730h-9.76m-9.75 0h-19.53m-9.75 0h-19.52m-9.75 0h-19.52m-9.75 0h-19.5m-9.77 0h-19.5m-9.76 0h-19.5m-9.77 0h-19.5m-9.77 0h-19.5m-9.77 0h-19.5m-9.77 0h-19.5m-9.77 0h-19.52m-9.75 0h-19.52m-9.74 0H1101" stroke="#000" stroke-width="2" fill="none"/><path d="M1496.76 730l-14.26 4.64v-9.28z"/><path d="M1500 730l-18.5 6v-12zm-16.5 3.26l10.03-3.26-10.03-3.26zM1101.03 731H1100v-2h1.03z"/><path d="M1100 740h400v60h-400z" stroke="#000" stroke-opacity="0" stroke-width="2" fill="#fff" fill-opacity="0"/><g><use xlink:href="#ac" transform="matrix(1,0,0,1,1105,745) translate(8.922000000000025 14.4)"/><use xlink:href="#V" transform="matrix(1,0,0,1,1105,745) translate(120.68400000000003 14.4)"/><use xlink:href="#ad" transform="matrix(1,0,0,1,1105,745) translate(198.44400000000002 14.4)"/><use xlink:href="#ag" transform="matrix(1,0,0,1,1105,745) translate(284.16 14.4)"/></g><path d="M1499 770h-380.5" stroke="#000" stroke-width="2" fill="none"/><path d="M1500 771h-1.03v-2h1.03zM1117.5 774.64l-14.26-4.64 14.26-4.64z"/><path d="M1118.5 776l-18.5-6 18.5-6zm-12.03-6l10.03 3.26v-6.52z"/><path d="M160 780h560v60H160z" stroke="#000" stroke-opacity="0" stroke-width="2" fill="#fff" fill-opacity="0"/><g><use xlink:href="#ac" transform="matrix(1,0,0,1,165,785) translate(268.75 14.4)"/><use xlink:href="#V" transform="matrix(1,0,0,1,165,785) translate(380.512 14.4)"/><use xlink:href="#ah" transform="matrix(1,0,0,1,165,785) translate(458.272 14.4)"/></g><path d="M178.5 810H719" stroke="#000" stroke-width="2" fill="none"/><path d="M177.5 814.64L163.24 810l14.26-4.64z"/><path d="M178.5 816l-18.5-6 18.5-6zm-12.03-6l10.03 3.26v-6.52zM720 811h-1.03v-2H720z"/><path d="M720 760h380v60H720z" stroke="#000" stroke-opacity="0" stroke-width="2" fill="#fff" fill-opacity="0"/><g><use xlink:href="#L" transform="matrix(1,0,0,1,725,765) translate(0 14.4)"/><use xlink:href="#V" transform="matrix(1,0,0,1,725,765) translate(65.628 14.4)"/><use xlink:href="#ad" transform="matrix(1,0,0,1,725,765) translate(143.38799999999998 14.4)"/><use xlink:href="#ag" transform="matrix(1,0,0,1,725,765) translate(229.10399999999998 14.4)"/></g><path d="M1099 790H738.5" fill="none"/><path d="M1099 790h-10m-10.03 0h-20.03m-10 0h-20.04m-10 0h-20.04m-10 0H968.8m-10 0h-20.04m-10.02 0h-20.02m-10.02 0H878.7m-10.02 0h-20.03m-10 0H818.6m-10 0h-20.03m-10 0h-20.04m-10 0H738.5" stroke="#000" stroke-width="2" fill="none"/><path d="M1100 791h-1.03v-2h1.03zM737.5 794.64L723.24 790l14.26-4.64z"/><path d="M738.5 796l-18.5-6 18.5-6zm-12.03-6l10.03 3.26v-6.52z"/><defs><path d="M371-533c189 0 256 55 239 237-9 91-67 138-157 205C374-33 301-7 236-7 155-7 13-82 18-160c3-44 62-73 96-38 43 44 152 73 218 29 77-51 166-125 156-169 2-44-67-63-119-62-47 1-108 1-155 3C87-393 13-429 1-531c11-87 101-150 165-187 90-52 160-96 290-87 34 2 118 78 115 115-3 35-23 38-55 45-15 4-26-4-33-24-37-64-116-1-164 12-41 11-154 77-154 113 0 15 14 22 41 22 45 0 127-11 165-11" id="ai"/><path d="M521-275c40-33 108-24 108 34 0 49-75 103-210 183-80 47-247 72-323 10-66-54-95-101-82-218 12-106 41-136 91-224 55-96 145-209 240-278 32-23 68-33 107-33 86 2 108 61 107 158 0 55-15 82-44 82-55 1-25-116-79-110-132 15-229 223-291 334-48 86-31 226 81 218 122-9 217-92 295-156" id="aj"/><path d="M107-780c100 15 51 176 51 272 0 29 23 25 56 24 33-11 175 4 171-42 9-67 4-153 14-224 12-14 39-57 70-50 51 0 74 34 69 103L490-47c-6 28-25 57-57 56-118-5-54-182-54-299 0-34 3-75-15-85-65 6-127 12-191 19-52 29-23 162-29 239C135-7 87 19 22-30 10-48 7-67 13-88c-16-100 8-215 8-322 0-127-9-364 86-370" id="ak"/><path d="M330-158c82-22 193-18 286-31 38 11 58 81 24 113-25 24-71 25-116 25-135 0-238 34-358 47C61 7 4-52 15-159c12-113 37-213 32-340-2-59 2-121-2-178-2-44 35-62 81-61 104-31 222-52 345-64 68-7 103 34 111 94 2 12-3 22-9 31-33 14-62 15-103 16-100 2-196 10-270 40h-8c-18 23-11 79-15 106-1 13 5 22 16 25 82-10 176-25 264-12 44 7 78 26 71 72-7 49-76 30-125 30-78 0-138 22-210 29-24 1-35 28-36 52-2 41-10 83-8 126-19 84 122 51 181 35" id="al"/><path d="M19-91c0-222 71-428 58-668-3-62 121-44 170-33 118 27 229 50 293 128 44 53 63 97 63 217 0 165-189 328-383 400-36 13-62 45-108 45-66 0-93-23-93-89zm185-582c-30 151-43 322-58 489 5 39 27 28 60 14 129-54 276-147 276-304 0-155-106-203-278-199" id="am"/><path d="M106-737c41-53 131 12 108 86-42 139-71 285-71 455 0 88 72 66 143 48 49-12 128-35 183-63 38-19 36-69 44-119 17-114 31-247 31-354 0-57 26-85 79-85 37 0 55 27 55 81 0 190-34 397-59 573 4 31 20 93-13 105-8 10-30 7-65-8-16-20-33-38-51-54C397-48 305 0 205 0 79 0 5-43 13-176c13-196 50-391 93-561" id="an"/><path d="M21-302C-7-136 9 24 196-12c147-28 263-93 386-142 57-23 26-120-26-120-111 32-240 115-378 126-13 1-22-26-25-45 30-174 59-350 88-524 10-62-86-124-120-61-39 73-49 196-69 277-19 77-22 145-31 199" id="ao"/><path d="M608-642l-20 77c-36 56-69 94-113 138-49 48-58 40-29 81 33 46 69 89 97 147 44 89 52 141 40 147-3 38-20 49-63 52-68 5-97-106-129-160-40-68-56-162-144-164-53-1-27 78-45 121-7 56-12 123-28 170C157-4 113 24 66-1 46-11 40-39 49-87c19-111 19-139 19-313 0-144 1-187-40-242-27-37-13-94 26-108 103-36 250-59 389-41 63 8 182 85 165 149zm-140 11c-10-39-42-58-96-57-53 12-154 21-179 43-5 9-8 31-8 65 0 151 19 135 127 94 94-36 148-79 156-145" id="ap"/><g id="a"><use transform="matrix(0.018,0,0,0.018,0,0)" xlink:href="#ai"/><use transform="matrix(0.018,0,0,0.018,11.357999999999999,0)" xlink:href="#aj"/><use transform="matrix(0.018,0,0,0.018,22.769999999999992,0)" xlink:href="#ak"/><use transform="matrix(0.018,0,0,0.018,32.507999999999996,0)" xlink:href="#al"/><use transform="matrix(0.018,0,0,0.018,44.495999999999995,0)" xlink:href="#am"/><use transform="matrix(0.018,0,0,0.018,55.367999999999995,0)" xlink:href="#an"/><use transform="matrix(0.018,0,0,0.018,68.02199999999999,0)" xlink:href="#ao"/><use transform="matrix(0.018,0,0,0.018,79.09199999999998,0)" xlink:href="#al"/><use transform="matrix(0.018,0,0,0.018,91.07999999999997,0)" xlink:href="#ap"/></g><path d="M521-275c40-33 108-24 108 34 0 49-75 103-210 183-80 47-247 72-323 10-66-54-95-101-82-218 12-106 41-136 91-224 55-96 145-209 240-278 32-23 68-33 107-33 86 2 108 61 107 158 0 55-15 82-44 82-55 1-25-116-79-110-132 15-229 223-291 334-48 86-31 226 81 218 122-9 217-92 295-156" id="aq"/><path d="M371-533c189 0 256 55 239 237-9 91-67 138-157 205C374-33 301-7 236-7 155-7 13-82 18-160c3-44 62-73 96-38 43 44 152 73 218 29 77-51 166-125 156-169 2-44-67-63-119-62-47 1-108 1-155 3C87-393 13-429 1-531c11-87 101-150 165-187 90-52 160-96 290-87 34 2 118 78 115 115-3 35-23 38-55 45-15 4-26-4-33-24-37-64-116-1-164 12-41 11-154 77-154 113 0 15 14 22 41 22 45 0 127-11 165-11" id="ar"/><path d="M593-790c58 0 99 54 77 117-5 13-15 16-35 14-70-7-152-3-229 7-31 20-24 81-26 127-4 138-16 277-16 422 0 32 4 70-21 83-26 36-88 7-103-20 1-182 10-346 21-521 2-27 11-81-18-84-73-7-138 11-206 3-20-18-39-18-32-51-3-78 74-91 145-91 129 0 251 6 369-8 25-3 49 2 74 2" id="as"/><g id="b"><use transform="matrix(0.018,0,0,0.018,0,0)" xlink:href="#aq"/><use transform="matrix(0.018,0,0,0.018,11.411999999999999,0)" xlink:href="#ao"/><use transform="matrix(0.018,0,0,0.018,22.482,0)" xlink:href="#an"/><use transform="matrix(0.018,0,0,0.018,35.135999999999996,0)" xlink:href="#ar"/><use transform="matrix(0.018,0,0,0.018,46.494,0)" xlink:href="#as"/><use transform="matrix(0.018,0,0,0.018,59.43599999999999,0)" xlink:href="#al"/><use transform="matrix(0.018,0,0,0.018,71.42399999999999,0)" xlink:href="#ap"/></g><path d="M629-645c28 177 9 401 28 582 3 29-18 50-47 50-97 0-67-194-71-306-1-24-4-66-3-92 1-39-15-57-30-33-49 79-88 161-139 243-9 15-21 23-34 23-33 0-70-69-89-115-10-23-57-152-73-152-28 0-27 119-31 162-9 93-16 174-27 265-2 3-35 21-48 20-71-3-50-117-43-176 24-211 38-410 84-595 39-67 121 2 138 59 22 73 63 167 84 249 7 23 13 34 20 34 17 0 54-75 107-225 17-48 42-155 115-96 31 25 52 57 59 103" id="at"/><path d="M629-645c28 177 9 401 28 582 3 29-18 50-47 50-97 0-67-194-71-306-1-24-4-66-3-92 1-39-15-57-30-33-49 79-88 161-139 243-9 15-21 23-34 23-33 0-70-69-89-115-10-23-57-152-73-152-28 0-27 119-31 162-9 93-16 174-27 265-2 3-35 21-48 20-71-3-50-117-43-176 24-211 38-410 84-595 39-67 121 2 138 59 22 73 63 167 84 249 7 23 13 34 20 34 17 0 54-75 107-225 17-48 42-155 115-96 31 25 52 57 59 103" id="au"/><path d="M68-174c-8-157-1-333-1-488 0-23-21-28-12-60 24-87 141-85 256-77 161 12 317 42 251 258-5 17-40 45-44 60 15 30 85 80 98 123 62 108 25 192-76 258C455-45 341-9 207-4 145-2 19-30 19-85c0-36 51-41 49-89zm137-510c-18 6-26 137-16 192 30 22 66 2 112-6 70-13 158-95 159-132 17-68-169-82-255-54zm-15 330c-15 57-2 155 5 215 6 4 6 12 18 11 101-5 211-32 267-82 52-46 58-91 12-140s-73-73-81-73c-39 14-121 48-173 54-15 2-34 14-48 15" id="av"/><g id="c"><use transform="matrix(0.018,0,0,0.018,0,0)" xlink:href="#at"/><use transform="matrix(0.018,0,0,0.018,12.095999999999998,0)" xlink:href="#al"/><use transform="matrix(0.018,0,0,0.018,24.083999999999993,0)" xlink:href="#au"/><use transform="matrix(0.018,0,0,0.018,36.17999999999999,0)" xlink:href="#av"/><use transform="matrix(0.018,0,0,0.018,47.75399999999999,0)" xlink:href="#al"/><use transform="matrix(0.018,0,0,0.018,59.74199999999999,0)" xlink:href="#ap"/></g><path d="M722-498c18-70 6-160 6-241 0-38 16-57 49-57 55 0 82 64 82 193 1 204-63 347-126 491-54 125-124 110-196 9-30-42-54-91-82-146-27-53-43-79-49-79-8-17-88 136-114 182C269-106 193 9 170-1 96-15 86-47 66-129 33-267 17-480 18-657c0-70 18-105 54-105 39 0 66 36 68 87 4 137-4 277 12 406 12 100 67-12 84-47 47-96 102-197 139-285 18-41 78-38 96-4 52 97 51 251 110 344 50 78 71 31 104-70 17-53 22-108 37-167" id="aw"/><path d="M103-24C79 10-2-14 8-59c42-186 129-353 193-524 23-62 63-135 99-197 39-38 106-10 109 47 27 100 51 209 81 307 8 25 72 24 72 63 0 44-26 46-37 75 12 83 46 156 55 243 7 63-106 47-114 11-13-58-36-170-57-231-3-4-7-8-9-14-69 4-134 40-198 52-53 21-53 108-81 160-4 16-8 29-18 43zm215-551c-16 18-92 195-73 208 46 2 100-12 123-31-5-30-32-162-38-171-2-3-6-5-12-6" id="ax"/><g id="d"><use transform="matrix(0.018,0,0,0.018,0,0)" xlink:href="#aw"/><use transform="matrix(0.018,0,0,0.018,15.623999999999999,0)" xlink:href="#ax"/><use transform="matrix(0.018,0,0,0.018,26.189999999999998,0)" xlink:href="#as"/><use transform="matrix(0.018,0,0,0.018,39.132,0)" xlink:href="#aj"/><use transform="matrix(0.018,0,0,0.018,50.544,0)" xlink:href="#ak"/></g><path d="M24-128c0-158-18-313-5-472 6-74-11-192 62-191 78 1 88 68 113 130 59 143 102 191 174 297 50 73 81 109 92 109 8 0 12-3 13-9 24-163 3-322-12-477-6-63 62-76 101-37 65 64 45 212 54 340 10 141 7 304-15 413-8 15-20 23-37 23-76 0-203-132-244-200-33-54-79-109-116-169l4 4c-9-20-41-55-54-51-14 102-5 244 6 344 3 30-15 69-41 68-9 0-28-1-56-3-44-28-39-45-39-119" id="ay"/><path d="M44-443c79-191 208-366 448-366 141 0 239 118 267 253 46 222-61 413-213 490-83 42-221 78-338 30-55-23-106-43-129-82-26-14-80-140-57-202 2-41 8-89 22-123zm103 115c1 136 75 191 208 191 130 0 180-50 241-135 38-53 55-111 55-169 0-109-73-236-179-227-143 12-260 151-311 271-9 24-14 47-14 69" id="az"/><g id="e"><use transform="matrix(0.018,0,0,0.018,0,0)" xlink:href="#ay"/><use transform="matrix(0.018,0,0,0.018,11.537999999999998,0)" xlink:href="#az"/><use transform="matrix(0.018,0,0,0.018,25.991999999999997,0)" xlink:href="#am"/><use transform="matrix(0.018,0,0,0.018,36.864,0)" xlink:href="#al"/><use transform="matrix(0.018,0,0,0.018,48.852,0)" xlink:href="#ar"/></g><path d="M508-780c56-58 130 44 81 100-61 70-137 131-212 191-42 33-4 64 19 89 60 64 110 129 162 207 35 52 50 100 50 142 0 27-15 41-44 41-42 9-138-115-174-161S228-368 211-355C63-341 254-45 102-10 17-22 26-133 21-219 11-407 10-619 43-780c35-64 128 9 121 64-7 51-23 126-20 177 3 63 67 10 90-8 114-86 190-146 274-233" id="aA"/><path d="M352-802c148-2 243 38 243 169 0 57-56 100-97 131-23 17-34 28-34 34-6 5 50 36 46 39 44 27 96 99 83 175-2 13-4 24-4 35C589-81 409-5 262-5c-73 0-124-9-151-28C-5-109-22-258 75-352c12-36 120-92 85-117-68-50-113-67-113-141 0-38 22-74 65-109 69-55 149-83 240-83zm129 146c-9-57-110-47-165-42-32 3-112 32-119 62-21 9-23 48-1 58 34 44 125 63 180 20 22-17 109-74 105-98zM129-193c0 38 66 66 101 63 97-9 229-35 243-126-8-65-80-122-140-138-72 11-82 24-143 93-41 47-61 83-61 108" id="aB"/><g id="f"><use transform="matrix(0.018,0,0,0.018,0,0)" xlink:href="#aA"/><use transform="matrix(0.018,0,0,0.018,10.854,0)" xlink:href="#aB"/><use transform="matrix(0.018,0,0,0.018,21.779999999999998,0)" xlink:href="#ar"/></g><path d="M103-24C79 10-2-14 8-59c42-186 129-353 193-524 23-62 63-135 99-197 39-38 106-10 109 47 27 100 51 209 81 307 8 25 72 24 72 63 0 44-26 46-37 75 12 83 46 156 55 243 7 63-106 47-114 11-13-58-36-170-57-231-3-4-7-8-9-14-69 4-134 40-198 52-53 21-53 108-81 160-4 16-8 29-18 43zm215-551c-16 18-92 195-73 208 46 2 100-12 123-31-5-30-32-162-38-171-2-3-6-5-12-6" id="aC"/><path d="M23-677c-68-88 127-122 212-122 113 0 253 24 291 82 92 144-48 310-153 365-52 27-102 48-161 69-56 20-53 15-58 80-4 49-8 103-13 153-3 31-19 46-43 46-44 0-65-28-63-81 5-162 8-330 16-486 3-53-4-75-28-106zm415 73c0-44-44-66-132-66-78 0-124 8-135 26-10 16-14 89-14 218 0 44 22 39 57 25 83-34 224-115 224-203" id="aD"/><path d="M292-638c-67 2-113 14-176 21-81 9-112-68-58-103 132-46 304-52 470-66l65 5c50 52 43 111-50 111-45 0-75 15-112 18-18 16-19 83-24 152-7 108-21 214-33 322-5 46 36 20 67 20 54 0 81-10 139-16 43 25 50 62 23 110-151 29-311 50-490 79C58 24-8 22 3-44c14-83 161-45 224-90 22-16 24-69 29-107 17-126 33-258 36-397" id="aE"/><g id="g"><use transform="matrix(0.018,0,0,0.018,0,0)" xlink:href="#aC"/><use transform="matrix(0.018,0,0,0.018,10.565999999999999,0)" xlink:href="#aD"/><use transform="matrix(0.018,0,0,0.018,20.718,0)" xlink:href="#aE"/></g><path d="M590-683c0-95-64-132-148-103-62 21-113 58-161 92-97 69-165 165-223 275C-45-222 51 11 277-12c154-16 257-81 343-160 63-58 100-126 109-243 12-155-158-93-246-67-61 18-178 69-168 115-2 30 28 68 54 64 69-10 133-52 201-67 9-2 20 9 20 17 0 11-18 38-57 79-85 91-188 136-306 136-55 0-99-68-99-127 0-30 16-69 37-123 25-64 237-288 318-281 25-8 66 40 79 44 19 0 28-19 28-58" id="aF"/><path d="M24-128c0-158-18-313-5-472 6-74-11-192 62-191 78 1 88 68 113 130 59 143 102 191 174 297 50 73 81 109 92 109 8 0 12-3 13-9 24-163 3-322-12-477-6-63 62-76 101-37 65 64 45 212 54 340 10 141 7 304-15 413-8 15-20 23-37 23-76 0-203-132-244-200-33-54-79-109-116-169l4 4c-9-20-41-55-54-51-14 102-5 244 6 344 3 30-15 69-41 68-9 0-28-1-56-3-44-28-39-45-39-119" id="aG"/><g id="h"><use transform="matrix(0.018,0,0,0.018,0,0)" xlink:href="#aC"/><use transform="matrix(0.018,0,0,0.018,10.565999999999999,0)" xlink:href="#aF"/><use transform="matrix(0.018,0,0,0.018,24.246,0)" xlink:href="#al"/><use transform="matrix(0.018,0,0,0.018,36.233999999999995,0)" xlink:href="#aG"/><use transform="matrix(0.018,0,0,0.018,47.77199999999999,0)" xlink:href="#as"/></g><g id="i"><use transform="matrix(0.018,0,0,0.018,0,0)" xlink:href="#ai"/><use transform="matrix(0.018,0,0,0.018,11.357999999999999,0)" xlink:href="#aj"/><use transform="matrix(0.018,0,0,0.018,22.769999999999992,0)" xlink:href="#ak"/><use transform="matrix(0.018,0,0,0.018,32.507999999999996,0)" xlink:href="#al"/><use transform="matrix(0.018,0,0,0.018,44.495999999999995,0)" xlink:href="#am"/><use transform="matrix(0.018,0,0,0.018,55.367999999999995,0)" xlink:href="#an"/><use transform="matrix(0.018,0,0,0.018,68.02199999999999,0)" xlink:href="#ao"/><use transform="matrix(0.018,0,0,0.018,79.09199999999998,0)" xlink:href="#al"/><use transform="matrix(0.018,0,0,0.018,91.07999999999997,0)" xlink:href="#ap"/></g><path d="M326-672c47-13 117-11 117-73 0-69-77-55-133-49-71 9-36-80-58-137-21-55-106-22-95 35-4 10 15 48-3 53-23-22-47-62-88-62-20-1-38 17-37 37 2 32 48 80 67 106-10 12-32 12-55 11-79 22-11 125 48 117 33-5 73-11 66 36-8 59 3 111 63 117 42 4 32-88 52-111 15 5 75 36 84 37 20 2 38-22 37-42 6-25-64-61-65-75" id="aH"/><use transform="matrix(0.018,0,0,0.018,0,0)" xlink:href="#aH" id="j"/><path d="M292-638c-67 2-113 14-176 21-81 9-112-68-58-103 132-46 304-52 470-66l65 5c50 52 43 111-50 111-45 0-75 15-112 18-18 16-19 83-24 152-7 108-21 214-33 322-5 46 36 20 67 20 54 0 81-10 139-16 43 25 50 62 23 110-151 29-311 50-490 79C58 24-8 22 3-44c14-83 161-45 224-90 22-16 24-69 29-107 17-126 33-258 36-397" id="aI"/><path d="M39-49c-7-93 9-204-6-289-18-30-12-41 1-77 37-27 19-97 25-162 2-23-27-37-49-40-11-18-14-56 0-71 17-39 273-99 376-109 72-7 163-32 165 45 1 65-62 51-115 66-63 18-176 24-229 55-41 23-20 107-25 176 83-2 166-25 259-33 74-6 91 70 44 97-80 23-228 35-304 57-18 6-27 18-27 35-9 45 6 274-42 299-35 2-92-5-73-49" id="aJ"/><g id="k"><use transform="matrix(0.018,0,0,0.018,0,0)" xlink:href="#aI"/><use transform="matrix(0.018,0,0,0.018,11.43,0)" xlink:href="#aJ"/></g><g id="l"><use transform="matrix(0.018,0,0,0.018,0,0)" xlink:href="#az"/><use transform="matrix(0.018,0,0,0.018,14.453999999999999,0)" xlink:href="#ap"/><use transform="matrix(0.018,0,0,0.018,25.577999999999992,0)" xlink:href="#aI"/><use transform="matrix(0.018,0,0,0.018,37.007999999999996,0)" xlink:href="#aF"/><use transform="matrix(0.018,0,0,0.018,50.687999999999995,0)" xlink:href="#aI"/><use transform="matrix(0.018,0,0,0.018,62.117999999999995,0)" xlink:href="#aG"/><use transform="matrix(0.018,0,0,0.018,73.65599999999999,0)" xlink:href="#ax"/><use transform="matrix(0.018,0,0,0.018,84.222,0)" xlink:href="#ao"/></g><path d="M23-677c-68-88 127-122 212-122 113 0 253 24 291 82 92 144-48 310-153 365-52 27-102 48-161 69-56 20-53 15-58 80-4 49-8 103-13 153-3 31-19 46-43 46-44 0-65-28-63-81 5-162 8-330 16-486 3-53-4-75-28-106zm415 73c0-44-44-66-132-66-78 0-124 8-135 26-10 16-14 89-14 218 0 44 22 39 57 25 83-34 224-115 224-203" id="aK"/><g id="m"><use transform="matrix(0.018,0,0,0.018,0,0)" xlink:href="#aK"/><use transform="matrix(0.018,0,0,0.018,10.152,0)" xlink:href="#az"/><use transform="matrix(0.018,0,0,0.018,24.605999999999998,0)" xlink:href="#am"/><use transform="matrix(0.018,0,0,0.018,35.477999999999994,0)" xlink:href="#ar"/></g><g id="n"><use transform="matrix(0.018,0,0,0.018,0,0)" xlink:href="#ax"/><use transform="matrix(0.018,0,0,0.018,10.565999999999999,0)" xlink:href="#aG"/><use transform="matrix(0.018,0,0,0.018,22.104,0)" xlink:href="#aG"/><use transform="matrix(0.018,0,0,0.018,33.641999999999996,0)" xlink:href="#az"/><use transform="matrix(0.018,0,0,0.018,48.096,0)" xlink:href="#as"/><use transform="matrix(0.018,0,0,0.018,61.038,0)" xlink:href="#ax"/><use transform="matrix(0.018,0,0,0.018,71.604,0)" xlink:href="#as"/><use transform="matrix(0.018,0,0,0.018,84.54599999999999,0)" xlink:href="#al"/><use transform="matrix(0.018,0,0,0.018,96.53399999999999,0)" xlink:href="#am"/></g><path d="M722-498c18-70 6-160 6-241 0-38 16-57 49-57 55 0 82 64 82 193 1 204-63 347-126 491-54 125-124 110-196 9-30-42-54-91-82-146-27-53-43-79-49-79-8-17-88 136-114 182C269-106 193 9 170-1 96-15 86-47 66-129 33-267 17-480 18-657c0-70 18-105 54-105 39 0 66 36 68 87 4 137-4 277 12 406 12 100 67-12 84-47 47-96 102-197 139-285 18-41 78-38 96-4 52 97 51 251 110 344 50 78 71 31 104-70 17-53 22-108 37-167" id="aL"/><g id="o"><use transform="matrix(0.018,0,0,0.018,0,0)" xlink:href="#aL"/><use transform="matrix(0.018,0,0,0.018,15.623999999999999,0)" xlink:href="#aI"/><use transform="matrix(0.018,0,0,0.018,27.054,0)" xlink:href="#as"/><use transform="matrix(0.018,0,0,0.018,39.995999999999995,0)" xlink:href="#ak"/></g><path d="M290-540c44-9 50-55 22-99-24-37-35-128-35-168 0-51-85-47-94-6-4 21-6 39-6 53-3 62 52 233 113 220zm-165 31c52 3 45-76 21-109-29-40-38-106-47-161-28-49-103-18-87 51 19 80 23 156 71 197 16 14 29 22 42 22" id="aM"/><path d="M81-140c34 0 77 28 77 61 0 38-43 81-82 81C34 2 7-30 9-72c2-44 21-68 72-68" id="aN"/><path d="M192-85c-3 48 46 100 89 72 52-75 73-232 102-321 46-139 146-233 278-374 22-37 2-105-46-93-81 20-199 174-252 246-53 73-46 65-110 7-63-57-96-136-132-220-11-25-31-37-54-37-36-1-56 32-56 68 32 142 118 264 224 332 15 16 24 24 21 38" id="aO"/><path d="M11-110C-14-66 45-13 76-8c17 2 29-20 35-34 46-87 86-151 130-233 80-148 195-281 286-421 44-66-51-145-100-70C284-548 148-351 11-110" id="aP"/><g id="p"><use transform="matrix(0.018,0,0,0.018,0,0)" xlink:href="#aM"/><use transform="matrix(0.018,0,0,0.018,6.119999999999999,0)" xlink:href="#au"/><use transform="matrix(0.018,0,0,0.018,18.215999999999998,0)" xlink:href="#an"/><use transform="matrix(0.018,0,0,0.018,30.869999999999997,0)" xlink:href="#ao"/><use transform="matrix(0.018,0,0,0.018,41.94,0)" xlink:href="#as"/><use transform="matrix(0.018,0,0,0.018,54.882,0)" xlink:href="#aI"/><use transform="matrix(0.018,0,0,0.018,66.312,0)" xlink:href="#aj"/><use transform="matrix(0.018,0,0,0.018,77.72399999999999,0)" xlink:href="#ao"/><use transform="matrix(0.018,0,0,0.018,88.79399999999998,0)" xlink:href="#an"/><use transform="matrix(0.018,0,0,0.018,101.44799999999998,0)" xlink:href="#ar"/><use transform="matrix(0.018,0,0,0.018,112.80599999999997,0)" xlink:href="#as"/><use transform="matrix(0.018,0,0,0.018,125.74799999999998,0)" xlink:href="#al"/><use transform="matrix(0.018,0,0,0.018,137.736,0)" xlink:href="#ap"/><use transform="matrix(0.018,0,0,0.018,148.85999999999999,0)" xlink:href="#aN"/><use transform="matrix(0.018,0,0,0.018,151.956,0)" xlink:href="#ax"/><use transform="matrix(0.018,0,0,0.018,162.522,0)" xlink:href="#am"/><use transform="matrix(0.018,0,0,0.018,173.394,0)" xlink:href="#au"/><use transform="matrix(0.018,0,0,0.018,185.49,0)" xlink:href="#aI"/><use transform="matrix(0.018,0,0,0.018,196.92000000000002,0)" xlink:href="#ap"/><use transform="matrix(0.018,0,0,0.018,208.044,0)" xlink:href="#ax"/><use transform="matrix(0.018,0,0,0.018,218.61,0)" xlink:href="#ao"/><use transform="matrix(0.018,0,0,0.018,229.68,0)" xlink:href="#as"/><use transform="matrix(0.018,0,0,0.018,242.622,0)" xlink:href="#aO"/><use transform="matrix(0.018,0,0,0.018,254.73600000000002,0)" xlink:href="#aN"/><use transform="matrix(0.018,0,0,0.018,257.832,0)" xlink:href="#aI"/><use transform="matrix(0.018,0,0,0.018,269.262,0)" xlink:href="#az"/><use transform="matrix(0.018,0,0,0.018,283.716,0)" xlink:href="#aP"/><use transform="matrix(0.018,0,0,0.018,293.36400000000003,0)" xlink:href="#al"/><use transform="matrix(0.018,0,0,0.018,305.35200000000003,0)" xlink:href="#ao"/><use transform="matrix(0.018,0,0,0.018,316.422,0)" xlink:href="#al"/><use transform="matrix(0.018,0,0,0.018,328.41,0)" xlink:href="#aj"/><use transform="matrix(0.018,0,0,0.018,339.822,0)" xlink:href="#as"/><use transform="matrix(0.018,0,0,0.018,352.76400000000007,0)" xlink:href="#aM"/></g><g id="q"><use transform="matrix(0.018,0,0,0.018,0,0)" xlink:href="#aH"/><use transform="matrix(0.018,0,0,0.018,8.1,0)" xlink:href="#aH"/></g><g id="r"><use transform="matrix(0.018,0,0,0.018,0,0)" xlink:href="#aE"/><use transform="matrix(0.018,0,0,0.018,11.43,0)" xlink:href="#aJ"/></g><path d="M330-158c82-22 193-18 286-31 38 11 58 81 24 113-25 24-71 25-116 25-135 0-238 34-358 47C61 7 4-52 15-159c12-113 37-213 32-340-2-59 2-121-2-178-2-44 35-62 81-61 104-31 222-52 345-64 68-7 103 34 111 94 2 12-3 22-9 31-33 14-62 15-103 16-100 2-196 10-270 40h-8c-18 23-11 79-15 106-1 13 5 22 16 25 82-10 176-25 264-12 44 7 78 26 71 72-7 49-76 30-125 30-78 0-138 22-210 29-24 1-35 28-36 52-2 41-10 83-8 126-19 84 122 51 181 35" id="aQ"/><g id="s"><use transform="matrix(0.018,0,0,0.018,0,0)" xlink:href="#aQ"/><use transform="matrix(0.018,0,0,0.018,11.988,0)" xlink:href="#ay"/><use transform="matrix(0.018,0,0,0.018,23.526,0)" xlink:href="#am"/><use transform="matrix(0.018,0,0,0.018,34.397999999999996,0)" xlink:href="#aK"/><use transform="matrix(0.018,0,0,0.018,44.55,0)" xlink:href="#az"/><use transform="matrix(0.018,0,0,0.018,59.004,0)" xlink:href="#aI"/><use transform="matrix(0.018,0,0,0.018,70.434,0)" xlink:href="#aG"/><use transform="matrix(0.018,0,0,0.018,81.972,0)" xlink:href="#as"/><use transform="matrix(0.018,0,0,0.018,94.91399999999999,0)" xlink:href="#ar"/></g><g id="t"><use transform="matrix(0.018,0,0,0.018,0,0)" xlink:href="#as"/><use transform="matrix(0.018,0,0,0.018,12.941999999999998,0)" xlink:href="#ax"/><use transform="matrix(0.018,0,0,0.018,23.507999999999996,0)" xlink:href="#ap"/><use transform="matrix(0.018,0,0,0.018,34.63199999999999,0)" xlink:href="#aF"/><use transform="matrix(0.018,0,0,0.018,48.31199999999999,0)" xlink:href="#al"/><use transform="matrix(0.018,0,0,0.018,60.29999999999999,0)" xlink:href="#as"/></g><path d="M635-31c28-53 7-115-31-143-7-19-67-63-88-82-39-36-80-78-117-115 1-16 41-65 118-148l-10 11c30-36 53-67 85-95 54-48 78-89 78-117s-20-70-52-70c-36 0-116 78-245 230-22 26-38 59-67 71-30 12-85-104-102-151-13-36-72-158-75-157-34-47-96-35-89 35 8 88 69 162 101 236 14 20 74 122 77 140-20 61-139 209-182 265-18 23-24 44-24 60C11-36 45 1 69 0c45-2 96-97 124-134 67-89 109-132 124-131 48 2 103 85 141 115 20 16 39 33 56 52 49 58 88 82 121 67" id="aR"/><g id="u"><use transform="matrix(0.018,0,0,0.018,0,0)" xlink:href="#aD"/><use transform="matrix(0.018,0,0,0.018,10.152,0)" xlink:href="#ap"/><use transform="matrix(0.018,0,0,0.018,21.275999999999993,0)" xlink:href="#az"/><use transform="matrix(0.018,0,0,0.018,35.73,0)" xlink:href="#aR"/><use transform="matrix(0.018,0,0,0.018,47.897999999999996,0)" xlink:href="#aO"/></g><g id="v"><use transform="matrix(0.018,0,0,0.018,0,0)" xlink:href="#aD"/><use transform="matrix(0.018,0,0,0.018,10.152,0)" xlink:href="#az"/><use transform="matrix(0.018,0,0,0.018,24.605999999999998,0)" xlink:href="#am"/><use transform="matrix(0.018,0,0,0.018,35.477999999999994,0)" xlink:href="#ar"/></g><g id="w"><use transform="matrix(0.018,0,0,0.018,0,0)" xlink:href="#aD"/><use transform="matrix(0.018,0,0,0.018,10.152,0)" xlink:href="#az"/><use transform="matrix(0.018,0,0,0.018,24.605999999999998,0)" xlink:href="#am"/></g><g id="x"><use transform="matrix(0.018,0,0,0.018,0,0)" xlink:href="#aC"/><use transform="matrix(0.018,0,0,0.018,10.565999999999999,0)" xlink:href="#am"/><use transform="matrix(0.018,0,0,0.018,21.438,0)" xlink:href="#au"/><use transform="matrix(0.018,0,0,0.018,33.534,0)" xlink:href="#aI"/><use transform="matrix(0.018,0,0,0.018,44.964,0)" xlink:href="#ar"/><use transform="matrix(0.018,0,0,0.018,56.321999999999996,0)" xlink:href="#ar"/><use transform="matrix(0.018,0,0,0.018,67.67999999999999,0)" xlink:href="#aI"/><use transform="matrix(0.018,0,0,0.018,79.10999999999997,0)" xlink:href="#az"/><use transform="matrix(0.018,0,0,0.018,93.56399999999998,0)" xlink:href="#aG"/></g><path d="M608-642l-20 77c-36 56-69 94-113 138-49 48-58 40-29 81 33 46 69 89 97 147 44 89 52 141 40 147-3 38-20 49-63 52-68 5-97-106-129-160-40-68-56-162-144-164-53-1-27 78-45 121-7 56-12 123-28 170C157-4 113 24 66-1 46-11 40-39 49-87c19-111 19-139 19-313 0-144 1-187-40-242-27-37-13-94 26-108 103-36 250-59 389-41 63 8 182 85 165 149zm-140 11c-10-39-42-58-96-57-53 12-154 21-179 43-5 9-8 31-8 65 0 151 19 135 127 94 94-36 148-79 156-145" id="aS"/><path d="M697 1c1 28-21 55-50 54-21 0-46-18-77-52-32-35-51-52-56-52C390 2 288 19 176-28 69-73 12-126 13-276c0-184 157-386 282-467 76-50 243-89 339-27 58 37 109 80 135 146 29 74 35 147 3 242-27 79-64 141-111 199-18 23-27 38-27 44 0 19 74 109 63 140zM448-200c12-68-47-222 52-222 51 0 64 41 70 89 9 80 60-19 72-41 20-37 29-84 29-134 1-93-48-165-140-161-161 7-233 84-316 209-53 79-80 143-80 192-1 114 135 154 246 114 40-14 63-27 67-46" id="aT"/><g id="y"><use transform="matrix(0.018,0,0,0.018,0,0)" xlink:href="#aS"/><use transform="matrix(0.018,0,0,0.018,11.123999999999999,0)" xlink:href="#al"/><use transform="matrix(0.018,0,0,0.018,23.112,0)" xlink:href="#aT"/><use transform="matrix(0.018,0,0,0.018,37.656,0)" xlink:href="#an"/><use transform="matrix(0.018,0,0,0.018,50.31,0)" xlink:href="#al"/><use transform="matrix(0.018,0,0,0.018,62.298,0)" xlink:href="#ar"/><use transform="matrix(0.018,0,0,0.018,73.656,0)" xlink:href="#as"/><use transform="matrix(0.018,0,0,0.018,86.598,0)" xlink:href="#ai"/></g><g id="z"><use transform="matrix(0.018,0,0,0.018,0,0)" xlink:href="#at"/><use transform="matrix(0.018,0,0,0.018,12.095999999999998,0)" xlink:href="#an"/><use transform="matrix(0.018,0,0,0.018,24.749999999999996,0)" xlink:href="#as"/><use transform="matrix(0.018,0,0,0.018,37.692,0)" xlink:href="#ax"/><use transform="matrix(0.018,0,0,0.018,48.257999999999996,0)" xlink:href="#as"/><use transform="matrix(0.018,0,0,0.018,61.199999999999996,0)" xlink:href="#al"/></g><g id="A"><use transform="matrix(0.018,0,0,0.018,0,0)" xlink:href="#aE"/><use transform="matrix(0.018,0,0,0.018,11.43,0)" xlink:href="#aG"/><use transform="matrix(0.018,0,0,0.018,22.968,0)" xlink:href="#as"/><use transform="matrix(0.018,0,0,0.018,35.91,0)" xlink:href="#az"/></g><g id="B"><use transform="matrix(0.018,0,0,0.018,0,0)" xlink:href="#aD"/><use transform="matrix(0.018,0,0,0.018,10.152,0)" xlink:href="#ap"/><use transform="matrix(0.018,0,0,0.018,21.275999999999993,0)" xlink:href="#az"/><use transform="matrix(0.018,0,0,0.018,35.73,0)" xlink:href="#aR"/><use transform="matrix(0.018,0,0,0.018,47.897999999999996,0)" xlink:href="#aO"/></g><g id="C"><use transform="matrix(0.018,0,0,0.018,0,0)" xlink:href="#aD"/><use transform="matrix(0.018,0,0,0.018,10.152,0)" xlink:href="#az"/><use transform="matrix(0.018,0,0,0.018,24.605999999999998,0)" xlink:href="#am"/><use transform="matrix(0.018,0,0,0.018,35.477999999999994,0)" xlink:href="#ar"/><use transform="matrix(0.018,0,0,0.018,46.83599999999999,0)" xlink:href="#aH"/></g><g id="D"><use transform="matrix(0.018,0,0,0.018,0,0)" xlink:href="#aD"/><use transform="matrix(0.018,0,0,0.018,10.152,0)" xlink:href="#az"/><use transform="matrix(0.018,0,0,0.018,24.605999999999998,0)" xlink:href="#am"/><use transform="matrix(0.018,0,0,0.018,35.477999999999994,0)" xlink:href="#ar"/></g><path d="M312-705c33-33 39-107-26-103-49 3-81 54-111 81-75 69-115 191-144 308-21 84-23 101-14 176 9 78 64 163 125 214 24 20 92 29 89-18-4-43-67-95-83-129-51-107-29-195 12-325 28-89 89-143 152-204" id="aU"/><g id="E"><use transform="matrix(0.018,0,0,0.018,0,0)" xlink:href="#aU"/><use transform="matrix(0.018,0,0,0.018,6.101999999999999,0)" xlink:href="#aE"/><use transform="matrix(0.018,0,0,0.018,17.532,0)" xlink:href="#aG"/><use transform="matrix(0.018,0,0,0.018,29.07,0)" xlink:href="#aj"/><use transform="matrix(0.018,0,0,0.018,40.482,0)" xlink:href="#ao"/><use transform="matrix(0.018,0,0,0.018,51.552,0)" xlink:href="#aN"/></g><path d="M281-285c31-114 79-277 15-384-30-51-68-104-118-134-26-16-69-9-66 27 4 51 46 70 66 106 47 87 58 158 22 285-23 82-35 147-91 197C43-130 8-88 8-59 8-15 61 0 89-24c71-61 131-123 171-221 9-21 13-29 21-43v3" id="aV"/><g id="F"><use transform="matrix(0.018,0,0,0.018,0,0)" xlink:href="#aD"/><use transform="matrix(0.018,0,0,0.018,10.152,0)" xlink:href="#az"/><use transform="matrix(0.018,0,0,0.018,24.605999999999998,0)" xlink:href="#am"/><use transform="matrix(0.018,0,0,0.018,35.477999999999994,0)" xlink:href="#ar"/><use transform="matrix(0.018,0,0,0.018,46.83599999999999,0)" xlink:href="#aV"/></g><g id="G"><use transform="matrix(0.018,0,0,0.018,0,0)" xlink:href="#aS"/><use transform="matrix(0.018,0,0,0.018,11.123999999999999,0)" xlink:href="#al"/><use transform="matrix(0.018,0,0,0.018,23.112,0)" xlink:href="#aj"/><use transform="matrix(0.018,0,0,0.018,34.524,0)" xlink:href="#az"/><use transform="matrix(0.018,0,0,0.018,48.978,0)" xlink:href="#aG"/><use transform="matrix(0.018,0,0,0.018,60.516,0)" xlink:href="#aj"/><use transform="matrix(0.018,0,0,0.018,71.928,0)" xlink:href="#aI"/><use transform="matrix(0.018,0,0,0.018,83.358,0)" xlink:href="#ao"/><use transform="matrix(0.018,0,0,0.018,94.428,0)" xlink:href="#al"/></g><g id="H"><use transform="matrix(0.018,0,0,0.018,0,0)" xlink:href="#ay"/><use transform="matrix(0.018,0,0,0.018,11.537999999999998,0)" xlink:href="#az"/><use transform="matrix(0.018,0,0,0.018,25.991999999999997,0)" xlink:href="#am"/><use transform="matrix(0.018,0,0,0.018,36.864,0)" xlink:href="#al"/></g><g id="I"><use transform="matrix(0.018,0,0,0.018,0,0)" xlink:href="#aD"/><use transform="matrix(0.018,0,0,0.018,10.152,0)" xlink:href="#az"/><use transform="matrix(0.018,0,0,0.018,24.605999999999998,0)" xlink:href="#az"/><use transform="matrix(0.018,0,0,0.018,39.059999999999995,0)" xlink:href="#ao"/><use transform="matrix(0.018,0,0,0.018,50.129999999999995,0)" xlink:href="#ar"/></g><path d="M19-91c0-222 71-428 58-668-3-62 121-44 170-33 118 27 229 50 293 128 44 53 63 97 63 217 0 165-189 328-383 400-36 13-62 45-108 45-66 0-93-23-93-89zm185-582c-30 151-43 322-58 489 5 39 27 28 60 14 129-54 276-147 276-304 0-155-106-203-278-199" id="aW"/><path d="M21-302C-7-136 9 24 196-12c147-28 263-93 386-142 57-23 26-120-26-120-111 32-240 115-378 126-13 1-22-26-25-45 30-174 59-350 88-524 10-62-86-124-120-61-39 73-49 196-69 277-19 77-22 145-31 199" id="aX"/><g id="J"><use transform="matrix(0.018,0,0,0.018,0,0)" xlink:href="#aW"/><use transform="matrix(0.018,0,0,0.018,10.872,0)" xlink:href="#al"/><use transform="matrix(0.018,0,0,0.018,22.86,0)" xlink:href="#aX"/><use transform="matrix(0.018,0,0,0.018,33.93,0)" xlink:href="#al"/><use transform="matrix(0.018,0,0,0.018,45.918,0)" xlink:href="#aF"/><use transform="matrix(0.018,0,0,0.018,59.598,0)" xlink:href="#ax"/><use transform="matrix(0.018,0,0,0.018,70.164,0)" xlink:href="#as"/><use transform="matrix(0.018,0,0,0.018,83.106,0)" xlink:href="#al"/></g><g id="K"><use transform="matrix(0.018,0,0,0.018,0,0)" xlink:href="#aD"/><use transform="matrix(0.018,0,0,0.018,10.152,0)" xlink:href="#az"/><use transform="matrix(0.018,0,0,0.018,24.605999999999998,0)" xlink:href="#am"/><use transform="matrix(0.018,0,0,0.018,35.477999999999994,0)" xlink:href="#ar"/></g><g id="L"><use transform="matrix(0.018,0,0,0.018,0,0)" xlink:href="#aw"/><use transform="matrix(0.018,0,0,0.018,15.623999999999999,0)" xlink:href="#ax"/><use transform="matrix(0.018,0,0,0.018,26.189999999999998,0)" xlink:href="#as"/><use transform="matrix(0.018,0,0,0.018,39.132,0)" xlink:href="#aj"/><use transform="matrix(0.018,0,0,0.018,50.544,0)" xlink:href="#ak"/></g><g id="M"><use transform="matrix(0.018,0,0,0.018,0,0)" xlink:href="#aQ"/><use transform="matrix(0.018,0,0,0.018,11.988,0)" xlink:href="#aG"/><use transform="matrix(0.018,0,0,0.018,23.526,0)" xlink:href="#am"/><use transform="matrix(0.018,0,0,0.018,34.397999999999996,0)" xlink:href="#aK"/><use transform="matrix(0.018,0,0,0.018,44.55,0)" xlink:href="#az"/><use transform="matrix(0.018,0,0,0.018,59.004,0)" xlink:href="#aI"/><use transform="matrix(0.018,0,0,0.018,70.434,0)" xlink:href="#aG"/><use transform="matrix(0.018,0,0,0.018,81.972,0)" xlink:href="#as"/><use transform="matrix(0.018,0,0,0.018,94.91399999999999,0)" xlink:href="#ar"/></g><g id="N"><use transform="matrix(0.018,0,0,0.018,0,0)" xlink:href="#aS"/><use transform="matrix(0.018,0,0,0.018,11.123999999999999,0)" xlink:href="#al"/><use transform="matrix(0.018,0,0,0.018,23.112,0)" xlink:href="#ap"/><use transform="matrix(0.018,0,0,0.018,34.236,0)" xlink:href="#az"/><use transform="matrix(0.018,0,0,0.018,48.69,0)" xlink:href="#an"/><use transform="matrix(0.018,0,0,0.018,61.343999999999994,0)" xlink:href="#as"/><use transform="matrix(0.018,0,0,0.018,74.286,0)" xlink:href="#al"/></g><path d="M109-735c-25-57-110-11-99 37 30 130 91 291 122 410 18 69 44 132 72 190 44 90 75 116 148 73 102-105 149-290 208-441 32-82 48-168 48-261 0-51-15-77-46-77-38 0-59 34-73 100-35 160-89 312-149 454-40 95-58 66-91-37-28-90-54-179-79-263-24-79-42-141-61-185" id="aY"/><g id="O"><use transform="matrix(0.018,0,0,0.018,0,0)" xlink:href="#ai"/><use transform="matrix(0.018,0,0,0.018,11.357999999999999,0)" xlink:href="#al"/><use transform="matrix(0.018,0,0,0.018,23.345999999999997,0)" xlink:href="#ap"/><use transform="matrix(0.018,0,0,0.018,34.47,0)" xlink:href="#aY"/><use transform="matrix(0.018,0,0,0.018,45.54,0)" xlink:href="#aI"/><use transform="matrix(0.018,0,0,0.018,56.97,0)" xlink:href="#aj"/><use transform="matrix(0.018,0,0,0.018,68.382,0)" xlink:href="#al"/><use transform="matrix(0.018,0,0,0.018,80.37,0)" xlink:href="#ar"/></g><path d="M382-556c-3 158-18 304-18 470 0 31 6 72-21 86-20 35-87 21-104-6-1-188 14-367 23-549 1-24 13-80-17-80-77 0-131 31-210 31-15-10-43-18-33-45 0-82 83-94 148-109 103-23 215-12 315-40 43-12 91-17 142-23 62-8 95 53 77 116-8 28-47 14-75 18-68 9-134 10-195 30-32 11-31 60-32 101" id="aZ"/><g id="P"><use transform="matrix(0.018,0,0,0.018,0,0)" xlink:href="#aZ"/><use transform="matrix(0.018,0,0,0.018,12.347999999999999,0)" xlink:href="#az"/></g><g id="Q"><use transform="matrix(0.018,0,0,0.018,0,0)" xlink:href="#aW"/><use transform="matrix(0.018,0,0,0.018,10.872,0)" xlink:href="#al"/><use transform="matrix(0.018,0,0,0.018,22.86,0)" xlink:href="#ao"/><use transform="matrix(0.018,0,0,0.018,33.93,0)" xlink:href="#al"/><use transform="matrix(0.018,0,0,0.018,45.918,0)" xlink:href="#aF"/><use transform="matrix(0.018,0,0,0.018,59.598,0)" xlink:href="#ax"/><use transform="matrix(0.018,0,0,0.018,70.164,0)" xlink:href="#as"/><use transform="matrix(0.018,0,0,0.018,83.106,0)" xlink:href="#al"/></g><g id="R"><use transform="matrix(0.018,0,0,0.018,0,0)" xlink:href="#aD"/><use transform="matrix(0.018,0,0,0.018,10.152,0)" xlink:href="#az"/><use transform="matrix(0.018,0,0,0.018,24.605999999999998,0)" xlink:href="#am"/><use transform="matrix(0.018,0,0,0.018,35.477999999999994,0)" xlink:href="#ar"/></g><g id="S"><use transform="matrix(0.018,0,0,0.018,0,0)" xlink:href="#ax"/><use transform="matrix(0.018,0,0,0.018,10.565999999999999,0)" xlink:href="#aG"/><use transform="matrix(0.018,0,0,0.018,22.104,0)" xlink:href="#am"/></g><path d="M3-81C3-44 54-2 90-8c84-15 229-66 336-66 66 0 138-5 200-16 15-7 26-21 25-46 0-56-22-86-66-81l-355 42c-45-14 13-69 26-93 78-144 236-280 334-415 19-26 27-45 27-56-4-55-57-67-130-64-142 6-306 4-411 45-29 11-41 39-41 70 0 43 17 64 50 64 66-16 156-53 230-57 24-1 92-12 93 11 0 9-27 41-80 96C228-469 138-318 58-193 23-137 3-101 3-81" id="ba"/><g id="T"><use transform="matrix(0.018,0,0,0.018,0,0)" xlink:href="#aF"/><use transform="matrix(0.018,0,0,0.018,13.68,0)" xlink:href="#ao"/><use transform="matrix(0.018,0,0,0.018,24.749999999999996,0)" xlink:href="#az"/><use transform="matrix(0.018,0,0,0.018,39.20399999999999,0)" xlink:href="#av"/><use transform="matrix(0.018,0,0,0.018,50.778,0)" xlink:href="#ax"/><use transform="matrix(0.018,0,0,0.018,61.343999999999994,0)" xlink:href="#ao"/><use transform="matrix(0.018,0,0,0.018,72.41399999999999,0)" xlink:href="#aI"/><use transform="matrix(0.018,0,0,0.018,83.844,0)" xlink:href="#ba"/><use transform="matrix(0.018,0,0,0.018,95.868,0)" xlink:href="#al"/><use transform="matrix(0.018,0,0,0.018,107.856,0)" xlink:href="#aH"/><use transform="matrix(0.018,0,0,0.018,115.95599999999999,0)" xlink:href="#aH"/></g><g id="U"><use transform="matrix(0.018,0,0,0.018,0,0)" xlink:href="#aU"/><use transform="matrix(0.018,0,0,0.018,6.101999999999999,0)" xlink:href="#aE"/><use transform="matrix(0.018,0,0,0.018,17.532,0)" xlink:href="#aG"/><use transform="matrix(0.018,0,0,0.018,29.07,0)" xlink:href="#aj"/><use transform="matrix(0.018,0,0,0.018,40.482,0)" xlink:href="#ao"/><use transform="matrix(0.018,0,0,0.018,51.552,0)" xlink:href="#aN"/></g><path d="M590-683c0-95-64-132-148-103-62 21-113 58-161 92-97 69-165 165-223 275C-45-222 51 11 277-12c154-16 257-81 343-160 63-58 100-126 109-243 12-155-158-93-246-67-61 18-178 69-168 115-2 30 28 68 54 64 69-10 133-52 201-67 9-2 20 9 20 17 0 11-18 38-57 79-85 91-188 136-306 136-55 0-99-68-99-127 0-30 16-69 37-123 25-64 237-288 318-281 25-8 66 40 79 44 19 0 28-19 28-58" id="bb"/><g id="V"><use transform="matrix(0.018,0,0,0.018,0,0)" xlink:href="#bb"/><use transform="matrix(0.018,0,0,0.018,13.68,0)" xlink:href="#ao"/><use transform="matrix(0.018,0,0,0.018,24.749999999999996,0)" xlink:href="#az"/><use transform="matrix(0.018,0,0,0.018,39.20399999999999,0)" xlink:href="#av"/><use transform="matrix(0.018,0,0,0.018,50.778,0)" xlink:href="#ax"/><use transform="matrix(0.018,0,0,0.018,61.343999999999994,0)" xlink:href="#ao"/></g><g id="W"><use transform="matrix(0.018,0,0,0.018,0,0)" xlink:href="#ai"/><use transform="matrix(0.018,0,0,0.018,11.357999999999999,0)" xlink:href="#al"/><use transform="matrix(0.018,0,0,0.018,23.345999999999997,0)" xlink:href="#ap"/><use transform="matrix(0.018,0,0,0.018,34.47,0)" xlink:href="#aY"/><use transform="matrix(0.018,0,0,0.018,45.54,0)" xlink:href="#aI"/><use transform="matrix(0.018,0,0,0.018,56.97,0)" xlink:href="#aj"/><use transform="matrix(0.018,0,0,0.018,68.382,0)" xlink:href="#al"/><use transform="matrix(0.018,0,0,0.018,80.37,0)" xlink:href="#ar"/><use transform="matrix(0.018,0,0,0.018,91.72800000000001,0)" xlink:href="#aV"/></g><g id="X"><use transform="matrix(0.018,0,0,0.018,0,0)" xlink:href="#aD"/><use transform="matrix(0.018,0,0,0.018,10.152,0)" xlink:href="#az"/><use transform="matrix(0.018,0,0,0.018,24.605999999999998,0)" xlink:href="#am"/></g><path d="M44-443c79-191 208-366 448-366 141 0 239 118 267 253 46 222-61 413-213 490-83 42-221 78-338 30-55-23-106-43-129-82-26-14-80-140-57-202 2-41 8-89 22-123zm103 115c1 136 75 191 208 191 130 0 180-50 241-135 38-53 55-111 55-169 0-109-73-236-179-227-143 12-260 151-311 271-9 24-14 47-14 69" id="bc"/><g id="Y"><use transform="matrix(0.018,0,0,0.018,0,0)" xlink:href="#bc"/><use transform="matrix(0.018,0,0,0.018,14.453999999999999,0)" xlink:href="#av"/><use transform="matrix(0.018,0,0,0.018,26.028,0)" xlink:href="#ar"/><use transform="matrix(0.018,0,0,0.018,37.385999999999996,0)" xlink:href="#al"/><use transform="matrix(0.018,0,0,0.018,49.373999999999995,0)" xlink:href="#ap"/><use transform="matrix(0.018,0,0,0.018,60.49799999999999,0)" xlink:href="#aY"/><use transform="matrix(0.018,0,0,0.018,71.56799999999998,0)" xlink:href="#ax"/><use transform="matrix(0.018,0,0,0.018,82.134,0)" xlink:href="#as"/><use transform="matrix(0.018,0,0,0.018,95.07599999999998,0)" xlink:href="#aI"/><use transform="matrix(0.018,0,0,0.018,106.50599999999997,0)" xlink:href="#az"/><use transform="matrix(0.018,0,0,0.018,120.95999999999995,0)" xlink:href="#aG"/><use transform="matrix(0.018,0,0,0.018,132.49799999999996,0)" xlink:href="#ar"/></g><g id="Z"><use transform="matrix(0.018,0,0,0.018,0,0)" xlink:href="#aD"/><use transform="matrix(0.018,0,0,0.018,10.152,0)" xlink:href="#az"/><use transform="matrix(0.018,0,0,0.018,24.605999999999998,0)" xlink:href="#az"/><use transform="matrix(0.018,0,0,0.018,39.059999999999995,0)" xlink:href="#ao"/></g><g id="aa"><use transform="matrix(0.018,0,0,0.018,0,0)" xlink:href="#aW"/><use transform="matrix(0.018,0,0,0.018,10.872,0)" xlink:href="#al"/><use transform="matrix(0.018,0,0,0.018,22.86,0)" xlink:href="#ao"/><use transform="matrix(0.018,0,0,0.018,33.93,0)" xlink:href="#al"/><use transform="matrix(0.018,0,0,0.018,45.918,0)" xlink:href="#aF"/><use transform="matrix(0.018,0,0,0.018,59.598,0)" xlink:href="#ax"/><use transform="matrix(0.018,0,0,0.018,70.164,0)" xlink:href="#as"/><use transform="matrix(0.018,0,0,0.018,83.106,0)" xlink:href="#al"/></g><g id="ab"><use transform="matrix(0.018,0,0,0.018,0,0)" xlink:href="#aW"/><use transform="matrix(0.018,0,0,0.018,10.872,0)" xlink:href="#al"/><use transform="matrix(0.018,0,0,0.018,22.86,0)" xlink:href="#aj"/><use transform="matrix(0.018,0,0,0.018,34.272,0)" xlink:href="#aI"/><use transform="matrix(0.018,0,0,0.018,45.702,0)" xlink:href="#ar"/><use transform="matrix(0.018,0,0,0.018,57.059999999999995,0)" xlink:href="#aI"/><use transform="matrix(0.018,0,0,0.018,68.49,0)" xlink:href="#az"/><use transform="matrix(0.018,0,0,0.018,82.94399999999999,0)" xlink:href="#aG"/><use transform="matrix(0.018,0,0,0.018,94.482,0)" xlink:href="#ar"/></g><g id="ac"><use transform="matrix(0.018,0,0,0.018,0,0)" xlink:href="#aS"/><use transform="matrix(0.018,0,0,0.018,11.123999999999999,0)" xlink:href="#al"/><use transform="matrix(0.018,0,0,0.018,23.112,0)" xlink:href="#aj"/><use transform="matrix(0.018,0,0,0.018,34.524,0)" xlink:href="#az"/><use transform="matrix(0.018,0,0,0.018,48.978,0)" xlink:href="#aG"/><use transform="matrix(0.018,0,0,0.018,60.516,0)" xlink:href="#aj"/><use transform="matrix(0.018,0,0,0.018,71.928,0)" xlink:href="#aI"/><use transform="matrix(0.018,0,0,0.018,83.358,0)" xlink:href="#ao"/><use transform="matrix(0.018,0,0,0.018,94.428,0)" xlink:href="#al"/></g><g id="ad"><use transform="matrix(0.018,0,0,0.018,0,0)" xlink:href="#ai"/><use transform="matrix(0.018,0,0,0.018,11.357999999999999,0)" xlink:href="#al"/><use transform="matrix(0.018,0,0,0.018,23.345999999999997,0)" xlink:href="#ap"/><use transform="matrix(0.018,0,0,0.018,34.47,0)" xlink:href="#aY"/><use transform="matrix(0.018,0,0,0.018,45.54,0)" xlink:href="#aI"/><use transform="matrix(0.018,0,0,0.018,56.97,0)" xlink:href="#aj"/><use transform="matrix(0.018,0,0,0.018,68.382,0)" xlink:href="#al"/></g><g id="ae"><use transform="matrix(0.018,0,0,0.018,0,0)" xlink:href="#bc"/><use transform="matrix(0.018,0,0,0.018,14.453999999999999,0)" xlink:href="#av"/><use transform="matrix(0.018,0,0,0.018,26.028,0)" xlink:href="#ar"/><use transform="matrix(0.018,0,0,0.018,37.385999999999996,0)" xlink:href="#al"/><use transform="matrix(0.018,0,0,0.018,49.373999999999995,0)" xlink:href="#ap"/><use transform="matrix(0.018,0,0,0.018,60.49799999999999,0)" xlink:href="#aY"/><use transform="matrix(0.018,0,0,0.018,71.56799999999998,0)" xlink:href="#ax"/><use transform="matrix(0.018,0,0,0.018,82.134,0)" xlink:href="#as"/><use transform="matrix(0.018,0,0,0.018,95.07599999999998,0)" xlink:href="#aI"/><use transform="matrix(0.018,0,0,0.018,106.50599999999997,0)" xlink:href="#az"/><use transform="matrix(0.018,0,0,0.018,120.95999999999995,0)" xlink:href="#aG"/><use transform="matrix(0.018,0,0,0.018,132.49799999999996,0)" xlink:href="#ar"/></g><g id="af"><use transform="matrix(0.018,0,0,0.018,0,0)" xlink:href="#aD"/><use transform="matrix(0.018,0,0,0.018,10.152,0)" xlink:href="#az"/><use transform="matrix(0.018,0,0,0.018,24.605999999999998,0)" xlink:href="#am"/></g><g id="ag"><use transform="matrix(0.018,0,0,0.018,0,0)" xlink:href="#aW"/><use transform="matrix(0.018,0,0,0.018,10.872,0)" xlink:href="#al"/><use transform="matrix(0.018,0,0,0.018,22.86,0)" xlink:href="#aj"/><use transform="matrix(0.018,0,0,0.018,34.272,0)" xlink:href="#aI"/><use transform="matrix(0.018,0,0,0.018,45.702,0)" xlink:href="#ar"/><use transform="matrix(0.018,0,0,0.018,57.059999999999995,0)" xlink:href="#aI"/><use transform="matrix(0.018,0,0,0.018,68.49,0)" xlink:href="#az"/><use transform="matrix(0.018,0,0,0.018,82.94399999999999,0)" xlink:href="#aG"/><use transform="matrix(0.018,0,0,0.018,94.482,0)" xlink:href="#ar"/></g><g id="ah"><use transform="matrix(0.018,0,0,0.018,0,0)" xlink:href="#ai"/><use transform="matrix(0.018,0,0,0.018,11.357999999999999,0)" xlink:href="#al"/><use transform="matrix(0.018,0,0,0.018,23.345999999999997,0)" xlink:href="#ap"/><use transform="matrix(0.018,0,0,0.018,34.47,0)" xlink:href="#aY"/><use transform="matrix(0.018,0,0,0.018,45.54,0)" xlink:href="#aI"/><use transform="matrix(0.018,0,0,0.018,56.97,0)" xlink:href="#aj"/><use transform="matrix(0.018,0,0,0.018,68.382,0)" xlink:href="#al"/><use transform="matrix(0.018,0,0,0.018,80.37,0)" xlink:href="#ar"/></g></defs></g></svg>