<svg xmlns="http://www.w3.org/2000/svg" xmlns:xlink="http://www.w3.org/1999/xlink" xmlns:lucid="lucid" width="1620" height="802"><g transform="translate(-20 -20)" lucid:page-tab-id="0_0"><path d="M0 0h1760v1360H0z" fill="#fff"/><path d="M980 40h640v740H980z" stroke="#000" stroke-opacity="0" stroke-width="2" fill="#e5e5e5"/><use xlink:href="#a" transform="matrix(1,0,0,1,985,45) translate(103.33800000000002 14.4)"/><use xlink:href="#b" transform="matrix(1,0,0,1,985,45) translate(359.58599999999996 14.4)"/><use xlink:href="#c" transform="matrix(1,0,0,1,985,45) translate(471.34799999999996 14.4)"/><path d="M40 40h640v740H40z" stroke="#000" stroke-opacity="0" stroke-width="2" fill="#e5e5e5"/><use xlink:href="#d" transform="matrix(1,0,0,1,45,45) translate(235.62 14.4)"/><use xlink:href="#e" transform="matrix(1,0,0,1,45,45) translate(311.832 14.4)"/><path d="M160 240h400v60H160z" stroke="#000" stroke-opacity="0" stroke-width="2" fill="#fff" fill-opacity="0"/><use xlink:href="#f" transform="matrix(1,0,0,1,165.00000000000006,245) translate(162.55200000000002 14.4)"/><use xlink:href="#g" transform="matrix(1,0,0,1,165.00000000000006,245) translate(274.314 14.4)"/><use xlink:href="#h" transform="matrix(1,0,0,1,165.00000000000006,245) translate(328.512 14.4)"/><path d="M160 200h400v60H160z" stroke="#000" stroke-opacity="0" stroke-width="2" fill="#fff" fill-opacity="0"/><use xlink:href="#i" transform="matrix(1,0,0,1,165.00000000000006,205) translate(0 14.4)"/><use xlink:href="#j" transform="matrix(1,0,0,1,165.00000000000006,205) translate(65.628 14.4)"/><path d="M80 80h160v80H80z" stroke="#000" stroke-width="2" fill="#fff"/><use xlink:href="#k" transform="matrix(1,0,0,1,85,85) translate(39.684000000000005 39.734)"/><use xlink:href="#l" transform="matrix(1,0,0,1,85,85) translate(78.168 39.734)"/><path d="M480 80h160v80H480z" stroke="#000" stroke-width="2" fill="#fff"/><use xlink:href="#m" transform="matrix(1,0,0,1,485,85.00000000000003) translate(44.643 39.734)"/><path d="M1420 80h160v80h-160z" stroke="#000" stroke-width="2" fill="#fff"/><use xlink:href="#n" transform="matrix(1,0,0,1,1425,85.00000000000003) translate(23.89800000000001 39.734)"/><path d="M1020 80h160v80h-160z" stroke="#000" stroke-width="2" fill="#fff"/><use xlink:href="#k" transform="matrix(1,0,0,1,1025,85.00000000000003) translate(39.684000000000005 39.734)"/><use xlink:href="#l" transform="matrix(1,0,0,1,1025,85.00000000000003) translate(78.168 39.734)"/><path d="M160 161l.52 600.76" stroke="#000" stroke-width="2" fill="none"/><path d="M161 161h-2v-1h2zM160.54 776.76l-4.65-14.26h9.26z"/><path d="M160.54 780l-6.03-18.5h12.03zm-3.27-16.5l3.26 10.03 3.25-10.03z"/><path d="M560 161l-.52 600.76" stroke="#000" stroke-width="2" fill="none"/><path d="M561 161h-2v-1h2zM564.1 762.5l-4.64 14.26-4.62-14.27z"/><path d="M565.5 761.5l-6.04 18.5-6-18.5zm-6.03 12.03l3.26-10.03h-6.5z"/><path d="M1500 161l-.52 600.76" stroke="#000" stroke-width="2" fill="none"/><path d="M1501 161h-2v-1h2zM1504.1 762.5l-4.64 14.26-4.62-14.27z"/><path d="M1505.5 761.5l-6.04 18.5-6-18.5zm-6.03 12.03l3.26-10.03h-6.5z"/><path d="M1100 161l.52 600.76" stroke="#000" stroke-width="2" fill="none"/><path d="M1101 161h-2v-1h2zM1100.54 776.76l-4.65-14.26h9.26z"/><path d="M1100.54 780l-6.03-18.5h12.03zm-3.27-16.5l3.26 10.03 3.25-10.03z"/><path d="M160 320h400v60H160z" stroke="#000" stroke-opacity="0" stroke-width="2" fill="#fff" fill-opacity="0"/><use xlink:href="#i" transform="matrix(1,0,0,1,165.00000000000006,325) translate(0 14.4)"/><use xlink:href="#o" transform="matrix(1,0,0,1,165.00000000000006,325) translate(65.628 14.4)"/><use xlink:href="#p" transform="matrix(1,0,0,1,165.00000000000006,325) translate(119.826 14.4)"/><path d="M160 400h400v60H160z" stroke="#000" stroke-opacity="0" stroke-width="2" fill="#fff" fill-opacity="0"/><use xlink:href="#i" transform="matrix(1,0,0,1,165.00000000000006,405) translate(0 14.4)"/><use xlink:href="#q" transform="matrix(1,0,0,1,165.00000000000006,405) translate(65.628 14.4)"/><path d="M160 480h400v68H160z" stroke="#000" stroke-opacity="0" stroke-width="2" fill="#fff" fill-opacity="0"/><use xlink:href="#r" transform="matrix(1,0,0,1,165.00000000000006,485) translate(0 14.4)"/><use xlink:href="#s" transform="matrix(1,0,0,1,165.00000000000006,485) translate(65.628 14.4)"/><use xlink:href="#t" transform="matrix(1,0,0,1,165.00000000000006,485) translate(213.714 14.4)"/><path d="M560 280h540v60H560z" stroke="#000" stroke-opacity="0" stroke-width="2" fill="#fff" fill-opacity="0"/><use xlink:href="#f" transform="matrix(1,0,0,1,565,285) translate(0 14.4)"/><use xlink:href="#g" transform="matrix(1,0,0,1,565,285) translate(111.762 14.4)"/><use xlink:href="#u" transform="matrix(1,0,0,1,565,285) translate(165.95999999999998 14.4)"/><path d="M560 360h540v60H560z" stroke="#000" stroke-opacity="0" stroke-width="2" fill="#fff" fill-opacity="0"/><use xlink:href="#f" transform="matrix(1,0,0,1,565,365) translate(0 14.4)"/><use xlink:href="#g" transform="matrix(1,0,0,1,565,365) translate(111.762 14.4)"/><use xlink:href="#v" transform="matrix(1,0,0,1,565,365) translate(165.95999999999998 14.4)"/><use xlink:href="#u" transform="matrix(1,0,0,1,565,365) translate(221.43599999999998 14.4)"/><path d="M560 440h540v60H560z" stroke="#000" stroke-opacity="0" stroke-width="2" fill="#fff" fill-opacity="0"/><use xlink:href="#f" transform="matrix(1,0,0,1,565,444.99999999999994) translate(0 14.4)"/><use xlink:href="#w" transform="matrix(1,0,0,1,565,444.99999999999994) translate(111.762 14.4)"/><use xlink:href="#u" transform="matrix(1,0,0,1,565,444.99999999999994) translate(152.58599999999998 14.4)"/><path d="M560 520h540v60H560z" stroke="#000" stroke-opacity="0" stroke-width="2" fill="#fff" fill-opacity="0"/><use xlink:href="#f" transform="matrix(1,0,0,1,565,525) translate(0 14.4)"/><use xlink:href="#s" transform="matrix(1,0,0,1,565,525) translate(111.762 14.4)"/><use xlink:href="#x" transform="matrix(1,0,0,1,565,525) translate(259.84799999999996 14.4)"/><use xlink:href="#u" transform="matrix(1,0,0,1,565,525) translate(384.40799999999996 14.4)"/><path d="M160 230h381.76" fill="none"/><path d="M160 230h9.8m9.78 0h19.58m9.78 0h19.58m9.8 0h19.57m9.78 0h19.57m9.8 0h19.57m9.8 0h19.57m9.78 0h19.57m9.8 0h19.57m9.8 0h19.57m9.78 0h19.57m9.8 0h19.57m9.8 0h19.57m9.78 0h9.78" stroke="#000" stroke-width="2" fill="none"/><path/><path d="M556.76 230l-14.26 4.64v-9.28z"/><path d="M560 230l-18.5 6v-12zm-16.5 3.26l10.03-3.26-10.03-3.26z"/><path d="M178.24 270H560" stroke="#000" stroke-width="2" fill="none"/><path d="M177.5 274.64L163.24 270l14.26-4.64z"/><path d="M178.5 276l-18.5-6 18.5-6zm-12.03-6l10.03 3.26v-6.52z"/><path/><path d="M160 350h381.76" fill="none"/><path d="M160 350h9.8m9.78 0h19.58m9.78 0h19.58m9.8 0h19.57m9.78 0h19.57m9.8 0h19.57m9.8 0h19.57m9.78 0h19.57m9.8 0h19.57m9.8 0h19.57m9.78 0h19.57m9.8 0h19.57m9.8 0h19.57m9.78 0h9.78" stroke="#000" stroke-width="2" fill="none"/><path/><path d="M556.76 350l-14.26 4.64v-9.28z"/><path d="M560 350l-18.5 6v-12zm-16.5 3.26l10.03-3.26-10.03-3.26z"/><path d="M160 430h381.76" fill="none"/><path d="M160 430h9.8m9.78 0h19.58m9.78 0h19.58m9.8 0h19.57m9.78 0h19.57m9.8 0h19.57m9.8 0h19.57m9.78 0h19.57m9.8 0h19.57m9.8 0h19.57m9.78 0h19.57m9.8 0h19.57m9.8 0h19.57m9.78 0h9.78" stroke="#000" stroke-width="2" fill="none"/><path/><path d="M556.76 430l-14.26 4.64v-9.28z"/><path d="M560 430l-18.5 6v-12zm-16.5 3.26l10.03-3.26-10.03-3.26z"/><path d="M160 514h381.76" fill="none"/><path d="M160 514h9.8m9.78 0h19.58m9.78 0h19.58m9.8 0h19.57m9.78 0h19.57m9.8 0h19.57m9.8 0h19.57m9.78 0h19.57m9.8 0h19.57m9.8 0h19.57m9.78 0h19.57m9.8 0h19.57m9.8 0h19.57m9.78 0h9.78" stroke="#000" stroke-width="2" fill="none"/><path/><path d="M556.76 514l-14.26 4.63v-9.27z"/><path d="M560 514l-18.5 6v-12zm-16.5 3.26l10.03-3.26-10.03-3.26z"/><path d="M560 310h521.76" stroke="#000" stroke-width="2" fill="none"/><path/><path d="M1096.76 310l-14.26 4.64v-9.28z"/><path d="M1100 310l-18.5 6v-12zm-16.5 3.26l10.03-3.26-10.03-3.26z"/><path d="M560 390h521.76" stroke="#000" stroke-width="2" fill="none"/><path/><path d="M1096.76 390l-14.26 4.64v-9.28z"/><path d="M1100 390l-18.5 6v-12zm-16.5 3.26l10.03-3.26-10.03-3.26z"/><path d="M560 470h521.76" stroke="#000" stroke-width="2" fill="none"/><path/><path d="M1096.76 470l-14.26 4.64v-9.28z"/><path d="M1100 470l-18.5 6v-12zm-16.5 3.26l10.03-3.26-10.03-3.26z"/><path d="M560 550h521.76" stroke="#000" stroke-width="2" fill="none"/><path/><path d="M1096.76 550l-14.26 4.64v-9.28z"/><path d="M1100 550l-18.5 6v-12zm-16.5 3.26l10.03-3.26-10.03-3.26z"/><path d="M1100 560h400v60h-400z" stroke="#000" stroke-opacity="0" stroke-width="2" fill="#fff" fill-opacity="0"/><use xlink:href="#r" transform="matrix(1,0,0,1,1105,565) translate(0 14.4)"/><use xlink:href="#u" transform="matrix(1,0,0,1,1105,565) translate(65.628 14.4)"/><path d="M1481.76 590H1100" fill="none"/><path d="M1481.76 590h-9.78m-9.8 0h-19.57m-9.78 0h-19.58m-9.8 0h-19.56m-9.8 0h-19.57m-9.78 0h-19.58m-9.8 0h-19.56m-9.8 0h-19.57m-9.78 0h-19.58m-9.8 0h-19.56m-9.8 0h-19.57m-9.78 0h-19.58m-9.78 0h-19.58m-9.8 0H1100" stroke="#000" stroke-width="2" fill="none"/><path d="M1496.76 590l-14.26 4.64v-9.28z"/><path d="M1500 590l-18.5 6v-12zm-16.5 3.26l10.03-3.26-10.03-3.26z"/><path/><path d="M1100 600h400v60h-400z" stroke="#000" stroke-opacity="0" stroke-width="2" fill="#fff" fill-opacity="0"/><g><use xlink:href="#y" transform="matrix(1,0,0,1,1105,605) translate(42.49200000000002 14.4)"/><use xlink:href="#x" transform="matrix(1,0,0,1,1105,605) translate(159.60000000000002 14.4)"/><use xlink:href="#z" transform="matrix(1,0,0,1,1105,605) translate(284.16 14.4)"/></g><path d="M1500 630h-381.76" stroke="#000" stroke-width="2" fill="none"/><path/><path d="M1117.5 634.64l-14.26-4.64 14.26-4.64z"/><path d="M1118.5 636l-18.5-6 18.5-6zm-12.03-6l10.03 3.26v-6.52z"/><path d="M560 640h540v60H560z" stroke="#000" stroke-opacity="0" stroke-width="2" fill="#fff" fill-opacity="0"/><g><use xlink:href="#r" transform="matrix(1,0,0,1,565,645) translate(0 14.4)"/><use xlink:href="#x" transform="matrix(1,0,0,1,565,645) translate(65.628 14.4)"/><use xlink:href="#z" transform="matrix(1,0,0,1,565,645) translate(190.188 14.4)"/></g><path d="M1100 670H578.24" fill="none"/><path d="M1100 670h-10.23m-10.23 0h-20.46m-10.23 0h-20.46m-10.25 0H997.7m-10.24 0H967m-10.23 0H936.3m-10.22 0h-20.46m-10.23 0h-20.47m-10.24 0h-20.47M834 670h-20.46m-10.23 0h-20.45m-10.23 0h-20.46m-10.23 0h-20.46m-10.24 0h-20.46m-10.23 0h-20.46m-10.23 0H629.4m-10.24 0H598.7m-10.23 0h-10.23" stroke="#000" stroke-width="2" fill="none"/><path/><path d="M577.5 674.64L563.24 670l14.26-4.64z"/><path d="M578.5 676l-18.5-6 18.5-6zm-12.03-6l10.03 3.26v-6.52z"/><path d="M160 680h400v60H160z" stroke="#000" stroke-opacity="0" stroke-width="2" fill="#fff" fill-opacity="0"/><g><use xlink:href="#f" transform="matrix(1,0,0,1,165.00000000000006,685) translate(147.666 14.4)"/><use xlink:href="#A" transform="matrix(1,0,0,1,165.00000000000006,685) translate(259.428 14.4)"/></g><path d="M178.24 710H560" stroke="#000" stroke-width="2" fill="none"/><path d="M177.5 714.64L163.24 710l14.26-4.64z"/><path d="M178.5 716l-18.5-6 18.5-6zm-12.03-6l10.03 3.26v-6.52z"/><path/><path d="M40 780h1560v20H40z" stroke="#000" stroke-opacity="0" stroke-width="2" fill="#fff" fill-opacity="0"/><g><use xlink:href="#B" transform="matrix(1,0,0,1,45,785) translate(0 14.4)"/><use xlink:href="#C" transform="matrix(1,0,0,1,45,785) translate(13.445999999999998 14.4)"/><use xlink:href="#s" transform="matrix(1,0,0,1,45,785) translate(79.038 14.4)"/><use xlink:href="#D" transform="matrix(1,0,0,1,45,785) translate(227.12399999999997 14.4)"/><use xlink:href="#E" transform="matrix(1,0,0,1,45,785) translate(344.69999999999993 14.4)"/><use xlink:href="#F" transform="matrix(1,0,0,1,45,785) translate(424.65599999999995 14.4)"/><use xlink:href="#G" transform="matrix(1,0,0,1,45,785) translate(485.4599999999999 14.4)"/><use xlink:href="#H" transform="matrix(1,0,0,1,45,785) translate(545.2919999999999 14.4)"/><use xlink:href="#I" transform="matrix(1,0,0,1,45,785) translate(644.1119999999999 14.4)"/><use xlink:href="#J" transform="matrix(1,0,0,1,45,785) translate(700.0919999999999 14.4)"/></g><defs><path d="M629-645c28 177 9 401 28 582 3 29-18 50-47 50-97 0-67-194-71-306-1-24-4-66-3-92 1-39-15-57-30-33-49 79-88 161-139 243-9 15-21 23-34 23-33 0-70-69-89-115-10-23-57-152-73-152-28 0-27 119-31 162-9 93-16 174-27 265-2 3-35 21-48 20-71-3-50-117-43-176 24-211 38-410 84-595 39-67 121 2 138 59 22 73 63 167 84 249 7 23 13 34 20 34 17 0 54-75 107-225 17-48 42-155 115-96 31 25 52 57 59 103" id="K"/><path d="M106-737c41-53 131 12 108 86-42 139-71 285-71 455 0 88 72 66 143 48 49-12 128-35 183-63 38-19 36-69 44-119 17-114 31-247 31-354 0-57 26-85 79-85 37 0 55 27 55 81 0 190-34 397-59 573 4 31 20 93-13 105-8 10-30 7-65-8-16-20-33-38-51-54C397-48 305 0 205 0 79 0 5-43 13-176c13-196 50-391 93-561" id="L"/><path d="M21-302C-7-136 9 24 196-12c147-28 263-93 386-142 57-23 26-120-26-120-111 32-240 115-378 126-13 1-22-26-25-45 30-174 59-350 88-524 10-62-86-124-120-61-39 73-49 196-69 277-19 77-22 145-31 199" id="M"/><path d="M593-790c58 0 99 54 77 117-5 13-15 16-35 14-70-7-152-3-229 7-31 20-24 81-26 127-4 138-16 277-16 422 0 32 4 70-21 83-26 36-88 7-103-20 1-182 10-346 21-521 2-27 11-81-18-84-73-7-138 11-206 3-20-18-39-18-32-51-3-78 74-91 145-91 129 0 251 6 369-8 25-3 49 2 74 2" id="N"/><path d="M292-638c-67 2-113 14-176 21-81 9-112-68-58-103 132-46 304-52 470-66l65 5c50 52 43 111-50 111-45 0-75 15-112 18-18 16-19 83-24 152-7 108-21 214-33 322-5 46 36 20 67 20 54 0 81-10 139-16 43 25 50 62 23 110-151 29-311 50-490 79C58 24-8 22 3-44c14-83 161-45 224-90 22-16 24-69 29-107 17-126 33-258 36-397" id="O"/><path d="M521-275c40-33 108-24 108 34 0 49-75 103-210 183-80 47-247 72-323 10-66-54-95-101-82-218 12-106 41-136 91-224 55-96 145-209 240-278 32-23 68-33 107-33 86 2 108 61 107 158 0 55-15 82-44 82-55 1-25-116-79-110-132 15-229 223-291 334-48 86-31 226 81 218 122-9 217-92 295-156" id="P"/><path d="M371-533c189 0 256 55 239 237-9 91-67 138-157 205C374-33 301-7 236-7 155-7 13-82 18-160c3-44 62-73 96-38 43 44 152 73 218 29 77-51 166-125 156-169 2-44-67-63-119-62-47 1-108 1-155 3C87-393 13-429 1-531c11-87 101-150 165-187 90-52 160-96 290-87 34 2 118 78 115 115-3 35-23 38-55 45-15 4-26-4-33-24-37-64-116-1-164 12-41 11-154 77-154 113 0 15 14 22 41 22 45 0 127-11 165-11" id="Q"/><path d="M330-158c82-22 193-18 286-31 38 11 58 81 24 113-25 24-71 25-116 25-135 0-238 34-358 47C61 7 4-52 15-159c12-113 37-213 32-340-2-59 2-121-2-178-2-44 35-62 81-61 104-31 222-52 345-64 68-7 103 34 111 94 2 12-3 22-9 31-33 14-62 15-103 16-100 2-196 10-270 40h-8c-18 23-11 79-15 106-1 13 5 22 16 25 82-10 176-25 264-12 44 7 78 26 71 72-7 49-76 30-125 30-78 0-138 22-210 29-24 1-35 28-36 52-2 41-10 83-8 126-19 84 122 51 181 35" id="R"/><path d="M608-642l-20 77c-36 56-69 94-113 138-49 48-58 40-29 81 33 46 69 89 97 147 44 89 52 141 40 147-3 38-20 49-63 52-68 5-97-106-129-160-40-68-56-162-144-164-53-1-27 78-45 121-7 56-12 123-28 170C157-4 113 24 66-1 46-11 40-39 49-87c19-111 19-139 19-313 0-144 1-187-40-242-27-37-13-94 26-108 103-36 250-59 389-41 63 8 182 85 165 149zm-140 11c-10-39-42-58-96-57-53 12-154 21-179 43-5 9-8 31-8 65 0 151 19 135 127 94 94-36 148-79 156-145" id="S"/><path d="M44-228v-78h244v78H44" id="T"/><path d="M371-533c189 0 256 55 239 237-9 91-67 138-157 205C374-33 301-7 236-7 155-7 13-82 18-160c3-44 62-73 96-38 43 44 152 73 218 29 77-51 166-125 156-169 2-44-67-63-119-62-47 1-108 1-155 3C87-393 13-429 1-531c11-87 101-150 165-187 90-52 160-96 290-87 34 2 118 78 115 115-3 35-23 38-55 45-15 4-26-4-33-24-37-64-116-1-164 12-41 11-154 77-154 113 0 15 14 22 41 22 45 0 127-11 165-11" id="U"/><path d="M107-780c100 15 51 176 51 272 0 29 23 25 56 24 33-11 175 4 171-42 9-67 4-153 14-224 12-14 39-57 70-50 51 0 74 34 69 103L490-47c-6 28-25 57-57 56-118-5-54-182-54-299 0-34 3-75-15-85-65 6-127 12-191 19-52 29-23 162-29 239C135-7 87 19 22-30 10-48 7-67 13-88c-16-100 8-215 8-322 0-127-9-364 86-370" id="V"/><path d="M19-91c0-222 71-428 58-668-3-62 121-44 170-33 118 27 229 50 293 128 44 53 63 97 63 217 0 165-189 328-383 400-36 13-62 45-108 45-66 0-93-23-93-89zm185-582c-30 151-43 322-58 489 5 39 27 28 60 14 129-54 276-147 276-304 0-155-106-203-278-199" id="W"/><g id="a"><use transform="matrix(0.018,0,0,0.018,0,0)" xlink:href="#K"/><use transform="matrix(0.018,0,0,0.018,12.095999999999998,0)" xlink:href="#L"/><use transform="matrix(0.018,0,0,0.018,24.749999999999996,0)" xlink:href="#M"/><use transform="matrix(0.018,0,0,0.018,35.82,0)" xlink:href="#N"/><use transform="matrix(0.018,0,0,0.018,48.76200000000001,0)" xlink:href="#O"/><use transform="matrix(0.018,0,0,0.018,60.192,0)" xlink:href="#P"/><use transform="matrix(0.018,0,0,0.018,71.604,0)" xlink:href="#M"/><use transform="matrix(0.018,0,0,0.018,82.67399999999999,0)" xlink:href="#L"/><use transform="matrix(0.018,0,0,0.018,95.32799999999999,0)" xlink:href="#Q"/><use transform="matrix(0.018,0,0,0.018,106.68599999999999,0)" xlink:href="#N"/><use transform="matrix(0.018,0,0,0.018,119.62799999999999,0)" xlink:href="#R"/><use transform="matrix(0.018,0,0,0.018,131.61599999999999,0)" xlink:href="#S"/><use transform="matrix(0.018,0,0,0.018,142.73999999999998,0)" xlink:href="#T"/><use transform="matrix(0.018,0,0,0.018,148.69799999999998,0)" xlink:href="#U"/><use transform="matrix(0.018,0,0,0.018,160.05599999999998,0)" xlink:href="#P"/><use transform="matrix(0.018,0,0,0.018,171.468,0)" xlink:href="#V"/><use transform="matrix(0.018,0,0,0.018,181.206,0)" xlink:href="#R"/><use transform="matrix(0.018,0,0,0.018,193.194,0)" xlink:href="#W"/><use transform="matrix(0.018,0,0,0.018,204.06599999999997,0)" xlink:href="#L"/><use transform="matrix(0.018,0,0,0.018,216.71999999999997,0)" xlink:href="#M"/><use transform="matrix(0.018,0,0,0.018,227.78999999999996,0)" xlink:href="#R"/><use transform="matrix(0.018,0,0,0.018,239.77799999999996,0)" xlink:href="#S"/></g><path d="M608-642l-20 77c-36 56-69 94-113 138-49 48-58 40-29 81 33 46 69 89 97 147 44 89 52 141 40 147-3 38-20 49-63 52-68 5-97-106-129-160-40-68-56-162-144-164-53-1-27 78-45 121-7 56-12 123-28 170C157-4 113 24 66-1 46-11 40-39 49-87c19-111 19-139 19-313 0-144 1-187-40-242-27-37-13-94 26-108 103-36 250-59 389-41 63 8 182 85 165 149zm-140 11c-10-39-42-58-96-57-53 12-154 21-179 43-5 9-8 31-8 65 0 151 19 135 127 94 94-36 148-79 156-145" id="X"/><path d="M44-443c79-191 208-366 448-366 141 0 239 118 267 253 46 222-61 413-213 490-83 42-221 78-338 30-55-23-106-43-129-82-26-14-80-140-57-202 2-41 8-89 22-123zm103 115c1 136 75 191 208 191 130 0 180-50 241-135 38-53 55-111 55-169 0-109-73-236-179-227-143 12-260 151-311 271-9 24-14 47-14 69" id="Y"/><path d="M24-128c0-158-18-313-5-472 6-74-11-192 62-191 78 1 88 68 113 130 59 143 102 191 174 297 50 73 81 109 92 109 8 0 12-3 13-9 24-163 3-322-12-477-6-63 62-76 101-37 65 64 45 212 54 340 10 141 7 304-15 413-8 15-20 23-37 23-76 0-203-132-244-200-33-54-79-109-116-169l4 4c-9-20-41-55-54-51-14 102-5 244 6 344 3 30-15 69-41 68-9 0-28-1-56-3-44-28-39-45-39-119" id="Z"/><g id="b"><use transform="matrix(0.018,0,0,0.018,0,0)" xlink:href="#X"/><use transform="matrix(0.018,0,0,0.018,11.123999999999999,0)" xlink:href="#R"/><use transform="matrix(0.018,0,0,0.018,23.112,0)" xlink:href="#P"/><use transform="matrix(0.018,0,0,0.018,34.524,0)" xlink:href="#Y"/><use transform="matrix(0.018,0,0,0.018,48.978,0)" xlink:href="#Z"/><use transform="matrix(0.018,0,0,0.018,60.516,0)" xlink:href="#P"/><use transform="matrix(0.018,0,0,0.018,71.928,0)" xlink:href="#O"/><use transform="matrix(0.018,0,0,0.018,83.358,0)" xlink:href="#M"/><use transform="matrix(0.018,0,0,0.018,94.428,0)" xlink:href="#R"/></g><path d="M23-677c-68-88 127-122 212-122 113 0 253 24 291 82 92 144-48 310-153 365-52 27-102 48-161 69-56 20-53 15-58 80-4 49-8 103-13 153-3 31-19 46-43 46-44 0-65-28-63-81 5-162 8-330 16-486 3-53-4-75-28-106zm415 73c0-44-44-66-132-66-78 0-124 8-135 26-10 16-14 89-14 218 0 44 22 39 57 25 83-34 224-115 224-203" id="aa"/><path d="M103-24C79 10-2-14 8-59c42-186 129-353 193-524 23-62 63-135 99-197 39-38 106-10 109 47 27 100 51 209 81 307 8 25 72 24 72 63 0 44-26 46-37 75 12 83 46 156 55 243 7 63-106 47-114 11-13-58-36-170-57-231-3-4-7-8-9-14-69 4-134 40-198 52-53 21-53 108-81 160-4 16-8 29-18 43zm215-551c-16 18-92 195-73 208 46 2 100-12 123-31-5-30-32-162-38-171-2-3-6-5-12-6" id="ab"/><g id="c"><use transform="matrix(0.018,0,0,0.018,0,0)" xlink:href="#aa"/><use transform="matrix(0.018,0,0,0.018,10.152,0)" xlink:href="#M"/><use transform="matrix(0.018,0,0,0.018,21.221999999999998,0)" xlink:href="#ab"/><use transform="matrix(0.018,0,0,0.018,31.787999999999997,0)" xlink:href="#Z"/><use transform="matrix(0.018,0,0,0.018,43.32599999999999,0)" xlink:href="#R"/></g><path d="M629-645c28 177 9 401 28 582 3 29-18 50-47 50-97 0-67-194-71-306-1-24-4-66-3-92 1-39-15-57-30-33-49 79-88 161-139 243-9 15-21 23-34 23-33 0-70-69-89-115-10-23-57-152-73-152-28 0-27 119-31 162-9 93-16 174-27 265-2 3-35 21-48 20-71-3-50-117-43-176 24-211 38-410 84-595 39-67 121 2 138 59 22 73 63 167 84 249 7 23 13 34 20 34 17 0 54-75 107-225 17-48 42-155 115-96 31 25 52 57 59 103" id="ac"/><path d="M68-174c-8-157-1-333-1-488 0-23-21-28-12-60 24-87 141-85 256-77 161 12 317 42 251 258-5 17-40 45-44 60 15 30 85 80 98 123 62 108 25 192-76 258C455-45 341-9 207-4 145-2 19-30 19-85c0-36 51-41 49-89zm137-510c-18 6-26 137-16 192 30 22 66 2 112-6 70-13 158-95 159-132 17-68-169-82-255-54zm-15 330c-15 57-2 155 5 215 6 4 6 12 18 11 101-5 211-32 267-82 52-46 58-91 12-140s-73-73-81-73c-39 14-121 48-173 54-15 2-34 14-48 15" id="ad"/><g id="d"><use transform="matrix(0.018,0,0,0.018,0,0)" xlink:href="#K"/><use transform="matrix(0.018,0,0,0.018,12.095999999999998,0)" xlink:href="#R"/><use transform="matrix(0.018,0,0,0.018,24.083999999999993,0)" xlink:href="#ac"/><use transform="matrix(0.018,0,0,0.018,36.17999999999999,0)" xlink:href="#ad"/><use transform="matrix(0.018,0,0,0.018,47.75399999999999,0)" xlink:href="#R"/><use transform="matrix(0.018,0,0,0.018,59.74199999999999,0)" xlink:href="#S"/></g><path d="M521-275c40-33 108-24 108 34 0 49-75 103-210 183-80 47-247 72-323 10-66-54-95-101-82-218 12-106 41-136 91-224 55-96 145-209 240-278 32-23 68-33 107-33 86 2 108 61 107 158 0 55-15 82-44 82-55 1-25-116-79-110-132 15-229 223-291 334-48 86-31 226 81 218 122-9 217-92 295-156" id="ae"/><g id="e"><use transform="matrix(0.018,0,0,0.018,0,0)" xlink:href="#ae"/><use transform="matrix(0.018,0,0,0.018,11.411999999999999,0)" xlink:href="#M"/><use transform="matrix(0.018,0,0,0.018,22.482,0)" xlink:href="#L"/><use transform="matrix(0.018,0,0,0.018,35.135999999999996,0)" xlink:href="#Q"/><use transform="matrix(0.018,0,0,0.018,46.494,0)" xlink:href="#N"/><use transform="matrix(0.018,0,0,0.018,59.43599999999999,0)" xlink:href="#R"/><use transform="matrix(0.018,0,0,0.018,71.42399999999999,0)" xlink:href="#S"/></g><g id="f"><use transform="matrix(0.018,0,0,0.018,0,0)" xlink:href="#X"/><use transform="matrix(0.018,0,0,0.018,11.123999999999999,0)" xlink:href="#R"/><use transform="matrix(0.018,0,0,0.018,23.112,0)" xlink:href="#P"/><use transform="matrix(0.018,0,0,0.018,34.524,0)" xlink:href="#Y"/><use transform="matrix(0.018,0,0,0.018,48.978,0)" xlink:href="#Z"/><use transform="matrix(0.018,0,0,0.018,60.516,0)" xlink:href="#P"/><use transform="matrix(0.018,0,0,0.018,71.928,0)" xlink:href="#O"/><use transform="matrix(0.018,0,0,0.018,83.358,0)" xlink:href="#M"/><use transform="matrix(0.018,0,0,0.018,94.428,0)" xlink:href="#R"/></g><path d="M24-128c0-158-18-313-5-472 6-74-11-192 62-191 78 1 88 68 113 130 59 143 102 191 174 297 50 73 81 109 92 109 8 0 12-3 13-9 24-163 3-322-12-477-6-63 62-76 101-37 65 64 45 212 54 340 10 141 7 304-15 413-8 15-20 23-37 23-76 0-203-132-244-200-33-54-79-109-116-169l4 4c-9-20-41-55-54-51-14 102-5 244 6 344 3 30-15 69-41 68-9 0-28-1-56-3-44-28-39-45-39-119" id="af"/><g id="g"><use transform="matrix(0.018,0,0,0.018,0,0)" xlink:href="#af"/><use transform="matrix(0.018,0,0,0.018,11.537999999999998,0)" xlink:href="#Y"/><use transform="matrix(0.018,0,0,0.018,25.991999999999997,0)" xlink:href="#W"/><use transform="matrix(0.018,0,0,0.018,36.864,0)" xlink:href="#R"/></g><g id="h"><use transform="matrix(0.018,0,0,0.018,0,0)" xlink:href="#aa"/><use transform="matrix(0.018,0,0,0.018,10.152,0)" xlink:href="#Y"/><use transform="matrix(0.018,0,0,0.018,24.605999999999998,0)" xlink:href="#Y"/><use transform="matrix(0.018,0,0,0.018,39.059999999999995,0)" xlink:href="#M"/><use transform="matrix(0.018,0,0,0.018,50.129999999999995,0)" xlink:href="#Q"/></g><path d="M722-498c18-70 6-160 6-241 0-38 16-57 49-57 55 0 82 64 82 193 1 204-63 347-126 491-54 125-124 110-196 9-30-42-54-91-82-146-27-53-43-79-49-79-8-17-88 136-114 182C269-106 193 9 170-1 96-15 86-47 66-129 33-267 17-480 18-657c0-70 18-105 54-105 39 0 66 36 68 87 4 137-4 277 12 406 12 100 67-12 84-47 47-96 102-197 139-285 18-41 78-38 96-4 52 97 51 251 110 344 50 78 71 31 104-70 17-53 22-108 37-167" id="ag"/><g id="i"><use transform="matrix(0.018,0,0,0.018,0,0)" xlink:href="#ag"/><use transform="matrix(0.018,0,0,0.018,15.623999999999999,0)" xlink:href="#ab"/><use transform="matrix(0.018,0,0,0.018,26.189999999999998,0)" xlink:href="#N"/><use transform="matrix(0.018,0,0,0.018,39.132,0)" xlink:href="#P"/><use transform="matrix(0.018,0,0,0.018,50.544,0)" xlink:href="#V"/></g><g id="j"><use transform="matrix(0.018,0,0,0.018,0,0)" xlink:href="#af"/><use transform="matrix(0.018,0,0,0.018,11.537999999999998,0)" xlink:href="#Y"/><use transform="matrix(0.018,0,0,0.018,25.991999999999997,0)" xlink:href="#W"/><use transform="matrix(0.018,0,0,0.018,36.864,0)" xlink:href="#R"/><use transform="matrix(0.018,0,0,0.018,48.852,0)" xlink:href="#Q"/></g><path d="M508-780c56-58 130 44 81 100-61 70-137 131-212 191-42 33-4 64 19 89 60 64 110 129 162 207 35 52 50 100 50 142 0 27-15 41-44 41-42 9-138-115-174-161S228-368 211-355C63-341 254-45 102-10 17-22 26-133 21-219 11-407 10-619 43-780c35-64 128 9 121 64-7 51-23 126-20 177 3 63 67 10 90-8 114-86 190-146 274-233" id="ah"/><path d="M352-802c148-2 243 38 243 169 0 57-56 100-97 131-23 17-34 28-34 34-6 5 50 36 46 39 44 27 96 99 83 175-2 13-4 24-4 35C589-81 409-5 262-5c-73 0-124-9-151-28C-5-109-22-258 75-352c12-36 120-92 85-117-68-50-113-67-113-141 0-38 22-74 65-109 69-55 149-83 240-83zm129 146c-9-57-110-47-165-42-32 3-112 32-119 62-21 9-23 48-1 58 34 44 125 63 180 20 22-17 109-74 105-98zM129-193c0 38 66 66 101 63 97-9 229-35 243-126-8-65-80-122-140-138-72 11-82 24-143 93-41 47-61 83-61 108" id="ai"/><g id="k"><use transform="matrix(0.018,0,0,0.018,0,0)" xlink:href="#ah"/><use transform="matrix(0.018,0,0,0.018,10.854,0)" xlink:href="#ai"/><use transform="matrix(0.018,0,0,0.018,21.779999999999998,0)" xlink:href="#Q"/></g><path d="M103-24C79 10-2-14 8-59c42-186 129-353 193-524 23-62 63-135 99-197 39-38 106-10 109 47 27 100 51 209 81 307 8 25 72 24 72 63 0 44-26 46-37 75 12 83 46 156 55 243 7 63-106 47-114 11-13-58-36-170-57-231-3-4-7-8-9-14-69 4-134 40-198 52-53 21-53 108-81 160-4 16-8 29-18 43zm215-551c-16 18-92 195-73 208 46 2 100-12 123-31-5-30-32-162-38-171-2-3-6-5-12-6" id="aj"/><path d="M292-638c-67 2-113 14-176 21-81 9-112-68-58-103 132-46 304-52 470-66l65 5c50 52 43 111-50 111-45 0-75 15-112 18-18 16-19 83-24 152-7 108-21 214-33 322-5 46 36 20 67 20 54 0 81-10 139-16 43 25 50 62 23 110-151 29-311 50-490 79C58 24-8 22 3-44c14-83 161-45 224-90 22-16 24-69 29-107 17-126 33-258 36-397" id="ak"/><g id="l"><use transform="matrix(0.018,0,0,0.018,0,0)" xlink:href="#aj"/><use transform="matrix(0.018,0,0,0.018,10.565999999999999,0)" xlink:href="#aa"/><use transform="matrix(0.018,0,0,0.018,20.718,0)" xlink:href="#ak"/></g><path d="M590-683c0-95-64-132-148-103-62 21-113 58-161 92-97 69-165 165-223 275C-45-222 51 11 277-12c154-16 257-81 343-160 63-58 100-126 109-243 12-155-158-93-246-67-61 18-178 69-168 115-2 30 28 68 54 64 69-10 133-52 201-67 9-2 20 9 20 17 0 11-18 38-57 79-85 91-188 136-306 136-55 0-99-68-99-127 0-30 16-69 37-123 25-64 237-288 318-281 25-8 66 40 79 44 19 0 28-19 28-58" id="al"/><g id="m"><use transform="matrix(0.018,0,0,0.018,0,0)" xlink:href="#aj"/><use transform="matrix(0.018,0,0,0.018,10.565999999999999,0)" xlink:href="#al"/><use transform="matrix(0.018,0,0,0.018,24.246,0)" xlink:href="#R"/><use transform="matrix(0.018,0,0,0.018,36.233999999999995,0)" xlink:href="#Z"/><use transform="matrix(0.018,0,0,0.018,47.77199999999999,0)" xlink:href="#N"/></g><g id="n"><use transform="matrix(0.018,0,0,0.018,0,0)" xlink:href="#U"/><use transform="matrix(0.018,0,0,0.018,11.357999999999999,0)" xlink:href="#P"/><use transform="matrix(0.018,0,0,0.018,22.769999999999992,0)" xlink:href="#V"/><use transform="matrix(0.018,0,0,0.018,32.507999999999996,0)" xlink:href="#R"/><use transform="matrix(0.018,0,0,0.018,44.495999999999995,0)" xlink:href="#W"/><use transform="matrix(0.018,0,0,0.018,55.367999999999995,0)" xlink:href="#L"/><use transform="matrix(0.018,0,0,0.018,68.02199999999999,0)" xlink:href="#M"/><use transform="matrix(0.018,0,0,0.018,79.09199999999998,0)" xlink:href="#R"/><use transform="matrix(0.018,0,0,0.018,91.07999999999997,0)" xlink:href="#S"/></g><g id="o"><use transform="matrix(0.018,0,0,0.018,0,0)" xlink:href="#af"/><use transform="matrix(0.018,0,0,0.018,11.537999999999998,0)" xlink:href="#Y"/><use transform="matrix(0.018,0,0,0.018,25.991999999999997,0)" xlink:href="#W"/><use transform="matrix(0.018,0,0,0.018,36.864,0)" xlink:href="#R"/></g><g id="p"><use transform="matrix(0.018,0,0,0.018,0,0)" xlink:href="#aa"/><use transform="matrix(0.018,0,0,0.018,10.152,0)" xlink:href="#Y"/><use transform="matrix(0.018,0,0,0.018,24.605999999999998,0)" xlink:href="#Y"/><use transform="matrix(0.018,0,0,0.018,39.059999999999995,0)" xlink:href="#M"/><use transform="matrix(0.018,0,0,0.018,50.129999999999995,0)" xlink:href="#Q"/></g><g id="q"><use transform="matrix(0.018,0,0,0.018,0,0)" xlink:href="#aa"/><use transform="matrix(0.018,0,0,0.018,10.152,0)" xlink:href="#Y"/><use transform="matrix(0.018,0,0,0.018,24.605999999999998,0)" xlink:href="#W"/><use transform="matrix(0.018,0,0,0.018,35.477999999999994,0)" xlink:href="#Q"/></g><g id="r"><use transform="matrix(0.018,0,0,0.018,0,0)" xlink:href="#ag"/><use transform="matrix(0.018,0,0,0.018,15.623999999999999,0)" xlink:href="#ab"/><use transform="matrix(0.018,0,0,0.018,26.189999999999998,0)" xlink:href="#N"/><use transform="matrix(0.018,0,0,0.018,39.132,0)" xlink:href="#P"/><use transform="matrix(0.018,0,0,0.018,50.544,0)" xlink:href="#V"/></g><g id="s"><use transform="matrix(0.018,0,0,0.018,0,0)" xlink:href="#K"/><use transform="matrix(0.018,0,0,0.018,12.095999999999998,0)" xlink:href="#L"/><use transform="matrix(0.018,0,0,0.018,24.749999999999996,0)" xlink:href="#M"/><use transform="matrix(0.018,0,0,0.018,35.82,0)" xlink:href="#N"/><use transform="matrix(0.018,0,0,0.018,48.76200000000001,0)" xlink:href="#O"/><use transform="matrix(0.018,0,0,0.018,60.192,0)" xlink:href="#P"/><use transform="matrix(0.018,0,0,0.018,71.604,0)" xlink:href="#M"/><use transform="matrix(0.018,0,0,0.018,82.67399999999999,0)" xlink:href="#L"/><use transform="matrix(0.018,0,0,0.018,95.32799999999999,0)" xlink:href="#Q"/><use transform="matrix(0.018,0,0,0.018,106.68599999999999,0)" xlink:href="#N"/><use transform="matrix(0.018,0,0,0.018,119.62799999999999,0)" xlink:href="#R"/><use transform="matrix(0.018,0,0,0.018,131.61599999999999,0)" xlink:href="#S"/></g><path d="M19-91c0-222 71-428 58-668-3-62 121-44 170-33 118 27 229 50 293 128 44 53 63 97 63 217 0 165-189 328-383 400-36 13-62 45-108 45-66 0-93-23-93-89zm185-582c-30 151-43 322-58 489 5 39 27 28 60 14 129-54 276-147 276-304 0-155-106-203-278-199" id="am"/><path d="M23-677c-68-88 127-122 212-122 113 0 253 24 291 82 92 144-48 310-153 365-52 27-102 48-161 69-56 20-53 15-58 80-4 49-8 103-13 153-3 31-19 46-43 46-44 0-65-28-63-81 5-162 8-330 16-486 3-53-4-75-28-106zm415 73c0-44-44-66-132-66-78 0-124 8-135 26-10 16-14 89-14 218 0 44 22 39 57 25 83-34 224-115 224-203" id="an"/><path d="M192-85c-3 48 46 100 89 72 52-75 73-232 102-321 46-139 146-233 278-374 22-37 2-105-46-93-81 20-199 174-252 246-53 73-46 65-110 7-63-57-96-136-132-220-11-25-31-37-54-37-36-1-56 32-56 68 32 142 118 264 224 332 15 16 24 24 21 38" id="ao"/><path d="M326-672c47-13 117-11 117-73 0-69-77-55-133-49-71 9-36-80-58-137-21-55-106-22-95 35-4 10 15 48-3 53-23-22-47-62-88-62-20-1-38 17-37 37 2 32 48 80 67 106-10 12-32 12-55 11-79 22-11 125 48 117 33-5 73-11 66 36-8 59 3 111 63 117 42 4 32-88 52-111 15 5 75 36 84 37 20 2 38-22 37-42 6-25-64-61-65-75" id="ap"/><g id="t"><use transform="matrix(0.018,0,0,0.018,0,0)" xlink:href="#am"/><use transform="matrix(0.018,0,0,0.018,10.872,0)" xlink:href="#R"/><use transform="matrix(0.018,0,0,0.018,22.86,0)" xlink:href="#an"/><use transform="matrix(0.018,0,0,0.018,33.012,0)" xlink:href="#M"/><use transform="matrix(0.018,0,0,0.018,44.081999999999994,0)" xlink:href="#Y"/><use transform="matrix(0.018,0,0,0.018,58.536,0)" xlink:href="#ao"/><use transform="matrix(0.018,0,0,0.018,70.65,0)" xlink:href="#ac"/><use transform="matrix(0.018,0,0,0.018,82.74600000000001,0)" xlink:href="#R"/><use transform="matrix(0.018,0,0,0.018,94.73400000000001,0)" xlink:href="#Z"/><use transform="matrix(0.018,0,0,0.018,106.272,0)" xlink:href="#N"/><use transform="matrix(0.018,0,0,0.018,119.21399999999998,0)" xlink:href="#Q"/><use transform="matrix(0.018,0,0,0.018,130.572,0)" xlink:href="#ap"/></g><path d="M44-443c79-191 208-366 448-366 141 0 239 118 267 253 46 222-61 413-213 490-83 42-221 78-338 30-55-23-106-43-129-82-26-14-80-140-57-202 2-41 8-89 22-123zm103 115c1 136 75 191 208 191 130 0 180-50 241-135 38-53 55-111 55-169 0-109-73-236-179-227-143 12-260 151-311 271-9 24-14 47-14 69" id="aq"/><path d="M109-735c-25-57-110-11-99 37 30 130 91 291 122 410 18 69 44 132 72 190 44 90 75 116 148 73 102-105 149-290 208-441 32-82 48-168 48-261 0-51-15-77-46-77-38 0-59 34-73 100-35 160-89 312-149 454-40 95-58 66-91-37-28-90-54-179-79-263-24-79-42-141-61-185" id="ar"/><g id="u"><use transform="matrix(0.018,0,0,0.018,0,0)" xlink:href="#aq"/><use transform="matrix(0.018,0,0,0.018,14.453999999999999,0)" xlink:href="#ad"/><use transform="matrix(0.018,0,0,0.018,26.028,0)" xlink:href="#Q"/><use transform="matrix(0.018,0,0,0.018,37.385999999999996,0)" xlink:href="#R"/><use transform="matrix(0.018,0,0,0.018,49.373999999999995,0)" xlink:href="#S"/><use transform="matrix(0.018,0,0,0.018,60.49799999999999,0)" xlink:href="#ar"/><use transform="matrix(0.018,0,0,0.018,71.56799999999998,0)" xlink:href="#ab"/><use transform="matrix(0.018,0,0,0.018,82.134,0)" xlink:href="#N"/><use transform="matrix(0.018,0,0,0.018,95.07599999999998,0)" xlink:href="#O"/><use transform="matrix(0.018,0,0,0.018,106.50599999999997,0)" xlink:href="#Y"/><use transform="matrix(0.018,0,0,0.018,120.95999999999995,0)" xlink:href="#Z"/><use transform="matrix(0.018,0,0,0.018,132.49799999999996,0)" xlink:href="#Q"/></g><g id="v"><use transform="matrix(0.018,0,0,0.018,0,0)" xlink:href="#aa"/><use transform="matrix(0.018,0,0,0.018,10.152,0)" xlink:href="#Y"/><use transform="matrix(0.018,0,0,0.018,24.605999999999998,0)" xlink:href="#Y"/><use transform="matrix(0.018,0,0,0.018,39.059999999999995,0)" xlink:href="#M"/></g><g id="w"><use transform="matrix(0.018,0,0,0.018,0,0)" xlink:href="#aa"/><use transform="matrix(0.018,0,0,0.018,10.152,0)" xlink:href="#Y"/><use transform="matrix(0.018,0,0,0.018,24.605999999999998,0)" xlink:href="#W"/></g><g id="x"><use transform="matrix(0.018,0,0,0.018,0,0)" xlink:href="#am"/><use transform="matrix(0.018,0,0,0.018,10.872,0)" xlink:href="#R"/><use transform="matrix(0.018,0,0,0.018,22.86,0)" xlink:href="#an"/><use transform="matrix(0.018,0,0,0.018,33.012,0)" xlink:href="#M"/><use transform="matrix(0.018,0,0,0.018,44.081999999999994,0)" xlink:href="#Y"/><use transform="matrix(0.018,0,0,0.018,58.536,0)" xlink:href="#ao"/><use transform="matrix(0.018,0,0,0.018,70.65,0)" xlink:href="#ac"/><use transform="matrix(0.018,0,0,0.018,82.74600000000001,0)" xlink:href="#R"/><use transform="matrix(0.018,0,0,0.018,94.73400000000001,0)" xlink:href="#Z"/><use transform="matrix(0.018,0,0,0.018,106.272,0)" xlink:href="#N"/></g><g id="y"><use transform="matrix(0.018,0,0,0.018,0,0)" xlink:href="#X"/><use transform="matrix(0.018,0,0,0.018,11.123999999999999,0)" xlink:href="#R"/><use transform="matrix(0.018,0,0,0.018,23.112,0)" xlink:href="#P"/><use transform="matrix(0.018,0,0,0.018,34.524,0)" xlink:href="#Y"/><use transform="matrix(0.018,0,0,0.018,48.978,0)" xlink:href="#Z"/><use transform="matrix(0.018,0,0,0.018,60.516,0)" xlink:href="#P"/><use transform="matrix(0.018,0,0,0.018,71.928,0)" xlink:href="#O"/><use transform="matrix(0.018,0,0,0.018,83.358,0)" xlink:href="#M"/><use transform="matrix(0.018,0,0,0.018,94.428,0)" xlink:href="#R"/></g><g id="z"><use transform="matrix(0.018,0,0,0.018,0,0)" xlink:href="#am"/><use transform="matrix(0.018,0,0,0.018,10.872,0)" xlink:href="#R"/><use transform="matrix(0.018,0,0,0.018,22.86,0)" xlink:href="#P"/><use transform="matrix(0.018,0,0,0.018,34.272,0)" xlink:href="#O"/><use transform="matrix(0.018,0,0,0.018,45.702,0)" xlink:href="#Q"/><use transform="matrix(0.018,0,0,0.018,57.059999999999995,0)" xlink:href="#O"/><use transform="matrix(0.018,0,0,0.018,68.49,0)" xlink:href="#Y"/><use transform="matrix(0.018,0,0,0.018,82.94399999999999,0)" xlink:href="#Z"/><use transform="matrix(0.018,0,0,0.018,94.482,0)" xlink:href="#Q"/></g><g id="A"><use transform="matrix(0.018,0,0,0.018,0,0)" xlink:href="#am"/><use transform="matrix(0.018,0,0,0.018,10.872,0)" xlink:href="#R"/><use transform="matrix(0.018,0,0,0.018,22.86,0)" xlink:href="#an"/><use transform="matrix(0.018,0,0,0.018,33.012,0)" xlink:href="#M"/><use transform="matrix(0.018,0,0,0.018,44.081999999999994,0)" xlink:href="#Y"/><use transform="matrix(0.018,0,0,0.018,58.536,0)" xlink:href="#ao"/><use transform="matrix(0.018,0,0,0.018,70.65,0)" xlink:href="#ac"/><use transform="matrix(0.018,0,0,0.018,82.74600000000001,0)" xlink:href="#R"/><use transform="matrix(0.018,0,0,0.018,94.73400000000001,0)" xlink:href="#Z"/><use transform="matrix(0.018,0,0,0.018,106.272,0)" xlink:href="#N"/><use transform="matrix(0.018,0,0,0.018,119.21399999999998,0)" xlink:href="#Q"/></g><use transform="matrix(0.018,0,0,0.018,0,0)" xlink:href="#ap" id="B"/><g id="C"><use transform="matrix(0.018,0,0,0.018,0,0)" xlink:href="#aq"/><use transform="matrix(0.018,0,0,0.018,14.453999999999999,0)" xlink:href="#N"/><use transform="matrix(0.018,0,0,0.018,27.395999999999997,0)" xlink:href="#V"/><use transform="matrix(0.018,0,0,0.018,37.134,0)" xlink:href="#R"/><use transform="matrix(0.018,0,0,0.018,49.12199999999999,0)" xlink:href="#S"/></g><path d="M583 1c26 5 52-17 51-41 24-60-22-103-43-144-74-69-132-138-184-228-37-64 44-88 81-120 65-56 138-104 195-168 35-39 5-108-40-113-66 17-104 68-150 105-81 65-158 127-245 187-18 12-48 33-70 13-6-6-8-14-7-23 3-63 18-122 28-181-3-53-39-88-92-91-82 12-51 140-71 216 1 133-13 257-20 381-3 58-27 167 27 193 35 29 78-2 98-20 30-59 16-164 24-251 3-31 38-61 73-59 78 41 118 121 174 184 38 44 71 96 112 139 15 15 32 34 59 21" id="as"/><g id="D"><use transform="matrix(0.018,0,0,0.018,0,0)" xlink:href="#ag"/><use transform="matrix(0.018,0,0,0.018,15.623999999999999,0)" xlink:href="#Y"/><use transform="matrix(0.018,0,0,0.018,30.078,0)" xlink:href="#S"/><use transform="matrix(0.018,0,0,0.018,41.202,0)" xlink:href="#as"/><use transform="matrix(0.018,0,0,0.018,53.91,0)" xlink:href="#M"/><use transform="matrix(0.018,0,0,0.018,64.97999999999999,0)" xlink:href="#Y"/><use transform="matrix(0.018,0,0,0.018,79.43399999999998,0)" xlink:href="#ab"/><use transform="matrix(0.018,0,0,0.018,90,0)" xlink:href="#W"/><use transform="matrix(0.018,0,0,0.018,100.87199999999999,0)" xlink:href="#Q"/></g><g id="E"><use transform="matrix(0.018,0,0,0.018,0,0)" xlink:href="#P"/><use transform="matrix(0.018,0,0,0.018,11.411999999999999,0)" xlink:href="#Y"/><use transform="matrix(0.018,0,0,0.018,25.866,0)" xlink:href="#ac"/><use transform="matrix(0.018,0,0,0.018,37.961999999999996,0)" xlink:href="#O"/><use transform="matrix(0.018,0,0,0.018,49.391999999999996,0)" xlink:href="#Z"/><use transform="matrix(0.018,0,0,0.018,60.92999999999999,0)" xlink:href="#al"/></g><path d="M95-352c46 0 98-50 98-97 0-70-128-102-164-40-34 59-2 137 66 137zM93-47c47 0 96-50 96-96 0-41-53-72-92-72-54-1-84 29-84 81 0 50 30 87 80 87" id="at"/><g id="F"><use transform="matrix(0.018,0,0,0.018,0,0)" xlink:href="#Q"/><use transform="matrix(0.018,0,0,0.018,11.357999999999999,0)" xlink:href="#Y"/><use transform="matrix(0.018,0,0,0.018,25.811999999999998,0)" xlink:href="#Y"/><use transform="matrix(0.018,0,0,0.018,40.266,0)" xlink:href="#Z"/><use transform="matrix(0.018,0,0,0.018,51.803999999999995,0)" xlink:href="#at"/></g><path d="M742-672c19-13 30-35 30-67 0-41-39-62-118-62-161 0-276 4-410 26-79 13-122 26-127 95-2 29 32 48 63 46 68-5 152-26 232-25 25 0 43 8 53 24 14 24 44 187 44 247 1 132-5 244-138 237-110-6-195-73-255-135-23-23-47-33-70-33-25 0-44 36-44 66C2-167 240-39 316-18c118 33 253-12 284-102 27-78 38-148 38-271 0-87-29-162-29-256 0-42 93-35 133-25" id="au"/><path d="M39 59C84 43 157-10 157-69c0-34-42-63-77-61-70 4-68 99-68 162 0 18 9 27 27 27" id="av"/><g id="G"><use transform="matrix(0.018,0,0,0.018,0,0)" xlink:href="#au"/><use transform="matrix(0.018,0,0,0.018,14.111999999999998,0)" xlink:href="#Y"/><use transform="matrix(0.018,0,0,0.018,28.565999999999995,0)" xlink:href="#ad"/><use transform="matrix(0.018,0,0,0.018,40.13999999999999,0)" xlink:href="#Q"/><use transform="matrix(0.018,0,0,0.018,51.49799999999999,0)" xlink:href="#av"/></g><path d="M39-49c-7-93 9-204-6-289-18-30-12-41 1-77 37-27 19-97 25-162 2-23-27-37-49-40-11-18-14-56 0-71 17-39 273-99 376-109 72-7 163-32 165 45 1 65-62 51-115 66-63 18-176 24-229 55-41 23-20 107-25 176 83-2 166-25 259-33 74-6 91 70 44 97-80 23-228 35-304 57-18 6-27 18-27 35-9 45 6 274-42 299-35 2-92-5-73-49" id="aw"/><g id="H"><use transform="matrix(0.018,0,0,0.018,0,0)" xlink:href="#U"/><use transform="matrix(0.018,0,0,0.018,11.357999999999999,0)" xlink:href="#N"/><use transform="matrix(0.018,0,0,0.018,24.299999999999997,0)" xlink:href="#ab"/><use transform="matrix(0.018,0,0,0.018,34.866,0)" xlink:href="#N"/><use transform="matrix(0.018,0,0,0.018,47.808,0)" xlink:href="#R"/><use transform="matrix(0.018,0,0,0.018,59.79599999999999,0)" xlink:href="#aw"/><use transform="matrix(0.018,0,0,0.018,69.75,0)" xlink:href="#L"/><use transform="matrix(0.018,0,0,0.018,82.404,0)" xlink:href="#M"/></g><g id="I"><use transform="matrix(0.018,0,0,0.018,0,0)" xlink:href="#U"/><use transform="matrix(0.018,0,0,0.018,11.357999999999999,0)" xlink:href="#R"/><use transform="matrix(0.018,0,0,0.018,23.345999999999997,0)" xlink:href="#N"/><use transform="matrix(0.018,0,0,0.018,36.288,0)" xlink:href="#Q"/><use transform="matrix(0.018,0,0,0.018,47.645999999999994,0)" xlink:href="#av"/></g><path d="M81-140c34 0 77 28 77 61 0 38-43 81-82 81C34 2 7-30 9-72c2-44 21-68 72-68" id="ax"/><g id="J"><use transform="matrix(0.018,0,0,0.018,0,0)" xlink:href="#R"/><use transform="matrix(0.018,0,0,0.018,11.988,0)" xlink:href="#N"/><use transform="matrix(0.018,0,0,0.018,24.93,0)" xlink:href="#P"/><use transform="matrix(0.018,0,0,0.018,36.342,0)" xlink:href="#ax"/></g></defs></g></svg>