<svg xmlns:xlink="http://www.w3.org/1999/xlink" xmlns:lucid="lucid" xmlns="http://www.w3.org/2000/svg" width="1100"
     height="701.6">
    <g transform="translate(-20 -20)" lucid:page-tab-id="0_0">
        <path d="M0 0h1870.4v1323.2H0z" fill="#282c33"/>
        <path d="M40 88c0-4.42 3.58-8 8-8h1044c4.42 0 8 3.58 8 8v484c0 4.42-3.58 8-8 8H48c-4.42 0-8-3.58-8-8z"
              stroke="#fff" fill-opacity="0"/>
        <use xlink:href="#a"
             transform="matrix(-1.8369701987210297e-16,-1,1,-1.8369701987210297e-16,45.00000000000006,575.0000000000002) translate(178.00400000000002 14.4)"/>
        <use xlink:href="#b"
             transform="matrix(-1.8369701987210297e-16,-1,1,-1.8369701987210297e-16,45.00000000000006,575.0000000000002) translate(255.764 14.4)"/>
        <path d="M820 48c0-4.42 3.58-8 8-8h244c4.42 0 8 3.58 8 8v544c0 4.42-3.58 8-8 8H828c-4.42 0-8-3.58-8-8z"
              stroke="#fff" fill-opacity="0"/>
        <use xlink:href="#c" transform="matrix(1,0,0,1,825,45) translate(62.126000000000005 14.4)"/>
        <use xlink:href="#d" transform="matrix(1,0,0,1,825,45) translate(150.01999999999998 14.4)"/>
        <path d="M540 48c0-4.42 3.58-8 8-8h244c4.42 0 8 3.58 8 8v544c0 4.42-3.58 8-8 8H548c-4.42 0-8-3.58-8-8z"
              stroke="#fff" fill-opacity="0"/>
        <use xlink:href="#c" transform="matrix(1,0,0,1,545,45) translate(63.269000000000005 14.4)"/>
        <use xlink:href="#e" transform="matrix(1,0,0,1,545,45) translate(151.163 14.4)"/>
        <path d="M260 48c0-4.42 3.58-8 8-8h244c4.42 0 8 3.58 8 8v544c0 4.42-3.58 8-8 8H268c-4.42 0-8-3.58-8-8z"
              stroke="#fff" fill-opacity="0"/>
        <use xlink:href="#c" transform="matrix(1,0,0,1,265,45) translate(63.79100000000001 14.4)"/>
        <use xlink:href="#f" transform="matrix(1,0,0,1,265,45) translate(151.685 14.4)"/>
        <path d="M469.83 201.58c-.57.06-1.02.17-1.48.4l-19.72 9.72c-1.08.5-1.82 1.42-2.05 2.6l-4.9 21.9c-.2 1.02-.04 2.04.53 2.95.06.1.12.17.23.3l13.64 17.5c.74.96 1.77 1.47 2.96 1.47h21.94c1.2 0 2.22-.5 2.95-1.48l13.65-17.5c.73-.97 1.02-2.1.73-3.3l-4.88-21.83c-.23-1.18-.97-2.1-2.05-2.6l-19.72-9.72c-.63-.28-1.2-.45-1.82-.4z"
              stroke="#000" stroke-opacity="0" stroke-width="0" fill="#326ce5"/>
        <path d="M469.82 200c-.6.06-1.08.18-1.56.42l-20.82 10.26c-1.14.54-1.92 1.5-2.16 2.76l-5.16 23.1c-.24 1.08-.06 2.16.54 3.12.06.12.12.18.24.3l14.4 18.48c.78 1.02 1.86 1.56 3.12 1.56h23.16c1.26 0 2.34-.54 3.12-1.56l14.4-18.48c.78-1.02 1.08-2.22.78-3.42l-5.16-23.1c-.24-1.26-1.02-2.22-2.16-2.76l-20.82-10.26c-.66-.3-1.26-.48-1.92-.42zm0 1.56c.66 0 1.2.12 1.8.42l19.8 9.72c1.02.54 1.74 1.44 2.04 2.64l4.86 21.84c.24 1.2 0 2.28-.72 3.24l-13.68 17.52c-.72.96-1.74 1.5-2.94 1.5h-21.96c-1.2 0-2.22-.54-2.94-1.5l-13.68-17.52c-.06-.06-.12-.18-.18-.3-.6-.9-.78-1.86-.54-2.94l4.86-21.84c.3-1.2.96-2.1 2.04-2.64l19.8-9.72c.48-.24.9-.36 1.44-.42z"
              stroke="#000" stroke-opacity="0" stroke-width="0" fill="#fff"/>
        <path d="M457.96 221.3l12.04-3.6 12.04 3.6-12.04 3.6zM457.96 222.68v13.2l11.22 6.42.05-16.17zM482.04 222.68v13.2l-11.22 6.42-.05-16.17z"
              stroke="#000" stroke-opacity="0" fill="#fff"/>
        <path d="M470 161v20.5" stroke="#979ea8" stroke-width="2" fill="none"/>
        <path d="M471 161.03h-2V160h2z" fill="#979ea8"/>
        <path d="M470 196.78l-4.64-14.27h9.28z" stroke="#979ea8" stroke-width="2" fill="#979ea8"/>
        <path d="M749.83 401.58c-.57.06-1.02.17-1.48.4l-19.72 9.72c-1.08.5-1.82 1.42-2.05 2.6l-4.9 21.9c-.2 1.02-.04 2.04.53 2.95.06.1.12.17.23.3l13.64 17.5c.74.96 1.77 1.47 2.96 1.47h21.94c1.2 0 2.22-.5 2.95-1.48l13.65-17.5c.73-.97 1.02-2.1.73-3.3l-4.88-21.83c-.23-1.18-.97-2.1-2.05-2.6l-19.72-9.72c-.63-.28-1.2-.45-1.82-.4z"
              stroke="#000" stroke-opacity="0" stroke-width="0" fill="#326ce5"/>
        <path d="M749.82 400c-.6.06-1.08.18-1.56.42l-20.82 10.26c-1.14.54-1.92 1.5-2.16 2.76l-5.16 23.1c-.24 1.08-.06 2.16.54 3.12.06.12.12.18.24.3l14.4 18.48c.78 1.02 1.86 1.56 3.12 1.56h23.16c1.26 0 2.34-.54 3.12-1.56l14.4-18.48c.78-1.02 1.08-2.22.78-3.42l-5.16-23.1c-.24-1.26-1.02-2.22-2.16-2.76l-20.82-10.26c-.66-.3-1.26-.48-1.92-.42zm0 1.56c.66 0 1.2.12 1.8.42l19.8 9.72c1.02.54 1.74 1.44 2.04 2.64l4.86 21.84c.24 1.2 0 2.28-.72 3.24l-13.68 17.52c-.72.96-1.74 1.5-2.94 1.5h-21.96c-1.2 0-2.22-.54-2.94-1.5l-13.68-17.52c-.06-.06-.12-.18-.18-.3-.6-.9-.78-1.86-.54-2.94l4.86-21.84c.3-1.2.96-2.1 2.04-2.64l19.8-9.72c.48-.24.9-.36 1.44-.42z"
              stroke="#000" stroke-opacity="0" stroke-width="0" fill="#fff"/>
        <path d="M737.96 421.3l12.04-3.6 12.04 3.6-12.04 3.6zM737.96 422.68v13.2l11.22 6.42.05-16.17zM762.04 422.68v13.2l-11.22 6.42-.05-16.17z"
              stroke="#000" stroke-opacity="0" fill="#fff"/>
        <path d="M389.83 201.58c-.57.06-1.02.17-1.48.4l-19.72 9.72c-1.08.5-1.82 1.42-2.05 2.6l-4.9 21.9c-.2 1.02-.04 2.04.53 2.95.06.1.12.17.23.3l13.64 17.5c.74.96 1.77 1.47 2.96 1.47h21.94c1.2 0 2.22-.5 2.95-1.48l13.65-17.5c.73-.97 1.02-2.1.73-3.3l-4.88-21.83c-.23-1.18-.97-2.1-2.05-2.6l-19.72-9.72c-.63-.28-1.2-.45-1.82-.4z"
              stroke="#000" stroke-opacity="0" stroke-width="0" fill="#326ce5"/>
        <path d="M389.82 200c-.6.06-1.08.18-1.56.42l-20.82 10.26c-1.14.54-1.92 1.5-2.16 2.76l-5.16 23.1c-.24 1.08-.06 2.16.54 3.12.06.12.12.18.24.3l14.4 18.48c.78 1.02 1.86 1.56 3.12 1.56h23.16c1.26 0 2.34-.54 3.12-1.56l14.4-18.48c.78-1.02 1.08-2.22.78-3.42l-5.16-23.1c-.24-1.26-1.02-2.22-2.16-2.76l-20.82-10.26c-.66-.3-1.26-.48-1.92-.42zm0 1.56c.66 0 1.2.12 1.8.42l19.8 9.72c1.02.54 1.74 1.44 2.04 2.64l4.86 21.84c.24 1.2 0 2.28-.72 3.24l-13.68 17.52c-.72.96-1.74 1.5-2.94 1.5h-21.96c-1.2 0-2.22-.54-2.94-1.5l-13.68-17.52c-.06-.06-.12-.18-.18-.3-.6-.9-.78-1.86-.54-2.94l4.86-21.84c.3-1.2.96-2.1 2.04-2.64l19.8-9.72c.48-.24.9-.36 1.44-.42z"
              stroke="#000" stroke-opacity="0" stroke-width="0" fill="#fff"/>
        <path d="M377.96 221.3l12.04-3.6 12.04 3.6-12.04 3.6zM377.96 222.68v13.2l11.22 6.42.05-16.17zM402.04 222.68v13.2l-11.22 6.42-.05-16.17z"
              stroke="#000" stroke-opacity="0" fill="#fff"/>
        <path d="M390 161v20.5" stroke="#979ea8" stroke-width="2" fill="none"/>
        <path d="M391 161.03h-2V160h2z" fill="#979ea8"/>
        <path d="M390 196.78l-4.64-14.27h9.28z" stroke="#979ea8" stroke-width="2" fill="#979ea8"/>
        <path d="M350.2 360.98l.04.1.05.1.06.14.07.12.08.14.1.14.12.14.13.16.15.16.17.18.2.2.24.2.3.22.33.24.42.28.5.3.63.35.8.4 1.03.45 1.38.54 1.88.65 2.7.8 4.02 1.03 6.52 1.37 11.84 1.97 27.54 3.37 144.58 13.9 11.84 1.98 6.35 1.33"
              stroke="#979ea8" stroke-width="2" fill="none"/>
        <path d="M351.02 361l-2 .05L349 360h2z" fill="#979ea8"/>
        <path d="M587.12 398.54l-14.8-2.37 4.2-8.26z" stroke="#979ea8" stroke-width="2" fill="#979ea8"/>
        <path d="M350.4 360.9h.02l.08.1.1.07.1.1.12.1.16.1.18.13.24.14.3.16.37.2.5.2.67.28.95.32 1.36.42 2.13.54 3.52.74 6.58 1.1 14.52 1.77 45.04 3.55 490.32 21.72 14.52 1.78.68.1"
              stroke="#979ea8" stroke-width="2" fill="none"/>
        <path d="M351.02 361l-2 .05L349 360h2z" fill="#979ea8"/>
        <path d="M946.92 399.03l-15 .07 2.82-8.83z" stroke="#979ea8" stroke-width="2" fill="#979ea8"/>
        <path d="M430.25 360.96l.02.04.06.1.06.1.07.1.08.12.1.12.12.13.13.13.16.15.2.16.2.2.28.18.32.22.4.24.5.28.65.3.84.38 1.1.44 1.55.54 2.2.66 3.35.85 5.45 1.14 9.88 1.64 21.56 2.65 104.72 7.82 116.2 8.53 21.56 2.65 9.88 1.65 1.82.38"
              stroke="#979ea8" stroke-width="2" fill="none"/>
        <path d="M431.02 361l-2 .05L429 360h2z" fill="#979ea8"/>
        <path d="M747.04 398.7l-14.93-1.48 3.74-8.5z" stroke="#979ea8" stroke-width="2" fill="#979ea8"/>
        <path d="M389.83 501.58c-.57.06-1.02.17-1.48.4l-19.72 9.72c-1.08.5-1.82 1.42-2.05 2.6l-4.9 21.9c-.2 1.02-.04 2.04.53 2.95.06.1.12.17.23.3l13.64 17.5c.74.96 1.77 1.47 2.96 1.47h21.94c1.2 0 2.22-.5 2.95-1.48l13.65-17.5c.73-.97 1.02-2.1.73-3.3l-4.88-21.83c-.23-1.18-.97-2.1-2.05-2.6l-19.72-9.72c-.63-.28-1.2-.45-1.82-.4z"
              stroke="#000" stroke-opacity="0" stroke-width="0" fill="#326ce5"/>
        <path d="M389.82 500c-.6.06-1.08.18-1.56.42l-20.82 10.26c-1.14.54-1.92 1.5-2.16 2.76l-5.16 23.1c-.24 1.08-.06 2.16.54 3.12.06.12.12.18.24.3l14.4 18.48c.78 1.02 1.86 1.56 3.12 1.56h23.16c1.26 0 2.34-.54 3.12-1.56l14.4-18.48c.78-1.02 1.08-2.22.78-3.42l-5.16-23.1c-.24-1.26-1.02-2.22-2.16-2.76l-20.82-10.26c-.66-.3-1.26-.48-1.92-.42zm0 1.56c.66 0 1.2.12 1.8.42l19.8 9.72c1.02.54 1.74 1.44 2.04 2.64l4.86 21.84c.24 1.2 0 2.28-.72 3.24l-13.68 17.52c-.72.96-1.74 1.5-2.94 1.5h-21.96c-1.2 0-2.22-.54-2.94-1.5l-13.68-17.52c-.06-.06-.12-.18-.18-.3-.6-.9-.78-1.86-.54-2.94l4.86-21.84c.3-1.2.96-2.1 2.04-2.64l19.8-9.72c.48-.24.9-.36 1.44-.42z"
              stroke="#000" stroke-opacity="0" stroke-width="0" fill="#fff"/>
        <path d="M389.93 513.15c-.46 0-13.27 6.47-13.44 6.8-.4.82-3.34 14.7-3.17 15 .1.17 2.2 2.94 4.67 6.1l4.5 5.8h14.77l4.7-6.07 4.7-6.03-1.63-7.45c-.9-4.07-1.73-7.5-1.8-7.58-.23-.23-13.04-6.57-13.3-6.57zm.67 3.24l3 .9-3 .9-3.03-.9zm-3.03 1.27l2.83.84v4.1l-2.83-1.63zm6.03 0v3.3l-2.8 1.62v-4.1zm-7.3 5.52l3.03.9-3.03.88-3-.88zm7.37 0l3 .9-3 .88-3.04-.88zm-10.37 1.24l2.8.88v4.04l-2.8-1.62zm6.03 0v3.3l-2.83 1.62v-4.04zm1.3 0l2.84.88-.04 4.04-2.8-1.62zm6.04 0v3.3l-2.8 1.62-.04-4.04zm-11.47 5.2c.9.02.2.97 1.23 1.47 1.1.52 1.3-.8 2 .2.67 1.03-.6.8-.53 2.04.1 1.2 1.37.74.83 1.88-.53 1.12-.93-.17-1.93.54-1 .7 0 1.6-1.2 1.7-1.2.1-.34-.96-1.44-1.5-1.06-.53-1.3.8-2-.2-.66-1.04.64-.77.54-2.02-.1-1.2-1.34-.77-.84-1.9.54-1.1.97.18 1.97-.53.97-.7-.03-1.57 1.17-1.67h.2zm7.77 1.24c1.6.03.06 1.58 1.53 2.3 1.47.66 1.54-1.6 2.64-.38 1.1 1.2-1.07 1.18-.47 2.73.57 1.55 2.17.03 2.1 1.68-.03 1.66-1.53.05-2.2 1.56-.67 1.52 1.5 1.62.33 2.76-1.16 1.12-1.13-1.1-2.63-.5-1.5.57-.03 2.22-1.64 2.2-1.6-.08-.03-1.63-1.5-2.3-1.46-.68-1.56 1.55-2.66.33-1.1-1.17 1.06-1.14.5-2.7-.6-1.54-2.17-.02-2.14-1.68.04-1.68 1.54-.06 2.2-1.58.67-1.53-1.5-1.6-.33-2.74 1.17-1.14 1.13 1.08 2.63.5 1.5-.6.04-2.22 1.64-2.18zm-7.7.87c-.97 0-1.77.8-1.77 1.82 0 1 .8 1.82 1.76 1.82 1 0 1.77-.82 1.77-1.83 0-1-.76-1.82-1.77-1.82zm7.53 1.65c-1.93 0-3.53 1.62-3.53 3.64 0 2 1.6 3.64 3.53 3.64 1.97 0 3.54-1.65 3.54-3.64 0-2.02-1.57-3.64-3.54-3.64z"
              stroke="#eee" stroke-width="0" fill="#fff"/>
        <path d="M310 161v20.5" stroke="#979ea8" stroke-width="2" fill="none"/>
        <path d="M311 161.03h-2V160h2z" fill="#979ea8"/>
        <path d="M310 196.78l-4.64-14.27h9.28z" stroke="#979ea8" stroke-width="2" fill="#979ea8"/>
        <path d="M310.06 261l.05.78.32 1.63.5 1.57.73 1.54 1 1.6 1.44 1.75 2.13 2 3.62 2.64 19.9 11.35" stroke="#ff7070"
              stroke-width="2" fill="none"/>
        <path d="M311.06 260.96l-2 .13-.06-1.1h2z" fill="#ff7070"/>
        <path d="M348.1 297.4l-12.12-8.84 7.5-5.44z" stroke="#ff7070" stroke-width="2" fill="#ff7070"/>
        <path d="M349.83 301.58c-.57.06-1.02.17-1.48.4l-19.72 9.72c-1.08.5-1.82 1.42-2.05 2.6l-4.9 21.9c-.2 1.02-.04 2.04.53 2.95.06.1.12.17.23.3l13.64 17.5c.74.96 1.77 1.47 2.96 1.47h21.94c1.2 0 2.22-.5 2.95-1.48l13.65-17.5c.73-.97 1.02-2.1.73-3.3l-4.88-21.83c-.23-1.18-.97-2.1-2.05-2.6l-19.72-9.72c-.63-.28-1.2-.45-1.82-.4z"
              stroke="#000" stroke-opacity="0" stroke-width="0" fill="#326ce5"/>
        <path d="M349.82 300c-.6.06-1.08.18-1.56.42l-20.82 10.26c-1.14.54-1.92 1.5-2.16 2.76l-5.16 23.1c-.24 1.08-.06 2.16.54 3.12.06.12.12.18.24.3l14.4 18.48c.78 1.02 1.86 1.56 3.12 1.56h23.16c1.26 0 2.34-.54 3.12-1.56l14.4-18.48c.78-1.02 1.08-2.22.78-3.42l-5.16-23.1c-.24-1.26-1.02-2.22-2.16-2.76l-20.82-10.26c-.66-.3-1.26-.48-1.92-.42zm0 1.56c.66 0 1.2.12 1.8.42l19.8 9.72c1.02.54 1.74 1.44 2.04 2.64l4.86 21.84c.24 1.2 0 2.28-.72 3.24l-13.68 17.52c-.72.96-1.74 1.5-2.94 1.5h-21.96c-1.2 0-2.22-.54-2.94-1.5l-13.68-17.52c-.06-.06-.12-.18-.18-.3-.6-.9-.78-1.86-.54-2.94l4.86-21.84c.3-1.2.96-2.1 2.04-2.64l19.8-9.72c.48-.24.9-.36 1.44-.42z"
              stroke="#000" stroke-opacity="0" stroke-width="0" fill="#fff"/>
        <path d="M349.93 313.15c-.46 0-13.27 6.47-13.44 6.8-.4.82-3.34 14.7-3.17 15 .1.17 2.2 2.94 4.67 6.1l4.5 5.8h14.77l4.7-6.07 4.7-6.03-1.63-7.45c-.9-4.07-1.73-7.5-1.8-7.58-.23-.23-13.04-6.57-13.3-6.57zm.67 3.24l3 .9-3 .9-3.03-.9zm-3.03 1.27l2.83.84v4.1l-2.83-1.63zm6.03 0v3.3l-2.8 1.62v-4.1zm-7.3 5.52l3.03.9-3.03.88-3-.88zm7.37 0l3 .9-3 .88-3.04-.88zm-10.37 1.24l2.8.88v4.04l-2.8-1.62zm6.03 0v3.3l-2.83 1.62v-4.04zm1.3 0l2.84.88-.04 4.04-2.8-1.62zm6.04 0v3.3l-2.8 1.62-.04-4.04zm-11.47 5.2c.9.02.2.97 1.23 1.47 1.1.52 1.3-.8 2 .2.67 1.03-.6.8-.53 2.04.1 1.2 1.37.74.83 1.88-.53 1.12-.93-.17-1.93.54-1 .7 0 1.6-1.2 1.7-1.2.1-.34-.96-1.44-1.5-1.06-.53-1.3.8-2-.2-.66-1.04.64-.77.54-2.02-.1-1.2-1.34-.77-.84-1.9.54-1.1.97.18 1.97-.53.97-.7-.03-1.57 1.17-1.67h.2zm7.77 1.24c1.6.03.06 1.58 1.53 2.3 1.47.66 1.54-1.6 2.64-.38 1.1 1.2-1.07 1.18-.47 2.73.57 1.55 2.17.03 2.1 1.68-.03 1.66-1.53.05-2.2 1.56-.67 1.52 1.5 1.62.33 2.76-1.16 1.12-1.13-1.1-2.63-.5-1.5.57-.03 2.22-1.64 2.2-1.6-.08-.03-1.63-1.5-2.3-1.46-.68-1.56 1.55-2.66.33-1.1-1.17 1.06-1.14.5-2.7-.6-1.54-2.17-.02-2.14-1.68.04-1.68 1.54-.06 2.2-1.58.67-1.53-1.5-1.6-.33-2.74 1.17-1.14 1.13 1.08 2.63.5 1.5-.6.04-2.22 1.64-2.18zm-7.7.87c-.97 0-1.77.8-1.77 1.82 0 1 .8 1.82 1.76 1.82 1 0 1.77-.82 1.77-1.83 0-1-.76-1.82-1.77-1.82zm7.53 1.65c-1.93 0-3.53 1.62-3.53 3.64 0 2 1.6 3.64 3.53 3.64 1.97 0 3.54-1.65 3.54-3.64 0-2.02-1.57-3.64-3.54-3.64z"
              stroke="#eee" stroke-width="0" fill="#fff"/>
        <path d="M429.83 301.58c-.57.06-1.02.17-1.48.4l-19.72 9.72c-1.08.5-1.82 1.42-2.05 2.6l-4.9 21.9c-.2 1.02-.04 2.04.53 2.95.06.1.12.17.23.3l13.64 17.5c.74.96 1.77 1.47 2.96 1.47h21.94c1.2 0 2.22-.5 2.95-1.48l13.65-17.5c.73-.97 1.02-2.1.73-3.3l-4.88-21.83c-.23-1.18-.97-2.1-2.05-2.6l-19.72-9.72c-.63-.28-1.2-.45-1.82-.4z"
              stroke="#000" stroke-opacity="0" stroke-width="0" fill="#326ce5"/>
        <path d="M429.82 300c-.6.06-1.08.18-1.56.42l-20.82 10.26c-1.14.54-1.92 1.5-2.16 2.76l-5.16 23.1c-.24 1.08-.06 2.16.54 3.12.06.12.12.18.24.3l14.4 18.48c.78 1.02 1.86 1.56 3.12 1.56h23.16c1.26 0 2.34-.54 3.12-1.56l14.4-18.48c.78-1.02 1.08-2.22.78-3.42l-5.16-23.1c-.24-1.26-1.02-2.22-2.16-2.76l-20.82-10.26c-.66-.3-1.26-.48-1.92-.42zm0 1.56c.66 0 1.2.12 1.8.42l19.8 9.72c1.02.54 1.74 1.44 2.04 2.64l4.86 21.84c.24 1.2 0 2.28-.72 3.24l-13.68 17.52c-.72.96-1.74 1.5-2.94 1.5h-21.96c-1.2 0-2.22-.54-2.94-1.5l-13.68-17.52c-.06-.06-.12-.18-.18-.3-.6-.9-.78-1.86-.54-2.94l4.86-21.84c.3-1.2.96-2.1 2.04-2.64l19.8-9.72c.48-.24.9-.36 1.44-.42z"
              stroke="#000" stroke-opacity="0" stroke-width="0" fill="#fff"/>
        <path d="M429.93 313.15c-.46 0-13.27 6.47-13.44 6.8-.4.82-3.34 14.7-3.17 15 .1.17 2.2 2.94 4.67 6.1l4.5 5.8h14.77l4.7-6.07 4.7-6.03-1.63-7.45c-.9-4.07-1.73-7.5-1.8-7.58-.23-.23-13.04-6.57-13.3-6.57zm.67 3.24l3 .9-3 .9-3.03-.9zm-3.03 1.27l2.83.84v4.1l-2.83-1.63zm6.03 0v3.3l-2.8 1.62v-4.1zm-7.3 5.52l3.03.9-3.03.88-3-.88zm7.37 0l3 .9-3 .88-3.04-.88zm-10.37 1.24l2.8.88v4.04l-2.8-1.62zm6.03 0v3.3l-2.83 1.62v-4.04zm1.3 0l2.84.88-.04 4.04-2.8-1.62zm6.04 0v3.3l-2.8 1.62-.04-4.04zm-11.47 5.2c.9.02.2.97 1.23 1.47 1.1.52 1.3-.8 2 .2.67 1.03-.6.8-.53 2.04.1 1.2 1.37.74.83 1.88-.53 1.12-.93-.17-1.93.54-1 .7 0 1.6-1.2 1.7-1.2.1-.34-.96-1.44-1.5-1.06-.53-1.3.8-2-.2-.66-1.04.64-.77.54-2.02-.1-1.2-1.34-.77-.84-1.9.54-1.1.97.18 1.97-.53.97-.7-.03-1.57 1.17-1.67h.2zm7.77 1.24c1.6.03.06 1.58 1.53 2.3 1.47.66 1.54-1.6 2.64-.38 1.1 1.2-1.07 1.18-.47 2.73.57 1.55 2.17.03 2.1 1.68-.03 1.66-1.53.05-2.2 1.56-.67 1.52 1.5 1.62.33 2.76-1.16 1.12-1.13-1.1-2.63-.5-1.5.57-.03 2.22-1.64 2.2-1.6-.08-.03-1.63-1.5-2.3-1.46-.68-1.56 1.55-2.66.33-1.1-1.17 1.06-1.14.5-2.7-.6-1.54-2.17-.02-2.14-1.68.04-1.68 1.54-.06 2.2-1.58.67-1.53-1.5-1.6-.33-2.74 1.17-1.14 1.13 1.08 2.63.5 1.5-.6.04-2.22 1.64-2.18zm-7.7.87c-.97 0-1.77.8-1.77 1.82 0 1 .8 1.82 1.76 1.82 1 0 1.77-.82 1.77-1.83 0-1-.76-1.82-1.77-1.82zm7.53 1.65c-1.93 0-3.53 1.62-3.53 3.64 0 2 1.6 3.64 3.53 3.64 1.97 0 3.54-1.65 3.54-3.64 0-2.02-1.57-3.64-3.54-3.64z"
              stroke="#eee" stroke-width="0" fill="#fff"/>
        <path d="M390.06 261l.05.78.32 1.63.5 1.57.73 1.54 1 1.6 1.44 1.75 2.13 2 3.62 2.64 19.9 11.35" stroke="#ff7070"
              stroke-width="2" fill="none"/>
        <path d="M391.06 260.96l-2 .13-.06-1.1h2z" fill="#ff7070"/>
        <path d="M428.1 297.4l-12.12-8.84 7.5-5.44z" stroke="#ff7070" stroke-width="2" fill="#ff7070"/>
        <path d="M469.9 261v.03l-.06.2-.05.2-.08.22-.08.2-.1.23-.1.22-.1.22-.15.24-.16.24-.18.25-.2.26-.23.3-.26.28-.3.3-.35.33-.4.37-.5.38-.55.4-.7.46-.8.5-1.03.57-1.28.63-1.63.73-2.14.84-2.93 1.02-4.18 1.24-6.5 1.66-12.14 2.54-57.65 10.48-6.5 1.65-4.17 1.26-.37.13"
              stroke="#ff7070" stroke-width="2" fill="none"/>
        <path d="M470.98 261.05l-2-.05.02-1h2z" fill="#ff7070"/>
        <path d="M352.6 298.08l8.68-12.23 5.53 7.44z" stroke="#ff7070" stroke-width="2" fill="#ff7070"/>
        <path d="M669.83 501.58c-.57.06-1.02.17-1.48.4l-19.72 9.72c-1.08.5-1.82 1.42-2.05 2.6l-4.9 21.9c-.2 1.02-.04 2.04.53 2.95.06.1.12.17.23.3l13.64 17.5c.74.96 1.77 1.47 2.96 1.47h21.94c1.2 0 2.22-.5 2.95-1.48l13.65-17.5c.73-.97 1.02-2.1.73-3.3l-4.88-21.83c-.23-1.18-.97-2.1-2.05-2.6l-19.72-9.72c-.63-.28-1.2-.45-1.82-.4z"
              stroke="#000" stroke-opacity="0" stroke-width="0" fill="#326ce5"/>
        <path d="M669.82 500c-.6.06-1.08.18-1.56.42l-20.82 10.26c-1.14.54-1.92 1.5-2.16 2.76l-5.16 23.1c-.24 1.08-.06 2.16.54 3.12.06.12.12.18.24.3l14.4 18.48c.78 1.02 1.86 1.56 3.12 1.56h23.16c1.26 0 2.34-.54 3.12-1.56l14.4-18.48c.78-1.02 1.08-2.22.78-3.42l-5.16-23.1c-.24-1.26-1.02-2.22-2.16-2.76l-20.82-10.26c-.66-.3-1.26-.48-1.92-.42zm0 1.56c.66 0 1.2.12 1.8.42l19.8 9.72c1.02.54 1.74 1.44 2.04 2.64l4.86 21.84c.24 1.2 0 2.28-.72 3.24l-13.68 17.52c-.72.96-1.74 1.5-2.94 1.5h-21.96c-1.2 0-2.22-.54-2.94-1.5l-13.68-17.52c-.06-.06-.12-.18-.18-.3-.6-.9-.78-1.86-.54-2.94l4.86-21.84c.3-1.2.96-2.1 2.04-2.64l19.8-9.72c.48-.24.9-.36 1.44-.42z"
              stroke="#000" stroke-opacity="0" stroke-width="0" fill="#fff"/>
        <path d="M669.93 513.15c-.46 0-13.27 6.47-13.44 6.8-.4.82-3.34 14.7-3.17 15 .1.17 2.2 2.94 4.67 6.1l4.5 5.8h14.77l4.7-6.07 4.7-6.03-1.63-7.45c-.9-4.07-1.73-7.5-1.8-7.58-.23-.23-13.04-6.57-13.3-6.57zm.67 3.24l3 .9-3 .9-3.03-.9zm-3.03 1.27l2.83.84v4.1l-2.83-1.63zm6.03 0v3.3l-2.8 1.62v-4.1zm-7.3 5.52l3.03.9-3.03.88-3-.88zm7.37 0l3 .9-3 .88-3.04-.88zm-10.37 1.24l2.8.88v4.04l-2.8-1.62zm6.03 0v3.3l-2.83 1.62v-4.04zm1.3 0l2.84.88-.04 4.04-2.8-1.62zm6.04 0v3.3l-2.8 1.62-.04-4.04zm-11.47 5.2c.9.02.2.97 1.23 1.47 1.1.52 1.3-.8 2 .2.67 1.03-.6.8-.53 2.04.1 1.2 1.37.74.83 1.88-.53 1.12-.93-.17-1.93.54-1 .7 0 1.6-1.2 1.7-1.2.1-.34-.96-1.44-1.5-1.06-.53-1.3.8-2-.2-.66-1.04.64-.77.54-2.02-.1-1.2-1.34-.77-.84-1.9.54-1.1.97.18 1.97-.53.97-.7-.03-1.57 1.17-1.67h.2zm7.77 1.24c1.6.03.06 1.58 1.53 2.3 1.47.66 1.54-1.6 2.64-.38 1.1 1.2-1.07 1.18-.47 2.73.57 1.55 2.17.03 2.1 1.68-.03 1.66-1.53.05-2.2 1.56-.67 1.52 1.5 1.62.33 2.76-1.16 1.12-1.13-1.1-2.63-.5-1.5.57-.03 2.22-1.64 2.2-1.6-.08-.03-1.63-1.5-2.3-1.46-.68-1.56 1.55-2.66.33-1.1-1.17 1.06-1.14.5-2.7-.6-1.54-2.17-.02-2.14-1.68.04-1.68 1.54-.06 2.2-1.58.67-1.53-1.5-1.6-.33-2.74 1.17-1.14 1.13 1.08 2.63.5 1.5-.6.04-2.22 1.64-2.18zm-7.7.87c-.97 0-1.77.8-1.77 1.82 0 1 .8 1.82 1.76 1.82 1 0 1.77-.82 1.77-1.83 0-1-.76-1.82-1.77-1.82zm7.53 1.65c-1.93 0-3.53 1.62-3.53 3.64 0 2 1.6 3.64 3.53 3.64 1.97 0 3.54-1.65 3.54-3.64 0-2.02-1.57-3.64-3.54-3.64z"
              stroke="#eee" stroke-width="0" fill="#fff"/>
        <path d="M590.07 461l.06.36.1.44.12.45.16.44.2.45.25.47.28.48.35.5.4.55.5.57.62.62.76.67.96.76 1.24.85 1.63.98 2.24 1.16 3.3 1.44 5.3 1.93 11.64 3.4 31.3 8.4 5.3 1.94.46.2"
              stroke="#ff7070" stroke-width="2" fill="none"/>
        <path d="M591.03 461l-2 .06L589 460h2z" fill="#ff7070"/>
        <path d="M667.64 497.8l-13.57-6.38 6.34-6.76z" stroke="#ff7070" stroke-width="2" fill="#ff7070"/>
        <path d="M749.93 461l-.06.36-.1.44-.12.45-.16.44-.2.45-.25.47-.28.48-.35.5-.4.55-.5.57-.62.62-.76.67-.96.76-1.24.85-1.63.98-2.24 1.16-3.3 1.44-5.3 1.93-11.64 3.4-31.3 8.4-5.3 1.94-.46.2"
              stroke="#ff7070" stroke-width="2" fill="none"/>
        <path d="M750.97 461.06l-2-.07.03-1h2z" fill="#ff7070"/>
        <path d="M672.36 497.8l7.23-13.14 6.33 6.76z" stroke="#ff7070" stroke-width="2" fill="#ff7070"/>
        <path d="M949.83 501.58c-.57.06-1.02.17-1.48.4l-19.72 9.72c-1.08.5-1.82 1.42-2.05 2.6l-4.9 21.9c-.2 1.02-.04 2.04.53 2.95.06.1.12.17.23.3l13.64 17.5c.74.96 1.77 1.47 2.96 1.47h21.94c1.2 0 2.22-.5 2.95-1.48l13.65-17.5c.73-.97 1.02-2.1.73-3.3l-4.88-21.83c-.23-1.18-.97-2.1-2.05-2.6l-19.72-9.72c-.63-.28-1.2-.45-1.82-.4z"
              stroke="#000" stroke-opacity="0" stroke-width="0" fill="#326ce5"/>
        <path d="M949.82 500c-.6.06-1.08.18-1.56.42l-20.82 10.26c-1.14.54-1.92 1.5-2.16 2.76l-5.16 23.1c-.24 1.08-.06 2.16.54 3.12.06.12.12.18.24.3l14.4 18.48c.78 1.02 1.86 1.56 3.12 1.56h23.16c1.26 0 2.34-.54 3.12-1.56l14.4-18.48c.78-1.02 1.08-2.22.78-3.42l-5.16-23.1c-.24-1.26-1.02-2.22-2.16-2.76l-20.82-10.26c-.66-.3-1.26-.48-1.92-.42zm0 1.56c.66 0 1.2.12 1.8.42l19.8 9.72c1.02.54 1.74 1.44 2.04 2.64l4.86 21.84c.24 1.2 0 2.28-.72 3.24l-13.68 17.52c-.72.96-1.74 1.5-2.94 1.5h-21.96c-1.2 0-2.22-.54-2.94-1.5l-13.68-17.52c-.06-.06-.12-.18-.18-.3-.6-.9-.78-1.86-.54-2.94l4.86-21.84c.3-1.2.96-2.1 2.04-2.64l19.8-9.72c.48-.24.9-.36 1.44-.42z"
              stroke="#000" stroke-opacity="0" stroke-width="0" fill="#fff"/>
        <path d="M949.93 513.15c-.46 0-13.27 6.47-13.44 6.8-.4.82-3.34 14.7-3.17 15 .1.17 2.2 2.94 4.67 6.1l4.5 5.8h14.77l4.7-6.07 4.7-6.03-1.63-7.45c-.9-4.07-1.73-7.5-1.8-7.58-.23-.23-13.04-6.57-13.3-6.57zm.67 3.24l3 .9-3 .9-3.03-.9zm-3.03 1.27l2.83.84v4.1l-2.83-1.63zm6.03 0v3.3l-2.8 1.62v-4.1zm-7.3 5.52l3.03.9-3.03.88-3-.88zm7.37 0l3 .9-3 .88-3.04-.88zm-10.37 1.24l2.8.88v4.04l-2.8-1.62zm6.03 0v3.3l-2.83 1.62v-4.04zm1.3 0l2.84.88-.04 4.04-2.8-1.62zm6.04 0v3.3l-2.8 1.62-.04-4.04zm-11.47 5.2c.9.02.2.97 1.23 1.47 1.1.52 1.3-.8 2 .2.67 1.03-.6.8-.53 2.04.1 1.2 1.37.74.83 1.88-.53 1.12-.93-.17-1.93.54-1 .7 0 1.6-1.2 1.7-1.2.1-.34-.96-1.44-1.5-1.06-.53-1.3.8-2-.2-.66-1.04.64-.77.54-2.02-.1-1.2-1.34-.77-.84-1.9.54-1.1.97.18 1.97-.53.97-.7-.03-1.57 1.17-1.67h.2zm7.77 1.24c1.6.03.06 1.58 1.53 2.3 1.47.66 1.54-1.6 2.64-.38 1.1 1.2-1.07 1.18-.47 2.73.57 1.55 2.17.03 2.1 1.68-.03 1.66-1.53.05-2.2 1.56-.67 1.52 1.5 1.62.33 2.76-1.16 1.12-1.13-1.1-2.63-.5-1.5.57-.03 2.22-1.64 2.2-1.6-.08-.03-1.63-1.5-2.3-1.46-.68-1.56 1.55-2.66.33-1.1-1.17 1.06-1.14.5-2.7-.6-1.54-2.17-.02-2.14-1.68.04-1.68 1.54-.06 2.2-1.58.67-1.53-1.5-1.6-.33-2.74 1.17-1.14 1.13 1.08 2.63.5 1.5-.6.04-2.22 1.64-2.18zm-7.7.87c-.97 0-1.77.8-1.77 1.82 0 1 .8 1.82 1.76 1.82 1 0 1.77-.82 1.77-1.83 0-1-.76-1.82-1.77-1.82zm7.53 1.65c-1.93 0-3.53 1.62-3.53 3.64 0 2 1.6 3.64 3.53 3.64 1.97 0 3.54-1.65 3.54-3.64 0-2.02-1.57-3.64-3.54-3.64z"
              stroke="#eee" stroke-width="0" fill="#fff"/>
        <path d="M950 461v20.5" stroke="#ff7070" stroke-width="2" fill="none"/>
        <path d="M951 461.03h-2V460h2z" fill="#ff7070"/>
        <path d="M950 496.78l-4.64-14.27h9.28z" stroke="#ff7070" stroke-width="2" fill="#ff7070"/>
        <path d="M80 88c0-4.42 3.58-8 8-8h144c4.42 0 8 3.58 8 8v84c0 4.42-3.58 8-8 8H88c-4.42 0-8-3.58-8-8z" fill="#fff"
              fill-opacity="0"/>
        <use xlink:href="#g" transform="matrix(1,0,0,1,85,85) translate(98.50200000000001 50.9625)"/>
        <path d="M80 188c0-4.42 3.58-8 8-8h144c4.42 0 8 3.58 8 8v84c0 4.42-3.58 8-8 8H88c-4.42 0-8-3.58-8-8z"
              fill="#fff" fill-opacity="0"/>
        <use xlink:href="#h" transform="matrix(1,0,0,1,85,185) translate(37.80600000000001 50.9625)"/>
        <use xlink:href="#i" transform="matrix(1,0,0,1,85,185) translate(103.164 50.9625)"/>
        <path d="M80 488c0-4.42 3.58-8 8-8h144c4.42 0 8 3.58 8 8v84c0 4.42-3.58 8-8 8H88c-4.42 0-8-3.58-8-8z"
              fill="#fff" fill-opacity="0"/>
        <use xlink:href="#j" transform="matrix(1,0,0,1,85,485) translate(27.456000000000017 50.9625)"/>
        <use xlink:href="#k" transform="matrix(1,0,0,1,85,485) translate(89.79000000000002 50.9625)"/>
        <path d="M80 288c0-4.42 3.58-8 8-8h144c4.42 0 8 3.58 8 8v84c0 4.42-3.58 8-8 8H88c-4.42 0-8-3.58-8-8z"
              fill="#fff" fill-opacity="0"/>
        <use xlink:href="#l" transform="matrix(1,0,0,1,85,285) translate(3.5880000000000223 39.7125)"/>
        <use xlink:href="#m" transform="matrix(1,0,0,1,85,285) translate(89.79000000000002 39.7125)"/>
        <use xlink:href="#n" transform="matrix(1,0,0,1,85,285) translate(40.902000000000015 59.0445)"/>
        <use xlink:href="#o" transform="matrix(1,0,0,1,85,285) translate(56.094000000000015 59.0445)"/>
        <path d="M80 388c0-4.42 3.58-8 8-8h144c4.42 0 8 3.58 8 8v84c0 4.42-3.58 8-8 8H88c-4.42 0-8-3.58-8-8z"
              fill="#fff" fill-opacity="0"/>
        <use xlink:href="#p" transform="matrix(1,0,0,1,85,385) translate(2.724000000000018 50.9625)"/>
        <use xlink:href="#i" transform="matrix(1,0,0,1,85,385) translate(103.16400000000002 50.9625)"/>
        <path d="M309.83 101.58c-.57.06-1.02.17-1.48.4l-19.72 9.72c-1.08.5-1.82 1.42-2.05 2.6l-4.9 21.9c-.2 1.02-.04 2.04.53 2.95.06.1.12.17.23.3l13.64 17.5c.74.96 1.77 1.47 2.96 1.47h21.94c1.2 0 2.22-.5 2.95-1.48l13.65-17.5c.73-.97 1.02-2.1.73-3.3l-4.88-21.83c-.23-1.18-.97-2.1-2.05-2.6l-19.72-9.72c-.63-.28-1.2-.45-1.82-.4z"
              stroke="#000" stroke-opacity="0" stroke-width="0" fill="#326ce5"/>
        <path d="M309.82 100c-.6.06-1.08.18-1.56.42l-20.82 10.26c-1.14.54-1.92 1.5-2.16 2.76l-5.16 23.1c-.24 1.08-.06 2.16.54 3.12.06.12.12.18.24.3l14.4 18.48c.78 1.02 1.86 1.56 3.12 1.56h23.16c1.26 0 2.34-.54 3.12-1.56l14.4-18.48c.78-1.02 1.08-2.22.78-3.42l-5.16-23.1c-.24-1.26-1.02-2.22-2.16-2.76l-20.82-10.26c-.66-.3-1.26-.48-1.92-.42zm0 1.56c.66 0 1.2.12 1.8.42l19.8 9.72c1.02.54 1.74 1.44 2.04 2.64l4.86 21.84c.24 1.2 0 2.28-.72 3.24l-13.68 17.52c-.72.96-1.74 1.5-2.94 1.5h-21.96c-1.2 0-2.22-.54-2.94-1.5l-13.68-17.52c-.06-.06-.12-.18-.18-.3-.6-.9-.78-1.86-.54-2.94l4.86-21.84c.3-1.2.96-2.1 2.04-2.64l19.8-9.72c.48-.24.9-.36 1.44-.42z"
              stroke="#000" stroke-opacity="0" stroke-width="0" fill="#fff"/>
        <path d="M295.85 137h7.33v7.36h-7.33V137zM306.34 137h7.32v7.36h-7.32V137zM316.82 137h7.33v7.36h-7.33V137zM316.82 126.2h7.33v7.36h-7.33v-7.35zM306.37 126.33h7.33v7.34h-7.33v-7.34zM295.92 126.33h7.33v7.34h-7.33v-7.34zM316.82 115.64h7.33V123h-7.33v-7.36z"
              stroke="#000" stroke-opacity="0" stroke-width="2.67" fill="#fff"/>
        <path d="M389.83 101.58c-.57.06-1.02.17-1.48.4l-19.72 9.72c-1.08.5-1.82 1.42-2.05 2.6l-4.9 21.9c-.2 1.02-.04 2.04.53 2.95.06.1.12.17.23.3l13.64 17.5c.74.96 1.77 1.47 2.96 1.47h21.94c1.2 0 2.22-.5 2.95-1.48l13.65-17.5c.73-.97 1.02-2.1.73-3.3l-4.88-21.83c-.23-1.18-.97-2.1-2.05-2.6l-19.72-9.72c-.63-.28-1.2-.45-1.82-.4z"
              stroke="#000" stroke-opacity="0" stroke-width="0" fill="#326ce5"/>
        <path d="M389.82 100c-.6.06-1.08.18-1.56.42l-20.82 10.26c-1.14.54-1.92 1.5-2.16 2.76l-5.16 23.1c-.24 1.08-.06 2.16.54 3.12.06.12.12.18.24.3l14.4 18.48c.78 1.02 1.86 1.56 3.12 1.56h23.16c1.26 0 2.34-.54 3.12-1.56l14.4-18.48c.78-1.02 1.08-2.22.78-3.42l-5.16-23.1c-.24-1.26-1.02-2.22-2.16-2.76l-20.82-10.26c-.66-.3-1.26-.48-1.92-.42zm0 1.56c.66 0 1.2.12 1.8.42l19.8 9.72c1.02.54 1.74 1.44 2.04 2.64l4.86 21.84c.24 1.2 0 2.28-.72 3.24l-13.68 17.52c-.72.96-1.74 1.5-2.94 1.5h-21.96c-1.2 0-2.22-.54-2.94-1.5l-13.68-17.52c-.06-.06-.12-.18-.18-.3-.6-.9-.78-1.86-.54-2.94l4.86-21.84c.3-1.2.96-2.1 2.04-2.64l19.8-9.72c.48-.24.9-.36 1.44-.42z"
              stroke="#000" stroke-opacity="0" stroke-width="0" fill="#fff"/>
        <path d="M375.85 137h7.33v7.36h-7.33V137zM386.34 137h7.32v7.36h-7.32V137zM396.82 137h7.33v7.36h-7.33V137zM396.82 126.2h7.33v7.36h-7.33v-7.35zM386.37 126.33h7.33v7.34h-7.33v-7.34zM375.92 126.33h7.33v7.34h-7.33v-7.34zM396.82 115.64h7.33V123h-7.33v-7.36z"
              stroke="#000" stroke-opacity="0" stroke-width="2.67" fill="#fff"/>
        <path d="M469.83 101.58c-.57.06-1.02.17-1.48.4l-19.72 9.72c-1.08.5-1.82 1.42-2.05 2.6l-4.9 21.9c-.2 1.02-.04 2.04.53 2.95.06.1.12.17.23.3l13.64 17.5c.74.96 1.77 1.47 2.96 1.47h21.94c1.2 0 2.22-.5 2.95-1.48l13.65-17.5c.73-.97 1.02-2.1.73-3.3l-4.88-21.83c-.23-1.18-.97-2.1-2.05-2.6l-19.72-9.72c-.63-.28-1.2-.45-1.82-.4z"
              stroke="#000" stroke-opacity="0" stroke-width="0" fill="#326ce5"/>
        <path d="M469.82 100c-.6.06-1.08.18-1.56.42l-20.82 10.26c-1.14.54-1.92 1.5-2.16 2.76l-5.16 23.1c-.24 1.08-.06 2.16.54 3.12.06.12.12.18.24.3l14.4 18.48c.78 1.02 1.86 1.56 3.12 1.56h23.16c1.26 0 2.34-.54 3.12-1.56l14.4-18.48c.78-1.02 1.08-2.22.78-3.42l-5.16-23.1c-.24-1.26-1.02-2.22-2.16-2.76l-20.82-10.26c-.66-.3-1.26-.48-1.92-.42zm0 1.56c.66 0 1.2.12 1.8.42l19.8 9.72c1.02.54 1.74 1.44 2.04 2.64l4.86 21.84c.24 1.2 0 2.28-.72 3.24l-13.68 17.52c-.72.96-1.74 1.5-2.94 1.5h-21.96c-1.2 0-2.22-.54-2.94-1.5l-13.68-17.52c-.06-.06-.12-.18-.18-.3-.6-.9-.78-1.86-.54-2.94l4.86-21.84c.3-1.2.96-2.1 2.04-2.64l19.8-9.72c.48-.24.9-.36 1.44-.42z"
              stroke="#000" stroke-opacity="0" stroke-width="0" fill="#fff"/>
        <path d="M455.85 137h7.33v7.36h-7.33V137zM466.34 137h7.32v7.36h-7.32V137zM476.82 137h7.33v7.36h-7.33V137zM476.82 126.2h7.33v7.36h-7.33v-7.35zM466.37 126.33h7.33v7.34h-7.33v-7.34zM455.92 126.33h7.33v7.34h-7.33v-7.34zM476.82 115.64h7.33V123h-7.33v-7.36z"
              stroke="#000" stroke-opacity="0" stroke-width="2.67" fill="#fff"/>
        <path d="M309.83 201.58c-.57.06-1.02.17-1.48.4l-19.72 9.72c-1.08.5-1.82 1.42-2.05 2.6l-4.9 21.9c-.2 1.02-.04 2.04.53 2.95.06.1.12.17.23.3l13.64 17.5c.74.96 1.77 1.47 2.96 1.47h21.94c1.2 0 2.22-.5 2.95-1.48l13.65-17.5c.73-.97 1.02-2.1.73-3.3l-4.88-21.83c-.23-1.18-.97-2.1-2.05-2.6l-19.72-9.72c-.63-.28-1.2-.45-1.82-.4z"
              stroke="#000" stroke-opacity="0" stroke-width="0" fill="#326ce5"/>
        <path d="M309.82 200c-.6.06-1.08.18-1.56.42l-20.82 10.26c-1.14.54-1.92 1.5-2.16 2.76l-5.16 23.1c-.24 1.08-.06 2.16.54 3.12.06.12.12.18.24.3l14.4 18.48c.78 1.02 1.86 1.56 3.12 1.56h23.16c1.26 0 2.34-.54 3.12-1.56l14.4-18.48c.78-1.02 1.08-2.22.78-3.42l-5.16-23.1c-.24-1.26-1.02-2.22-2.16-2.76l-20.82-10.26c-.66-.3-1.26-.48-1.92-.42zm0 1.56c.66 0 1.2.12 1.8.42l19.8 9.72c1.02.54 1.74 1.44 2.04 2.64l4.86 21.84c.24 1.2 0 2.28-.72 3.24l-13.68 17.52c-.72.96-1.74 1.5-2.94 1.5h-21.96c-1.2 0-2.22-.54-2.94-1.5l-13.68-17.52c-.06-.06-.12-.18-.18-.3-.6-.9-.78-1.86-.54-2.94l4.86-21.84c.3-1.2.96-2.1 2.04-2.64l19.8-9.72c.48-.24.9-.36 1.44-.42z"
              stroke="#000" stroke-opacity="0" stroke-width="0" fill="#fff"/>
        <path d="M297.96 221.3l12.04-3.6 12.04 3.6-12.04 3.6zM297.96 222.68v13.2l11.22 6.42.05-16.17zM322.04 222.68v13.2l-11.22 6.42-.05-16.17z"
              stroke="#000" stroke-opacity="0" fill="#fff"/>
        <path d="M589.83 401.58c-.57.06-1.02.17-1.48.4l-19.72 9.72c-1.08.5-1.82 1.42-2.05 2.6l-4.9 21.9c-.2 1.02-.04 2.04.53 2.95.06.1.12.17.23.3l13.64 17.5c.74.96 1.77 1.47 2.96 1.47h21.94c1.2 0 2.22-.5 2.95-1.48l13.65-17.5c.73-.97 1.02-2.1.73-3.3l-4.88-21.83c-.23-1.18-.97-2.1-2.05-2.6l-19.72-9.72c-.63-.28-1.2-.45-1.82-.4z"
              stroke="#000" stroke-opacity="0" stroke-width="0" fill="#326ce5"/>
        <path d="M589.82 400c-.6.06-1.08.18-1.56.42l-20.82 10.26c-1.14.54-1.92 1.5-2.16 2.76l-5.16 23.1c-.24 1.08-.06 2.16.54 3.12.06.12.12.18.24.3l14.4 18.48c.78 1.02 1.86 1.56 3.12 1.56h23.16c1.26 0 2.34-.54 3.12-1.56l14.4-18.48c.78-1.02 1.08-2.22.78-3.42l-5.16-23.1c-.24-1.26-1.02-2.22-2.16-2.76l-20.82-10.26c-.66-.3-1.26-.48-1.92-.42zm0 1.56c.66 0 1.2.12 1.8.42l19.8 9.72c1.02.54 1.74 1.44 2.04 2.64l4.86 21.84c.24 1.2 0 2.28-.72 3.24l-13.68 17.52c-.72.96-1.74 1.5-2.94 1.5h-21.96c-1.2 0-2.22-.54-2.94-1.5l-13.68-17.52c-.06-.06-.12-.18-.18-.3-.6-.9-.78-1.86-.54-2.94l4.86-21.84c.3-1.2.96-2.1 2.04-2.64l19.8-9.72c.48-.24.9-.36 1.44-.42z"
              stroke="#000" stroke-opacity="0" stroke-width="0" fill="#fff"/>
        <path d="M577.96 421.3l12.04-3.6 12.04 3.6-12.04 3.6zM577.96 422.68v13.2l11.22 6.42.05-16.17zM602.04 422.68v13.2l-11.22 6.42-.05-16.17z"
              stroke="#000" stroke-opacity="0" fill="#fff"/>
        <path d="M949.83 401.58c-.57.06-1.02.17-1.48.4l-19.72 9.72c-1.08.5-1.82 1.42-2.05 2.6l-4.9 21.9c-.2 1.02-.04 2.04.53 2.95.06.1.12.17.23.3l13.64 17.5c.74.96 1.77 1.47 2.96 1.47h21.94c1.2 0 2.22-.5 2.95-1.48l13.65-17.5c.73-.97 1.02-2.1.73-3.3l-4.88-21.83c-.23-1.18-.97-2.1-2.05-2.6l-19.72-9.72c-.63-.28-1.2-.45-1.82-.4z"
              stroke="#000" stroke-opacity="0" stroke-width="0" fill="#326ce5"/>
        <path d="M949.82 400c-.6.06-1.08.18-1.56.42l-20.82 10.26c-1.14.54-1.92 1.5-2.16 2.76l-5.16 23.1c-.24 1.08-.06 2.16.54 3.12.06.12.12.18.24.3l14.4 18.48c.78 1.02 1.86 1.56 3.12 1.56h23.16c1.26 0 2.34-.54 3.12-1.56l14.4-18.48c.78-1.02 1.08-2.22.78-3.42l-5.16-23.1c-.24-1.26-1.02-2.22-2.16-2.76l-20.82-10.26c-.66-.3-1.26-.48-1.92-.42zm0 1.56c.66 0 1.2.12 1.8.42l19.8 9.72c1.02.54 1.74 1.44 2.04 2.64l4.86 21.84c.24 1.2 0 2.28-.72 3.24l-13.68 17.52c-.72.96-1.74 1.5-2.94 1.5h-21.96c-1.2 0-2.22-.54-2.94-1.5l-13.68-17.52c-.06-.06-.12-.18-.18-.3-.6-.9-.78-1.86-.54-2.94l4.86-21.84c.3-1.2.96-2.1 2.04-2.64l19.8-9.72c.48-.24.9-.36 1.44-.42z"
              stroke="#000" stroke-opacity="0" stroke-width="0" fill="#fff"/>
        <path d="M937.96 421.3l12.04-3.6 12.04 3.6-12.04 3.6zM937.96 422.68v13.2l11.22 6.42.05-16.17zM962.04 422.68v13.2l-11.22 6.42-.05-16.17z"
              stroke="#000" stroke-opacity="0" fill="#fff"/>
        <path d="M261 641.6h80.5M261.03 641.6H260" stroke="#979ea8" stroke-width="2" fill="none"/>
        <path d="M356.76 641.6l-14.26 4.64v-9.28z" stroke="#979ea8" stroke-width="2" fill="#979ea8"/>
        <path d="M360 629.6c0-4.42 3.58-8 8-8h104c4.42 0 8 3.58 8 8v24c0 4.42-3.58 8-8 8H368c-4.42 0-8-3.58-8-8z"
              fill="#fff" fill-opacity="0"/>
        <g>
            <use xlink:href="#q" transform="matrix(1,0,0,1,364.9999999775004,626.5999999999999) translate(0 20.025)"/>
        </g>
        <path d="M261 681.6h80.5M261.03 681.6H260" stroke="#ff7070" stroke-width="2" fill="none"/>
        <path d="M356.76 681.6l-14.26 4.64v-9.28z" stroke="#ff7070" stroke-width="2" fill="#ff7070"/>
        <path d="M360 669.6c0-4.42 3.58-8 8-8h104c4.42 0 8 3.58 8 8v24c0 4.42-3.58 8-8 8H368c-4.42 0-8-3.58-8-8z"
              fill="#fff" fill-opacity="0"/>
        <g>
            <use xlink:href="#r" transform="matrix(1,0,0,1,364.9999999775004,666.5999999999999) translate(0 20.025)"/>
            <use xlink:href="#s"
                 transform="matrix(1,0,0,1,364.9999999775004,666.5999999999999) translate(66.438 20.025)"/>
        </g>
        <defs>
            <path fill="#fff"
                  d="M590-683c0-95-64-132-148-103-62 21-113 58-161 92-97 69-165 165-223 275C-45-222 51 11 277-12c154-16 257-81 343-160 63-58 100-126 109-243 12-155-158-93-246-67-61 18-178 69-168 115-2 30 28 68 54 64 69-10 133-52 201-67 9-2 20 9 20 17 0 11-18 38-57 79-85 91-188 136-306 136-55 0-99-68-99-127 0-30 16-69 37-123 25-64 237-288 318-281 25-8 66 40 79 44 19 0 28-19 28-58"
                  id="t"/>
            <path fill="#fff"
                  d="M21-302C-7-136 9 24 196-12c147-28 263-93 386-142 57-23 26-120-26-120-111 32-240 115-378 126-13 1-22-26-25-45 30-174 59-350 88-524 10-62-86-124-120-61-39 73-49 196-69 277-19 77-22 145-31 199"
                  id="u"/>
            <path fill="#fff"
                  d="M44-443c79-191 208-366 448-366 141 0 239 118 267 253 46 222-61 413-213 490-83 42-221 78-338 30-55-23-106-43-129-82-26-14-80-140-57-202 2-41 8-89 22-123zm103 115c1 136 75 191 208 191 130 0 180-50 241-135 38-53 55-111 55-169 0-109-73-236-179-227-143 12-260 151-311 271-9 24-14 47-14 69"
                  id="v"/>
            <path fill="#fff"
                  d="M68-174c-8-157-1-333-1-488 0-23-21-28-12-60 24-87 141-85 256-77 161 12 317 42 251 258-5 17-40 45-44 60 15 30 85 80 98 123 62 108 25 192-76 258C455-45 341-9 207-4 145-2 19-30 19-85c0-36 51-41 49-89zm137-510c-18 6-26 137-16 192 30 22 66 2 112-6 70-13 158-95 159-132 17-68-169-82-255-54zm-15 330c-15 57-2 155 5 215 6 4 6 12 18 11 101-5 211-32 267-82 52-46 58-91 12-140s-73-73-81-73c-39 14-121 48-173 54-15 2-34 14-48 15"
                  id="w"/>
            <path fill="#fff"
                  d="M103-24C79 10-2-14 8-59c42-186 129-353 193-524 23-62 63-135 99-197 39-38 106-10 109 47 27 100 51 209 81 307 8 25 72 24 72 63 0 44-26 46-37 75 12 83 46 156 55 243 7 63-106 47-114 11-13-58-36-170-57-231-3-4-7-8-9-14-69 4-134 40-198 52-53 21-53 108-81 160-4 16-8 29-18 43zm215-551c-16 18-92 195-73 208 46 2 100-12 123-31-5-30-32-162-38-171-2-3-6-5-12-6"
                  id="x"/>
            <g id="a">
                <use transform="matrix(0.018,0,0,0.018,0,0)" xlink:href="#t"/>
                <use transform="matrix(0.018,0,0,0.018,13.68,0)" xlink:href="#u"/>
                <use transform="matrix(0.018,0,0,0.018,24.749999999999996,0)" xlink:href="#v"/>
                <use transform="matrix(0.018,0,0,0.018,39.20399999999999,0)" xlink:href="#w"/>
                <use transform="matrix(0.018,0,0,0.018,50.778,0)" xlink:href="#x"/>
                <use transform="matrix(0.018,0,0,0.018,61.343999999999994,0)" xlink:href="#u"/>
            </g>
            <path fill="#fff"
                  d="M593-790c58 0 99 54 77 117-5 13-15 16-35 14-70-7-152-3-229 7-31 20-24 81-26 127-4 138-16 277-16 422 0 32 4 70-21 83-26 36-88 7-103-20 1-182 10-346 21-521 2-27 11-81-18-84-73-7-138 11-206 3-20-18-39-18-32-51-3-78 74-91 145-91 129 0 251 6 369-8 25-3 49 2 74 2"
                  id="y"/>
            <path fill="#fff"
                  d="M521-275c40-33 108-24 108 34 0 49-75 103-210 183-80 47-247 72-323 10-66-54-95-101-82-218 12-106 41-136 91-224 55-96 145-209 240-278 32-23 68-33 107-33 86 2 108 61 107 158 0 55-15 82-44 82-55 1-25-116-79-110-132 15-229 223-291 334-48 86-31 226 81 218 122-9 217-92 295-156"
                  id="z"/>
            <path fill="#fff"
                  d="M107-780c100 15 51 176 51 272 0 29 23 25 56 24 33-11 175 4 171-42 9-67 4-153 14-224 12-14 39-57 70-50 51 0 74 34 69 103L490-47c-6 28-25 57-57 56-118-5-54-182-54-299 0-34 3-75-15-85-65 6-127 12-191 19-52 29-23 162-29 239C135-7 87 19 22-30 10-48 7-67 13-88c-16-100 8-215 8-322 0-127-9-364 86-370"
                  id="A"/>
            <g id="b">
                <use transform="matrix(0.018,0,0,0.018,0,0)" xlink:href="#w"/>
                <use transform="matrix(0.018,0,0,0.018,11.574,0)" xlink:href="#x"/>
                <use transform="matrix(0.018,0,0,0.018,22.140000000000004,0)" xlink:href="#y"/>
                <use transform="matrix(0.018,0,0,0.018,35.082,0)" xlink:href="#z"/>
                <use transform="matrix(0.018,0,0,0.018,46.494,0)" xlink:href="#A"/>
            </g>
            <path fill="#fff"
                  d="M106-737c41-53 131 12 108 86-42 139-71 285-71 455 0 88 72 66 143 48 49-12 128-35 183-63 38-19 36-69 44-119 17-114 31-247 31-354 0-57 26-85 79-85 37 0 55 27 55 81 0 190-34 397-59 573 4 31 20 93-13 105-8 10-30 7-65-8-16-20-33-38-51-54C397-48 305 0 205 0 79 0 5-43 13-176c13-196 50-391 93-561"
                  id="B"/>
            <path fill="#fff"
                  d="M371-533c189 0 256 55 239 237-9 91-67 138-157 205C374-33 301-7 236-7 155-7 13-82 18-160c3-44 62-73 96-38 43 44 152 73 218 29 77-51 166-125 156-169 2-44-67-63-119-62-47 1-108 1-155 3C87-393 13-429 1-531c11-87 101-150 165-187 90-52 160-96 290-87 34 2 118 78 115 115-3 35-23 38-55 45-15 4-26-4-33-24-37-64-116-1-164 12-41 11-154 77-154 113 0 15 14 22 41 22 45 0 127-11 165-11"
                  id="C"/>
            <path fill="#fff"
                  d="M330-158c82-22 193-18 286-31 38 11 58 81 24 113-25 24-71 25-116 25-135 0-238 34-358 47C61 7 4-52 15-159c12-113 37-213 32-340-2-59 2-121-2-178-2-44 35-62 81-61 104-31 222-52 345-64 68-7 103 34 111 94 2 12-3 22-9 31-33 14-62 15-103 16-100 2-196 10-270 40h-8c-18 23-11 79-15 106-1 13 5 22 16 25 82-10 176-25 264-12 44 7 78 26 71 72-7 49-76 30-125 30-78 0-138 22-210 29-24 1-35 28-36 52-2 41-10 83-8 126-19 84 122 51 181 35"
                  id="D"/>
            <path fill="#fff"
                  d="M608-642l-20 77c-36 56-69 94-113 138-49 48-58 40-29 81 33 46 69 89 97 147 44 89 52 141 40 147-3 38-20 49-63 52-68 5-97-106-129-160-40-68-56-162-144-164-53-1-27 78-45 121-7 56-12 123-28 170C157-4 113 24 66-1 46-11 40-39 49-87c19-111 19-139 19-313 0-144 1-187-40-242-27-37-13-94 26-108 103-36 250-59 389-41 63 8 182 85 165 149zm-140 11c-10-39-42-58-96-57-53 12-154 21-179 43-5 9-8 31-8 65 0 151 19 135 127 94 94-36 148-79 156-145"
                  id="E"/>
            <g id="c">
                <use transform="matrix(0.018,0,0,0.018,0,0)" xlink:href="#z"/>
                <use transform="matrix(0.018,0,0,0.018,11.411999999999999,0)" xlink:href="#u"/>
                <use transform="matrix(0.018,0,0,0.018,22.482,0)" xlink:href="#B"/>
                <use transform="matrix(0.018,0,0,0.018,35.135999999999996,0)" xlink:href="#C"/>
                <use transform="matrix(0.018,0,0,0.018,46.494,0)" xlink:href="#y"/>
                <use transform="matrix(0.018,0,0,0.018,59.43599999999999,0)" xlink:href="#D"/>
                <use transform="matrix(0.018,0,0,0.018,71.42399999999999,0)" xlink:href="#E"/>
            </g>
            <path fill="#fff"
                  d="M290-540c44-9 50-55 22-99-24-37-35-128-35-168 0-51-85-47-94-6-4 21-6 39-6 53-3 62 52 233 113 220zm-165 31c52 3 45-76 21-109-29-40-38-106-47-161-28-49-103-18-87 51 19 80 23 156 71 197 16 14 29 22 42 22"
                  id="F"/>
            <path fill="#fff"
                  d="M330-158c82-22 193-18 286-31 38 11 58 81 24 113-25 24-71 25-116 25-135 0-238 34-358 47C61 7 4-52 15-159c12-113 37-213 32-340-2-59 2-121-2-178-2-44 35-62 81-61 104-31 222-52 345-64 68-7 103 34 111 94 2 12-3 22-9 31-33 14-62 15-103 16-100 2-196 10-270 40h-8c-18 23-11 79-15 106-1 13 5 22 16 25 82-10 176-25 264-12 44 7 78 26 71 72-7 49-76 30-125 30-78 0-138 22-210 29-24 1-35 28-36 52-2 41-10 83-8 126-19 84 122 51 181 35"
                  id="G"/>
            <path fill="#fff"
                  d="M109-754c29-56 120 5 113 55-24 164-73 311-76 498 0 44 17 66 52 66 44 0 193-39 283-82 16-8 27-24 32-45 27-114 44-316 44-439 0-57 27-86 82-86 38 0 57 27 57 82 0 195-35 406-61 587 5 33 20 94-14 106-8 12-30 10-67-7-15-20-33-39-52-56C437-54 255 2 210 0 80-5 5-44 13-182c11-186 48-366 83-531 3-12 5-27 13-41"
                  id="H"/>
            <g id="d">
                <use transform="matrix(0.018,0,0,0.018,0,0)" xlink:href="#F"/>
                <use transform="matrix(0.018,0,0,0.018,6.461999999999999,0)" xlink:href="#G"/>
                <use transform="matrix(0.018,0,0,0.018,18.45,0)" xlink:href="#H"/>
                <use transform="matrix(0.018,0,0,0.018,31.734,0)" xlink:href="#F"/>
            </g>
            <path fill="#fff"
                  d="M371-533c189 0 256 55 239 237-9 91-67 138-157 205C374-33 301-7 236-7 155-7 13-82 18-160c3-44 62-73 96-38 43 44 152 73 218 29 77-51 166-125 156-169 2-44-67-63-119-62-47 1-108 1-155 3C87-393 13-429 1-531c11-87 101-150 165-187 90-52 160-96 290-87 34 2 118 78 115 115-3 35-23 38-55 45-15 4-26-4-33-24-37-64-116-1-164 12-41 11-154 77-154 113 0 15 14 22 41 22 45 0 127-11 165-11"
                  id="I"/>
            <g id="e">
                <use transform="matrix(0.018,0,0,0.018,0,0)" xlink:href="#F"/>
                <use transform="matrix(0.018,0,0,0.018,6.119999999999999,0)" xlink:href="#H"/>
                <use transform="matrix(0.018,0,0,0.018,18.81,0)" xlink:href="#I"/>
                <use transform="matrix(0.018,0,0,0.018,29.448,0)" xlink:href="#F"/>
            </g>
            <path fill="#fff"
                  d="M19-91c0-222 71-428 58-668-3-62 121-44 170-33 118 27 229 50 293 128 44 53 63 97 63 217 0 165-189 328-383 400-36 13-62 45-108 45-66 0-93-23-93-89zm185-582c-30 151-43 322-58 489 5 39 27 28 60 14 129-54 276-147 276-304 0-155-106-203-278-199"
                  id="J"/>
            <g id="f">
                <use transform="matrix(0.018,0,0,0.018,0,0)" xlink:href="#F"/>
                <use transform="matrix(0.018,0,0,0.018,6.119999999999999,0)" xlink:href="#z"/>
                <use transform="matrix(0.018,0,0,0.018,17.531999999999996,0)" xlink:href="#J"/>
                <use transform="matrix(0.018,0,0,0.018,28.403999999999996,0)" xlink:href="#F"/>
            </g>
            <path fill="#fff"
                  d="M742-672c19-13 30-35 30-67 0-41-39-62-118-62-161 0-276 4-410 26-79 13-122 26-127 95-2 29 32 48 63 46 68-5 152-26 232-25 25 0 43 8 53 24 14 24 44 187 44 247 1 132-5 244-138 237-110-6-195-73-255-135-23-23-47-33-70-33-25 0-44 36-44 66C2-167 240-39 316-18c118 33 253-12 284-102 27-78 38-148 38-271 0-87-29-162-29-256 0-42 93-35 133-25"
                  id="K"/>
            <g id="g">
                <use transform="matrix(0.018,0,0,0.018,0,0)" xlink:href="#K"/>
                <use transform="matrix(0.018,0,0,0.018,14.111999999999998,0)" xlink:href="#v"/>
                <use transform="matrix(0.018,0,0,0.018,28.565999999999995,0)" xlink:href="#w"/>
                <use transform="matrix(0.018,0,0,0.018,40.13999999999999,0)" xlink:href="#C"/>
            </g>
            <path fill="#fff"
                  d="M23-677c-68-88 127-122 212-122 113 0 253 24 291 82 92 144-48 310-153 365-52 27-102 48-161 69-56 20-53 15-58 80-4 49-8 103-13 153-3 31-19 46-43 46-44 0-65-28-63-81 5-162 8-330 16-486 3-53-4-75-28-106zm415 73c0-44-44-66-132-66-78 0-124 8-135 26-10 16-14 89-14 218 0 44 22 39 57 25 83-34 224-115 224-203"
                  id="L"/>
            <path fill="#fff"
                  d="M635-31c28-53 7-115-31-143-7-19-67-63-88-82-39-36-80-78-117-115 1-16 41-65 118-148l-10 11c30-36 53-67 85-95 54-48 78-89 78-117s-20-70-52-70c-36 0-116 78-245 230-22 26-38 59-67 71-30 12-85-104-102-151-13-36-72-158-75-157-34-47-96-35-89 35 8 88 69 162 101 236 14 20 74 122 77 140-20 61-139 209-182 265-18 23-24 44-24 60C11-36 45 1 69 0c45-2 96-97 124-134 67-89 109-132 124-131 48 2 103 85 141 115 20 16 39 33 56 52 49 58 88 82 121 67"
                  id="M"/>
            <path fill="#fff"
                  d="M192-85c-3 48 46 100 89 72 52-75 73-232 102-321 46-139 146-233 278-374 22-37 2-105-46-93-81 20-199 174-252 246-53 73-46 65-110 7-63-57-96-136-132-220-11-25-31-37-54-37-36-1-56 32-56 68 32 142 118 264 224 332 15 16 24 24 21 38"
                  id="N"/>
            <g id="h">
                <use transform="matrix(0.018,0,0,0.018,0,0)" xlink:href="#L"/>
                <use transform="matrix(0.018,0,0,0.018,10.152,0)" xlink:href="#E"/>
                <use transform="matrix(0.018,0,0,0.018,21.275999999999993,0)" xlink:href="#v"/>
                <use transform="matrix(0.018,0,0,0.018,35.73,0)" xlink:href="#M"/>
                <use transform="matrix(0.018,0,0,0.018,47.897999999999996,0)" xlink:href="#N"/>
            </g>
            <g id="i">
                <use transform="matrix(0.018,0,0,0.018,0,0)" xlink:href="#L"/>
                <use transform="matrix(0.018,0,0,0.018,10.152,0)" xlink:href="#v"/>
                <use transform="matrix(0.018,0,0,0.018,24.605999999999998,0)" xlink:href="#J"/>
                <use transform="matrix(0.018,0,0,0.018,35.477999999999994,0)" xlink:href="#C"/>
            </g>
            <g id="j">
                <use transform="matrix(0.018,0,0,0.018,0,0)" xlink:href="#F"/>
                <use transform="matrix(0.018,0,0,0.018,6.119999999999999,0)" xlink:href="#E"/>
                <use transform="matrix(0.018,0,0,0.018,17.244,0)" xlink:href="#D"/>
                <use transform="matrix(0.018,0,0,0.018,29.232,0)" xlink:href="#x"/>
                <use transform="matrix(0.018,0,0,0.018,39.798,0)" xlink:href="#u"/>
                <use transform="matrix(0.018,0,0,0.018,50.868,0)" xlink:href="#F"/>
            </g>
            <path fill="#fff"
                  d="M24-128c0-158-18-313-5-472 6-74-11-192 62-191 78 1 88 68 113 130 59 143 102 191 174 297 50 73 81 109 92 109 8 0 12-3 13-9 24-163 3-322-12-477-6-63 62-76 101-37 65 64 45 212 54 340 10 141 7 304-15 413-8 15-20 23-37 23-76 0-203-132-244-200-33-54-79-109-116-169l4 4c-9-20-41-55-54-51-14 102-5 244 6 344 3 30-15 69-41 68-9 0-28-1-56-3-44-28-39-45-39-119"
                  id="O"/>
            <g id="k">
                <use transform="matrix(0.018,0,0,0.018,0,0)" xlink:href="#O"/>
                <use transform="matrix(0.018,0,0,0.018,11.537999999999998,0)" xlink:href="#v"/>
                <use transform="matrix(0.018,0,0,0.018,25.991999999999997,0)" xlink:href="#J"/>
                <use transform="matrix(0.018,0,0,0.018,36.864,0)" xlink:href="#D"/>
                <use transform="matrix(0.018,0,0,0.018,48.852,0)" xlink:href="#C"/>
            </g>
            <path fill="#fff"
                  d="M109-735c-25-57-110-11-99 37 30 130 91 291 122 410 18 69 44 132 72 190 44 90 75 116 148 73 102-105 149-290 208-441 32-82 48-168 48-261 0-51-15-77-46-77-38 0-59 34-73 100-35 160-89 312-149 454-40 95-58 66-91-37-28-90-54-179-79-263-24-79-42-141-61-185"
                  id="P"/>
            <path fill="#fff"
                  d="M292-638c-67 2-113 14-176 21-81 9-112-68-58-103 132-46 304-52 470-66l65 5c50 52 43 111-50 111-45 0-75 15-112 18-18 16-19 83-24 152-7 108-21 214-33 322-5 46 36 20 67 20 54 0 81-10 139-16 43 25 50 62 23 110-151 29-311 50-490 79C58 24-8 22 3-44c14-83 161-45 224-90 22-16 24-69 29-107 17-126 33-258 36-397"
                  id="Q"/>
            <g id="l">
                <use transform="matrix(0.018,0,0,0.018,0,0)" xlink:href="#P"/>
                <use transform="matrix(0.018,0,0,0.018,11.069999999999999,0)" xlink:href="#Q"/>
                <use transform="matrix(0.018,0,0,0.018,22.5,0)" xlink:href="#E"/>
                <use transform="matrix(0.018,0,0,0.018,33.623999999999995,0)" xlink:href="#y"/>
                <use transform="matrix(0.018,0,0,0.018,46.565999999999995,0)" xlink:href="#B"/>
                <use transform="matrix(0.018,0,0,0.018,59.22,0)" xlink:href="#x"/>
                <use transform="matrix(0.018,0,0,0.018,69.786,0)" xlink:href="#u"/>
            </g>
            <path fill="#fff"
                  d="M24-128c0-158-18-313-5-472 6-74-11-192 62-191 78 1 88 68 113 130 59 143 102 191 174 297 50 73 81 109 92 109 8 0 12-3 13-9 24-163 3-322-12-477-6-63 62-76 101-37 65 64 45 212 54 340 10 141 7 304-15 413-8 15-20 23-37 23-76 0-203-132-244-200-33-54-79-109-116-169l4 4c-9-20-41-55-54-51-14 102-5 244 6 344 3 30-15 69-41 68-9 0-28-1-56-3-44-28-39-45-39-119"
                  id="R"/>
            <g id="m">
                <use transform="matrix(0.018,0,0,0.018,0,0)" xlink:href="#R"/>
                <use transform="matrix(0.018,0,0,0.018,11.537999999999998,0)" xlink:href="#v"/>
                <use transform="matrix(0.018,0,0,0.018,25.991999999999997,0)" xlink:href="#J"/>
                <use transform="matrix(0.018,0,0,0.018,36.864,0)" xlink:href="#D"/>
                <use transform="matrix(0.018,0,0,0.018,48.852,0)" xlink:href="#C"/>
            </g>
            <path fill="#fff"
                  d="M28-453c136-125 364 100 494-28v72c-142 117-361-94-494 25v-69zm0 206c136-125 361 97 494-28v72C380-84 175-303 28-178v-69"
                  id="S"/>
            <use transform="matrix(0.018,0,0,0.018,0,0)" xlink:href="#S" id="n"/>
            <g id="o">
                <use transform="matrix(0.018,0,0,0.018,0,0)" xlink:href="#z"/>
                <use transform="matrix(0.018,0,0,0.018,11.411999999999999,0)" xlink:href="#u"/>
                <use transform="matrix(0.018,0,0,0.018,22.482,0)" xlink:href="#B"/>
                <use transform="matrix(0.018,0,0,0.018,35.135999999999996,0)" xlink:href="#C"/>
                <use transform="matrix(0.018,0,0,0.018,46.494,0)" xlink:href="#y"/>
                <use transform="matrix(0.018,0,0,0.018,59.43599999999999,0)" xlink:href="#D"/>
                <use transform="matrix(0.018,0,0,0.018,71.42399999999999,0)" xlink:href="#E"/>
                <use transform="matrix(0.018,0,0,0.018,82.54799999999999,0)" xlink:href="#C"/>
            </g>
            <g id="p">
                <use transform="matrix(0.018,0,0,0.018,0,0)" xlink:href="#J"/>
                <use transform="matrix(0.018,0,0,0.018,10.872,0)" xlink:href="#D"/>
                <use transform="matrix(0.018,0,0,0.018,22.86,0)" xlink:href="#u"/>
                <use transform="matrix(0.018,0,0,0.018,33.93,0)" xlink:href="#D"/>
                <use transform="matrix(0.018,0,0,0.018,45.918,0)" xlink:href="#t"/>
                <use transform="matrix(0.018,0,0,0.018,59.598,0)" xlink:href="#x"/>
                <use transform="matrix(0.018,0,0,0.018,70.164,0)" xlink:href="#y"/>
                <use transform="matrix(0.018,0,0,0.018,83.106,0)" xlink:href="#D"/>
            </g>
            <g id="q">
                <use transform="matrix(0.018,0,0,0.018,0,0)" xlink:href="#z"/>
                <use transform="matrix(0.018,0,0,0.018,11.411999999999999,0)" xlink:href="#v"/>
                <use transform="matrix(0.018,0,0,0.018,25.866,0)" xlink:href="#O"/>
                <use transform="matrix(0.018,0,0,0.018,37.403999999999996,0)" xlink:href="#y"/>
                <use transform="matrix(0.018,0,0,0.018,50.346,0)" xlink:href="#E"/>
                <use transform="matrix(0.018,0,0,0.018,61.47,0)" xlink:href="#v"/>
                <use transform="matrix(0.018,0,0,0.018,75.92399999999999,0)" xlink:href="#u"/>
                <use transform="matrix(0.018,0,0,0.018,86.994,0)" xlink:href="#C"/>
            </g>
            <g id="r">
                <use transform="matrix(0.018,0,0,0.018,0,0)" xlink:href="#w"/>
                <use transform="matrix(0.018,0,0,0.018,11.574,0)" xlink:href="#v"/>
                <use transform="matrix(0.018,0,0,0.018,26.028,0)" xlink:href="#B"/>
                <use transform="matrix(0.018,0,0,0.018,38.682,0)" xlink:href="#O"/>
                <use transform="matrix(0.018,0,0,0.018,50.22,0)" xlink:href="#J"/>
            </g>
            <g id="s">
                <use transform="matrix(0.018,0,0,0.018,0,0)" xlink:href="#y"/>
                <use transform="matrix(0.018,0,0,0.018,12.941999999999998,0)" xlink:href="#v"/>
            </g>
        </defs>
    </g>
</svg>